<svg width="676" height="571" viewBox="0 0 676 571" fill="none" xmlns="http://www.w3.org/2000/svg">
<path d="M530.784 290.461C610.829 290.461 675.718 225.571 675.718 145.526C675.718 65.4815 610.829 0.592346 530.784 0.592346C450.739 0.592346 385.85 65.4815 385.85 145.526C385.85 225.571 450.739 290.461 530.784 290.461Z" fill="#E5F1FF"/>
<path d="M217.244 510.959C250.326 477.878 250.326 424.242 217.244 391.161C184.163 358.079 130.527 358.079 97.446 391.161C64.3647 424.242 64.3647 477.878 97.446 510.959C130.527 544.04 184.163 544.04 217.244 510.959Z" fill="#E5F1FF"/>
<path d="M156.22 48.9093C113.45 48.9093 78.7781 83.5824 78.7781 126.353C78.7781 169.124 113.451 203.797 156.22 203.797C198.991 203.797 233.664 169.124 233.664 126.353C233.663 83.5824 198.99 48.9093 156.22 48.9093ZM156.22 175.866C128.875 175.866 106.708 153.699 106.708 126.353C106.708 99.008 128.875 76.8406 156.22 76.8406C183.566 76.8406 205.733 99.008 205.733 126.353C205.733 153.699 183.564 175.866 156.22 175.866Z" fill="#A9CCEA"/>
<path d="M448.802 544.038C448.802 548.945 444.824 552.924 439.916 552.924H215.204C210.296 552.924 206.317 548.945 206.317 544.038C206.317 539.13 210.296 535.151 215.204 535.151H294.975L305.978 514.838H325.021H330.099H349.142L360.145 535.151H439.916C444.824 535.151 448.802 539.13 448.802 544.038Z" fill="#0F3157"/>
<path d="M344.114 496.43H307.297V507.221H344.114V496.43Z" fill="#FF4D6B"/>
<path d="M344.114 478.655H307.297V489.447H344.114V478.655Z" fill="#FF4D6B"/>
<path d="M618.844 442.136C612.44 444.595 605.486 445.941 598.217 445.941C566.42 445.941 540.642 420.165 540.642 388.366C540.642 356.567 566.418 330.791 598.217 330.791C630.014 330.791 655.79 356.567 655.79 388.366C655.79 396.886 653.939 404.974 650.619 412.249" stroke="#FF4D6B" stroke-width="1.1276" stroke-miterlimit="10" stroke-linecap="round" stroke-linejoin="round"/>
<path d="M456.279 118.07H447.087C445.178 109.903 441.966 102.24 437.665 95.3179L444.163 88.8194C446.965 86.0176 446.965 81.4747 444.163 78.673L429.724 64.2336C426.922 61.4319 422.379 61.4319 419.578 64.2336L413.079 70.7305C406.158 66.4291 398.496 63.2169 390.329 61.3103V52.1181C390.329 48.1561 387.117 44.944 383.155 44.944H362.735C358.773 44.944 355.561 48.1561 355.561 52.1181V61.3103C347.394 63.2169 339.732 66.4308 332.81 70.7305L326.311 64.2336C323.509 61.4319 318.966 61.4319 316.165 64.2336L301.727 78.673C298.925 81.4747 298.925 86.0176 301.727 88.8194L308.226 95.3179C303.924 102.239 300.712 109.901 298.804 118.07H289.611C285.649 118.07 282.437 121.282 282.437 125.244V145.663C282.437 149.625 285.649 152.837 289.611 152.837H298.804C300.71 161.004 303.924 168.667 308.224 175.589L301.727 182.088C298.925 184.889 298.925 189.432 301.727 192.234L316.165 206.673C318.966 209.475 323.509 209.475 326.311 206.673L332.81 200.176C339.73 204.478 347.393 207.69 355.561 209.598V218.791C355.561 222.752 358.773 225.965 362.735 225.965H383.155C387.117 225.965 390.329 222.752 390.329 218.791V209.598C398.496 207.69 406.158 204.478 413.081 200.176L419.579 206.673C422.381 209.475 426.924 209.475 429.726 206.673L444.165 192.234C446.967 189.432 446.967 184.889 444.165 182.088L437.666 175.589C441.968 168.668 445.18 161.006 447.088 152.837H456.281C460.242 152.837 463.455 149.625 463.455 145.663V125.244C463.453 121.28 460.241 118.07 456.279 118.07ZM372.946 171.877C352.831 171.877 336.523 155.57 336.523 135.453C336.523 115.337 352.831 99.0299 372.946 99.0299C393.061 99.0299 409.37 115.337 409.37 135.453C409.37 155.57 393.063 171.877 372.946 171.877Z" fill="#289DF2"/>
<path d="M74.6186 473.805C63.9233 473.805 55.253 465.134 55.253 454.438V151.358C55.253 140.661 63.9233 131.991 74.6203 131.991H580.501C591.197 131.991 599.869 140.661 599.869 151.356V454.436C599.869 465.131 591.198 473.803 580.501 473.803H74.6186V473.805Z" fill="#0F3775"/>
<path d="M151.142 174.278H94.9637V186.657H151.142V174.278Z" fill="#284D89"/>
<path d="M218.745 174.278H162.567V186.657H218.745V174.278Z" fill="#284D89"/>
<path d="M390.136 174.278H333.958V186.657H390.136V174.278Z" fill="#284D89"/>
<path d="M561.527 174.278H505.349V186.657H561.527V174.278Z" fill="#284D89"/>
<path d="M326.816 174.278H226.362V186.657H326.816V174.278Z" fill="#FF4D6B"/>
<path d="M497.255 174.278H396.8V186.657H497.255V174.278Z" fill="#2889DB"/>
<path d="M105.12 164.439H95.2812V170.47H105.12V164.439Z" fill="#2889DB"/>
<path d="M197.956 196.814H95.2812V202.845H197.956V196.814Z" fill="white"/>
<path d="M125.751 207.447H95.2813V213.478H125.751V207.447Z" fill="white"/>
<path d="M203.987 430.413H108.77C101.67 430.413 95.9163 424.657 95.9163 417.559V245.215C95.9163 238.116 101.672 232.362 108.77 232.362H203.987C211.087 232.362 216.84 238.117 216.84 245.215V417.559C216.84 424.657 211.087 430.413 203.987 430.413Z" fill="#284D89"/>
<path d="M151.618 261.403H111.151V267.592H151.618V261.403Z" fill="white"/>
<path d="M151.618 275.209H111.151V281.398H151.618V275.209Z" fill="white"/>
<path d="M151.618 289.015H111.151V295.204H151.618V289.015Z" fill="white"/>
<path d="M135.907 346.622H111.151V352.811H135.907V346.622Z" fill="white"/>
<path d="M135.907 360.428H111.151V366.618H135.907V360.428Z" fill="white"/>
<path d="M178.437 360.428H153.68V366.618H178.437V360.428Z" fill="white"/>
<path d="M126.703 330.911H111.151V337.1H126.703V330.911Z" fill="white"/>
<path d="M186.053 330.911H177.802V337.1H186.053V330.911Z" fill="white"/>
<path d="M174.629 330.911H132.097V337.1H174.629V330.911Z" fill="#FF4D6B"/>
<path d="M117.102 307.583H111.151V313.773H117.102V307.583Z" fill="#2889DB"/>
<path d="M117.102 318.532H111.151V324.721H117.102V318.532Z" fill="#FF4D6B"/>
<path d="M144.159 367.888H141.936L147.253 359.952H149.475L144.159 367.888Z" fill="white"/>
<path d="M203.036 378.519H111.151V383.756H203.036V378.519Z" fill="#282E5C"/>
<path d="M203.036 390.421H111.151V395.658H203.036V390.421Z" fill="#282E5C"/>
<path d="M645 314.247H392.357C386.046 314.247 380.931 309.132 380.931 302.821V234.265C380.931 227.954 386.046 222.839 392.357 222.839H645C651.312 222.839 656.427 227.954 656.427 234.265V302.821C656.425 309.132 651.31 314.247 645 314.247Z" fill="#289DF2"/>
<path d="M462.818 281.875C462.818 281.875 476.783 247.597 516.774 255.848C556.765 264.1 577.078 309.169 628.496 272.353" stroke="white" stroke-width="1.1276" stroke-miterlimit="10"/>
<path d="M592.313 283.778H586.6V289.491H592.313V283.778Z" fill="#289DF2" stroke="white" stroke-width="1.1276" stroke-miterlimit="10"/>
<path d="M469.801 254.261H542.165" stroke="white" stroke-width="0.5638" stroke-miterlimit="10"/>
<path d="M553.274 288.223H625.64" stroke="white" stroke-width="0.5638" stroke-miterlimit="10"/>
<path d="M505.984 251.405H500.271V257.118H505.984V251.405Z" fill="#289DF2" stroke="white" stroke-width="1.1276" stroke-miterlimit="10"/>
<path d="M429.175 337.735H374.584C370.026 337.735 366.333 334.04 366.333 329.484V247.597C366.333 243.039 370.028 239.345 374.584 239.345H429.175C433.733 239.345 437.427 243.04 437.427 247.597V329.484C437.427 334.04 433.733 337.735 429.175 337.735Z" fill="#284D89"/>
<path d="M417.907 253.31H377.44V258.89H417.907V253.31Z" fill="white"/>
<path d="M417.907 265.755H377.44V271.335H417.907V265.755Z" fill="white"/>
<path d="M392.675 278.201H377.44V283.781H392.675V278.201Z" fill="white"/>
<path d="M403.784 291.077H377.44V296.657H403.784V291.077Z" fill="#289DF2"/>
<path d="M395.213 303.523H377.44V309.103H395.213V303.523Z" fill="#289DF2"/>
<path d="M395.213 315.968H377.44V321.548H395.213V315.968Z" fill="white"/>
<path d="M611.991 210.461H640.557" stroke="#284D89" stroke-width="2.2552" stroke-miterlimit="10" stroke-linecap="round" stroke-linejoin="round"/>
<path d="M547.809 371.64L537.95 379.356L523.804 381.928C523.804 381.928 510.517 381.07 509.23 381.07C507.945 381.07 498.943 373.783 498.943 373.783L482.226 367.783L470.652 372.069L456.936 369.068L436.361 367.781L416.644 375.497L400.355 378.069L385.781 382.785L369.492 384.071L351.919 370.355L335.63 367.354L318.912 376.784L305.625 381.07L290.539 380.641L271.526 392.215H260.189L241.043 398.93" stroke="#FF5C66" stroke-width="1.0152" stroke-miterlimit="10"/>
<path d="M241.33 399.217H548.237" stroke="#F7F7F7" stroke-width="0.2538" stroke-miterlimit="10"/>
<path d="M241.473 395.358H238.331V403.074H241.473V395.358Z" fill="#F7F7F7"/>
<path d="M549.523 395.358H546.38V403.074H549.523V395.358Z" fill="#F7F7F7"/>
<path d="M547.951 399.217V373.354" stroke="#F7F7F7" stroke-width="0.2538" stroke-miterlimit="10"/>
<path d="M549.665 372.069C549.665 373.41 548.578 374.497 547.237 374.497C545.896 374.497 544.808 373.41 544.808 372.069C544.808 370.728 545.896 369.64 547.237 369.64C548.578 369.64 549.665 370.728 549.665 372.069Z" fill="#F7F7F7"/>
<path d="M242.473 411.6V405.693H243.154V407.873H243.212C243.262 407.796 243.331 407.698 243.419 407.579C243.51 407.458 243.639 407.35 243.806 407.256C243.975 407.16 244.204 407.112 244.492 407.112C244.865 407.112 245.194 407.205 245.479 407.391C245.763 407.578 245.985 407.842 246.145 408.185C246.305 408.527 246.384 408.931 246.384 409.396C246.384 409.865 246.305 410.272 246.145 410.616C245.985 410.958 245.764 411.224 245.482 411.412C245.199 411.599 244.873 411.692 244.504 411.692C244.219 411.692 243.991 411.645 243.82 411.551C243.649 411.454 243.517 411.346 243.425 411.225C243.333 411.102 243.262 411 243.212 410.919H243.131V411.6H242.473ZM243.143 409.384C243.143 409.719 243.192 410.014 243.29 410.27C243.388 410.524 243.531 410.723 243.719 410.867C243.908 411.009 244.139 411.08 244.412 411.08C244.696 411.08 244.934 411.005 245.124 410.855C245.316 410.704 245.46 410.5 245.557 410.244C245.655 409.986 245.704 409.7 245.704 409.384C245.704 409.073 245.656 408.792 245.56 408.542C245.465 408.29 245.322 408.091 245.13 407.945C244.939 407.797 244.7 407.723 244.412 407.723C244.135 407.723 243.902 407.793 243.714 407.934C243.525 408.072 243.383 408.266 243.287 408.516C243.191 408.764 243.143 409.054 243.143 409.384ZM249.283 411.692C248.856 411.692 248.488 411.598 248.178 411.409C247.871 411.219 247.633 410.953 247.466 410.613C247.301 410.271 247.218 409.873 247.218 409.419C247.218 408.965 247.301 408.565 247.466 408.219C247.633 407.871 247.866 407.6 248.164 407.406C248.464 407.21 248.814 407.112 249.214 407.112C249.445 407.112 249.672 407.15 249.897 407.227C250.122 407.304 250.327 407.429 250.512 407.602C250.696 407.773 250.843 408 250.953 408.283C251.063 408.565 251.117 408.913 251.117 409.327V409.615H247.702V409.027H250.425C250.425 408.777 250.375 408.554 250.275 408.358C250.177 408.162 250.037 408.007 249.854 407.893C249.673 407.78 249.46 407.723 249.214 407.723C248.943 407.723 248.708 407.79 248.51 407.925C248.314 408.058 248.163 408.231 248.057 408.444C247.951 408.658 247.899 408.886 247.899 409.131V409.523C247.899 409.857 247.956 410.141 248.072 410.374C248.189 410.604 248.351 410.78 248.559 410.902C248.767 411.021 249.008 411.08 249.283 411.08C249.462 411.08 249.623 411.055 249.768 411.005C249.914 410.953 250.04 410.877 250.145 410.775C250.251 410.671 250.333 410.542 250.391 410.388L251.048 410.573C250.979 410.796 250.863 410.992 250.699 411.161C250.536 411.328 250.334 411.459 250.094 411.553C249.853 411.646 249.583 411.692 249.283 411.692ZM254.08 407.169V407.746H251.784V407.169H254.08ZM252.453 406.108H253.134V410.33C253.134 410.523 253.161 410.667 253.217 410.763C253.275 410.857 253.348 410.921 253.436 410.953C253.527 410.984 253.622 411 253.722 411C253.797 411 253.858 410.996 253.906 410.988C253.955 410.978 253.993 410.971 254.022 410.965L254.16 411.576C254.114 411.594 254.05 411.611 253.967 411.628C253.884 411.648 253.78 411.657 253.653 411.657C253.46 411.657 253.272 411.616 253.087 411.533C252.905 411.451 252.753 411.325 252.632 411.155C252.512 410.986 252.453 410.773 252.453 410.515V406.108ZM256.407 411.703C256.126 411.703 255.872 411.651 255.643 411.545C255.414 411.437 255.232 411.282 255.098 411.08C254.963 410.877 254.896 410.63 254.896 410.342C254.896 410.088 254.946 409.882 255.046 409.725C255.146 409.565 255.279 409.44 255.447 409.35C255.614 409.259 255.799 409.192 256 409.148C256.204 409.102 256.409 409.065 256.615 409.038C256.884 409.004 257.102 408.978 257.269 408.96C257.439 408.941 257.562 408.91 257.639 408.865C257.718 408.821 257.757 408.744 257.757 408.635V408.611C257.757 408.327 257.679 408.106 257.523 407.948C257.369 407.79 257.136 407.712 256.822 407.712C256.497 407.712 256.243 407.783 256.058 407.925C255.874 408.067 255.744 408.219 255.669 408.381L255.023 408.15C255.138 407.881 255.292 407.671 255.484 407.521C255.678 407.369 255.89 407.264 256.119 407.204C256.349 407.142 256.576 407.112 256.799 407.112C256.942 407.112 257.105 407.129 257.29 407.164C257.476 407.196 257.656 407.265 257.829 407.368C258.004 407.472 258.149 407.629 258.265 407.839C258.38 408.048 258.438 408.329 258.438 408.681V411.6H257.757V411H257.722C257.676 411.096 257.599 411.199 257.492 411.308C257.384 411.418 257.241 411.511 257.062 411.588C256.883 411.665 256.665 411.703 256.407 411.703ZM256.511 411.092C256.78 411.092 257.007 411.039 257.192 410.933C257.378 410.828 257.518 410.691 257.613 410.524C257.709 410.356 257.757 410.181 257.757 409.996V409.373C257.728 409.408 257.665 409.439 257.567 409.468C257.47 409.495 257.359 409.519 257.232 409.54C257.107 409.559 256.985 409.577 256.866 409.592C256.748 409.606 256.653 409.617 256.58 409.627C256.403 409.65 256.238 409.687 256.084 409.739C255.932 409.789 255.809 409.865 255.715 409.967C255.623 410.067 255.576 410.204 255.576 410.377C255.576 410.613 255.664 410.792 255.839 410.913C256.016 411.032 256.24 411.092 256.511 411.092ZM263.891 407.169V407.746H261.595V407.169H263.891ZM262.264 406.108H262.945V410.33C262.945 410.523 262.973 410.667 263.029 410.763C263.086 410.857 263.159 410.921 263.248 410.953C263.338 410.984 263.433 411 263.533 411C263.608 411 263.67 410.996 263.718 410.988C263.766 410.978 263.804 410.971 263.833 410.965L263.972 411.576C263.926 411.594 263.861 411.611 263.778 411.628C263.696 411.648 263.591 411.657 263.464 411.657C263.272 411.657 263.083 411.616 262.899 411.533C262.716 411.451 262.564 411.325 262.443 411.155C262.324 410.986 262.264 410.773 262.264 410.515V406.108ZM266.725 411.692C266.298 411.692 265.93 411.598 265.62 411.409C265.312 411.219 265.075 410.953 264.908 410.613C264.742 410.271 264.66 409.873 264.66 409.419C264.66 408.965 264.742 408.565 264.908 408.219C265.075 407.871 265.308 407.6 265.606 407.406C265.906 407.21 266.256 407.112 266.656 407.112C266.886 407.112 267.114 407.15 267.339 407.227C267.564 407.304 267.769 407.429 267.953 407.602C268.138 407.773 268.285 408 268.395 408.283C268.504 408.565 268.559 408.913 268.559 409.327V409.615H265.144V409.027H267.867C267.867 408.777 267.817 408.554 267.717 408.358C267.619 408.162 267.478 408.007 267.296 407.893C267.115 407.78 266.902 407.723 266.656 407.723C266.384 407.723 266.15 407.79 265.952 407.925C265.756 408.058 265.605 408.231 265.499 408.444C265.393 408.658 265.34 408.886 265.34 409.131V409.523C265.34 409.857 265.398 410.141 265.513 410.374C265.631 410.604 265.793 410.78 266.001 410.902C266.208 411.021 266.45 411.08 266.725 411.08C266.904 411.08 267.065 411.055 267.209 411.005C267.355 410.953 267.481 410.877 267.587 410.775C267.693 410.671 267.775 410.542 267.832 410.388L268.49 410.573C268.421 410.796 268.304 410.992 268.141 411.161C267.977 411.328 267.776 411.459 267.535 411.553C267.295 411.646 267.025 411.692 266.725 411.692ZM272.733 408.162L272.121 408.335C272.083 408.233 272.026 408.134 271.951 408.038C271.878 407.939 271.778 407.859 271.651 407.795C271.524 407.732 271.362 407.7 271.164 407.7C270.892 407.7 270.667 407.763 270.486 407.888C270.307 408.011 270.218 408.167 270.218 408.358C270.218 408.527 270.279 408.661 270.402 408.759C270.525 408.857 270.717 408.938 270.979 409.004L271.637 409.165C272.033 409.261 272.328 409.408 272.522 409.607C272.716 409.803 272.813 410.056 272.813 410.365C272.813 410.619 272.74 410.846 272.594 411.046C272.45 411.246 272.248 411.403 271.988 411.519C271.729 411.634 271.427 411.692 271.083 411.692C270.631 411.692 270.257 411.594 269.961 411.398C269.665 411.202 269.477 410.915 269.398 410.538L270.044 410.377C270.106 410.615 270.222 410.794 270.393 410.913C270.567 411.032 270.792 411.092 271.071 411.092C271.389 411.092 271.64 411.025 271.827 410.89C272.015 410.754 272.11 410.59 272.11 410.4C272.11 410.246 272.056 410.117 271.948 410.013C271.84 409.907 271.675 409.829 271.452 409.777L270.714 409.604C270.308 409.508 270.01 409.358 269.82 409.157C269.631 408.953 269.537 408.698 269.537 408.392C269.537 408.142 269.607 407.921 269.747 407.729C269.89 407.537 270.083 407.386 270.327 407.276C270.573 407.166 270.852 407.112 271.164 407.112C271.602 407.112 271.946 407.208 272.196 407.4C272.448 407.592 272.627 407.846 272.733 408.162ZM275.765 407.169V407.746H273.469V407.169H275.765ZM274.138 406.108H274.819V410.33C274.819 410.523 274.846 410.667 274.902 410.763C274.96 410.857 275.033 410.921 275.121 410.953C275.212 410.984 275.307 411 275.407 411C275.482 411 275.544 410.996 275.592 410.988C275.64 410.978 275.678 410.971 275.707 410.965L275.845 411.576C275.799 411.594 275.735 411.611 275.652 411.628C275.569 411.648 275.465 411.657 275.338 411.657C275.145 411.657 274.957 411.616 274.772 411.533C274.59 411.451 274.438 411.325 274.317 411.155C274.198 410.986 274.138 410.773 274.138 410.515V406.108Z" fill="#F7F7F7"/>
<path d="M503.088 410.361H312.199V413.789H503.088V410.361Z" fill="#28385E"/>
<path d="M429.361 410.361H312.199V413.789H429.361V410.361Z" fill="#FF4D6B"/>
<path d="M406.072 416.932H312.199V420.361H406.072V416.932Z" fill="#28385E"/>
<path d="M252.689 427.15H264.262L265.764 423.934H242.402V429.293H250.546L252.689 427.15Z" fill="#FF4D6B"/>
<path d="M276.677 423.899H275.39V425.184H276.677V423.899Z" fill="#F7F7F7"/>
<path d="M284.658 423.899H283.373V425.184H284.658V423.899Z" fill="#F7F7F7"/>
<path d="M292.643 423.899H291.356V425.184H292.643V423.899Z" fill="#F7F7F7"/>
<path d="M535.402 357.862C535.064 357.862 534.759 357.795 534.488 357.661C534.217 357.526 534 357.341 533.836 357.107C533.673 356.872 533.583 356.605 533.568 356.305H534.26C534.287 356.572 534.408 356.793 534.624 356.968C534.841 357.141 535.1 357.228 535.402 357.228C535.645 357.228 535.86 357.171 536.048 357.058C536.239 356.944 536.388 356.789 536.495 356.591C536.605 356.391 536.66 356.165 536.66 355.913C536.66 355.655 536.603 355.425 536.49 355.223C536.378 355.02 536.224 354.859 536.028 354.742C535.832 354.624 535.608 354.565 535.356 354.563C535.175 354.561 534.99 354.589 534.799 354.647C534.609 354.702 534.452 354.774 534.329 354.863L533.66 354.782L534.018 351.875H537.087V352.509H534.618L534.41 354.251H534.445C534.566 354.155 534.718 354.075 534.9 354.012C535.083 353.949 535.273 353.917 535.472 353.917C535.833 353.917 536.155 354.003 536.438 354.176C536.722 354.348 536.945 354.582 537.107 354.88C537.27 355.178 537.352 355.519 537.352 355.901C537.352 356.278 537.267 356.615 537.098 356.911C536.931 357.205 536.7 357.438 536.406 357.609C536.112 357.778 535.777 357.862 535.402 357.862ZM540.424 357.862C539.99 357.862 539.62 357.744 539.314 357.508C539.008 357.269 538.775 356.924 538.613 356.472C538.452 356.019 538.371 355.471 538.371 354.828C538.371 354.19 538.452 353.645 538.613 353.193C538.777 352.739 539.011 352.393 539.317 352.155C539.625 351.914 539.994 351.794 540.424 351.794C540.855 351.794 541.223 351.914 541.529 352.155C541.837 352.393 542.071 352.739 542.233 353.193C542.396 353.645 542.478 354.19 542.478 354.828C542.478 355.471 542.397 356.019 542.236 356.472C542.074 356.924 541.841 357.269 541.535 357.508C541.229 357.744 540.859 357.862 540.424 357.862ZM540.424 357.228C540.855 357.228 541.19 357.02 541.428 356.605C541.667 356.19 541.786 355.597 541.786 354.828C541.786 354.317 541.731 353.881 541.621 353.522C541.514 353.162 541.358 352.888 541.154 352.7C540.952 352.511 540.709 352.417 540.424 352.417C539.998 352.417 539.664 352.628 539.424 353.049C539.183 353.468 539.063 354.061 539.063 354.828C539.063 355.34 539.117 355.774 539.225 356.132C539.332 356.49 539.487 356.762 539.689 356.948C539.893 357.135 540.138 357.228 540.424 357.228ZM545.501 357.862C545.066 357.862 544.696 357.744 544.39 357.508C544.085 357.269 543.851 356.924 543.689 356.472C543.528 356.019 543.447 355.471 543.447 354.828C543.447 354.19 543.528 353.645 543.689 353.193C543.853 352.739 544.087 352.393 544.393 352.155C544.701 351.914 545.07 351.794 545.501 351.794C545.931 351.794 546.3 351.914 546.605 352.155C546.913 352.393 547.148 352.739 547.309 353.193C547.473 353.645 547.554 354.19 547.554 354.828C547.554 355.471 547.474 356.019 547.312 356.472C547.15 356.924 546.917 357.269 546.611 357.508C546.305 357.744 545.935 357.862 545.501 357.862ZM545.501 357.228C545.931 357.228 546.266 357.02 546.504 356.605C546.743 356.19 546.862 355.597 546.862 354.828C546.862 354.317 546.807 353.881 546.698 353.522C546.59 353.162 546.434 352.888 546.23 352.7C546.029 352.511 545.785 352.417 545.501 352.417C545.074 352.417 544.74 352.628 544.5 353.049C544.26 353.468 544.139 354.061 544.139 354.828C544.139 355.34 544.193 355.774 544.301 356.132C544.409 356.49 544.563 356.762 544.765 356.948C544.969 357.135 545.214 357.228 545.501 357.228Z" fill="#F7F7F7"/>
<path d="M516.804 420.648H513.945L509.374 410.361H512.231L516.804 420.648Z" fill="#28385E"/>
<path d="M524.233 420.648H521.376L516.804 410.361H519.662L524.233 420.648Z" fill="#28385E"/>
<path d="M531.662 420.648H528.805L524.233 410.361H527.091L531.662 420.648Z" fill="#28385E"/>
<path d="M539.093 420.648H536.236L531.662 410.361H534.52L539.093 420.648Z" fill="#28385E"/>
<path d="M546.38 420.648H543.521L538.95 410.361H541.807L546.38 420.648Z" fill="#28385E"/>
<path d="M533.974 66.4612H487.51V74.7836H533.974V66.4612Z" fill="#A9CCEA"/>
<path d="M557.569 81.3531H487.51V89.6739H557.569V81.3531Z" fill="#A9CCEA"/>
<path d="M573.905 96.2451H487.51V104.568H573.905V96.2451Z" fill="#A9CCEA"/>
<path d="M520.543 111.137H487.51V119.46H520.543V111.137Z" fill="#A9CCEA"/>
<path d="M46.4643 166.756H0V175.079H46.4643V166.756Z" fill="#2889DB"/>
<path d="M70.0588 181.648H0V189.969H70.0588V181.648Z" fill="#A9CCEA"/>
<path d="M86.3947 196.539H0V204.861H86.3947V196.539Z" fill="#A9CCEA"/>
<path d="M33.0332 211.432H0V219.755H33.0332V211.432Z" fill="#A9CCEA"/>
<path d="M313.962 458.977H115.912V484.686H313.962V458.977Z" stroke="#289DF2" stroke-width="1.1276" stroke-miterlimit="10"/>
<path d="M220.966 256.483H211.445V314.882H220.966V256.483Z" stroke="#289DF2" stroke-width="1.1276" stroke-miterlimit="10"/>
<path d="M603.402 420.757C621.294 417.871 633.46 401.027 630.574 383.134C627.689 365.24 610.845 353.074 592.952 355.959C575.06 358.845 562.895 375.689 565.78 393.583C568.666 411.476 585.51 423.642 603.402 420.757Z" fill="#FF4D6B"/>
<path d="M595.839 385.288L582.805 390.064L595.839 394.801V399.696L577.206 392.609V387.521L595.839 380.436V385.288Z" fill="#F9FBFC"/>
<path d="M600.097 380.435L618.729 387.52V392.608L600.097 399.695V394.8L613.131 390.063L600.097 385.287V380.435Z" fill="#F9FBFC"/>
<path d="M652.935 415.178C652.935 417.544 651.016 419.462 648.65 419.462C646.284 419.462 644.365 417.544 644.365 415.178C644.365 412.812 646.284 410.893 648.65 410.893C651.016 410.893 652.935 412.812 652.935 415.178Z" stroke="#FF4D6B" stroke-width="1.1276" stroke-miterlimit="10"/>
<path d="M260.642 104.77H105.438V120.957H260.642V104.77Z" stroke="#289DF2" stroke-width="1.1276" stroke-miterlimit="10"/>
<path d="M208.271 110.007H112.102V114.768H208.271V110.007Z" fill="#289DF2"/>
<path d="M351.096 231.092H237.471V236.805H351.096V231.092Z" fill="#284D89"/>
<path d="M288.968 231.092H237.471V236.805H288.968V231.092Z" fill="#2889DB"/>
<path d="M351.096 245.85H237.471V251.564H351.096V245.85Z" fill="#284D89"/>
<path d="M316.58 245.85H237.471V251.564H316.58V245.85Z" fill="#FF4D6B"/>
<path d="M351.096 260.609H237.471V266.322H351.096V260.609Z" fill="#284D89"/>
<path d="M260.64 260.609H237.471V266.322H260.64V260.609Z" fill="#1AE5FF"/>
<path d="M240.17 221.094H237.947V223.317H240.17V221.094Z" fill="#284D89"/>
<path d="M247.788 221.094H245.565V223.317H247.788V221.094Z" fill="#284D89"/>
<path d="M255.405 221.094H253.182V223.317H255.405V221.094Z" fill="#284D89"/>
<path d="M453.084 298.908H449.382V302.611H453.084V298.908Z" fill="white"/>
<path d="M465.782 298.908H462.078V302.611H465.782V298.908Z" fill="white"/>
<path d="M478.477 298.908H474.773V302.611H478.477V298.908Z" fill="white"/>
<path d="M509.772 151.765H502.829V158.708H509.772V151.765Z" fill="white"/>
<path d="M533.576 151.765H526.633V158.708H533.576V151.765Z" fill="white"/>
<path d="M557.38 151.765H550.437V158.708H557.38V151.765Z" fill="white"/>
<path d="M411.382 438.684H404.439V445.627H411.382V438.684Z" fill="white"/>
<path d="M435.186 438.684H428.243V445.627H435.186V438.684Z" fill="white"/>
<path d="M458.989 438.684H452.047V445.627H458.989V438.684Z" fill="white"/>
<path d="M116.863 246.431H113.161V250.135H116.863V246.431Z" fill="white"/>
<path d="M129.559 246.431H125.856V250.135H129.559V246.431Z" fill="white"/>
<path d="M142.256 246.431H138.552V250.135H142.256V246.431Z" fill="white"/>
<path d="M632.306 241.883H570.732V247.914H632.306V241.883Z" fill="white"/>
<path d="M589.004 252.516H570.731V258.547H589.004V252.516Z" fill="#287DD1"/>
<path d="M74.0157 254.261H60.6859V240.931H48.3069V254.261H34.9771V266.64H48.3069V279.969H60.6859V266.64H74.0157V254.261Z" fill="#1AE5FF"/>
<path d="M38.3446 291.396H30.2163V283.268H22.669V291.396H14.5391V298.943H22.669V307.072H30.2163V298.943H38.3446V291.396Z" fill="#2889DB"/>
<path d="M260.821 284.298C249.308 284.298 239.974 293.632 239.974 305.145C239.974 316.659 249.308 325.991 260.821 325.991C272.335 325.991 281.667 316.657 281.667 305.145C281.667 293.632 272.333 284.298 260.821 284.298ZM260.821 316.009C254.82 316.009 249.958 311.145 249.958 305.145C249.958 299.144 254.822 294.281 260.821 294.281C266.821 294.281 271.685 299.144 271.685 305.145C271.685 311.145 266.819 316.009 260.821 316.009Z" fill="#284D89"/>
<path d="M246.629 303.089C248.566 303.089 250.264 301.938 251.145 300.212C252.941 296.692 256.599 294.281 260.821 294.281C265.044 294.281 268.701 296.692 270.497 300.212C271.377 301.938 273.076 303.089 275.013 303.089C278.661 303.089 281.157 299.268 279.553 295.99C276.163 289.065 269.05 284.298 260.822 284.298C252.594 284.298 245.481 289.065 242.092 295.991C240.486 299.268 242.98 303.089 246.629 303.089Z" fill="#289DF2"/>
<path d="M295.833 305.145C295.833 316.657 305.167 325.991 316.68 325.991C328.194 325.991 337.526 316.657 337.526 305.145C337.526 293.63 328.192 284.298 316.68 284.298C305.167 284.298 295.833 293.632 295.833 305.145ZM327.544 305.145C327.544 311.143 322.68 316.007 316.68 316.007C310.679 316.007 305.816 311.143 305.816 305.145C305.816 299.144 310.679 294.281 316.68 294.281C322.68 294.281 327.544 299.144 327.544 305.145Z" fill="#284D89"/>
<path d="M314.626 319.336C314.626 317.399 313.474 315.701 311.748 314.82C308.229 313.025 305.817 309.367 305.817 305.145C305.817 300.921 308.229 297.265 311.748 295.468C313.474 294.588 314.626 292.889 314.626 290.952C314.626 287.304 310.804 284.808 307.526 286.412C300.602 289.802 295.833 296.915 295.833 305.145C295.833 313.373 300.602 320.486 307.526 323.875C310.803 325.48 314.626 322.985 314.626 319.336Z" fill="#FF4D6B"/>
<path d="M201.288 222.84H163.202V314.249H201.288V222.84Z" stroke="#289DF2" stroke-width="1.1276" stroke-miterlimit="10"/>
<path d="M179.707 240.455H168.598V243.738H179.707V240.455Z" fill="#1AE5FF"/>
<path d="M179.707 247.779H168.598V251.062H179.707V247.779Z" fill="#1AE5FF"/>
<path d="M179.707 255.103H168.598V258.387H179.707V255.103Z" fill="#1AE5FF"/>
<path d="M179.707 293.191H168.598V296.474H179.707V293.191Z" fill="#1AE5FF"/>
<path d="M184.785 265.846H168.598V269.129H184.785V265.846Z" fill="#1AE5FF"/>
<path d="M184.785 273.17H168.598V276.453H184.785V273.17Z" fill="white"/>
<path d="M184.785 280.495H168.598V283.778H184.785V280.495Z" fill="white"/>
<path d="M74.9665 337.1H26.7238V385.343H74.9665V337.1Z" fill="#289DF2"/>
<path d="M49.5768 348.525H1.33417V396.768H49.5768V348.525Z" stroke="#289DF2" stroke-width="1.1276" stroke-miterlimit="10"/>
<path d="M620.879 476.752H600.566V497.065H620.879V476.752Z" stroke="#289DF2" stroke-width="1.1276" stroke-miterlimit="10"/>
<path d="M356.809 444.695H373.949L383.471 454.216H482.496L497.731 438.982H551.053" stroke="white" stroke-width="1.1276" stroke-miterlimit="10"/>
<path d="M351.81 449.932C354.571 449.932 356.809 447.694 356.809 444.933C356.809 442.172 354.571 439.934 351.81 439.934C349.05 439.934 346.812 442.172 346.812 444.933C346.812 447.694 349.05 449.932 351.81 449.932Z" stroke="white" stroke-width="1.1276" stroke-miterlimit="10"/>
<path d="M556.209 443.742C558.97 443.742 561.208 441.504 561.208 438.743C561.208 435.983 558.97 433.745 556.209 433.745C553.449 433.745 551.21 435.983 551.21 438.743C551.21 441.504 553.449 443.742 556.209 443.742Z" stroke="white" stroke-width="1.1276" stroke-miterlimit="10"/>
<path d="M623.417 175.866C623.417 179.372 620.575 182.214 617.069 182.214C613.563 182.214 610.721 179.372 610.721 175.866C610.721 172.36 613.563 169.518 617.069 169.518C620.575 169.518 623.417 172.36 623.417 175.866Z" fill="#289DF2"/>
<path d="M36.8803 423.431C36.8803 426.937 34.0381 429.779 30.5321 429.779C27.0261 429.779 24.1838 426.937 24.1838 423.431C24.1838 419.925 27.0261 417.083 30.5321 417.083C34.0398 417.083 36.8803 419.925 36.8803 423.431Z" fill="#FF4D6B"/>
<path d="M66.0816 446.917C66.0816 453.053 61.1081 458.026 54.9726 458.026C48.8371 458.026 43.8636 453.053 43.8636 446.917C43.8636 440.782 48.8371 435.808 54.9726 435.808C61.1081 435.808 66.0816 440.782 66.0816 446.917Z" fill="#FF4D6B"/>
<path d="M444.41 484.368H399.975V494.525H444.41V484.368Z" stroke="#289DF2" stroke-width="1.1276" stroke-miterlimit="10"/>
<path d="M497.413 503.412H399.975V513.568H497.413V503.412Z" stroke="#289DF2" stroke-width="1.1276" stroke-miterlimit="10"/>
<path d="M127.766 494.096L116.996 504.866" stroke="#289DF2" stroke-width="1.1276" stroke-miterlimit="10" stroke-linecap="round" stroke-linejoin="round"/>
<path d="M138.12 494.096L127.35 504.866" stroke="#289DF2" stroke-width="1.1276" stroke-miterlimit="10" stroke-linecap="round" stroke-linejoin="round"/>
<path d="M148.476 494.096L137.706 504.866" stroke="#289DF2" stroke-width="1.1276" stroke-miterlimit="10" stroke-linecap="round" stroke-linejoin="round"/>
<path d="M158.83 494.096L148.06 504.866" stroke="#289DF2" stroke-width="1.1276" stroke-miterlimit="10" stroke-linecap="round" stroke-linejoin="round"/>
<path d="M169.185 494.096L158.416 504.866" stroke="#289DF2" stroke-width="1.1276" stroke-miterlimit="10" stroke-linecap="round" stroke-linejoin="round"/>
</svg>
