<svg width="2227" height="1466" viewBox="0 0 2227 1466" fill="none" xmlns="http://www.w3.org/2000/svg">
<path d="M2176.68 656.959C2116.7 573.743 1991.22 530.308 1986.43 404.545C1983.31 322.824 2019.14 278.071 1960.07 209.01C1817.28 42.072 1600.2 24.98 1415.93 97.728C1231.71 170.452 1085.55 313.476 879.665 307.505C767.546 304.253 662.762 251.29 551.71 242.479C517.499 239.765 485.602 242.848 455.84 251.018C344.271 281.647 246.797 392.69 211.087 515.16C182.14 614.439 221.888 711.602 175.715 809.041C126.5 912.898 27.9562 985.83 4.37624 1105.32C-23.9248 1248.74 92.4832 1371.72 215.926 1374.09C294.5 1375.59 439.929 1361 506.044 1310.74C586.547 1249.55 666.35 1244.61 761.094 1245.74C941.401 1247.91 1122.16 1287.06 1300.45 1314.32C1453.22 1337.68 1603.95 1373.21 1758.53 1376.05C1872.05 1378.13 1968.37 1378.51 2028.22 1252.03C2099.75 1100.86 2302.49 831.504 2176.68 656.959Z" fill="url(#paint0_linear_6_5)"/>
<path d="M1894.3 873.09C1893.93 873.09 1893.56 872.975 1893.24 872.736C1892.47 872.153 1892.32 871.054 1892.9 870.281C1894.32 868.408 1895.79 866.538 1897.27 864.724C1897.88 863.973 1898.99 863.867 1899.74 864.476C1900.49 865.088 1900.6 866.192 1899.98 866.941C1898.53 868.72 1897.09 870.556 1895.7 872.395C1895.35 872.85 1894.83 873.09 1894.3 873.09Z" fill="#91B3FA"/>
<path d="M2221.71 948.075C2220.89 948.075 2220.16 947.499 2220 946.665C2219.07 942.02 2217.95 937.353 2216.66 932.798C2216.4 931.866 2216.94 930.899 2217.87 930.636C2218.79 930.361 2219.77 930.913 2220.03 931.844C2221.34 936.49 2222.49 941.246 2223.43 945.982C2223.62 946.931 2223 947.853 2222.06 948.042C2221.94 948.064 2221.83 948.075 2221.71 948.075ZM2210.55 912.018C2209.87 912.018 2209.23 911.619 2208.94 910.954C2207.09 906.61 2205.03 902.274 2202.83 898.065C2202.38 897.206 2202.71 896.149 2203.57 895.701C2204.43 895.249 2205.49 895.585 2205.94 896.44C2208.18 900.731 2210.27 905.151 2212.16 909.578C2212.54 910.468 2212.13 911.497 2211.24 911.877C2211.02 911.973 2210.78 912.018 2210.55 912.018ZM2192.26 878.995C2191.71 878.995 2191.16 878.733 2190.82 878.242C2188.12 874.343 2185.23 870.511 2182.24 866.852C2181.63 866.103 2181.74 864.999 2182.49 864.387C2183.24 863.776 2184.34 863.884 2184.95 864.635C2188 868.366 2190.94 872.272 2193.7 876.244C2194.25 877.038 2194.06 878.129 2193.26 878.682C2192.96 878.894 2192.61 878.995 2192.26 878.995ZM1914.56 850.463C1914.1 850.463 1913.63 850.278 1913.29 849.914C1912.62 849.211 1912.66 848.102 1913.36 847.439C1916.86 844.129 1920.55 840.911 1924.31 837.874C1925.06 837.265 1926.16 837.383 1926.77 838.137C1927.38 838.89 1927.26 839.993 1926.51 840.601C1922.82 843.579 1919.2 846.737 1915.77 849.984C1915.43 850.304 1914.99 850.463 1914.56 850.463ZM2167.68 850.361C2167.25 850.361 2166.82 850.202 2166.48 849.88C2163.04 846.626 2159.43 843.468 2155.75 840.495C2155 839.886 2154.88 838.784 2155.49 838.032C2156.1 837.279 2157.2 837.163 2157.95 837.769C2161.71 840.802 2165.39 844.022 2168.89 847.339C2169.59 848.004 2169.62 849.113 2168.95 849.814C2168.61 850.178 2168.15 850.361 2167.68 850.361ZM1944.51 827.474C1943.92 827.474 1943.35 827.18 1943.02 826.643C1942.51 825.82 1942.76 824.741 1943.59 824.232C1947.71 821.688 1951.96 819.281 1956.24 817.076C1957.1 816.631 1958.16 816.97 1958.6 817.83C1959.04 818.691 1958.71 819.746 1957.85 820.189C1953.65 822.353 1949.47 824.716 1945.43 827.212C1945.14 827.391 1944.82 827.474 1944.51 827.474ZM2137.76 827.382C2137.44 827.382 2137.13 827.298 2136.84 827.122C2132.82 824.648 2128.64 822.296 2124.41 820.13C2123.55 819.69 2123.21 818.635 2123.65 817.773C2124.1 816.912 2125.15 816.572 2126.01 817.013C2130.32 819.218 2134.58 821.617 2138.68 824.138C2139.5 824.646 2139.76 825.724 2139.25 826.548C2138.92 827.086 2138.35 827.382 2137.76 827.382ZM1978.48 811.012C1977.76 811.012 1977.09 810.571 1976.83 809.859C1976.5 808.949 1976.97 807.945 1977.88 807.613C1982.42 805.966 1987.08 804.477 1991.73 803.193C1992.66 802.936 1993.63 803.48 1993.89 804.414C1994.15 805.346 1993.6 806.311 1992.67 806.569C1988.1 807.83 1983.53 809.289 1979.08 810.906C1978.88 810.978 1978.68 811.012 1978.48 811.012ZM2103.76 811.008C2103.56 811.008 2103.36 810.976 2103.17 810.904C2098.71 809.299 2094.14 807.847 2089.57 806.589C2088.64 806.333 2088.09 805.369 2088.35 804.435C2088.6 803.503 2089.57 802.955 2090.5 803.212C2095.16 804.492 2099.82 805.971 2104.35 807.609C2105.26 807.937 2105.74 808.94 2105.41 809.85C2105.15 810.565 2104.48 811.008 2103.76 811.008ZM2067.14 801.887C2067.06 801.887 2066.97 801.882 2066.89 801.87C2062.21 801.198 2057.44 800.705 2052.7 800.4C2051.74 800.338 2051 799.505 2051.07 798.539C2051.13 797.574 2051.97 796.868 2052.93 796.904C2057.75 797.214 2062.62 797.718 2067.39 798.401C2068.34 798.54 2069.01 799.426 2068.87 800.384C2068.75 801.257 2068 801.887 2067.14 801.887ZM2015.09 801.858C2014.24 801.858 2013.49 801.227 2013.36 800.353C2013.23 799.397 2013.89 798.509 2014.85 798.372C2019.63 797.691 2024.5 797.192 2029.31 796.889C2030.29 796.872 2031.11 797.563 2031.17 798.528C2031.23 799.493 2030.5 800.324 2029.53 800.386C2024.81 800.684 2020.03 801.173 2015.34 801.842C2015.26 801.853 2015.18 801.858 2015.09 801.858Z" fill="#91B3FA"/>
<path d="M2225.16 978.331C2224.22 978.331 2223.44 977.582 2223.41 976.632C2223.34 974.334 2223.23 972.004 2223.07 969.705C2223 968.74 2223.73 967.904 2224.7 967.837C2225.66 967.816 2226.5 968.501 2226.56 969.466C2226.73 971.808 2226.84 974.184 2226.91 976.526C2226.94 977.493 2226.18 978.3 2225.22 978.331C2225.2 978.331 2225.18 978.331 2225.16 978.331Z" fill="#91B3FA"/>
<path d="M2173.35 1112.25C2172.91 1112.25 2172.47 1112.08 2172.13 1111.75C2171.43 1111.08 2171.42 1109.97 2172.09 1109.28C2173.71 1107.61 2175.3 1105.91 2176.83 1104.21C2177.47 1103.49 2178.58 1103.43 2179.3 1104.07C2180.02 1104.72 2180.08 1105.83 2179.43 1106.55C2177.88 1108.28 2176.25 1110.02 2174.61 1111.72C2174.26 1112.07 2173.81 1112.25 2173.35 1112.25Z" fill="#91B3FA"/>
<path d="M2041.34 1168.19L2039.75 1168.18C2038.79 1168.17 2038.01 1167.38 2038.02 1166.41C2038.03 1165.45 2038.81 1164.67 2039.77 1164.67C2039.78 1164.67 2039.78 1164.67 2039.79 1164.67L2041.34 1164.68C2045.48 1164.68 2049.68 1164.54 2053.82 1164.25C2054.79 1164.23 2055.62 1164.92 2055.68 1165.88C2055.75 1166.85 2055.02 1167.68 2054.06 1167.75C2049.84 1168.04 2045.56 1168.19 2041.34 1168.19ZM2016.82 1166.55C2016.74 1166.55 2016.66 1166.54 2016.58 1166.53C2011.88 1165.9 2007.14 1165.08 2002.49 1164.09C2001.55 1163.89 2000.94 1162.96 2001.14 1162.01C2001.35 1161.06 2002.27 1160.47 2003.22 1160.66C2007.78 1161.63 2012.44 1162.44 2017.05 1163.06C2018.01 1163.19 2018.68 1164.07 2018.55 1165.03C2018.44 1165.91 2017.68 1166.55 2016.82 1166.55ZM2076.75 1164.74C2075.93 1164.74 2075.2 1164.16 2075.04 1163.33C2074.85 1162.38 2075.47 1161.45 2076.42 1161.27C2081 1160.37 2085.59 1159.28 2090.07 1158.03C2091 1157.76 2091.97 1158.31 2092.23 1159.24C2092.49 1160.18 2091.95 1161.14 2091.01 1161.4C2086.44 1162.68 2081.76 1163.79 2077.09 1164.71C2076.98 1164.73 2076.86 1164.74 2076.75 1164.74ZM1980.69 1157.95C1980.5 1157.95 1980.3 1157.92 1980.11 1157.85C1975.62 1156.29 1971.13 1154.54 1966.79 1152.65C1965.9 1152.26 1965.5 1151.23 1965.89 1150.34C1966.27 1149.45 1967.3 1149.05 1968.19 1149.43C1972.45 1151.29 1976.85 1153.01 1981.26 1154.54C1982.17 1154.86 1982.66 1155.86 1982.34 1156.77C1982.09 1157.5 1981.41 1157.95 1980.69 1157.95ZM2112.28 1153.9C2111.6 1153.9 2110.95 1153.5 2110.67 1152.83C2110.29 1151.94 2110.71 1150.91 2111.61 1150.53C2115.88 1148.74 2120.16 1146.74 2124.33 1144.6C2125.19 1144.16 2126.24 1144.5 2126.69 1145.36C2127.13 1146.22 2126.79 1147.28 2125.93 1147.72C2121.69 1149.9 2117.32 1151.93 2112.96 1153.76C2112.74 1153.86 2112.51 1153.9 2112.28 1153.9ZM1947.01 1142.3C1946.7 1142.3 1946.4 1142.22 1946.12 1142.05C1942.04 1139.63 1938 1137.02 1934.11 1134.28C1933.32 1133.72 1933.13 1132.63 1933.69 1131.84C1934.25 1131.05 1935.34 1130.86 1936.13 1131.42C1939.94 1134.1 1943.91 1136.66 1947.9 1139.04C1948.74 1139.54 1949.01 1140.61 1948.52 1141.44C1948.19 1141.99 1947.61 1142.3 1947.01 1142.3ZM2144.91 1136.14C2144.35 1136.14 2143.8 1135.88 2143.46 1135.38C2142.92 1134.58 2143.13 1133.49 2143.92 1132.94C2147.78 1130.32 2151.57 1127.51 2155.21 1124.6C2155.97 1124 2157.07 1124.12 2157.68 1124.88C2158.28 1125.63 2158.16 1126.73 2157.4 1127.34C2153.69 1130.3 2149.82 1133.16 2145.9 1135.84C2145.6 1136.04 2145.25 1136.14 2144.91 1136.14ZM1917.18 1120.19C1916.76 1120.19 1916.33 1120.04 1916 1119.74C1912.5 1116.54 1909.07 1113.17 1905.81 1109.7C1905.15 1108.99 1905.19 1107.88 1905.89 1107.22C1906.6 1106.56 1907.7 1106.59 1908.37 1107.3C1911.56 1110.7 1914.93 1114.02 1918.36 1117.15C1919.07 1117.8 1919.12 1118.91 1918.47 1119.62C1918.13 1120 1917.65 1120.19 1917.18 1120.19ZM1892.42 1092.52C1891.88 1092.52 1891.35 1092.27 1891 1091.79C1888.81 1088.77 1886.67 1085.64 1884.64 1082.48C1884.1 1081.63 1883.56 1080.77 1883.03 1079.91C1882.53 1079.09 1882.78 1078.01 1883.6 1077.5C1884.43 1076.99 1885.51 1077.25 1886.01 1078.07C1886.53 1078.92 1887.06 1079.75 1887.59 1080.59C1889.58 1083.69 1891.68 1086.77 1893.84 1089.73C1894.41 1090.52 1894.23 1091.61 1893.45 1092.18C1893.14 1092.41 1892.78 1092.52 1892.42 1092.52ZM1873.67 1060.45C1873 1060.45 1872.37 1060.07 1872.07 1059.43C1870.1 1055.11 1868.27 1050.66 1866.63 1046.2C1866.3 1045.29 1866.76 1044.28 1867.67 1043.95C1868.58 1043.61 1869.59 1044.08 1869.92 1044.99C1871.53 1049.36 1873.32 1053.73 1875.26 1057.97C1875.66 1058.85 1875.28 1059.89 1874.4 1060.29C1874.16 1060.4 1873.91 1060.45 1873.67 1060.45ZM1861.72 1025.28C1860.93 1025.28 1860.2 1024.73 1860.02 1023.92C1858.96 1019.29 1858.06 1014.56 1857.36 1009.86C1857.22 1008.9 1857.88 1008.01 1858.84 1007.87C1859.78 1007.73 1860.69 1008.39 1860.83 1009.34C1861.52 1013.96 1862.39 1018.6 1863.43 1023.14C1863.65 1024.08 1863.06 1025.02 1862.12 1025.24C1861.99 1025.27 1861.85 1025.28 1861.72 1025.28Z" fill="#91B3FA"/>
<path d="M1857.13 988.352C1856.18 988.352 1855.4 987.592 1855.38 986.639C1855.33 984.306 1855.32 981.928 1855.36 979.569C1855.38 978.601 1856.18 977.867 1857.14 977.845C1858.11 977.861 1858.88 978.658 1858.86 979.624C1858.83 981.939 1858.83 984.272 1858.88 986.561C1858.91 987.529 1858.14 988.33 1857.17 988.352C1857.16 988.352 1857.15 988.352 1857.13 988.352Z" fill="#91B3FA"/>
<path d="M1901.18 962.432C1900.95 963.345 1901.33 964.306 1902.11 964.822L1924.6 979.562C1924.37 992.117 1926.14 1004.8 1930.05 1017.12L1912.71 1037.64C1912.1 1038.36 1912.02 1039.38 1912.5 1040.19L1929 1067.9C1929.48 1068.71 1930.43 1069.13 1931.35 1068.94L1957.66 1063.46C1966.63 1072.76 1976.93 1080.36 1988.08 1086.14L1990.33 1112.93C1990.41 1113.87 1991.08 1114.66 1991.99 1114.89L2023.25 1122.81C2024.16 1123.04 2025.12 1122.67 2025.64 1121.88L2040.38 1099.4C2052.94 1099.62 2065.62 1097.85 2077.93 1093.94L2098.46 1111.29C2099.18 1111.9 2100.2 1111.98 2101.01 1111.5L2128.72 1094.99C2129.53 1094.51 2129.95 1093.57 2129.75 1092.65L2124.28 1066.34C2133.58 1057.37 2141.18 1047.06 2146.96 1035.92L2173.75 1033.67C2174.69 1033.59 2175.48 1032.92 2175.71 1032.01L2183.63 1000.74C2183.86 999.83 2183.49 998.871 2182.7 998.354L2160.21 983.613C2160.44 971.059 2158.67 958.378 2154.76 946.061L2172.11 925.537C2172.71 924.817 2172.8 923.791 2172.32 922.981L2155.81 895.272C2155.33 894.462 2154.39 894.048 2153.46 894.24L2127.16 899.713C2118.19 890.412 2107.88 882.813 2096.74 877.034L2094.48 850.242C2094.41 849.303 2093.74 848.517 2092.83 848.285L2061.56 840.362C2060.65 840.131 2059.69 840.504 2059.17 841.292L2044.43 863.778C2031.88 863.55 2019.2 865.323 2006.88 869.229L1986.36 851.887C1985.64 851.279 1984.61 851.194 1983.8 851.677L1956.09 868.18C1955.28 868.662 1954.87 869.605 1955.06 870.528L1960.53 896.834C1951.23 905.804 1943.63 916.11 1937.85 927.257L1911.06 929.509C1910.12 929.588 1909.34 930.254 1909.11 931.168L1901.18 962.432Z" fill="#91B3FA"/>
<path d="M2042.41 1012.85C2042.4 1012.85 2042.39 1012.85 2042.38 1012.85C2034.03 1012.85 2026.18 1009.59 2020.28 1003.68C2014.38 997.765 2011.14 989.911 2011.14 981.561C2011.15 973.209 2014.41 965.36 2020.32 959.462C2032.52 947.282 2052.36 947.302 2064.54 959.503C2070.44 965.414 2073.68 973.268 2073.67 981.618C2073.66 989.97 2070.41 997.819 2064.49 1003.72C2058.59 1009.61 2050.75 1012.85 2042.41 1012.85ZM2042.41 955.579C2035.47 955.579 2028.95 958.279 2024.03 963.18C2019.12 968.088 2016.41 974.616 2016.4 981.564C2016.39 988.511 2019.09 995.046 2024 999.963C2028.91 1004.88 2035.44 1007.59 2042.38 1007.6C2042.39 1007.6 2042.4 1007.6 2042.41 1007.6C2049.35 1007.6 2055.87 1004.9 2060.78 999.997C2065.7 995.089 2068.41 988.561 2068.42 981.613C2068.42 974.666 2065.72 968.131 2060.82 963.214C2055.91 958.297 2049.38 955.586 2042.43 955.579C2042.42 955.579 2042.42 955.579 2042.41 955.579Z" fill="#BDD0FB"/>
<path d="M2043.22 1062.13C2015.78 1062.13 1989 1048.11 1973.97 1022.87C1971.03 1017.94 1968.62 1012.7 1966.81 1007.31L1971.79 1005.64C1973.48 1010.68 1975.74 1015.57 1978.48 1020.18C1995.15 1048.16 2027.27 1061.4 2057.54 1055.5C2057.6 1055.49 2057.65 1055.47 2057.71 1055.46C2057.77 1055.45 2057.82 1055.44 2057.88 1055.43C2066.03 1053.8 2074.03 1050.79 2081.56 1046.3C2098.82 1036.03 2111.04 1019.65 2115.97 1000.18C2117.54 994.005 2118.31 987.759 2118.31 981.556C2118.3 968.185 2114.71 955.012 2107.69 943.225C2086.47 907.604 2040.23 895.884 2004.61 917.1C1992.9 924.076 1983.31 934.074 1976.89 946.011L1972.26 943.52C1979.13 930.746 1989.39 920.049 2001.92 912.583C2040.03 889.888 2089.5 902.423 2112.2 940.535C2119.71 953.146 2123.56 967.239 2123.57 981.545C2123.57 988.183 2122.74 994.865 2121.07 1001.46C2115.79 1022.29 2102.71 1039.82 2084.25 1050.82C2071.38 1058.48 2057.21 1062.13 2043.22 1062.13Z" fill="#BDD0FB"/>
<path d="M154.066 236.322C153.632 236.322 153.195 236.187 152.821 235.904C151.91 235.215 151.73 233.919 152.418 233.007C154.091 230.796 155.826 228.589 157.577 226.448C158.298 225.562 159.602 225.436 160.486 226.155C161.37 226.878 161.501 228.18 160.778 229.065C159.062 231.165 157.358 233.332 155.718 235.502C155.311 236.039 154.692 236.322 154.066 236.322Z" fill="#91B3FA"/>
<path d="M540.53 324.83C539.564 324.83 538.701 324.15 538.504 323.166C537.412 317.684 536.087 312.175 534.566 306.798C534.255 305.697 534.893 304.557 535.993 304.246C537.087 303.921 538.235 304.573 538.546 305.671C540.097 311.155 541.448 316.769 542.561 322.358C542.784 323.478 542.056 324.567 540.936 324.789C540.8 324.818 540.664 324.83 540.53 324.83ZM527.36 282.27C526.556 282.27 525.793 281.799 525.457 281.014C523.268 275.887 520.841 270.768 518.243 265.801C517.714 264.787 518.106 263.54 519.117 263.01C520.129 262.477 521.377 262.873 521.908 263.882C524.555 268.946 527.03 274.164 529.261 279.39C529.709 280.44 529.221 281.656 528.171 282.104C527.906 282.217 527.63 282.27 527.36 282.27ZM505.772 243.292C505.117 243.292 504.473 242.983 504.072 242.403C500.877 237.801 497.467 233.278 493.939 228.959C493.216 228.075 493.348 226.772 494.233 226.049C495.116 225.328 496.418 225.455 497.142 226.342C500.738 230.746 504.213 235.356 507.469 240.045C508.12 240.982 507.887 242.27 506.949 242.923C506.589 243.173 506.179 243.292 505.772 243.292ZM177.987 209.615C177.439 209.615 176.891 209.397 176.484 208.967C175.7 208.137 175.737 206.829 176.567 206.045C180.702 202.138 185.05 198.339 189.489 194.755C190.376 194.036 191.679 194.176 192.397 195.066C193.114 195.954 192.974 197.257 192.086 197.974C187.731 201.49 183.465 205.217 179.408 209.05C179.008 209.427 178.497 209.615 177.987 209.615ZM476.755 209.494C476.244 209.494 475.732 209.306 475.332 208.927C471.28 205.086 467.02 201.359 462.673 197.849C461.784 197.13 461.647 195.83 462.365 194.941C463.082 194.053 464.384 193.915 465.272 194.63C469.703 198.21 474.046 202.01 478.177 205.926C479.006 206.712 479.041 208.02 478.256 208.848C477.85 209.278 477.302 209.494 476.755 209.494ZM213.333 182.48C212.639 182.48 211.963 182.133 211.571 181.499C210.971 180.528 211.273 179.254 212.244 178.654C217.106 175.651 222.132 172.81 227.182 170.208C228.197 169.683 229.445 170.083 229.967 171.098C230.491 172.114 230.092 173.36 229.077 173.883C224.122 176.438 219.19 179.226 214.418 182.172C214.079 182.381 213.704 182.48 213.333 182.48ZM441.434 182.371C441.064 182.371 440.69 182.272 440.352 182.064C435.61 179.144 430.676 176.368 425.685 173.811C424.669 173.292 424.268 172.046 424.787 171.028C425.308 170.012 426.554 169.611 427.571 170.131C432.657 172.734 437.687 175.565 442.521 178.541C443.493 179.141 443.796 180.413 443.198 181.386C442.806 182.021 442.129 182.371 441.434 182.371ZM253.429 163.049C252.584 163.049 251.79 162.528 251.486 161.688C251.096 160.614 251.65 159.428 252.724 159.037C258.083 157.092 263.583 155.336 269.074 153.819C270.174 153.516 271.312 154.158 271.617 155.261C271.921 156.361 271.276 157.5 270.174 157.805C264.79 159.293 259.393 161.016 254.135 162.924C253.901 163.008 253.663 163.049 253.429 163.049ZM401.305 163.045C401.072 163.045 400.836 163.007 400.603 162.922C395.348 161.028 389.95 159.314 384.558 157.829C383.457 157.526 382.809 156.39 383.112 155.287C383.415 154.187 384.554 153.54 385.654 153.843C391.149 155.353 396.651 157.1 402.006 159.033C403.08 159.421 403.636 160.604 403.249 161.678C402.946 162.522 402.153 163.045 401.305 163.045ZM358.083 152.278C357.985 152.278 357.886 152.272 357.786 152.258C352.261 151.464 346.627 150.883 341.039 150.523C339.899 150.45 339.035 149.467 339.107 148.326C339.181 147.187 340.18 146.353 341.303 146.396C346.998 146.762 352.741 147.357 358.373 148.163C359.503 148.326 360.288 149.373 360.126 150.503C359.979 151.535 359.095 152.278 358.083 152.278ZM296.65 152.244C295.637 152.244 294.753 151.499 294.606 150.467C294.445 149.338 295.231 148.29 296.362 148.129C302.004 147.326 307.747 146.736 313.433 146.378C314.59 146.358 315.555 147.173 315.627 148.312C315.699 149.451 314.833 150.432 313.693 150.505C308.115 150.857 302.48 151.434 296.945 152.224C296.846 152.237 296.748 152.244 296.65 152.244Z" fill="#91B3FA"/>
<path d="M544.602 360.543C543.489 360.543 542.569 359.658 542.535 358.538C542.452 355.826 542.317 353.076 542.131 350.362C542.052 349.223 542.913 348.236 544.052 348.157C545.186 348.133 546.178 348.94 546.256 350.079C546.446 352.843 546.585 355.648 546.669 358.413C546.703 359.554 545.807 360.507 544.665 360.543C544.645 360.543 544.623 360.543 544.602 360.543Z" fill="#91B3FA"/>
<path d="M483.444 518.612C482.925 518.612 482.405 518.418 482.003 518.029C481.184 517.233 481.165 515.923 481.961 515.105C483.867 513.142 485.748 511.129 487.552 509.12C488.314 508.276 489.623 508.205 490.472 508.964C491.321 509.727 491.391 511.036 490.628 511.886C488.789 513.932 486.871 515.983 484.928 517.984C484.522 518.402 483.983 518.612 483.444 518.612Z" fill="#91B3FA"/>
<path d="M327.632 584.636L325.759 584.628C324.617 584.616 323.7 583.681 323.711 582.54C323.722 581.405 324.646 580.493 325.779 580.493C325.785 580.493 325.792 580.493 325.799 580.493L327.631 580.501C332.515 580.501 337.469 580.332 342.356 579.996C343.501 579.972 344.482 580.779 344.56 581.918C344.638 583.057 343.778 584.044 342.639 584.123C337.658 584.462 332.609 584.636 327.632 584.636ZM298.686 582.703C298.594 582.703 298.501 582.697 298.408 582.685C292.857 581.94 287.261 580.971 281.773 579.804C280.656 579.566 279.943 578.467 280.182 577.351C280.42 576.232 281.514 575.532 282.635 575.758C288.018 576.905 293.511 577.858 298.957 578.587C300.089 578.739 300.883 579.781 300.732 580.911C300.593 581.948 299.705 582.703 298.686 582.703ZM369.429 580.569C368.461 580.569 367.597 579.886 367.403 578.901C367.182 577.78 367.912 576.692 369.032 576.472C374.435 575.41 379.857 574.121 385.15 572.647C386.248 572.334 387.389 572.982 387.697 574.083C388.004 575.183 387.361 576.322 386.26 576.629C380.865 578.133 375.338 579.446 369.829 580.53C369.696 580.557 369.561 580.569 369.429 580.569ZM256.037 572.555C255.812 572.555 255.583 572.519 255.359 572.44C250.052 570.598 244.763 568.531 239.636 566.295C238.59 565.839 238.111 564.619 238.568 563.573C239.022 562.525 240.24 562.044 241.289 562.503C246.319 564.696 251.509 566.725 256.716 568.535C257.794 568.909 258.366 570.088 257.991 571.166C257.694 572.019 256.893 572.555 256.037 572.555ZM411.367 567.775C410.559 567.775 409.792 567.298 409.46 566.507C409.018 565.455 409.512 564.244 410.566 563.801C415.616 561.681 420.668 559.326 425.581 556.8C426.595 556.277 427.845 556.679 428.366 557.695C428.888 558.711 428.487 559.957 427.471 560.48C422.463 563.052 417.314 565.454 412.167 567.614C411.906 567.725 411.634 567.775 411.367 567.775ZM216.285 554.083C215.926 554.083 215.562 553.99 215.231 553.792C210.418 550.933 205.652 547.845 201.066 544.617C200.132 543.961 199.908 542.67 200.565 541.737C201.223 540.8 202.512 540.578 203.446 541.236C207.946 544.402 212.622 547.431 217.343 550.238C218.325 550.822 218.647 552.09 218.065 553.071C217.678 553.721 216.99 554.083 216.285 554.083ZM449.881 546.815C449.22 546.815 448.57 546.5 448.171 545.913C447.528 544.97 447.771 543.682 448.714 543.039C453.261 539.939 457.744 536.626 462.039 533.193C462.932 532.48 464.231 532.626 464.946 533.518C465.659 534.409 465.513 535.711 464.622 536.424C460.245 539.921 455.677 543.298 451.044 546.456C450.687 546.698 450.282 546.815 449.881 546.815ZM181.075 527.99C180.578 527.99 180.079 527.812 179.683 527.449C175.553 523.683 171.508 519.695 167.661 515.598C166.88 514.766 166.921 513.458 167.753 512.676C168.584 511.895 169.894 511.931 170.676 512.767C174.45 516.787 178.419 520.699 182.469 524.396C183.313 525.165 183.373 526.472 182.603 527.316C182.195 527.763 181.636 527.99 181.075 527.99ZM151.854 495.32C151.215 495.32 150.585 495.025 150.18 494.468C147.587 490.904 145.061 487.205 142.673 483.471C142.03 482.465 141.396 481.456 140.772 480.446C140.172 479.473 140.474 478.199 141.446 477.601C142.416 476.999 143.69 477.304 144.291 478.273C144.903 479.266 145.525 480.256 146.156 481.241C148.5 484.906 150.979 488.537 153.523 492.036C154.195 492.959 153.99 494.251 153.068 494.924C152.701 495.191 152.275 495.32 151.854 495.32ZM129.719 457.473C128.935 457.473 128.185 457.025 127.837 456.265C125.506 451.166 123.344 445.912 121.413 440.648C121.02 439.576 121.571 438.386 122.643 437.995C123.712 437.597 124.902 438.152 125.296 439.223C127.19 444.388 129.311 449.543 131.599 454.545C132.073 455.583 131.616 456.811 130.578 457.285C130.299 457.412 130.007 457.473 129.719 457.473ZM115.62 415.959C114.678 415.959 113.826 415.311 113.607 414.354C112.354 408.894 111.299 403.311 110.471 397.76C110.303 396.631 111.082 395.579 112.212 395.41C113.327 395.242 114.394 396.02 114.562 397.151C115.374 402.597 116.409 408.075 117.637 413.43C117.893 414.543 117.197 415.653 116.084 415.908C115.929 415.943 115.774 415.959 115.62 415.959Z" fill="#91B3FA"/>
<path d="M110.201 372.371C109.08 372.371 108.159 371.474 108.135 370.35C108.073 367.596 108.064 364.789 108.108 362.004C108.126 360.861 109.073 359.995 110.208 359.969C111.35 359.987 112.262 360.928 112.243 362.069C112.2 364.801 112.209 367.555 112.268 370.257C112.294 371.4 111.39 372.345 110.248 372.371C110.232 372.371 110.217 372.371 110.201 372.371Z" fill="#91B3FA"/>
<path d="M162.196 341.776C161.923 342.854 162.364 343.987 163.294 344.597L189.835 361.996C189.566 376.815 191.658 391.782 196.269 406.321L175.8 430.546C175.082 431.395 174.982 432.607 175.551 433.563L195.03 466.268C195.6 467.224 196.713 467.713 197.801 467.487L228.852 461.027C239.44 472.005 251.604 480.974 264.762 487.795L267.42 519.42C267.514 520.528 268.299 521.456 269.378 521.729L306.278 531.081C307.357 531.354 308.49 530.913 309.099 529.983L326.498 503.442C341.316 503.711 356.284 501.619 370.822 497.008L395.048 517.478C395.898 518.196 397.109 518.296 398.065 517.727L430.77 498.247C431.726 497.678 432.215 496.565 431.989 495.476L425.529 464.425C436.508 453.837 445.477 441.673 452.297 428.515L483.922 425.858C485.03 425.765 485.957 424.978 486.231 423.9L495.583 387C495.857 385.921 495.415 384.789 494.485 384.179L467.944 366.78C468.214 351.962 466.121 336.994 461.511 322.455L481.981 298.229C482.698 297.38 482.799 296.168 482.23 295.212L462.75 262.506C462.181 261.55 461.068 261.061 459.979 261.288L428.928 267.748C418.34 256.769 406.176 247.8 393.018 240.979L390.36 209.355C390.268 208.246 389.48 207.319 388.402 207.046L351.502 197.694C350.424 197.421 349.291 197.861 348.681 198.792L331.282 225.333C316.464 225.064 301.496 227.156 286.957 231.767L262.731 211.297C261.882 210.579 260.67 210.479 259.715 211.049L227.01 230.528C226.054 231.097 225.565 232.21 225.791 233.299L232.251 264.35C221.273 274.938 212.304 287.102 205.483 300.26L173.859 302.918C172.75 303.011 171.823 303.797 171.55 304.876L162.196 341.776Z" fill="#91B3FA"/>
<path d="M328.89 401.291C328.878 401.291 328.867 401.291 328.855 401.291C318.998 401.281 309.735 397.434 302.771 390.458C295.807 383.481 291.977 374.211 291.987 364.355C291.996 354.497 295.844 345.233 302.82 338.27C317.221 323.893 340.635 323.917 355.008 338.318C361.971 345.295 365.802 354.565 365.792 364.421C365.783 374.279 361.935 383.544 354.959 390.506C347.991 397.461 338.734 401.291 328.89 401.291ZM328.889 333.688C320.699 333.688 313 336.875 307.202 342.66C301.397 348.453 298.197 356.159 298.19 364.359C298.182 372.559 301.368 380.273 307.16 386.076C312.953 391.879 320.66 395.08 328.86 395.088C328.869 395.088 328.88 395.088 328.889 395.088C337.079 395.088 344.779 391.902 350.576 386.116C356.38 380.323 359.581 372.617 359.588 364.417C359.596 356.217 356.41 348.503 350.617 342.7C344.824 336.897 337.117 333.696 328.917 333.688C328.909 333.688 328.898 333.688 328.889 333.688Z" fill="#BDD0FB"/>
<path d="M329.845 459.456C297.454 459.458 265.852 442.904 248.107 413.112C244.641 407.292 241.796 401.113 239.653 394.749L245.531 392.77C247.535 398.719 250.194 404.496 253.435 409.938C273.11 442.969 311.02 458.596 346.749 451.624C346.816 451.612 346.882 451.598 346.949 451.585C347.019 451.571 347.084 451.559 347.154 451.545C356.767 449.625 366.214 446.067 375.104 440.772C395.471 428.642 409.896 409.306 415.72 386.327C417.566 379.044 418.477 371.671 418.476 364.349C418.473 348.567 414.225 333.018 405.939 319.105C380.895 277.06 326.316 263.226 284.271 288.269C270.446 296.503 259.132 308.304 251.554 322.394L246.092 319.454C254.201 304.376 266.307 291.75 281.097 282.938C326.079 256.15 384.476 270.946 411.269 315.931C420.135 330.817 424.679 347.452 424.682 364.337C424.683 372.172 423.708 380.059 421.733 387.849C415.502 412.435 400.069 433.125 378.278 446.103C363.087 455.151 346.361 459.456 329.845 459.456Z" fill="#BDD0FB"/>
<path d="M85.7432 450.805C86.4772 444.478 95.2232 443.338 97.5292 449.275C119.815 506.674 182.968 655.353 265.129 729.526C398.907 850.296 500.268 1057.66 433.646 1176.63C433.646 1176.63 5.7972 1140.12 85.7432 450.805Z" fill="#91B3FA"/>
<path opacity="0.43" d="M107.133 533.736C107.455 535.291 107.929 536.97 108.347 538.601L109.702 543.512L112.521 553.308C114.438 559.829 116.424 566.33 118.428 572.826C122.474 585.805 126.681 598.735 131.007 611.623C139.636 637.407 148.773 663.02 158.395 688.448C177.714 739.269 198.728 789.461 222.213 838.488C225.073 844.652 228.166 850.703 231.147 856.808L235.643 865.954C237.139 869.004 238.725 872.008 240.262 875.037C243.374 881.076 246.421 887.15 249.587 893.16L259.214 911.124L261.631 915.61L264.128 920.051L269.121 928.934L274.114 937.817C275.801 940.765 277.559 943.671 279.278 946.6C282.755 952.435 286.145 958.323 289.694 964.114L300.456 981.418C301.357 982.857 302.232 984.314 303.154 985.74L305.948 989.999L311.536 998.518L317.124 1007.04C319.022 1009.85 320.994 1012.62 322.925 1015.41L328.748 1023.77C330.713 1026.54 332.574 1029.39 334.639 1032.08L346.788 1048.44C363.282 1070.03 380.737 1090.89 399.488 1110.58L399.492 1110.58C399.682 1110.78 399.675 1111.1 399.475 1111.29C399.277 1111.48 398.963 1111.47 398.773 1111.28C379.737 1091.8 361.934 1071.15 345.146 1049.7L332.842 1033.39C330.751 1030.71 328.864 1027.87 326.873 1025.11L320.972 1016.77C319.015 1013.98 317.016 1011.23 315.092 1008.42L309.426 999.919L303.759 991.421L300.926 987.171C299.991 985.748 299.103 984.296 298.189 982.86L287.32 965.564C283.748 959.768 280.335 953.875 276.835 948.034C275.105 945.102 273.335 942.193 271.637 939.243L266.61 930.353L261.583 921.463L259.07 917.018L256.637 912.529L246.944 894.551C243.757 888.536 240.689 882.458 237.555 876.415C236.008 873.383 234.411 870.376 232.904 867.324L228.394 858.163C225.42 852.04 222.334 845.97 219.483 839.789L210.786 821.313L202.369 802.709C199.521 796.527 196.891 790.248 194.147 784.019L190.071 774.659L186.119 765.246C175.541 740.162 165.471 714.864 156.04 689.329C146.59 663.803 137.551 638.123 129.161 612.231C124.98 599.28 120.919 586.292 117.019 573.254C115.088 566.729 113.175 560.2 111.331 553.649L108.621 543.807L107.32 538.869C106.917 537.201 106.468 535.604 106.134 533.821C106.083 533.552 106.261 533.292 106.53 533.241C106.796 533.191 107.052 533.364 107.107 533.627L107.133 533.736Z" fill="white"/>
<path d="M1919.91 254.429C1919.92 249.229 1911.28 246.656 1908.27 250.967C1879.13 292.647 1798.22 399.578 1707.06 443.303C1558.62 514.496 1432.45 661.111 1485.2 768.929C1485.2 768.929 1918.6 820.987 1919.91 254.429Z" fill="#91B3FA"/>
<path opacity="0.43" d="M1889.63 316.957C1889.04 318.427 1888.38 319.631 1887.76 320.947L1885.8 324.782C1884.46 327.322 1883.14 329.868 1881.77 332.39C1879.05 337.444 1876.27 342.461 1873.46 347.463C1867.85 357.471 1862.01 367.346 1856.13 377.199C1844.24 396.832 1831.82 416.132 1818.96 435.145C1793.31 473.212 1765.46 509.796 1735.86 544.899C1721.01 562.414 1705.5 579.364 1689.57 595.905L1677.46 608.147C1675.46 610.207 1673.39 612.196 1671.31 614.18L1665.1 620.149L1658.9 626.118C1656.81 628.089 1654.66 629.996 1652.55 631.939C1648.29 635.793 1644.09 639.71 1639.77 643.492C1622.48 658.614 1604.51 672.942 1585.98 686.516C1567.26 699.827 1547.85 712.146 1527.83 723.369C1527.59 723.504 1527.28 723.418 1527.15 723.177C1527.01 722.939 1527.1 722.637 1527.33 722.501L1527.34 722.497C1547.15 710.986 1566.29 698.365 1584.76 684.844C1603.11 671.147 1620.89 656.707 1637.99 641.482C1655 626.157 1671.57 610.352 1687.47 593.866C1703.32 577.343 1718.66 560.334 1733.56 542.942C1748.37 525.479 1762.73 507.627 1776.62 489.413L1786.95 475.686L1797.08 461.808C1803.76 452.507 1810.41 443.18 1816.89 433.73C1829.88 414.86 1842.39 395.654 1854.47 376.187C1860.48 366.431 1866.45 356.649 1872.19 346.734C1875.06 341.778 1877.91 336.806 1880.69 331.799C1882.09 329.301 1883.44 326.779 1884.81 324.263L1886.81 320.469C1887.44 319.208 1888.15 317.888 1888.66 316.707L1888.72 316.58C1888.82 316.329 1889.12 316.214 1889.37 316.322C1889.61 316.426 1889.73 316.709 1889.63 316.957Z" fill="white"/>
<path d="M1560.75 99.075C1559.66 93.174 1551.37 92.654 1549.58 98.38C1532.25 153.741 1482.26 297.483 1409.7 372.386C1291.57 494.346 1209.36 695.66 1279.49 803.294C1279.49 803.294 1679.37 741.993 1560.75 99.075Z" fill="#BDD0FB"/>
<path opacity="0.43" d="M1546.85 178.397C1546.64 180.101 1546.32 181.628 1546.05 183.222L1545.14 187.947L1543.22 197.371C1541.9 203.645 1540.51 209.905 1539.11 216.161C1536.27 228.664 1533.28 241.13 1530.17 253.569C1523.92 278.44 1517.05 303.151 1509.78 327.744C1502.53 352.344 1494.66 376.762 1486.3 401.009L1483.18 410.107L1479.94 419.163C1477.75 425.191 1475.68 431.26 1473.39 437.251L1466.65 455.271L1459.64 473.189C1457.35 479.18 1454.83 485.08 1452.43 491.024L1448.76 499.92C1447.54 502.884 1446.23 505.811 1444.96 508.759C1442.4 514.638 1439.9 520.544 1437.28 526.4L1429.3 543.911L1427.3 548.284L1425.21 552.621L1421.05 561.295L1416.88 569.969C1415.47 572.85 1413.99 575.696 1412.55 578.561C1409.63 584.272 1406.79 590.027 1403.8 595.701L1394.67 612.645C1393.9 614.052 1393.16 615.474 1392.37 616.87L1389.97 621.043L1385.18 629.388L1380.38 637.732C1378.75 640.493 1377.05 643.212 1375.38 645.954L1370.36 654.162C1368.66 656.884 1367.06 659.669 1365.27 662.328L1354.73 678.432C1340.29 699.65 1324.85 720.181 1308.17 739.681C1307.99 739.891 1307.68 739.915 1307.47 739.736C1307.26 739.558 1307.23 739.246 1307.41 739.037L1307.41 739.032C1323.79 719.336 1338.87 698.618 1353 677.285L1363.39 661.14C1365.16 658.475 1366.73 655.683 1368.4 652.955L1373.34 644.729C1374.98 641.982 1376.66 639.258 1378.27 636.491L1382.98 628.13L1387.69 619.769L1390.05 615.589C1390.83 614.19 1391.56 612.766 1392.31 611.356L1401.33 594.412C1404.3 588.744 1407.12 582.996 1410.02 577.292C1411.45 574.43 1412.92 571.588 1414.32 568.71L1418.45 560.046L1422.59 551.382L1424.65 547.05L1426.64 542.681L1434.55 525.189C1437.15 519.339 1439.63 513.438 1442.18 507.565C1443.43 504.621 1444.73 501.697 1445.94 498.735L1449.59 489.855C1452.01 483.928 1454.54 478.046 1456.84 472.072C1475.82 424.51 1492.41 376.005 1507.38 327.02C1514.82 302.514 1521.8 277.863 1528.29 253.084C1531.55 240.697 1534.69 228.28 1537.68 215.826C1539.16 209.594 1540.62 203.359 1542.01 197.109L1544.05 187.724L1545.01 183.023C1545.3 181.464 1545.64 179.854 1545.85 178.378L1545.86 178.269C1545.9 177.998 1546.15 177.808 1546.42 177.846C1546.69 177.885 1546.88 178.13 1546.85 178.397Z" fill="white"/>
<path d="M736.125 2.61801C807.09 66.225 1204.95 453.246 908.836 891.826C908.836 891.826 581.322 704.462 722.838 6.99401C724.076 0.892013 731.489 -1.53699 736.125 2.61801Z" fill="#BDD0FB"/>
<path opacity="0.86" d="M754.796 96.648C767.714 124.224 780.053 152.046 792.154 179.978C804.241 207.914 816.005 235.99 827.44 264.2C838.875 292.41 849.981 320.755 860.748 349.229C871.503 377.708 881.818 406.354 891.773 435.126C911.572 492.702 929.714 550.896 944.638 609.973C952.192 639.484 958.681 669.281 964.023 699.293C969.319 729.306 973.442 759.582 975.137 790.087C975.198 791.19 974.354 792.134 973.251 792.195C972.148 792.256 971.204 791.412 971.143 790.309V790.303V790.294C969.556 760.004 965.55 729.852 960.368 699.934C955.14 670.015 948.764 640.278 941.318 610.806C926.613 551.809 908.679 493.63 889.081 436.05C879.227 407.275 869.011 378.621 858.354 350.129C847.685 321.642 836.676 293.28 825.336 265.05C813.997 236.82 802.327 208.722 790.335 180.762C778.331 152.81 766.08 124.951 753.266 97.371L753.263 97.364C753.066 96.94 753.25 96.436 753.674 96.239C754.096 96.042 754.599 96.224 754.796 96.648Z" fill="white"/>
<path d="M850.629 1132.11L824.676 1364.87H1125.78L1086.56 1132.11H850.629Z" fill="url(#paint1_linear_6_5)"/>
<path d="M219.019 443.284V1083.59C219.019 1136.27 260.994 1179.34 313.65 1180.7C547.522 1186.73 1365.49 1201.35 1588.12 1198.07C1626.39 1197.51 1657.39 1166.89 1658.49 1128.64C1662.78 979.883 1669.76 622.183 1643.95 456.116C1638.52 421.144 1609 394.993 1573.63 393.862C1377.67 387.593 510.569 367.688 288.042 372.685C249.664 373.547 219.019 404.896 219.019 443.284Z" fill="url(#paint2_linear_6_5)"/>
<path d="M259.197 440.167V1048.51C259.197 1079.26 283.884 1104.32 314.635 1104.78L1556.1 1120.12C1586.58 1120.57 1611.57 1096.04 1611.69 1065.55L1613.76 462.652C1613.85 440.851 1596.48 422.988 1574.68 422.458L303.655 396.778C279.278 396.185 259.197 415.784 259.197 440.167Z" fill="url(#paint3_linear_6_5)"/>
<path d="M1621.03 1144.32C1621.03 1144.32 1621.02 1144.32 1621.02 1144.32L259.18 1121.12C258.628 1121.11 258.188 1120.66 258.197 1120.1C258.207 1119.55 258.634 1119.13 259.214 1119.12L1621.05 1142.32C1621.6 1142.33 1622.04 1142.79 1622.03 1143.34C1622.02 1143.89 1621.58 1144.32 1621.03 1144.32Z" fill="#91B3FA"/>
<path opacity="0.65" d="M953.549 1172.66C945.185 1172.66 938.38 1165.86 938.38 1157.49C938.38 1149.13 945.185 1142.32 953.549 1142.32C961.913 1142.32 968.718 1149.13 968.718 1157.49C968.718 1165.86 961.913 1172.66 953.549 1172.66ZM953.549 1144.32C946.287 1144.32 940.38 1150.23 940.38 1157.49C940.38 1164.76 946.288 1170.66 953.549 1170.66C960.81 1170.66 966.718 1164.76 966.718 1157.49C966.718 1150.23 960.811 1144.32 953.549 1144.32Z" fill="white"/>
<path d="M1190.64 1412.49H749.951C737.979 1412.49 728.988 1403.97 731.303 1394.81L736.957 1372.45C738.658 1365.72 746.056 1360.78 754.845 1360.51L1179.68 1347.25C1188.86 1346.97 1196.99 1351.84 1198.99 1358.83L1209.19 1394.45C1211.84 1403.71 1202.8 1412.49 1190.64 1412.49Z" fill="url(#paint4_linear_6_5)"/>
<path d="M987.18 1366.13C986.635 1366.13 986.189 1365.7 986.18 1365.15C986.172 1364.6 986.613 1364.14 987.165 1364.13L1005.37 1363.87C1005.9 1363.9 1006.38 1364.3 1006.39 1364.85C1006.39 1365.41 1005.95 1365.86 1005.4 1365.87L987.195 1366.13C987.19 1366.13 987.186 1366.13 987.18 1366.13Z" fill="#91B3FA"/>
<path d="M747.618 1399.72C747.566 1399.72 747.512 1399.72 747.459 1399.71C746.914 1399.63 746.542 1399.11 746.629 1398.57L749.226 1382.3C750.588 1373.77 757.846 1367.49 766.484 1367.36L959.573 1364.54C959.578 1364.54 959.583 1364.54 959.588 1364.54C960.133 1364.54 960.579 1364.97 960.588 1365.52C960.596 1366.07 960.155 1366.53 959.603 1366.54L766.514 1369.36C758.85 1369.47 752.41 1375.05 751.201 1382.62L748.604 1398.88C748.526 1399.37 748.101 1399.72 747.618 1399.72Z" fill="#91B3FA"/>
<path d="M1522.08 450.522L335.668 435.915C316.973 435.685 301.768 450.981 301.501 470.108L293.876 1022.62C293.613 1041.5 308.196 1057.13 326.642 1057.79L1519.78 1100C1536.38 1100.59 1551.93 1094.25 1563.87 1082.45C1575.82 1070.64 1582 1054.38 1582 1037.39V513.169C1582 478.861 1555.61 450.934 1522.08 450.522Z" fill="url(#paint5_linear_6_5)"/>
<path d="M340.35 464.763H872.218C886.72 464.763 898.402 479.437 898.139 497.322L890.656 1006.31C890.304 1030.26 874.332 1049.37 854.911 1049.07L339.777 1041.09C325.581 1040.87 314.168 1026.61 314.177 1009.1L314.424 496.723C314.433 479.069 326.038 464.763 340.35 464.763Z" fill="url(#paint6_linear_6_5)"/>
<path d="M348.762 479.773H859.48C873.405 479.773 884.623 493.836 884.37 510.979L877.185 998.801C876.847 1021.76 861.51 1040.07 842.861 1039.78L348.212 1032.14C334.58 1031.93 323.622 1018.26 323.63 1001.47L323.868 510.405C323.876 493.484 335.019 479.773 348.762 479.773Z" fill="#91B3FA"/>
<path d="M700.378 537.723C700.328 537.723 700.28 537.723 700.23 537.723L362.954 533.961C354.225 533.864 347.122 526.977 347.121 518.609L347.119 505.385C347.118 502.139 348.438 499.092 350.836 496.803C353.215 494.533 356.372 493.283 359.726 493.283H702.665C706.063 493.283 709.307 494.682 711.565 497.121C713.722 499.451 714.778 502.447 714.538 505.558L712.918 526.546C712.432 532.839 706.938 537.722 700.378 537.723ZM359.726 496.283C357.146 496.283 354.725 497.239 352.907 498.973C351.109 500.689 350.118 502.966 350.119 505.384L350.121 518.608C350.122 525.34 355.893 530.882 362.987 530.96L700.263 534.722C705.351 534.767 709.558 531.085 709.926 526.314L711.546 505.326C711.721 503.058 710.946 500.868 709.363 499.158C707.671 497.33 705.23 496.282 702.665 496.282H359.726V496.283Z" fill="#BDD0FB"/>
<path d="M696.262 531.47L369.076 528.715C361.363 528.65 355.157 524.127 355.156 518.569L355.154 508.883C355.153 504.595 359.977 501.118 365.929 501.118H698.608C704.475 501.118 709.105 504.709 708.675 508.925L707.104 524.297C706.686 528.377 701.938 531.518 696.262 531.47Z" fill="#BDD0FB"/>
<path d="M808.291 588.243H348.746C345.697 588.243 343.226 585.519 343.226 582.158V565.88C343.226 562.498 345.727 559.765 348.795 559.795L808.34 564.274C811.37 564.304 813.812 567.019 813.812 570.359V582.158C813.811 585.519 811.34 588.243 808.291 588.243Z" fill="#BDD0FB"/>
<path d="M844.662 699.087L360.711 692.632C352.106 692.517 345.191 685.509 345.191 676.903V610.456C345.191 601.606 352.416 594.458 361.265 594.552L843.809 599.713C853.326 599.815 860.988 607.559 860.988 617.076V682.977C860.988 691.959 853.643 699.207 844.662 699.087Z" fill="#BDD0FB"/>
<path d="M766.522 748.561H348.059C345.283 748.561 343.032 745.837 343.032 742.476V726.198C343.032 722.816 345.31 720.083 348.103 720.113L766.566 724.592C769.325 724.622 771.548 727.337 771.548 730.677V742.476C771.549 745.836 769.298 748.561 766.522 748.561Z" fill="#BDD0FB"/>
<path d="M844.469 869.336L360.518 862.268C351.913 862.142 344.998 854.468 344.998 845.045V772.285C344.998 762.594 352.223 754.767 361.072 754.871L843.616 760.522C853.133 760.633 860.795 769.113 860.795 779.535V851.697C860.795 861.531 853.45 869.467 844.469 869.336Z" fill="#BDD0FB"/>
<path d="M856.866 921.541H350.103C346.741 921.541 344.015 918.817 344.015 915.456V899.178C344.015 895.796 346.773 893.063 350.156 893.093L856.919 897.572C860.26 897.601 862.953 900.317 862.953 903.657V915.456C862.953 918.817 860.228 921.541 856.866 921.541Z" fill="#BDD0FB"/>
<path d="M845.452 1027.32L361.501 1021.18C352.896 1021.07 345.981 1014.4 345.981 1006.21V942.983C345.981 934.562 353.206 927.76 362.055 927.85L844.599 932.761C854.116 932.858 861.777 940.226 861.777 949.283V1011.99C861.778 1020.54 854.433 1027.43 845.452 1027.32Z" fill="#BDD0FB"/>
<path d="M962.537 729.877H1435.32C1448.22 729.877 1458.6 743.034 1458.37 759.072L1451.71 1215.46C1451.4 1236.94 1437.2 1254.07 1408.15 1253.8L950.233 1246.65C949.408 1246.46 939.263 1233.67 939.271 1217.96L939.491 758.535C939.5 742.704 949.815 729.877 962.537 729.877Z" fill="url(#paint7_linear_6_5)"/>
<path d="M972.964 742.236H1426.95C1439.33 742.236 1449.3 754.737 1449.08 769.975L1442.69 1203.61C1442.39 1224.02 1428.76 1240.3 1412.18 1240.04L972.475 1233.25C960.357 1233.06 950.616 1220.91 950.624 1205.99L950.835 769.466C950.842 754.424 960.748 742.236 972.964 742.236Z" fill="#91B3FA"/>
<path d="M1448.39 816.739H950.623V768.143C950.623 753.835 962.222 742.236 976.53 742.236H1423.94C1437.44 742.236 1448.39 753.182 1448.39 766.685V816.739Z" fill="url(#paint8_linear_6_5)"/>
<path d="M1392.94 784.978L1134.7 782.529C1128.61 782.471 1123.71 778.45 1123.71 773.51L1123.71 764.9C1123.71 761.088 1127.51 757.998 1132.21 757.998H1394.79C1399.42 757.998 1403.07 761.19 1402.73 764.938L1401.49 778.602C1401.16 782.228 1397.42 785.02 1392.94 784.978Z" fill="#91B3FA"/>
<path d="M1425.51 861.263H973.472C970.473 861.263 968.042 858.841 968.042 855.854V841.384C968.042 838.378 970.503 835.948 973.52 835.975L1425.56 839.957C1428.54 839.983 1430.94 842.397 1430.94 845.366V855.854C1430.94 858.841 1428.51 861.263 1425.51 861.263Z" fill="#BDD0FB"/>
<path d="M1081.5 783.001C1074.07 783.001 1068.02 776.954 1068.02 769.523C1068.02 762.091 1074.07 756.044 1081.5 756.044C1088.94 756.044 1094.98 762.091 1094.98 769.523C1094.98 776.954 1088.94 783.001 1081.5 783.001ZM1081.5 758.044C1075.17 758.044 1070.02 763.194 1070.02 769.523C1070.02 775.852 1075.17 781.001 1081.5 781.001C1087.83 781.001 1092.98 775.852 1092.98 769.523C1092.98 763.194 1087.83 758.044 1081.5 758.044Z" fill="#BDD0FB"/>
<path d="M1038.31 784.013C1030.88 784.013 1024.83 777.966 1024.83 770.534C1024.83 763.102 1030.88 757.056 1038.31 757.056C1045.75 757.056 1051.79 763.103 1051.79 770.534C1051.79 777.966 1045.75 784.013 1038.31 784.013ZM1038.31 759.056C1031.98 759.056 1026.83 764.205 1026.83 770.534C1026.83 776.863 1031.98 782.013 1038.31 782.013C1044.64 782.013 1049.79 776.864 1049.79 770.534C1049.79 764.204 1044.64 759.056 1038.31 759.056Z" fill="#BDD0FB"/>
<path d="M996.813 784.013C989.381 784.013 983.334 777.966 983.334 770.534C983.334 763.102 989.38 757.056 996.813 757.056C1004.25 757.056 1010.29 763.103 1010.29 770.534C1010.29 777.966 1004.25 784.013 996.813 784.013ZM996.813 759.056C990.484 759.056 985.334 764.205 985.334 770.534C985.334 776.863 990.483 782.013 996.813 782.013C1003.14 782.013 1008.29 776.864 1008.29 770.534C1008.29 764.204 1003.14 759.056 996.813 759.056Z" fill="#BDD0FB"/>
<path d="M1246.82 904.891L1162.28 904.188C1159.63 904.166 1157.5 902.001 1157.52 899.352L1157.54 896.994C1157.56 894.407 1159.63 892.303 1162.22 892.239L1246.79 890.147C1249.5 890.08 1251.72 892.271 1251.7 894.981L1251.66 900.134C1251.64 902.784 1249.47 904.913 1246.82 904.891Z" fill="url(#paint9_linear_6_5)"/>
<path d="M1265.04 1058.52L1140.57 1057.48C1136.36 1057.45 1132.98 1054.01 1133.02 1049.8L1134.05 925.136C1134.09 921.006 1137.41 917.657 1141.54 917.584L1264.45 919.916C1269.66 920.015 1273.81 924.287 1273.77 929.493L1272.72 1050.96C1272.69 1055.17 1269.25 1058.55 1265.04 1058.52Z" fill="#BDD0FB"/>
<path d="M1089.54 904.891L1005 904.188C1002.35 904.166 1000.22 902.001 1000.24 899.352L1000.26 896.994C1000.28 894.407 1002.35 892.303 1004.94 892.239L1089.51 890.147C1092.22 890.08 1094.44 892.271 1094.42 894.981L1094.38 900.134C1094.36 902.784 1092.19 904.913 1089.54 904.891Z" fill="url(#paint10_linear_6_5)"/>
<path d="M1107.76 1058.52L983.29 1057.48C979.084 1057.45 975.703 1054.01 975.738 1049.8L976.774 925.136C976.808 921.006 980.128 917.657 984.257 917.584L1107.17 919.916C1112.38 920.015 1116.53 924.287 1116.49 929.493L1115.44 1050.96C1115.41 1055.17 1111.97 1058.55 1107.76 1058.52Z" fill="#BDD0FB"/>
<path d="M1404.57 907.839L1320.02 907.136C1317.38 907.114 1315.25 904.949 1315.27 902.3L1315.29 899.942C1315.31 897.355 1317.38 895.251 1319.97 895.187L1404.53 893.095C1407.24 893.028 1409.47 895.219 1409.45 897.929L1409.41 903.082C1409.38 905.732 1407.22 907.862 1404.57 907.839Z" fill="url(#paint11_linear_6_5)"/>
<path d="M1422.79 1061.47L1298.32 1060.43C1294.11 1060.4 1290.73 1056.96 1290.77 1052.75L1291.8 928.084C1291.84 923.954 1295.15 920.605 1299.28 920.532L1422.2 922.864C1427.41 922.963 1431.56 927.235 1431.52 932.441L1430.47 1053.91C1430.43 1058.12 1427 1061.5 1422.79 1061.47Z" fill="#BDD0FB"/>
<path d="M1428.5 1163.11C1428.5 1171.47 1421.66 1178.22 1413.3 1178.09L981.024 1171.75C973.824 1171.65 968.043 1165.78 968.043 1158.58V1083.6C968.043 1076.27 974.01 1070.36 981.33 1070.42L1415.44 1074.08C1422.54 1074.14 1428.31 1079.81 1428.5 1086.91V1163.11H1428.5Z" fill="#BDD0FB"/>
<path d="M1410.15 1229.97L979.916 1224.44C973.333 1224.35 968.042 1218.99 968.042 1212.41V1194.9C968.042 1190.41 971.715 1186.79 976.207 1186.85L1419.55 1192.69C1425.87 1192.77 1430.95 1197.91 1430.95 1204.23V1209.44C1430.94 1220.88 1421.59 1230.12 1410.15 1229.97Z" fill="#BDD0FB"/>
<path d="M473.5 1462.48C471.335 1462.48 469.581 1460.73 469.581 1458.56V990.106C469.581 987.941 471.336 986.187 473.5 986.187C475.665 986.187 477.419 987.941 477.419 990.106V1458.56C477.419 1460.73 475.664 1462.48 473.5 1462.48Z" fill="#7D97F4"/>
<path d="M367.293 1462.48C365.128 1462.48 363.374 1460.73 363.374 1458.56V990.106C363.374 987.941 365.128 986.187 367.293 986.187C369.458 986.187 371.212 987.941 371.212 990.106V1458.56C371.212 1460.73 369.458 1462.48 367.293 1462.48Z" fill="#7D97F4"/>
<path d="M106.356 1465.45C105.844 1465.45 105.325 1465.35 104.824 1465.14C102.832 1464.29 101.904 1461.99 102.75 1460L303.164 988.571C304.011 986.579 306.315 985.653 308.304 986.498C310.296 987.345 311.224 989.646 310.378 991.639L109.964 1463.06C109.33 1464.56 107.88 1465.45 106.356 1465.45Z" fill="#7D97F4"/>
<path d="M230.15 1465.45C229.638 1465.45 229.119 1465.35 228.618 1465.14C226.626 1464.29 225.698 1461.99 226.544 1460L426.958 988.571C427.805 986.579 430.109 985.653 432.098 986.498C434.09 987.345 435.018 989.646 434.172 991.639L233.758 1463.06C233.124 1464.56 231.674 1465.45 230.15 1465.45Z" fill="#7D97F4"/>
<path d="M482.297 994.417H293.288C291.735 994.417 290.477 993.158 290.477 991.606V986.181C290.477 984.628 291.736 983.37 293.288 983.37H482.297C483.85 983.37 485.108 984.629 485.108 986.181V991.606C485.108 993.159 483.85 994.417 482.297 994.417Z" fill="#7D97F4"/>
<path d="M400.288 1066.11H276.128C273.963 1066.11 272.209 1064.35 272.209 1062.19C272.209 1060.02 273.964 1058.27 276.128 1058.27H400.288C402.453 1058.27 404.207 1060.03 404.207 1062.19C404.207 1064.35 402.452 1066.11 400.288 1066.11Z" fill="#7D97F4"/>
<path d="M362.191 1147.43H238.031V1155.27H362.191V1147.43Z" fill="#7D97F4"/>
<path d="M325.311 1236.59H201.15V1244.43H325.311V1236.59Z" fill="#7D97F4"/>
<path d="M286.634 1333.58H162.474C160.309 1333.58 158.555 1331.83 158.555 1329.67C158.555 1327.5 160.309 1325.75 162.474 1325.75H286.634C288.799 1325.75 290.553 1327.5 290.553 1329.67C290.553 1331.83 288.799 1333.58 286.634 1333.58Z" fill="#7D97F4"/>
<path d="M249.241 1422.74H125.081C122.916 1422.74 121.162 1420.99 121.162 1418.83C121.162 1416.66 122.916 1414.91 125.081 1414.91H249.241C251.406 1414.91 253.16 1416.66 253.16 1418.83C253.16 1420.99 251.406 1422.74 249.241 1422.74Z" fill="#7D97F4"/>
<path d="M467.667 980.261C457.898 981.106 440.944 982.477 427.578 983.065C419.544 983.419 414.918 982.632 412.254 981.565C412.259 981.865 412.267 982.149 412.279 982.413C412.342 983.819 413.485 984.944 414.906 985.024C440.161 986.434 460.247 985.512 467.398 985.077C468.877 984.987 469.758 983.38 469.002 982.119C468.623 981.49 468.165 980.872 467.667 980.261Z" fill="url(#paint12_linear_6_5)"/>
<path d="M427.579 983.066C440.945 982.478 457.899 981.106 467.668 980.262C458.064 968.479 427.579 960.537 427.579 960.537H418.969C413.047 969.073 412.19 977.199 412.255 981.567C414.919 982.633 419.544 983.42 427.579 983.066Z" fill="url(#paint13_linear_6_5)"/>
<path d="M417.519 946.48L418.325 962.424C418.412 964.15 419.705 965.601 421.434 965.849C423.155 966.095 425.458 966.127 427.902 965.313C429.405 964.813 430.521 963.546 430.798 962.002L433.582 946.481H417.519V946.48Z" fill="url(#paint14_linear_6_5)"/>
<path d="M305.69 982.946C301.454 982.355 299.537 980.155 298.734 977.802C298.729 977.823 298.723 977.844 298.718 977.865C298.095 980.347 299.54 982.919 302.428 984.142C305.92 985.62 309.737 985.872 312.701 985.75C315.88 985.619 318.799 984.303 320.403 982.197L320.427 982.165C317.235 983.746 312.755 983.932 305.69 982.946Z" fill="url(#paint15_linear_6_5)"/>
<path d="M325.664 946.378H318.564C307.749 946.157 300.957 968.968 298.734 977.802C299.537 980.155 301.454 982.355 305.69 982.946C312.755 983.932 317.235 983.746 320.427 982.166C326.27 974.477 329.167 963.216 330.559 956.644C332.143 949.17 325.664 946.378 325.664 946.378Z" fill="url(#paint16_linear_6_5)"/>
<path d="M319.476 931.58L315.533 947.261C315.049 949.184 315.97 951.172 317.747 952.085C319.953 953.217 323.058 954.406 325.912 954.062C327.254 953.9 328.369 952.955 328.813 951.691L334.601 935.193L319.476 931.58Z" fill="url(#paint17_linear_6_5)"/>
<path d="M314.773 936.112C319.678 940.463 335.634 941.038 335.634 941.038C393.107 803.097 416.618 783.5 416.618 783.5C408.319 835.565 415.28 950.832 415.28 950.832C424.764 955.017 436.992 950.832 436.992 950.832C437.762 865.594 450.864 791.259 466.341 732.654C427.496 731.781 406.839 718.488 400.094 713.153C367.712 765.356 314.773 936.112 314.773 936.112Z" fill="url(#paint18_linear_6_5)"/>
<path d="M409.958 554.52C402.605 591.194 405.24 656.835 406.971 686.775C407.457 695.19 401.583 706.856 396.834 714.815C396.089 716.063 396.549 717.662 397.842 718.326C405.791 722.412 432.723 735.075 463.936 736.65C466.017 736.755 467.875 735.337 468.415 733.324C491.568 646.873 518.461 591.63 518.461 591.63C488.771 544.218 409.958 554.52 409.958 554.52Z" fill="url(#paint19_linear_6_5)"/>
<path d="M420.539 780.235C420.213 780.235 419.882 780.147 419.583 779.965C418.716 779.435 418.441 778.304 418.968 777.438C419.277 776.929 426.712 764.913 441.756 757.655C442.67 757.216 443.771 757.596 444.214 758.512C444.656 759.427 444.272 760.529 443.356 760.969C429.331 767.737 422.183 779.237 422.112 779.352C421.765 779.92 421.159 780.235 420.539 780.235Z" fill="url(#paint20_linear_6_5)"/>
<path d="M363.839 659.775C366.201 676.86 373.178 695.495 387.137 715.29L392.443 710.964C392.443 710.964 386.317 686.112 389.8 657.907C381.19 656.227 371.021 657.959 363.839 659.775Z" fill="url(#paint21_linear_6_5)"/>
<path d="M418.17 599.772L409.958 554.52C409.958 554.52 355.088 596.462 363.839 659.775C371.02 657.959 381.19 656.227 389.8 657.907C392.309 637.589 399.802 615.532 418.17 599.772Z" fill="url(#paint22_linear_6_5)"/>
<path d="M518.462 591.631L497.283 637.244C500.707 664.782 515.501 676.69 531.452 681.257C532.447 668.706 535.62 658.567 538.565 651.553C518.183 630.51 518.462 591.631 518.462 591.631Z" fill="url(#paint23_linear_6_5)"/>
<path d="M538.564 651.553C535.619 658.567 532.446 668.707 531.451 681.257C574.008 697.768 585.267 665.747 585.267 665.747L577.402 664.359C559.641 666.23 547.234 660.504 538.564 651.553Z" fill="url(#paint24_linear_6_5)"/>
<path d="M498.948 535.318L488.723 572.906C487.574 577.129 483.007 579.396 478.944 577.772C474.559 576.019 468.996 573.626 464.207 571.04C459.095 568.28 457.495 561.704 460.731 556.879L481.989 525.182L498.948 535.318Z" fill="url(#paint25_linear_6_5)"/>
<path d="M604.772 640.594L342.767 735.953C331.778 739.953 326.526 752.465 331.367 763.11L332.162 764.858C336.445 774.276 347.577 778.407 356.967 774.063L611.37 656.374L604.772 640.594Z" fill="url(#paint26_linear_6_5)"/>
<g opacity="0.23">
<path d="M725.2 710.237C796.632 710.237 854.538 653.375 854.538 583.232C854.538 513.089 796.632 456.227 725.2 456.227C653.769 456.227 595.862 513.089 595.862 583.232C595.862 653.375 653.769 710.237 725.2 710.237Z" fill="#BDD0FB"/>
</g>
<path d="M725.2 441.91C645.716 441.91 581.281 505.182 581.281 583.232C581.281 661.283 645.715 724.554 725.2 724.554C804.684 724.554 869.118 661.282 869.118 583.232C869.119 505.182 804.684 441.91 725.2 441.91ZM725.2 703.794C657.392 703.794 602.423 649.817 602.423 583.231C602.423 516.646 657.392 462.669 725.2 462.669C793.008 462.669 847.977 516.647 847.977 583.231C847.977 649.817 793.008 703.794 725.2 703.794Z" fill="url(#paint27_linear_6_5)"/>
<path d="M592.224 600.272C591.976 600.272 591.761 600.088 591.728 599.835C591.303 596.502 591.002 593.105 590.836 589.738C590.822 589.462 591.035 589.227 591.311 589.214C591.596 589.187 591.822 589.413 591.836 589.689C592.001 593.03 592.299 596.401 592.721 599.708C592.756 599.982 592.562 600.232 592.288 600.268C592.266 600.271 592.245 600.272 592.224 600.272ZM593.212 560.755C593.183 560.755 593.153 560.753 593.123 560.747C592.852 560.698 592.67 560.438 592.719 560.166C594.343 551.112 596.946 542.204 600.455 533.689C610.393 509.581 627.228 489.028 649.142 474.251C671.578 459.122 697.878 451.125 725.2 451.125C750.895 451.125 775.874 458.263 797.437 471.768C797.671 471.914 797.742 472.223 797.595 472.457C797.448 472.692 797.14 472.763 796.906 472.615C775.503 459.21 750.707 452.125 725.2 452.125C698.079 452.125 671.972 460.063 649.702 475.08C627.953 489.745 611.244 510.144 601.382 534.067L601.381 534.07C597.898 542.519 595.315 551.358 593.704 560.343C593.66 560.585 593.45 560.755 593.212 560.755Z" fill="#91B3FA"/>
<path d="M390.256 710.211L415.024 708.193L425.751 718.081C425.751 718.081 423.213 721.589 415.279 719.573C407.345 717.557 396.477 717.062 396.477 717.062C396.477 717.062 385.524 722 385.391 712.761L390.256 710.211Z" fill="url(#paint28_linear_6_5)"/>
<path d="M582.112 671.606C584.254 673.28 591.593 669.786 596.084 667.37C598.273 666.193 599.333 663.633 598.581 661.265C597.5 657.857 595.699 653.458 593.481 652.903C589.8 651.982 573.285 664.709 582.112 671.606Z" fill="url(#paint29_linear_6_5)"/>
<path d="M347.936 769.931C347.882 769.931 347.827 769.922 347.772 769.904C339.753 767.132 335.549 762.55 335.278 756.29C335.005 749.987 338.97 744.135 345.145 741.726L376.603 729.459C376.858 729.357 377.15 729.485 377.25 729.743C377.35 730 377.223 730.29 376.966 730.39L345.508 742.657C339.732 744.91 336.022 750.371 336.277 756.246C336.529 762.056 340.506 766.333 348.099 768.958C348.36 769.049 348.498 769.333 348.408 769.594C348.337 769.801 348.143 769.931 347.936 769.931Z" fill="#91B3FA"/>
<path d="M386.479 726.644C386.279 726.644 386.09 726.523 386.013 726.326C385.912 726.069 386.04 725.779 386.297 725.679L390.374 724.089C390.631 723.986 390.921 724.115 391.022 724.373C391.122 724.63 390.995 724.92 390.738 725.02L386.661 726.61C386.602 726.634 386.54 726.644 386.479 726.644Z" fill="#91B3FA"/>
<path d="M501.158 498.417C501.158 498.417 509.621 517.858 510.189 528.062C510.758 538.266 512.956 544.888 501.158 546.942C489.359 548.997 479.42 543.119 474.035 532.955C474.035 532.955 465.598 517.293 467.491 510.879C469.383 504.465 501.158 498.417 501.158 498.417Z" fill="url(#paint30_linear_6_5)"/>
<path d="M478.067 525.648H479.558C479.558 525.648 473.412 513.042 478.812 510.828C484.212 508.613 505.602 504.251 510.217 496.661C514.666 489.344 510.698 479.893 504.762 477.248C504.386 477.08 503.944 477.257 503.752 477.621L503.26 478.551C502.923 479.188 501.982 479.092 501.782 478.4C501.592 477.744 500.707 477.6 500.346 478.18C498.933 480.449 495.108 484.14 484.848 486.034C470.29 488.721 460.666 494.613 460.429 504.674C460.414 505.312 459.733 505.663 459.188 505.331C458.113 504.676 456.393 504.369 454.095 506.302C450.098 509.663 451.733 518.382 460.496 525.554C460.912 525.895 460.909 526.545 460.458 526.839C458.869 527.873 456.502 530.334 462.638 533.614C468.915 536.969 472.629 536.604 474.031 536.245C474.408 536.149 474.662 535.805 474.638 535.416L474.087 526.5C474.058 526.039 474.425 525.649 474.887 525.649L478.067 525.648Z" fill="url(#paint31_linear_6_5)"/>
<path d="M478.433 527.513C478.433 527.513 475.204 515.094 469.636 518.576C464.068 522.058 472.525 532.491 477.001 532.956L478.433 527.513Z" fill="url(#paint32_linear_6_5)"/>
<path d="M646.664 561.385L695.635 599.503L789.651 522.442L813.907 550.138L695.635 673.882L619.854 590.877L646.664 561.385Z" fill="url(#paint33_linear_6_5)"/>
<path d="M1525.25 489.707H1998.04C2010.93 489.707 2021.31 502.864 2021.08 518.902L2014.43 975.29C2014.12 996.769 1999.92 1013.9 1970.86 1013.63L1512.95 1006.48C1512.12 1006.29 1501.98 993.495 1501.99 977.792L1502.21 518.365C1502.21 502.535 1512.53 489.707 1525.25 489.707Z" fill="url(#paint34_linear_6_5)"/>
<path d="M1535.68 502.066H1989.67C2002.04 502.066 2012.02 514.567 2011.79 529.805L2005.4 963.439C2005.1 983.848 1991.47 1000.13 1974.89 999.869L1535.19 993.076C1523.07 992.889 1513.33 980.737 1513.34 965.817L1513.55 529.296C1513.56 514.255 1523.46 502.066 1535.68 502.066Z" fill="#91B3FA"/>
<path d="M1979.97 657.398L1547.31 653.857C1541.67 653.811 1537.11 649.22 1537.11 643.573V611.602C1537.11 605.841 1541.78 601.17 1547.55 601.17H1977.42C1984.99 601.17 1991.12 607.3 1991.12 614.862V646.343C1991.12 652.484 1986.11 657.448 1979.97 657.398Z" fill="#BDD0FB"/>
<path d="M2011.1 588.853H1513.34V526.36C1513.34 512.943 1524.21 502.067 1537.63 502.067H1989.12C2001.26 502.067 2011.1 511.91 2011.1 524.051L2011.1 588.853Z" fill="url(#paint35_linear_6_5)"/>
<path d="M1977.94 552.671L1750.13 550.511C1744.76 550.46 1740.44 546.913 1740.44 542.555L1740.44 534.96C1740.44 531.598 1743.8 528.871 1747.94 528.871H1979.57C1983.66 528.871 1986.88 531.687 1986.58 534.993L1985.49 547.047C1985.2 550.245 1981.89 552.709 1977.94 552.671Z" fill="#91B3FA"/>
<path d="M1893.3 640.129H1607.3C1605.4 640.129 1603.86 637.707 1603.86 634.72V620.25C1603.86 617.244 1605.42 614.814 1607.33 614.841L1893.33 618.823C1895.22 618.849 1896.74 621.263 1896.74 624.232V634.72C1896.74 637.707 1895.2 640.129 1893.3 640.129Z" fill="url(#paint36_linear_6_5)"/>
<path d="M1654.01 546.047C1658.88 541.174 1658.88 533.273 1654.01 528.4C1649.13 523.527 1641.23 523.527 1636.36 528.4C1631.49 533.273 1631.49 541.174 1636.36 546.047C1641.23 550.92 1649.13 550.92 1654.01 546.047Z" fill="#91B3FA"/>
<path d="M1602.01 550.705C1608.9 550.705 1614.49 545.118 1614.49 538.227C1614.49 531.336 1608.9 525.749 1602.01 525.749C1595.12 525.749 1589.53 531.336 1589.53 538.227C1589.53 545.118 1595.12 550.705 1602.01 550.705Z" fill="url(#paint37_linear_6_5)"/>
<path d="M1560.51 550.705C1567.4 550.705 1572.99 545.118 1572.99 538.227C1572.99 531.336 1567.4 525.749 1560.51 525.749C1553.62 525.749 1548.03 531.336 1548.03 538.227C1548.03 545.118 1553.62 550.705 1560.51 550.705Z" fill="url(#paint38_linear_6_5)"/>
<path d="M1759.07 819.079L1551.11 817.351C1544.09 817.293 1538.42 813.836 1538.45 809.63L1539.49 684.964C1539.52 680.834 1545.05 677.503 1551.95 677.454L1757.31 680.471C1766.01 680.599 1772.98 684.894 1772.93 690.1L1771.86 811.57C1771.82 815.775 1766.1 819.137 1759.07 819.079Z" fill="#BDD0FB"/>
<path d="M1970.19 820.649L1798.43 819.221C1792.62 819.173 1787.95 815.724 1787.98 811.518L1789.02 686.852C1789.05 682.722 1793.62 679.383 1799.32 679.324L1968.94 682.044C1976.12 682.159 1981.87 686.444 1981.82 691.651L1980.76 813.121C1980.73 817.326 1975.99 820.697 1970.19 820.649Z" fill="#BDD0FB"/>
<path d="M1973.65 962.064C1973.62 970.058 1967.1 976.505 1959.1 976.447L1557.64 973.515C1550.94 973.364 1545.56 965.069 1545.56 954.888V848.878C1545.56 838.528 1551.11 830.163 1557.93 830.25L1961.93 835.427C1968.53 835.512 1973.91 843.528 1974.08 853.558L1973.65 962.064Z" fill="#BDD0FB"/>
<path d="M1871.4 647.856C1875.25 647.374 1878.65 645.675 1881.28 643.189L1897.82 659.47C1898.76 660.371 1900.26 660.331 1901.16 659.38L1901.32 659.204C1902.33 658.129 1902.21 656.42 1901.06 655.495L1882.87 641.495C1885.91 637.771 1887.49 632.815 1886.84 627.613C1885.59 617.658 1876.66 610.581 1866.88 611.806C1857.11 613.031 1850.19 622.095 1851.44 632.05C1852.69 642.004 1861.63 649.081 1871.4 647.856ZM1856.18 631.456C1855.26 624.164 1860.33 617.525 1867.49 616.627C1874.65 615.73 1881.19 620.913 1882.11 628.205C1883.02 635.497 1877.96 642.136 1870.8 643.034C1863.64 643.932 1857.09 638.748 1856.18 631.456Z" fill="url(#paint39_linear_6_5)"/>
<path d="M1954.92 856.365L1565.85 852.379C1563.66 852.357 1561.9 851.679 1561.91 850.861L1561.97 841.639C1561.97 840.809 1563.79 840.15 1566.01 840.174L1955.08 844.394C1957.27 844.418 1959.02 845.095 1959.02 845.912L1958.96 854.899C1958.95 855.73 1957.14 856.388 1954.92 856.365Z" fill="url(#paint40_linear_6_5)"/>
<path d="M1953.78 878.629L1564.72 874.643C1562.53 874.621 1560.77 873.943 1560.77 873.125L1560.84 863.903C1560.84 863.073 1562.66 862.414 1564.88 862.438L1953.95 866.658C1956.13 866.682 1957.89 867.359 1957.89 868.176L1957.83 877.163C1957.82 877.994 1956 878.652 1953.78 878.629Z" fill="url(#paint41_linear_6_5)"/>
<path d="M1953.64 900.899L1564.57 896.914C1562.38 896.891 1560.62 896.214 1560.63 895.396L1560.69 886.174C1560.69 885.344 1562.51 884.685 1564.73 884.71L1953.8 888.93C1955.99 888.954 1957.74 889.631 1957.74 890.448L1957.68 899.435C1957.67 900.264 1955.86 900.922 1953.64 900.899Z" fill="url(#paint42_linear_6_5)"/>
<path d="M1953.64 923.169L1564.57 919.184C1562.38 919.162 1560.62 918.484 1560.63 917.666L1560.69 908.444C1560.69 907.614 1562.51 906.955 1564.73 906.979L1953.8 911.199C1955.99 911.223 1957.74 911.9 1957.74 912.717L1957.68 921.704C1957.67 922.534 1955.86 923.192 1953.64 923.169Z" fill="url(#paint43_linear_6_5)"/>
<path d="M1953.64 945.071L1564.57 941.085C1562.38 941.063 1560.62 940.385 1560.63 939.567L1560.69 930.345C1560.69 929.515 1562.51 928.856 1564.73 928.881L1953.8 933.101C1955.99 933.125 1957.74 933.802 1957.74 934.619L1957.68 943.606C1957.67 944.435 1955.86 945.093 1953.64 945.071Z" fill="url(#paint44_linear_6_5)"/>
<path d="M1775.27 966.522L1562.78 963.713C1561.58 963.697 1560.62 963.025 1560.63 962.207L1560.69 952.985C1560.69 952.155 1561.69 951.491 1562.9 951.508L1775.39 954.552C1776.59 954.569 1777.54 955.24 1777.54 956.058L1777.48 965.045C1777.47 965.874 1776.48 966.538 1775.27 966.522Z" fill="url(#paint45_linear_6_5)"/>
<path d="M961.507 156.603H1434.29C1447.19 156.603 1457.57 169.76 1457.34 185.798L1450.68 642.186C1450.37 663.666 1436.17 680.797 1407.12 680.527L966.974 673.655C951.681 673.416 938.868 661.435 938.269 646.151C938.25 645.666 938.24 645.178 938.241 644.688L938.461 185.261C938.469 169.431 948.785 156.603 961.507 156.603Z" fill="url(#paint46_linear_6_5)"/>
<path d="M971.933 168.963H1425.92C1438.3 168.963 1448.27 181.464 1448.05 196.702L1441.66 630.336C1441.36 650.745 1427.73 667.022 1411.15 666.766L971.445 659.973C959.328 659.786 949.586 647.634 949.594 632.714L949.805 196.193C949.812 181.151 959.717 168.963 971.933 168.963Z" fill="#91B3FA"/>
<path d="M1405.91 256.653H985.249C981.652 256.653 978.736 253.737 978.736 250.14V222.182C978.736 218.408 981.795 215.349 985.569 215.349H1404.76C1408.44 215.349 1411.42 218.334 1411.42 222.016V251.141C1411.42 254.185 1408.95 256.653 1405.91 256.653Z" fill="url(#paint47_linear_6_5)"/>
<path d="M1376.39 244.085H1217.81C1215.2 245.068 1213.08 242.721 1213.08 239.826V232.057C1213.08 229.162 1215.2 226.815 1217.81 226.815H1376.39C1379.01 226.815 1381.13 229.162 1381.13 232.057V239.826C1381.13 242.721 1379.01 245.068 1376.39 244.085Z" fill="#7D97F4"/>
<path d="M1289.72 461.933C1289.72 472.808 1280.92 481.63 1270.04 481.653L993.866 482.222C986.648 482.222 980.796 476.237 980.796 468.854V322.133C980.796 314.668 986.772 308.65 994.069 308.766L1276.85 313.264C1283.99 313.378 1289.72 319.329 1289.72 326.631V461.933Z" fill="url(#paint48_linear_6_5)"/>
<path d="M1254.37 642.545L1136.2 641.563C1132.21 641.53 1129 638.266 1129.03 634.273L1130.02 515.923C1130.05 512.003 1133.2 508.823 1137.12 508.754L1253.81 510.968C1258.75 511.062 1262.69 515.117 1262.65 520.06L1261.66 635.376C1261.62 639.368 1258.36 642.578 1254.37 642.545Z" fill="#BDD0FB"/>
<path d="M1104.07 642.545L985.907 641.563C981.914 641.53 978.705 638.266 978.738 634.273L979.721 515.923C979.754 512.003 982.905 508.823 986.825 508.754L1103.51 510.968C1108.46 511.062 1112.4 515.117 1112.36 520.06L1111.36 635.376C1111.33 639.368 1108.07 642.578 1104.07 642.545Z" fill="#BDD0FB"/>
<path d="M1403.14 645.344L1284.97 644.362C1280.98 644.329 1277.77 641.065 1277.8 637.072L1278.79 518.722C1278.82 514.802 1281.97 511.622 1285.89 511.553L1402.58 513.767C1407.52 513.861 1411.47 517.916 1411.42 522.859L1410.43 638.175C1410.4 642.167 1407.13 645.378 1403.14 645.344Z" fill="#BDD0FB"/>
<path d="M1401.49 488.819H1316.05C1310.57 488.819 1306.12 484.342 1306.12 478.818V322.716C1306.12 318.076 1309.73 314.307 1314.19 314.282L1401.92 313.788C1407.23 314.022 1411.42 318.426 1411.42 323.779V478.819C1411.42 484.342 1406.98 488.819 1401.49 488.819Z" fill="#BDD0FB"/>
<path d="M1077.96 206.024C1070.53 206.024 1064.49 199.978 1064.49 192.545C1064.49 185.112 1070.53 179.066 1077.96 179.066C1085.4 179.066 1091.44 185.112 1091.44 192.545C1091.44 199.978 1085.4 206.024 1077.96 206.024ZM1077.96 181.067C1071.64 181.067 1066.49 186.216 1066.49 192.546C1066.49 198.876 1071.63 204.025 1077.96 204.025C1084.29 204.025 1089.44 198.876 1089.44 192.546C1089.44 186.216 1084.29 181.067 1077.96 181.067Z" fill="url(#paint49_linear_6_5)"/>
<path d="M1034.78 207.036C1027.34 207.036 1021.3 200.99 1021.3 193.557C1021.3 186.125 1027.34 180.079 1034.78 180.079C1042.21 180.079 1048.25 186.125 1048.25 193.557C1048.25 200.99 1042.21 207.036 1034.78 207.036ZM1034.78 182.08C1028.45 182.08 1023.3 187.229 1023.3 193.558C1023.3 199.887 1028.45 205.037 1034.78 205.037C1041.11 205.037 1046.25 199.888 1046.25 193.558C1046.25 187.228 1041.1 182.08 1034.78 182.08Z" fill="url(#paint50_linear_6_5)"/>
<path d="M993.274 207.036C985.842 207.036 979.796 200.99 979.796 193.557C979.796 186.125 985.842 180.079 993.274 180.079C1000.71 180.079 1006.75 186.125 1006.75 193.557C1006.75 200.99 1000.71 207.036 993.274 207.036ZM993.274 182.08C986.945 182.08 981.796 187.229 981.796 193.558C981.796 199.887 986.945 205.037 993.274 205.037C999.603 205.037 1004.75 199.888 1004.75 193.558C1004.75 187.228 999.604 182.08 993.274 182.08Z" fill="url(#paint51_linear_6_5)"/>
<path d="M1141.68 424.543C1123.3 424.543 1108.38 409.617 1108.38 391.27C1108.38 372.888 1123.3 357.961 1141.65 357.961C1160.03 357.961 1174.96 372.888 1174.96 391.234V391.269C1174.96 409.617 1160.03 424.543 1141.68 424.543ZM1141.68 359.927C1124.39 359.927 1110.34 373.972 1110.34 391.235C1110.34 408.533 1124.39 422.578 1141.65 422.578C1158.95 422.578 1172.99 408.534 1172.99 391.271V391.236C1172.99 373.972 1158.95 359.927 1141.68 359.927Z" fill="url(#paint52_linear_6_5)"/>
<path d="M1132.49 407.973C1131.56 407.973 1130.79 407.232 1130.77 406.296L1129.98 376.905C1129.95 375.936 1130.42 375.04 1131.23 374.509C1132.04 373.978 1133.05 373.905 1133.93 374.316L1162.96 387.895C1163.92 388.343 1164.53 389.278 1164.56 390.336C1164.59 391.393 1164.03 392.36 1163.09 392.858L1137.46 406.52C1136.62 406.968 1135.58 406.649 1135.13 405.81C1134.69 404.97 1135 403.927 1135.84 403.479L1160.29 390.448L1133.45 377.898L1134.21 406.202C1134.24 407.154 1133.49 407.945 1132.54 407.971C1132.52 407.973 1132.5 407.973 1132.49 407.973Z" fill="url(#paint53_linear_6_5)"/>
<path d="M664.181 1070.71C696.909 1146 783.58 1186.25 841.591 1185.63L857.392 1161.24C801.595 1142.21 763.033 1124.93 741.477 1069.95C740.308 1066.97 737.442 1064.99 734.24 1064.99H667.954C665.009 1064.99 663.007 1068.01 664.181 1070.71Z" fill="url(#paint54_linear_6_5)"/>
<path d="M821.521 1221.21L896.941 1177.22C898.488 1176.32 898.556 1174.11 897.066 1173.11L846.008 1139C844.01 1137.66 841.29 1138.63 840.577 1140.92L816.795 1217.45C815.918 1220.27 818.968 1222.7 821.521 1221.21Z" fill="url(#paint55_linear_6_5)"/>
<path d="M677.992 352.825C714.329 279.212 802.849 243.21 860.762 246.637L875.362 271.764C818.708 288.073 779.354 303.463 755.161 357.337C753.849 360.258 750.891 362.09 747.692 361.935L681.484 358.724C678.542 358.58 676.689 355.466 677.992 352.825Z" fill="url(#paint56_linear_6_5)"/>
<path d="M842.438 210.132L924.583 235.217C930.22 236.938 931.439 244.374 926.646 247.805L862.913 293.43C860.853 294.667 858.183 293.573 857.582 291.247L837.535 213.658C836.796 210.797 839.96 208.522 842.438 210.132Z" fill="url(#paint57_linear_6_5)"/>
<path d="M1501.16 244.466C1582.94 237.219 1659.72 294.102 1686.91 345.35L1673.04 370.888C1629.65 330.98 1596.04 305.371 1537.44 312.724C1534.27 313.123 1531.16 311.548 1529.63 308.736L1497.94 250.516C1496.53 247.929 1498.23 244.726 1501.16 244.466Z" fill="url(#paint58_linear_6_5)"/>
<path d="M1708.56 310.714L1729.86 393.923C1731.32 399.633 1725.6 404.541 1720.18 402.232L1648.06 371.524C1645.94 370.407 1645.48 367.558 1647.16 365.835L1703 308.361C1705.06 306.242 1708.65 307.76 1708.56 310.714Z" fill="url(#paint59_linear_6_5)"/>
<path d="M1394.82 1083.4C1476.81 1079.14 1544.89 1012.08 1564.65 957.538L1547.35 934.189C1509.96 979.771 1480.25 1009.83 1421.21 1010.74C1418 1010.79 1415.15 1012.78 1414.03 1015.78L1390.79 1077.86C1389.76 1080.62 1391.88 1083.55 1394.82 1083.4Z" fill="url(#paint60_linear_6_5)"/>
<path d="M1590.93 988.807L1576.18 902.754C1575.87 900.989 1573.83 900.15 1572.37 901.196L1522.52 937.052C1520.57 938.455 1520.52 941.34 1522.42 942.812L1585.75 991.915C1588.08 993.726 1591.43 991.72 1590.93 988.807Z" fill="url(#paint61_linear_6_5)"/>
<path d="M1993.29 1270.23H1980.44V1409.17H1993.29V1270.23Z" fill="#7D97F4"/>
<path d="M2043.13 1411.85H1930.6V1406.34C1930.6 1404.76 1931.88 1403.48 1933.46 1403.48H2040.05C2041.75 1403.48 2043.13 1404.86 2043.13 1406.56V1411.85Z" fill="#7D97F4"/>
<path d="M2064.41 1265.11C2064.41 1273.18 2057.8 1279.79 2049.72 1279.79H1928.73C1920.65 1279.79 1914.05 1273.18 1914.05 1265.11V1251.83C1914.05 1243.75 1920.65 1237.15 1928.73 1237.15H2049.72C2057.8 1237.15 2064.41 1243.75 2064.41 1251.83L2064.41 1265.11Z" fill="#7D97F4"/>
<path d="M1915.31 1384.56C1915.31 1384.56 1878.62 1411 1884.99 1428.77C1884.99 1428.77 1925.13 1411.45 1929.98 1397.81C1934.83 1384.16 1929.16 1378.14 1929.16 1378.14L1915.31 1384.56Z" fill="url(#paint62_linear_6_5)"/>
<path d="M1920.82 1362.39L1926.82 1379.74C1927.72 1382.35 1926.82 1385.33 1924.48 1386.81C1923.3 1387.55 1921.7 1388.24 1919.51 1388.73C1916.42 1389.44 1913.23 1388.01 1911.75 1385.21L1904.57 1371.7L1920.82 1362.39Z" fill="url(#paint63_linear_6_5)"/>
<path d="M1979.2 1206.3C1979.2 1206.3 1903.84 1219.36 1871.52 1249.22C1839.2 1279.08 1901.19 1374.33 1901.19 1374.33C1901.19 1374.33 1911.35 1374.27 1923.65 1363.72C1923.65 1363.72 1886.9 1292.08 1918.57 1271.19C1954.19 1247.7 1995.23 1242.41 1995.23 1242.41L1979.93 1208.6L1979.2 1206.3Z" fill="url(#paint64_linear_6_5)"/>
<path d="M1891.36 1418.94C1899.43 1415.2 1922.28 1399.22 1926.13 1398.51C1929.98 1397.8 1936.66 1402.33 1936.66 1402.33C1936.66 1402.33 1938.28 1405.25 1936.54 1410.35C1931.18 1416.84 1919.28 1429.2 1903.27 1433.81C1891.5 1437.2 1883.26 1434.04 1878.14 1430.34C1880.96 1426.05 1885.99 1421.43 1891.36 1418.94Z" fill="url(#paint65_linear_6_5)"/>
<path d="M1903.27 1433.81C1919.28 1429.2 1931.18 1416.84 1936.54 1410.35C1935.37 1413.79 1932.66 1418.23 1926.88 1423.43C1912.53 1436.32 1885.12 1440.97 1879.28 1440.08C1874.61 1439.36 1875.05 1435.04 1878.13 1430.34C1883.26 1434.04 1891.5 1437.2 1903.27 1433.81Z" fill="url(#paint66_linear_6_5)"/>
<path d="M1943.5 1391.04C1943.41 1393.26 1938.87 1400.89 1936.21 1405.17C1934.95 1407.2 1932.74 1408.44 1930.34 1408.45C1928.83 1408.45 1927.08 1408.32 1925.5 1407.86C1923.12 1407.18 1921.78 1404.65 1922.48 1402.27L1927.67 1384.56L1943.5 1391.04Z" fill="url(#paint67_linear_6_5)"/>
<path d="M2051.73 1183.68C2051.73 1183.68 2068.47 1228.43 2051.73 1242.04C2035 1255.64 1995.07 1270.96 1986.16 1298.07C1977.24 1325.17 1962.1 1377.85 1941.85 1396.5C1941.85 1396.5 1927.62 1395.12 1922.3 1389.45C1922.3 1389.45 1933.83 1310.82 1941.44 1290.64C1948.03 1273.17 1957.73 1247.95 1976.33 1233.85C1981.66 1229.81 1980.73 1223.42 1978.26 1217.21L1973.77 1205.91L2051.73 1183.68Z" fill="url(#paint68_linear_6_5)"/>
<path d="M1877.2 1148.61C1905.26 1150.3 1896.51 1105.47 1896.01 1103.69L1938.59 1133.77C1938.59 1133.77 1936.34 1157.74 1900.93 1170.32C1891.97 1173.5 1883.79 1173.64 1876.55 1172.08C1879.63 1163.08 1879.01 1155.01 1877.2 1148.61Z" fill="url(#paint69_linear_6_5)"/>
<path d="M1822.94 1135.12C1833.4 1127.84 1845.24 1135.12 1845.24 1135.12C1859.22 1144.26 1869.57 1148.15 1877.2 1148.61C1879.01 1155.01 1879.64 1163.08 1876.55 1172.08C1860.89 1168.72 1849.68 1157.38 1844.81 1151.57C1843.06 1149.47 1839.96 1149.11 1837.81 1150.8C1835.64 1152.52 1833.52 1154.87 1833.9 1157.35C1834.66 1162.24 1828.99 1163.79 1828.56 1162.02C1828.14 1160.25 1830.5 1149.74 1830.5 1149.74C1830.5 1149.74 1819.16 1161.15 1814.74 1165.53C1810.31 1169.91 1804.74 1165.53 1804.74 1165.53C1804.74 1165.53 1812.49 1142.39 1822.94 1135.12Z" fill="url(#paint70_linear_6_5)"/>
<path d="M2008.03 1034.46C2008.03 1034.46 1967.21 1018.12 1891.24 1080.84C1891.24 1080.84 1884.9 1093.97 1891.82 1105.66C1898.74 1117.35 1964.7 1174.32 1973.77 1205.91C1973.77 1205.91 2013.06 1218.68 2053.7 1188.4C2053.7 1188.4 2050.12 1100.48 2008.03 1034.46Z" fill="url(#paint71_linear_6_5)"/>
<path d="M1927.33 1019.88L1947.43 1044.24C1949.42 1046.65 1949.86 1050.02 1948.48 1052.83C1945.7 1058.52 1939.08 1066.81 1924.4 1065.66C1920.03 1065.32 1916.17 1062.69 1914.26 1058.74L1900.21 1029.7L1927.33 1019.88Z" fill="url(#paint72_linear_6_5)"/>
<path d="M2039.64 1138.8C2044.38 1119.5 1996.38 1076.47 1996.38 1076.47L2008.03 1034.46C2008.03 1034.46 2111.68 1103.46 2085.27 1158.95C2081.48 1166.9 2076.45 1172.48 2070.62 1176.2C2062.28 1153.74 2048.98 1143.43 2039.64 1138.8Z" fill="url(#paint73_linear_6_5)"/>
<path d="M2039.67 1135.99C2040.18 1135.99 2040.65 1135.64 2040.77 1135.12C2045.62 1115.39 1999.15 1073.46 1997.17 1071.68C1996.7 1071.26 1995.98 1071.3 1995.56 1071.77C1995.15 1072.24 1995.19 1072.95 1995.65 1073.37C1996.13 1073.8 2043.09 1116.16 2038.57 1134.58C2038.42 1135.19 2038.79 1135.8 2039.4 1135.95C2039.49 1135.98 2039.58 1135.99 2039.67 1135.99Z" fill="url(#paint74_linear_6_5)"/>
<path d="M1966.94 1137.14C1966.94 1137.14 2023.85 1159.23 2037.74 1142.61C2038.68 1141.49 2039.29 1140.2 2039.64 1138.8C2048.98 1143.43 2062.28 1153.74 2070.62 1176.2C2040.69 1195.33 1989.53 1165.56 1975.7 1156.79C1973.42 1155.34 1970.69 1154.84 1968.05 1155.38C1962.72 1156.49 1953.5 1158.12 1948.53 1157.35C1941.25 1156.23 1930.81 1181.88 1919.02 1173.97C1919.02 1173.97 1929.11 1129.38 1966.94 1137.14Z" fill="url(#paint75_linear_6_5)"/>
<path d="M1883.61 984.092C1883.41 984.875 1888.32 1038.13 1888.32 1038.13L1918.67 1034.68L1921.51 983.512C1921.51 983.512 1886.99 970.98 1883.61 984.092Z" fill="url(#paint76_linear_6_5)"/>
<path d="M1913.6 994.116L1914.22 1021.17C1914.23 1021.51 1914.19 1021.85 1914.1 1022.19C1913.57 1024.25 1911.24 1031.19 1904.28 1028.37C1897.96 1025.81 1892.16 1023.56 1887.9 1024.37C1885.98 1024.74 1884.66 1026.49 1884.84 1028.43C1885.28 1033.27 1886.49 1044.15 1888.99 1053.45C1889.49 1055.33 1891.37 1056.5 1893.29 1056.16C1899.09 1055.14 1911.25 1052.65 1920.57 1048.35C1921.83 1047.76 1922.68 1046.55 1922.77 1045.17C1923.23 1038.41 1924.68 1017.86 1925.98 1012.19C1927.19 1006.88 1934.15 1004.38 1937.15 1003.54C1938.13 1003.26 1938.95 1002.6 1939.43 1001.7C1941.12 998.516 1943.8 991.008 1934.43 986.784C1932.47 985.9 1931.64 983.59 1932.59 981.657C1934.46 977.809 1935.74 971.763 1928.6 967.571C1921.33 963.31 1915.18 966.755 1911.74 969.726C1910.35 970.927 1908.33 970.912 1906.89 969.766C1906.07 969.114 1904.96 968.807 1903.49 969.51C1901.52 970.457 1899.16 969.406 1898.43 967.347C1897.01 963.392 1893.72 958.961 1886.1 959.421C1872.58 960.237 1869.47 974.777 1872.02 983.777C1874.58 992.778 1889.18 991.06 1896.81 987.5C1902.6 984.794 1909.27 989.029 1912.14 991.215C1913.05 991.907 1913.58 992.975 1913.6 994.116Z" fill="url(#paint77_linear_6_5)"/>
<path d="M1926.1 1022.05C1926.1 1022.05 1922.32 1006.17 1928.34 1003.05C1934.35 999.921 1942.44 1002.77 1939.4 1013.64C1935.61 1027.16 1926.1 1022.05 1926.1 1022.05Z" fill="url(#paint78_linear_6_5)"/>
<path d="M1937.78 1180.71C1937.69 1180.71 1937.6 1180.71 1937.5 1180.71L1818.1 1180.58C1815.15 1180.58 1812.76 1178.19 1812.76 1175.23C1812.76 1172.28 1815.17 1169.84 1818.11 1169.9L1937.52 1170.03C1940.47 1170.03 1942.86 1172.42 1942.86 1175.37C1942.85 1178.23 1940.6 1180.57 1937.78 1180.71Z" fill="url(#paint79_linear_6_5)"/>
<path d="M1710.76 1072.29H1810.2C1817.53 1072.29 1824.21 1076.53 1827.34 1083.16L1873.31 1180.65H1749.73C1745 1180.65 1740.76 1177.76 1739.02 1173.36L1703.37 1083.16C1701.31 1077.94 1705.15 1072.29 1710.76 1072.29Z" fill="url(#paint80_linear_6_5)"/>
<path d="M1780.81 1122.28C1782.97 1128.97 1781.38 1135.47 1777.26 1136.8C1773.14 1138.12 1768.05 1133.77 1765.9 1127.08C1763.74 1120.38 1765.34 1113.88 1769.45 1112.55C1773.57 1111.23 1778.66 1115.58 1780.81 1122.28Z" fill="#91B3FA"/>
<path d="M1726.88 1436.81C1726.22 1436.81 1725.54 1436.68 1724.9 1436.42C1722.35 1435.36 1721.18 1432.5 1722.27 1430.03L1827.51 1193.19C1828.6 1190.73 1831.55 1189.59 1834.1 1190.65C1836.64 1191.71 1837.82 1194.57 1836.72 1197.03L1731.49 1433.87C1730.67 1435.71 1728.82 1436.81 1726.88 1436.81Z" fill="#7D97F4"/>
<path d="M1845.43 1436.81C1843.48 1436.81 1841.63 1435.71 1840.82 1433.87L1735.58 1197.03C1734.49 1194.57 1735.66 1191.71 1738.21 1190.65C1740.75 1189.59 1743.7 1190.73 1744.8 1193.19L1850.04 1430.03C1851.13 1432.5 1849.95 1435.36 1847.41 1436.42C1846.76 1436.68 1846.09 1436.81 1845.43 1436.81Z" fill="#7D97F4"/>
<path d="M2052.63 1436.81C2051.96 1436.81 2051.29 1436.68 2050.65 1436.42C2048.1 1435.36 2046.92 1432.5 2048.02 1430.03L2153.26 1193.19C2154.35 1190.73 2157.3 1189.59 2159.85 1190.65C2162.39 1191.71 2163.57 1194.57 2162.47 1197.03L2057.24 1433.87C2056.42 1435.71 2054.57 1436.81 2052.63 1436.81Z" fill="#7D97F4"/>
<path d="M2171.18 1436.81C2169.23 1436.81 2167.38 1435.71 2166.57 1433.87L2061.33 1197.03C2060.23 1194.57 2061.41 1191.71 2063.96 1190.65C2066.5 1189.59 2069.45 1190.73 2070.55 1193.19L2175.78 1430.03C2176.88 1432.5 2175.7 1435.36 2173.16 1436.42C2172.51 1436.68 2171.84 1436.81 2171.18 1436.81Z" fill="#7D97F4"/>
<path d="M2183.52 1185.88C2183.79 1184.33 2183.42 1182.72 2182.52 1181.5C2181.63 1180.28 2180.29 1179.57 2178.87 1179.57H1700.13C1698.27 1179.57 1696.54 1180.63 1695.54 1182.39C1694.54 1184.14 1694.4 1186.34 1695.18 1188.23L1700.37 1200.8C1701.56 1203.68 1704.13 1205.53 1706.97 1205.53H2175.59C2178.22 1205.53 2180.49 1203.43 2180.99 1200.54L2183.52 1185.88Z" fill="#7D97F4"/>
<defs>
<linearGradient id="paint0_linear_6_5" x1="-112.555" y1="1714.15" x2="2073.98" y2="-11.65" gradientUnits="userSpaceOnUse">
<stop stop-color="#DAE3FE"/>
<stop offset="1" stop-color="#E9EFFD"/>
</linearGradient>
<linearGradient id="paint1_linear_6_5" x1="989.187" y1="999.606" x2="965.187" y2="1627.61" gradientUnits="userSpaceOnUse">
<stop stop-color="#09005D"/>
<stop offset="1" stop-color="#1A0F91"/>
</linearGradient>
<linearGradient id="paint2_linear_6_5" x1="1000.06" y1="268.688" x2="896.061" y2="1144.69" gradientUnits="userSpaceOnUse">
<stop stop-color="#09005D"/>
<stop offset="1" stop-color="#1A0F91"/>
</linearGradient>
<linearGradient id="paint3_linear_6_5" x1="874.667" y1="815.888" x2="1852.76" y2="-162.21" gradientUnits="userSpaceOnUse">
<stop stop-color="#FE7062"/>
<stop offset="1" stop-color="#FF928E"/>
</linearGradient>
<linearGradient id="paint4_linear_6_5" x1="1046.42" y1="1129.98" x2="982.419" y2="1353.98" gradientUnits="userSpaceOnUse">
<stop stop-color="#09005D"/>
<stop offset="1" stop-color="#1A0F91"/>
</linearGradient>
<linearGradient id="paint5_linear_6_5" x1="293.386" y1="1229.24" x2="1478.5" y2="374.155" gradientUnits="userSpaceOnUse">
<stop stop-color="#FF928E"/>
<stop offset="1" stop-color="#FEB3B1"/>
</linearGradient>
<linearGradient id="paint6_linear_6_5" x1="914.036" y1="223.027" x2="291.831" y2="1281.66" gradientUnits="userSpaceOnUse">
<stop stop-color="#4042E2"/>
<stop offset="1" stop-color="#4F52FF"/>
</linearGradient>
<linearGradient id="paint7_linear_6_5" x1="1600.3" y1="373.671" x2="1488.3" y2="543.67" gradientUnits="userSpaceOnUse">
<stop stop-color="#4042E2"/>
<stop offset="1" stop-color="#4F52FF"/>
</linearGradient>
<linearGradient id="paint8_linear_6_5" x1="1256.12" y1="678.507" x2="1022.12" y2="1136.51" gradientUnits="userSpaceOnUse">
<stop stop-color="#4042E2"/>
<stop offset="1" stop-color="#4F52FF"/>
</linearGradient>
<linearGradient id="paint9_linear_6_5" x1="1199.18" y1="674.289" x2="1203.18" y2="838.289" gradientUnits="userSpaceOnUse">
<stop stop-color="#4042E2"/>
<stop offset="1" stop-color="#4F52FF"/>
</linearGradient>
<linearGradient id="paint10_linear_6_5" x1="1041.99" y1="678.122" x2="1045.99" y2="842.122" gradientUnits="userSpaceOnUse">
<stop stop-color="#4042E2"/>
<stop offset="1" stop-color="#4F52FF"/>
</linearGradient>
<linearGradient id="paint11_linear_6_5" x1="1356.76" y1="670.446" x2="1360.76" y2="834.445" gradientUnits="userSpaceOnUse">
<stop stop-color="#4042E2"/>
<stop offset="1" stop-color="#4F52FF"/>
</linearGradient>
<linearGradient id="paint12_linear_6_5" x1="222.682" y1="1682.31" x2="267.35" y2="1538.98" gradientUnits="userSpaceOnUse">
<stop stop-color="#4042E2"/>
<stop offset="1" stop-color="#4F52FF"/>
</linearGradient>
<linearGradient id="paint13_linear_6_5" x1="412.252" y1="971.844" x2="467.668" y2="971.844" gradientUnits="userSpaceOnUse">
<stop stop-color="#09005D"/>
<stop offset="1" stop-color="#1A0F91"/>
</linearGradient>
<linearGradient id="paint14_linear_6_5" x1="417.52" y1="956.241" x2="433.582" y2="956.241" gradientUnits="userSpaceOnUse">
<stop stop-color="#FF928E"/>
<stop offset="1" stop-color="#FEB3B1"/>
</linearGradient>
<linearGradient id="paint15_linear_6_5" x1="102.398" y1="1644.82" x2="147.065" y2="1501.49" gradientUnits="userSpaceOnUse">
<stop stop-color="#4042E2"/>
<stop offset="1" stop-color="#4F52FF"/>
</linearGradient>
<linearGradient id="paint16_linear_6_5" x1="298.734" y1="964.965" x2="330.809" y2="964.965" gradientUnits="userSpaceOnUse">
<stop stop-color="#09005D"/>
<stop offset="1" stop-color="#1A0F91"/>
</linearGradient>
<linearGradient id="paint17_linear_6_5" x1="315.406" y1="942.851" x2="334.602" y2="942.851" gradientUnits="userSpaceOnUse">
<stop stop-color="#FF928E"/>
<stop offset="1" stop-color="#FEB3B1"/>
</linearGradient>
<linearGradient id="paint18_linear_6_5" x1="314.773" y1="832.922" x2="466.34" y2="832.922" gradientUnits="userSpaceOnUse">
<stop stop-color="#09005D"/>
<stop offset="1" stop-color="#1A0F91"/>
</linearGradient>
<linearGradient id="paint19_linear_6_5" x1="477.813" y1="617.721" x2="267.813" y2="763.721" gradientUnits="userSpaceOnUse">
<stop stop-color="#FE7062"/>
<stop offset="1" stop-color="#FF928E"/>
</linearGradient>
<linearGradient id="paint20_linear_6_5" x1="441.884" y1="788.638" x2="511.884" y2="922.638" gradientUnits="userSpaceOnUse">
<stop stop-color="#4042E2"/>
<stop offset="1" stop-color="#4F52FF"/>
</linearGradient>
<linearGradient id="paint21_linear_6_5" x1="-1659.17" y1="1445.27" x2="-1562.51" y2="1409.27" gradientUnits="userSpaceOnUse">
<stop stop-color="#FF928E"/>
<stop offset="1" stop-color="#FEB3B1"/>
</linearGradient>
<linearGradient id="paint22_linear_6_5" x1="447.024" y1="573.437" x2="237.024" y2="719.437" gradientUnits="userSpaceOnUse">
<stop stop-color="#FE7062"/>
<stop offset="1" stop-color="#FF928E"/>
</linearGradient>
<linearGradient id="paint23_linear_6_5" x1="501.95" y1="652.439" x2="291.95" y2="798.439" gradientUnits="userSpaceOnUse">
<stop stop-color="#FE7062"/>
<stop offset="1" stop-color="#FF928E"/>
</linearGradient>
<linearGradient id="paint24_linear_6_5" x1="531.451" y1="668.77" x2="585.267" y2="668.77" gradientUnits="userSpaceOnUse">
<stop stop-color="#FF928E"/>
<stop offset="1" stop-color="#FEB3B1"/>
</linearGradient>
<linearGradient id="paint25_linear_6_5" x1="479.141" y1="524.954" x2="478.553" y2="625.451" gradientUnits="userSpaceOnUse">
<stop stop-color="#FF928E"/>
<stop offset="1" stop-color="#FEB3B1"/>
</linearGradient>
<linearGradient id="paint26_linear_6_5" x1="329.56" y1="708.192" x2="611.371" y2="708.192" gradientUnits="userSpaceOnUse">
<stop stop-color="#09005D"/>
<stop offset="1" stop-color="#1A0F91"/>
</linearGradient>
<linearGradient id="paint27_linear_6_5" x1="581.282" y1="583.232" x2="869.119" y2="583.232" gradientUnits="userSpaceOnUse">
<stop stop-color="#09005D"/>
<stop offset="1" stop-color="#1A0F91"/>
</linearGradient>
<linearGradient id="paint28_linear_6_5" x1="-1646.39" y1="1479.56" x2="-1549.73" y2="1443.56" gradientUnits="userSpaceOnUse">
<stop stop-color="#FF928E"/>
<stop offset="1" stop-color="#FEB3B1"/>
</linearGradient>
<linearGradient id="paint29_linear_6_5" x1="648.339" y1="616.174" x2="608.339" y2="648.174" gradientUnits="userSpaceOnUse">
<stop stop-color="#FF928E"/>
<stop offset="1" stop-color="#FEB3B1"/>
</linearGradient>
<linearGradient id="paint30_linear_6_5" x1="502.932" y1="515.53" x2="454.551" y2="552.549" gradientUnits="userSpaceOnUse">
<stop stop-color="#FF928E"/>
<stop offset="1" stop-color="#FEB3B1"/>
</linearGradient>
<linearGradient id="paint31_linear_6_5" x1="452.03" y1="506.826" x2="512.123" y2="506.826" gradientUnits="userSpaceOnUse">
<stop stop-color="#09005D"/>
<stop offset="1" stop-color="#1A0F91"/>
</linearGradient>
<linearGradient id="paint32_linear_6_5" x1="496.931" y1="507.687" x2="448.55" y2="544.705" gradientUnits="userSpaceOnUse">
<stop stop-color="#FF928E"/>
<stop offset="1" stop-color="#FEB3B1"/>
</linearGradient>
<linearGradient id="paint33_linear_6_5" x1="830.87" y1="598.162" x2="1024.92" y2="598.162" gradientUnits="userSpaceOnUse">
<stop stop-color="#FE7062"/>
<stop offset="1" stop-color="#FF928E"/>
</linearGradient>
<linearGradient id="paint34_linear_6_5" x1="2133.71" y1="250.272" x2="2047.71" y2="364.272" gradientUnits="userSpaceOnUse">
<stop stop-color="#4042E2"/>
<stop offset="1" stop-color="#4F52FF"/>
</linearGradient>
<linearGradient id="paint35_linear_6_5" x1="1757.69" y1="585.32" x2="1739.69" y2="699.32" gradientUnits="userSpaceOnUse">
<stop stop-color="#4042E2"/>
<stop offset="1" stop-color="#4F52FF"/>
</linearGradient>
<linearGradient id="paint36_linear_6_5" x1="1603.86" y1="627.485" x2="1896.74" y2="627.485" gradientUnits="userSpaceOnUse">
<stop stop-color="#DAE3FE"/>
<stop offset="1" stop-color="#E9EFFD"/>
</linearGradient>
<linearGradient id="paint37_linear_6_5" x1="1615.66" y1="500.273" x2="1573.72" y2="616.904" gradientUnits="userSpaceOnUse">
<stop stop-color="#FE7062"/>
<stop offset="1" stop-color="#FF928E"/>
</linearGradient>
<linearGradient id="paint38_linear_6_5" x1="1658.52" y1="370.218" x2="1623.52" y2="430.218" gradientUnits="userSpaceOnUse">
<stop stop-color="#09005D"/>
<stop offset="1" stop-color="#1A0F91"/>
</linearGradient>
<linearGradient id="paint39_linear_6_5" x1="1988.85" y1="526.183" x2="1932.85" y2="583.183" gradientUnits="userSpaceOnUse">
<stop stop-color="#09005D"/>
<stop offset="1" stop-color="#1A0F91"/>
</linearGradient>
<linearGradient id="paint40_linear_6_5" x1="1561.91" y1="848.27" x2="1959.02" y2="848.27" gradientUnits="userSpaceOnUse">
<stop stop-color="#DAE3FE"/>
<stop offset="1" stop-color="#E9EFFD"/>
</linearGradient>
<linearGradient id="paint41_linear_6_5" x1="1560.77" y1="870.534" x2="1957.89" y2="870.534" gradientUnits="userSpaceOnUse">
<stop stop-color="#DAE3FE"/>
<stop offset="1" stop-color="#E9EFFD"/>
</linearGradient>
<linearGradient id="paint42_linear_6_5" x1="1560.63" y1="892.804" x2="1957.74" y2="892.804" gradientUnits="userSpaceOnUse">
<stop stop-color="#DAE3FE"/>
<stop offset="1" stop-color="#E9EFFD"/>
</linearGradient>
<linearGradient id="paint43_linear_6_5" x1="1560.63" y1="915.075" x2="1957.74" y2="915.075" gradientUnits="userSpaceOnUse">
<stop stop-color="#DAE3FE"/>
<stop offset="1" stop-color="#E9EFFD"/>
</linearGradient>
<linearGradient id="paint44_linear_6_5" x1="1560.63" y1="936.976" x2="1957.74" y2="936.976" gradientUnits="userSpaceOnUse">
<stop stop-color="#DAE3FE"/>
<stop offset="1" stop-color="#E9EFFD"/>
</linearGradient>
<linearGradient id="paint45_linear_6_5" x1="1560.63" y1="959.015" x2="1777.54" y2="959.015" gradientUnits="userSpaceOnUse">
<stop stop-color="#DAE3FE"/>
<stop offset="1" stop-color="#E9EFFD"/>
</linearGradient>
<linearGradient id="paint46_linear_6_5" x1="1353.08" y1="34.3274" x2="981.156" y2="926.058" gradientUnits="userSpaceOnUse">
<stop stop-color="#4042E2"/>
<stop offset="1" stop-color="#4F52FF"/>
</linearGradient>
<linearGradient id="paint47_linear_6_5" x1="1254.75" y1="-57.3033" x2="1134.74" y2="533.755" gradientUnits="userSpaceOnUse">
<stop stop-color="#4042E2"/>
<stop offset="1" stop-color="#4F52FF"/>
</linearGradient>
<linearGradient id="paint48_linear_6_5" x1="1234.94" y1="298.529" x2="988.943" y2="532.529" gradientUnits="userSpaceOnUse">
<stop stop-color="#4042E2"/>
<stop offset="1" stop-color="#4F52FF"/>
</linearGradient>
<linearGradient id="paint49_linear_6_5" x1="1064.49" y1="192.546" x2="1091.44" y2="192.546" gradientUnits="userSpaceOnUse">
<stop stop-color="#DAE3FE"/>
<stop offset="1" stop-color="#E9EFFD"/>
</linearGradient>
<linearGradient id="paint50_linear_6_5" x1="1021.3" y1="193.558" x2="1048.25" y2="193.558" gradientUnits="userSpaceOnUse">
<stop stop-color="#DAE3FE"/>
<stop offset="1" stop-color="#E9EFFD"/>
</linearGradient>
<linearGradient id="paint51_linear_6_5" x1="979.797" y1="193.558" x2="1006.75" y2="193.558" gradientUnits="userSpaceOnUse">
<stop stop-color="#DAE3FE"/>
<stop offset="1" stop-color="#E9EFFD"/>
</linearGradient>
<linearGradient id="paint52_linear_6_5" x1="1108.37" y1="391.252" x2="1174.96" y2="391.252" gradientUnits="userSpaceOnUse">
<stop stop-color="#DAE3FE"/>
<stop offset="1" stop-color="#E9EFFD"/>
</linearGradient>
<linearGradient id="paint53_linear_6_5" x1="1129.98" y1="391.013" x2="1164.56" y2="391.013" gradientUnits="userSpaceOnUse">
<stop stop-color="#DAE3FE"/>
<stop offset="1" stop-color="#E9EFFD"/>
</linearGradient>
<linearGradient id="paint54_linear_6_5" x1="999.443" y1="791.853" x2="915.443" y2="905.853" gradientUnits="userSpaceOnUse">
<stop stop-color="#4042E2"/>
<stop offset="1" stop-color="#4F52FF"/>
</linearGradient>
<linearGradient id="paint55_linear_6_5" x1="1090.11" y1="858.662" x2="1006.11" y2="972.663" gradientUnits="userSpaceOnUse">
<stop stop-color="#4042E2"/>
<stop offset="1" stop-color="#4F52FF"/>
</linearGradient>
<linearGradient id="paint56_linear_6_5" x1="1039.13" y1="39.8945" x2="952.643" y2="127.687" gradientUnits="userSpaceOnUse">
<stop stop-color="#4042E2"/>
<stop offset="1" stop-color="#4F52FF"/>
</linearGradient>
<linearGradient id="paint57_linear_6_5" x1="1054.32" y1="54.8597" x2="967.832" y2="142.653" gradientUnits="userSpaceOnUse">
<stop stop-color="#4042E2"/>
<stop offset="1" stop-color="#4F52FF"/>
</linearGradient>
<linearGradient id="paint58_linear_6_5" x1="1778.43" y1="137.924" x2="1702.62" y2="204.976" gradientUnits="userSpaceOnUse">
<stop stop-color="#4042E2"/>
<stop offset="1" stop-color="#4F52FF"/>
</linearGradient>
<linearGradient id="paint59_linear_6_5" x1="1858.31" y1="228.23" x2="1782.5" y2="295.284" gradientUnits="userSpaceOnUse">
<stop stop-color="#4042E2"/>
<stop offset="1" stop-color="#4F52FF"/>
</linearGradient>
<linearGradient id="paint60_linear_6_5" x1="2867.47" y1="3063.97" x2="2698.09" y2="2814.76" gradientUnits="userSpaceOnUse">
<stop stop-color="#4042E2"/>
<stop offset="1" stop-color="#4F52FF"/>
</linearGradient>
<linearGradient id="paint61_linear_6_5" x1="2961.3" y1="3000.21" x2="2791.92" y2="2751" gradientUnits="userSpaceOnUse">
<stop stop-color="#4042E2"/>
<stop offset="1" stop-color="#4F52FF"/>
</linearGradient>
<linearGradient id="paint62_linear_6_5" x1="1884.25" y1="1403.45" x2="1931.94" y2="1403.45" gradientUnits="userSpaceOnUse">
<stop stop-color="#09005D"/>
<stop offset="1" stop-color="#1A0F91"/>
</linearGradient>
<linearGradient id="paint63_linear_6_5" x1="1927.16" y1="1375.65" x2="1904.57" y2="1375.65" gradientUnits="userSpaceOnUse">
<stop stop-color="#FF928E"/>
<stop offset="1" stop-color="#FEB3B1"/>
</linearGradient>
<linearGradient id="paint64_linear_6_5" x1="1908.67" y1="1182.3" x2="1954.67" y2="1368.3" gradientUnits="userSpaceOnUse">
<stop stop-color="#09005D"/>
<stop offset="1" stop-color="#1A0F91"/>
</linearGradient>
<linearGradient id="paint65_linear_6_5" x1="1931.35" y1="1312.52" x2="1927.35" y2="1330.52" gradientUnits="userSpaceOnUse">
<stop stop-color="#09005D"/>
<stop offset="1" stop-color="#1A0F91"/>
</linearGradient>
<linearGradient id="paint66_linear_6_5" x1="1936.54" y1="1425.27" x2="1875.79" y2="1425.27" gradientUnits="userSpaceOnUse">
<stop stop-color="#4042E2"/>
<stop offset="1" stop-color="#4F52FF"/>
</linearGradient>
<linearGradient id="paint67_linear_6_5" x1="1943.5" y1="1396.5" x2="1922.3" y2="1396.5" gradientUnits="userSpaceOnUse">
<stop stop-color="#FF928E"/>
<stop offset="1" stop-color="#FEB3B1"/>
</linearGradient>
<linearGradient id="paint68_linear_6_5" x1="2179" y1="1350.97" x2="2061" y2="1311.97" gradientUnits="userSpaceOnUse">
<stop stop-color="#09005D"/>
<stop offset="1" stop-color="#1A0F91"/>
</linearGradient>
<linearGradient id="paint69_linear_6_5" x1="1930.31" y1="1038.24" x2="1916.98" y2="1099.57" gradientUnits="userSpaceOnUse">
<stop stop-color="#E1473D"/>
<stop offset="1" stop-color="#E9605A"/>
</linearGradient>
<linearGradient id="paint70_linear_6_5" x1="1878.71" y1="1151.98" x2="1804.74" y2="1151.98" gradientUnits="userSpaceOnUse">
<stop stop-color="#FF928E"/>
<stop offset="1" stop-color="#FEB3B1"/>
</linearGradient>
<linearGradient id="paint71_linear_6_5" x1="2030.84" y1="1054.54" x2="1866.84" y2="1279.54" gradientUnits="userSpaceOnUse">
<stop stop-color="#FE7062"/>
<stop offset="1" stop-color="#FF928E"/>
</linearGradient>
<linearGradient id="paint72_linear_6_5" x1="1949.28" y1="1042.82" x2="1900.21" y2="1042.82" gradientUnits="userSpaceOnUse">
<stop stop-color="#FF928E"/>
<stop offset="1" stop-color="#FEB3B1"/>
</linearGradient>
<linearGradient id="paint73_linear_6_5" x1="2061.58" y1="1076.95" x2="1897.58" y2="1301.95" gradientUnits="userSpaceOnUse">
<stop stop-color="#FE7062"/>
<stop offset="1" stop-color="#FF928E"/>
</linearGradient>
<linearGradient id="paint74_linear_6_5" x1="2063.07" y1="1063.9" x2="1965.74" y2="1149.9" gradientUnits="userSpaceOnUse">
<stop stop-color="#E1473D"/>
<stop offset="1" stop-color="#E9605A"/>
</linearGradient>
<linearGradient id="paint75_linear_6_5" x1="2056.9" y1="1074.11" x2="2011.9" y2="1145.11" gradientUnits="userSpaceOnUse">
<stop stop-color="#FF928E"/>
<stop offset="1" stop-color="#FEB3B1"/>
</linearGradient>
<linearGradient id="paint76_linear_6_5" x1="1895.18" y1="987.445" x2="1934.3" y2="1081.37" gradientUnits="userSpaceOnUse">
<stop stop-color="#FF928E"/>
<stop offset="1" stop-color="#FEB3B1"/>
</linearGradient>
<linearGradient id="paint77_linear_6_5" x1="1871.21" y1="1007.8" x2="1941.13" y2="1007.8" gradientUnits="userSpaceOnUse">
<stop stop-color="#09005D"/>
<stop offset="1" stop-color="#1A0F91"/>
</linearGradient>
<linearGradient id="paint78_linear_6_5" x1="1966.12" y1="1072.14" x2="1931.09" y2="1010.95" gradientUnits="userSpaceOnUse">
<stop stop-color="#FF928E"/>
<stop offset="1" stop-color="#FEB3B1"/>
</linearGradient>
<linearGradient id="paint79_linear_6_5" x1="1812.76" y1="1175.3" x2="1942.85" y2="1175.3" gradientUnits="userSpaceOnUse">
<stop stop-color="#09005D"/>
<stop offset="1" stop-color="#1A0F91"/>
</linearGradient>
<linearGradient id="paint80_linear_6_5" x1="1702.81" y1="1126.47" x2="1873.31" y2="1126.47" gradientUnits="userSpaceOnUse">
<stop stop-color="#09005D"/>
<stop offset="1" stop-color="#1A0F91"/>
</linearGradient>
</defs>
</svg>
