<svg width="807" height="609" viewBox="0 0 807 609" fill="none" xmlns="http://www.w3.org/2000/svg">
<path d="M582.43 178.135H359.972V5.91704H582.43V178.135ZM361.392 176.597H581.011V7.45513H361.392V176.597Z" fill="white"/>
<path d="M366.143 0.769043H355.221V12.6031H366.143V0.769043Z" fill="#121936"/>
<path d="M366.851 13.3721H354.511V0H366.851V13.3721ZM355.931 11.8341H365.432V1.53809H355.931V11.8341Z" fill="white"/>
<path d="M586.838 1.2074H575.916V13.0414H586.838V1.2074Z" fill="#121936"/>
<path d="M587.548 13.8105H575.206V0.438354H587.548V13.8105ZM576.626 12.2724H586.128V1.97644H576.626V12.2724Z" fill="white"/>
<path d="M366.143 171.449H355.221V183.283H366.143V171.449Z" fill="#121936"/>
<path d="M366.851 184.052H354.511V170.68H366.851V184.052ZM355.931 182.514H365.432V172.218H355.931V182.514Z" fill="white"/>
<path d="M586.838 171.449H575.916V183.283H586.838V171.449Z" fill="#121936"/>
<path d="M587.548 184.052H575.206V170.68H587.548V184.052ZM576.626 182.514H586.128V172.218H576.626V182.514Z" fill="white"/>
<path d="M801.769 439.058H582.754V269.499H801.769V439.058ZM584.174 437.52H800.349V271.037H584.174V437.52Z" fill="white"/>
<path d="M588.84 264.444H578.088V276.093H588.84V264.444Z" fill="#121936"/>
<path d="M589.549 276.862H577.378V263.674H589.549V276.862ZM578.798 275.324H588.13V265.213H578.798V275.324Z" fill="white"/>
<path d="M806.097 264.874H795.345V276.524H806.097V264.874Z" fill="#121936"/>
<path d="M806.807 277.293H794.635V264.105H806.807V277.293ZM796.055 275.755H805.387V265.643H796.055V275.755Z" fill="white"/>
<path d="M588.84 432.466H578.088V444.115H588.84V432.466Z" fill="#121936"/>
<path d="M589.549 444.883H577.378V431.695H589.549V444.883ZM578.798 443.345H588.13V433.233H578.798V443.345Z" fill="white"/>
<path d="M806.097 432.466H795.345V444.115H806.097V432.466Z" fill="#121936"/>
<path d="M806.807 444.883H794.635V431.695H806.807V444.883ZM796.055 443.345H805.387V433.233H796.055V443.345Z" fill="white"/>
<path d="M659.885 608.219L440.922 608.112C420.718 608.103 404.348 592.319 404.358 572.861L404.618 66.8161C404.628 47.3562 421.015 31.5893 441.217 31.6L660.182 31.7046C680.386 31.7138 696.756 47.4977 696.746 66.9561L696.487 573.001C696.475 592.461 680.09 608.228 659.885 608.219Z" fill="#F9CAD0"/>
<path d="M659.904 608.988C659.897 608.988 659.891 608.988 659.885 608.988L440.922 608.881C430.975 608.877 421.624 605.138 414.588 598.353C407.528 591.547 403.644 582.494 403.648 572.859L403.908 66.8146C403.919 46.9701 420.648 30.8294 441.2 30.8294C441.207 30.8294 441.212 30.8294 441.219 30.8294L660.182 30.9356C670.127 30.9402 679.481 34.6793 686.516 41.4622C693.577 48.2683 697.46 57.323 697.456 66.9576L697.195 573.001C697.185 592.848 680.457 608.988 659.904 608.988ZM659.885 607.45C659.891 607.45 659.898 607.45 659.902 607.45C679.678 607.45 695.767 592.001 695.777 573.003L696.038 66.9576C696.042 57.7691 692.327 49.1235 685.575 42.6127C678.798 36.0789 669.781 32.4798 660.184 32.4752L441.219 32.3675C441.212 32.3675 441.206 32.3675 441.2 32.3675C421.428 32.3675 405.337 47.8176 405.327 66.8161L405.068 572.859C405.063 582.05 408.778 590.695 415.531 597.204C422.306 603.738 431.325 607.339 440.922 607.343L659.885 607.45Z" fill="#121936"/>
<path d="M651.506 599.021L449.665 598.922C431.041 598.913 415.951 583.655 415.961 564.841L416.212 75.5878C416.222 56.7739 431.328 41.5299 449.952 41.5392L651.791 41.6376C670.415 41.6468 685.505 56.9047 685.495 75.7186L685.244 564.972C685.235 583.786 670.129 599.03 651.506 599.021Z" fill="#121936"/>
<path opacity="0.89" d="M513.375 78.0395C512.367 78.038 511.414 77.6519 510.696 76.9521C509.956 76.2307 509.548 75.2664 509.549 74.2343C509.549 73.2038 509.957 72.2394 510.699 71.518C511.417 70.8197 512.368 70.4337 513.375 70.4337H513.376C514.384 70.4352 515.335 70.8197 516.053 71.5196C516.794 72.2409 517.202 73.2069 517.2 74.2374C517.197 76.3338 515.483 78.0395 513.375 78.0395ZM513.375 71.9718C512.719 71.9718 512.104 72.2179 511.647 72.6624C511.21 73.0869 510.969 73.6452 510.969 74.2343C510.969 74.8234 511.209 75.3817 511.646 75.8078C512.103 76.2538 512.717 76.4999 513.373 76.4999C514.699 76.4999 515.778 75.4848 515.779 74.2358C515.779 73.6468 515.539 73.0884 515.102 72.6639C514.647 72.2179 514.032 71.9718 513.375 71.9718Z" fill="white"/>
<path opacity="0.89" d="M499.642 76.1615C498.596 76.1615 497.744 75.2971 497.744 74.2343C497.747 73.1715 498.599 72.3086 499.642 72.3086C499.644 72.3086 499.644 72.3086 499.645 72.3086C500.69 72.3086 501.542 73.173 501.542 74.2343C501.539 75.2971 500.688 76.1615 499.642 76.1615ZM499.644 73.8482C499.382 73.8482 499.164 74.0267 499.164 74.2374C499.164 74.6542 500.119 74.6573 500.122 74.2358C500.121 74.0251 499.903 73.8482 499.644 73.8482Z" fill="white"/>
<path opacity="0.89" d="M574.738 77.0398L526.971 77.0167C525.435 77.0152 524.186 75.7632 524.186 74.2251C524.186 73.4637 524.485 72.7516 525.03 72.2225C525.553 71.7134 526.243 71.4334 526.972 71.4334H526.974L574.739 71.4565C575.47 71.4565 576.159 71.738 576.681 72.2471C577.226 72.7777 577.526 73.4899 577.525 74.2497C577.525 75.7878 576.274 77.0398 574.738 77.0398ZM526.971 72.9715C526.59 72.9715 526.238 73.1115 525.977 73.3668C525.737 73.6006 525.604 73.9052 525.604 74.2251C525.604 74.9157 526.217 75.4786 526.97 75.4786L574.737 75.5017C575.49 75.5017 576.104 74.9403 576.104 74.2497C576.104 73.9298 575.972 73.6252 575.732 73.3914C575.469 73.1361 575.116 72.9961 574.738 72.9961L526.972 72.9731L526.971 72.9715Z" fill="white"/>
<path d="M576.488 582.196H576.485L524.704 582.17C522.399 582.168 520.232 581.194 518.603 579.429C516.975 577.663 516.079 575.313 516.08 572.816V572.415C516.083 567.262 519.954 563.073 524.708 563.073H524.711L576.493 563.099C578.796 563.1 580.963 564.074 582.592 565.84C584.22 567.605 585.116 569.956 585.115 572.452V572.853C585.115 578.004 581.245 582.196 576.488 582.196ZM524.71 564.611C520.736 564.611 517.504 568.111 517.501 572.415V572.816C517.5 574.902 518.248 576.866 519.609 578.341C520.969 579.818 522.779 580.631 524.705 580.631L576.487 580.658H576.49C580.464 580.658 583.697 577.157 583.698 572.853V572.452C583.699 570.365 582.951 568.402 581.59 566.927C580.23 565.451 578.42 564.637 576.495 564.637L524.714 564.611C524.71 564.611 524.71 564.611 524.71 564.611Z" fill="white"/>
<path d="M677.431 105.584H425.099V540.395H677.431V105.584Z" fill="white"/>
<path opacity="0.81" d="M685.482 105.576H416.099V540.387H685.482V105.576Z" fill="white"/>
<path opacity="0.69" d="M657.709 202.028L547.384 201.843C546.992 201.842 546.675 201.497 546.675 201.073C546.675 200.648 546.995 200.305 547.385 200.305H547.387L657.711 200.49C658.102 200.491 658.419 200.836 658.419 201.26C658.419 201.685 658.1 202.028 657.709 202.028Z" fill="#353148"/>
<path opacity="0.69" d="M602.47 254.487L547.306 254.395C546.914 254.394 546.597 254.049 546.597 253.625C546.597 253.2 546.917 252.857 547.307 252.857L602.471 252.949C602.863 252.951 603.18 253.295 603.18 253.72C603.18 254.144 602.86 254.487 602.47 254.487Z" fill="#353148"/>
<path opacity="0.69" d="M579.41 217.676L547.344 217.607C546.952 217.607 546.634 217.261 546.636 216.837C546.637 216.412 546.955 216.069 547.345 216.069H547.347L579.411 216.138C579.803 216.14 580.121 216.484 580.119 216.909C580.118 217.333 579.8 217.676 579.41 217.676Z" fill="#353148"/>
<path opacity="0.69" d="M657.671 217.792L587.133 217.723C586.741 217.721 586.424 217.378 586.424 216.952C586.424 216.527 586.741 216.184 587.133 216.184L657.671 216.254C658.063 216.255 658.381 216.598 658.381 217.024C658.381 217.449 658.063 217.792 657.671 217.792Z" fill="#353148"/>
<path opacity="0.69" d="M609.711 236.326H609.709L547.344 236.257C546.954 236.255 546.636 235.91 546.636 235.486C546.636 235.061 546.954 234.718 547.345 234.718H547.347L609.714 234.788C610.104 234.789 610.422 235.134 610.422 235.558C610.422 235.983 610.104 236.326 609.711 236.326Z" fill="#353148"/>
<path opacity="0.69" d="M657.671 236.441H657.67L616.481 236.372C616.089 236.37 615.772 236.026 615.772 235.601C615.772 235.177 616.092 234.834 616.482 234.834L657.672 234.903C658.064 234.903 658.381 235.249 658.381 235.674C658.381 236.098 658.061 236.441 657.671 236.441Z" fill="#353148"/>
<path opacity="0.69" d="M657.709 150.164L547.384 149.979C546.992 149.977 546.675 149.633 546.675 149.208C546.675 148.784 546.995 148.441 547.385 148.441H547.387L657.711 148.625C658.102 148.627 658.419 148.972 658.419 149.396C658.419 149.819 658.1 150.164 657.709 150.164Z" fill="#353148"/>
<path opacity="0.69" d="M579.41 165.811L547.344 165.741C546.952 165.74 546.634 165.395 546.636 164.971C546.637 164.546 546.955 164.203 547.345 164.203H547.347L579.411 164.272C579.803 164.274 580.121 164.619 580.119 165.043C580.118 165.468 579.8 165.811 579.41 165.811Z" fill="#353148"/>
<path opacity="0.69" d="M657.671 165.927L587.133 165.858C586.741 165.857 586.424 165.514 586.424 165.088C586.424 164.663 586.741 164.32 587.133 164.32L657.671 164.389C658.063 164.389 658.381 164.734 658.381 165.158C658.381 165.583 658.063 165.927 657.671 165.927Z" fill="#353148"/>
<path opacity="0.69" d="M609.711 184.46H609.709L547.344 184.391C546.954 184.389 546.636 184.045 546.636 183.62C546.636 183.196 546.954 182.853 547.345 182.853H547.347L609.714 182.922C610.104 182.923 610.422 183.268 610.422 183.692C610.421 184.115 610.104 184.46 609.711 184.46Z" fill="#353148"/>
<path opacity="0.69" d="M657.671 184.575H657.67L616.481 184.506C616.089 184.504 615.772 184.16 615.772 183.735C615.772 183.311 616.092 182.968 616.482 182.968L657.672 183.037C658.064 183.039 658.381 183.383 658.381 183.808C658.381 184.232 658.061 184.575 657.671 184.575Z" fill="#353148"/>
<path d="M530.002 138.591H449.194V264.47H530.002V138.591Z" fill="#FF9C9C"/>
<path d="M530.002 138.591H449.194V168.248H530.002V138.591Z" fill="#708CF5"/>
<path d="M586.225 399.482H448.745V287.681H586.225V399.482ZM450.166 397.943H584.805V289.219H450.165V397.943H450.166Z" fill="#121936"/>
<path d="M452.818 284.628H446.095V292.272H452.818V284.628Z" fill="#121936"/>
<path d="M588.666 284.912H581.944V292.557H588.666V284.912Z" fill="#121936"/>
<path d="M452.818 394.89H446.095V402.535H452.818V394.89Z" fill="#121936"/>
<path d="M588.666 394.89H581.944V402.535H588.666V394.89Z" fill="#121936"/>
<path d="M517.155 318.433H463.322C460.939 318.433 459.007 316.34 459.007 313.758C459.007 311.175 460.939 309.082 463.322 309.082H517.155C519.538 309.082 521.47 311.175 521.47 313.758C521.47 316.34 519.538 318.433 517.155 318.433Z" fill="#708CF5"/>
<path d="M517.155 356.695H463.322C460.939 356.695 459.007 354.602 459.007 352.019C459.007 349.437 460.939 347.343 463.322 347.343H517.155C519.538 347.343 521.47 349.437 521.47 352.019C521.47 354.602 519.538 356.695 517.155 356.695Z" fill="#F9CAD0"/>
<path d="M530.437 336.886H497.06C494.677 336.886 492.745 334.793 492.745 332.21C492.745 329.628 494.677 327.534 497.06 327.534H530.437C532.821 327.534 534.753 329.628 534.753 332.21C534.753 334.794 532.821 336.886 530.437 336.886Z" fill="#708CF5"/>
<path d="M550.284 318.433H532.949C530.565 318.433 528.633 316.34 528.633 313.758C528.633 311.175 530.565 309.082 532.949 309.082H550.284C552.667 309.082 554.599 311.175 554.599 313.758C554.599 316.34 552.667 318.433 550.284 318.433Z" fill="#F9CAD0"/>
<path d="M512.441 377.756H463.322C460.939 377.756 459.007 375.663 459.007 373.08C459.007 370.498 460.939 368.404 463.322 368.404H512.441C514.824 368.404 516.756 370.498 516.756 373.08C516.756 375.663 514.824 377.756 512.441 377.756Z" fill="#708CF5"/>
<path d="M543.07 377.756H527.693C525.31 377.756 523.378 375.663 523.378 373.08C523.378 370.498 525.31 368.404 527.693 368.404H543.07C545.453 368.404 547.385 370.498 547.385 373.08C547.385 375.663 545.453 377.756 543.07 377.756Z" fill="#F9CAD0"/>
<path d="M480.657 336.892H463.322C460.939 336.892 459.007 334.799 459.007 332.216C459.007 329.634 460.939 327.54 463.322 327.54H480.657C483.041 327.54 484.973 329.634 484.973 332.216C484.973 334.799 483.041 336.892 480.657 336.892Z" fill="#F9CAD0"/>
<path d="M450.643 506.828H573.605C574.727 506.828 575.637 505.842 575.637 504.627V431.808C575.637 430.592 574.727 429.607 573.605 429.607H450.643C449.522 429.607 448.612 430.592 448.612 431.808V504.627C448.612 505.842 449.52 506.828 450.643 506.828Z" fill="#4268FF"/>
<path d="M477.881 486.014C488.512 486.014 497.13 476.677 497.13 465.158C497.13 453.639 488.512 444.301 477.881 444.301C467.25 444.301 458.632 453.639 458.632 465.158C458.632 476.677 467.25 486.014 477.881 486.014Z" fill="white"/>
<path d="M557.849 449.426H511.325C510.933 449.426 510.615 449.082 510.615 448.657C510.615 448.233 510.933 447.888 511.325 447.888H557.849C558.24 447.888 558.558 448.233 558.558 448.657C558.558 449.082 558.24 449.426 557.849 449.426Z" fill="white"/>
<path d="M565.679 478.164H540.041C539.649 478.164 539.331 477.819 539.331 477.395C539.331 476.97 539.649 476.626 540.041 476.626H565.679C566.07 476.626 566.388 476.97 566.388 477.395C566.388 477.819 566.07 478.164 565.679 478.164Z" fill="white"/>
<path d="M533.878 488.544H508.239C507.847 488.544 507.529 488.2 507.529 487.775C507.529 487.351 507.847 487.006 508.239 487.006H533.878C534.27 487.006 534.588 487.351 534.588 487.775C534.588 488.2 534.272 488.544 533.878 488.544Z" fill="white"/>
<path d="M536.991 468.162H508.24C507.849 468.162 507.531 467.817 507.531 467.393C507.531 466.968 507.849 466.624 508.24 466.624H536.991C537.383 466.624 537.701 466.968 537.701 467.393C537.701 467.817 537.383 468.162 536.991 468.162Z" fill="white"/>
<path d="M564.201 468.162H545.328C544.937 468.162 544.619 467.817 544.619 467.393C544.619 466.968 544.937 466.624 545.328 466.624H564.201C564.593 466.624 564.911 466.968 564.911 467.393C564.911 467.817 564.593 468.162 564.201 468.162Z" fill="#9DD3FF"/>
<path d="M525.736 478.164H506.96C506.568 478.164 506.25 477.819 506.25 477.395C506.25 476.97 506.568 476.626 506.96 476.626H525.736C526.128 476.626 526.446 476.97 526.446 477.395C526.446 477.819 526.129 478.164 525.736 478.164Z" fill="#9DD3FF"/>
<path d="M714.471 419.487H593.138V517.814H714.471V419.487Z" fill="white"/>
<g opacity="0.48">
<path d="M715.18 518.582H592.427V418.717H715.18V518.582ZM593.846 517.044H713.761V420.255H593.846V517.044Z" fill="#121936"/>
<path d="M596.134 416.077H590.14V422.894H596.134V416.077Z" fill="#121936"/>
<path d="M717.278 416.331H711.284V423.148H717.278V416.331Z" fill="#121936"/>
<path d="M596.135 514.404H590.14V521.221H596.135V514.404Z" fill="#121936"/>
<path d="M717.278 514.404H711.284V521.221H717.278V514.404Z" fill="#121936"/>
</g>
<path d="M664.269 443.778H610.436C608.053 443.778 606.121 441.685 606.121 439.103C606.121 436.52 608.053 434.427 610.436 434.427H664.269C666.652 434.427 668.584 436.52 668.584 439.103C668.584 441.685 666.652 443.778 664.269 443.778Z" fill="#708CF5"/>
<path d="M664.269 482.04H610.436C608.053 482.04 606.121 479.947 606.121 477.364C606.121 474.782 608.053 472.688 610.436 472.688H664.269C666.652 472.688 668.584 474.782 668.584 477.364C668.584 479.947 666.652 482.04 664.269 482.04Z" fill="#F9CAD0"/>
<path d="M677.553 462.231H644.176C641.792 462.231 639.86 460.137 639.86 457.555C639.86 454.973 641.792 452.879 644.176 452.879H677.553C679.936 452.879 681.868 454.973 681.868 457.555C681.867 460.137 679.935 462.231 677.553 462.231Z" fill="#708CF5"/>
<path d="M697.398 443.778H680.063C677.679 443.778 675.747 441.685 675.747 439.103C675.747 436.52 677.679 434.427 680.063 434.427H697.398C699.781 434.427 701.713 436.52 701.713 439.103C701.713 441.685 699.781 443.778 697.398 443.778Z" fill="#F9CAD0"/>
<path d="M659.556 503.101H610.438C608.054 503.101 606.122 501.008 606.122 498.425C606.122 495.843 608.054 493.749 610.438 493.749H659.556C661.94 493.749 663.872 495.843 663.872 498.425C663.87 501.008 661.938 503.101 659.556 503.101Z" fill="#708CF5"/>
<path d="M690.185 503.101H674.809C672.426 503.101 670.494 501.008 670.494 498.425C670.494 495.843 672.426 493.749 674.809 493.749H690.185C692.569 493.749 694.501 495.843 694.501 498.425C694.499 501.008 692.567 503.101 690.185 503.101Z" fill="#F9CAD0"/>
<path d="M627.773 462.237H610.438C608.054 462.237 606.122 460.144 606.122 457.561C606.122 454.979 608.054 452.885 610.438 452.885H627.773C630.156 452.885 632.088 454.979 632.088 457.561C632.087 460.144 630.155 462.237 627.773 462.237Z" fill="#F9CAD0"/>
<path d="M740.232 255.164H649.851C648.729 255.164 647.819 254.178 647.819 252.963V166.912C647.819 165.697 648.729 164.711 649.851 164.711H740.232C741.354 164.711 742.263 165.697 742.263 166.912V252.963C742.263 254.178 741.354 255.164 740.232 255.164Z" fill="#4268FF"/>
<path d="M662.526 179.515C662.344 179.515 662.162 179.44 662.023 179.29L655.478 172.197C655.201 171.897 655.201 171.409 655.478 171.109C655.755 170.809 656.205 170.809 656.481 171.109L663.027 178.203C663.304 178.503 663.304 178.99 663.027 179.29C662.889 179.44 662.707 179.515 662.526 179.515Z" fill="white"/>
<path d="M655.98 179.515C655.798 179.515 655.617 179.44 655.479 179.29C655.202 178.99 655.202 178.503 655.479 178.203L662.025 171.109C662.301 170.809 662.751 170.809 663.028 171.109C663.305 171.409 663.305 171.897 663.028 172.197L656.483 179.29C656.344 179.44 656.162 179.515 655.98 179.515Z" fill="white"/>
<path d="M680.785 201.057V204.286L666.238 210.932L680.785 217.436V220.665L662.996 212.547V209.318L680.785 201.057Z" fill="white"/>
<path d="M705.366 192.321L688.145 228.212H685.078L702.298 192.321H705.366Z" fill="white"/>
<path d="M709.66 201.057L727.449 209.318V212.547L709.66 220.665V217.436L724.207 210.932L709.66 204.286V201.057Z" fill="white"/>
<path d="M772.525 388.821H566.232C565.111 388.821 564.201 387.835 564.201 386.62V300.569C564.201 299.354 565.111 298.368 566.232 298.368H772.525C773.646 298.368 774.556 299.354 774.556 300.569V386.62C774.556 387.837 773.646 388.821 772.525 388.821Z" fill="#4268FF"/>
<path d="M578.909 313.173C578.727 313.173 578.545 313.098 578.408 312.949L571.862 305.855C571.585 305.555 571.585 305.068 571.862 304.768C572.139 304.468 572.589 304.468 572.866 304.768L579.411 311.861C579.688 312.161 579.688 312.649 579.411 312.949C579.272 313.098 579.09 313.173 578.909 313.173Z" fill="white"/>
<path d="M572.363 313.173C572.181 313.173 572 313.098 571.862 312.949C571.585 312.649 571.585 312.161 571.862 311.861L578.408 304.768C578.684 304.468 579.134 304.468 579.411 304.768C579.688 305.068 579.688 305.555 579.411 305.855L572.866 312.949C572.727 313.098 572.545 313.173 572.363 313.173Z" fill="white"/>
<path d="M632.208 331.62H585.377C584.986 331.62 584.668 331.275 584.668 330.85C584.668 330.426 584.986 330.081 585.377 330.081H632.208C632.599 330.081 632.917 330.426 632.917 330.85C632.917 331.275 632.599 331.62 632.208 331.62Z" fill="white"/>
<path d="M686.125 331.62H644.383C643.991 331.62 643.673 331.275 643.673 330.85C643.673 330.426 643.991 330.081 644.383 330.081H686.125C686.517 330.081 686.835 330.426 686.835 330.85C686.835 331.275 686.519 331.62 686.125 331.62Z" fill="white"/>
<path d="M627.119 360.186H585.377C584.986 360.186 584.668 359.842 584.668 359.417C584.668 358.993 584.986 358.648 585.377 358.648H627.119C627.51 358.648 627.828 358.993 627.828 359.417C627.828 359.842 627.51 360.186 627.119 360.186Z" fill="white"/>
<path d="M666.624 345.099H624.883C624.491 345.099 624.173 344.755 624.173 344.33C624.173 343.906 624.491 343.561 624.883 343.561H666.624C667.016 343.561 667.334 343.906 667.334 344.33C667.334 344.755 667.017 345.099 666.624 345.099Z" fill="white"/>
<path d="M612.779 345.099H585.377C584.986 345.099 584.668 344.755 584.668 344.33C584.668 343.906 584.986 343.561 585.377 343.561H612.779C613.17 343.561 613.488 343.906 613.488 344.33C613.488 344.755 613.17 345.099 612.779 345.099Z" fill="white"/>
<path d="M656.799 360.186H639.954C639.562 360.186 639.244 359.842 639.244 359.417C639.244 358.993 639.562 358.648 639.954 358.648H656.799C657.191 358.648 657.509 358.993 657.509 359.417C657.509 359.842 657.193 360.186 656.799 360.186Z" fill="white"/>
<path d="M722.376 331.62H675.546C675.154 331.62 674.836 331.275 674.836 330.85C674.836 330.426 675.154 330.081 675.546 330.081H722.376C722.768 330.081 723.086 330.426 723.086 330.85C723.086 331.275 722.769 331.62 722.376 331.62Z" fill="white"/>
<path d="M746.355 331.62H709.251C708.859 331.62 708.541 331.275 708.541 330.85C708.541 330.426 708.859 330.081 709.251 330.081H746.355C746.746 330.081 747.064 330.426 747.064 330.85C747.064 331.275 746.746 331.62 746.355 331.62Z" fill="white"/>
<path d="M717.288 360.186H675.547C675.155 360.186 674.837 359.842 674.837 359.417C674.837 358.993 675.155 358.648 675.547 358.648H717.288C717.68 358.648 717.998 358.993 717.998 359.417C717.998 359.842 717.68 360.186 717.288 360.186Z" fill="white"/>
<path d="M756.794 345.099H715.051C714.659 345.099 714.341 344.755 714.341 344.33C714.341 343.906 714.659 343.561 715.051 343.561H756.794C757.186 343.561 757.503 343.906 757.503 344.33C757.503 344.755 757.186 345.099 756.794 345.099Z" fill="white"/>
<path d="M702.947 345.099H675.546C675.154 345.099 674.836 344.755 674.836 344.33C674.836 343.906 675.154 343.561 675.546 343.561H702.947C703.339 343.561 703.657 343.906 703.657 344.33C703.657 344.755 703.339 345.099 702.947 345.099Z" fill="white"/>
<path d="M746.969 360.186H730.122C729.73 360.186 729.412 359.842 729.412 359.417C729.412 358.993 729.73 358.648 730.122 358.648H746.969C747.361 358.648 747.679 358.993 747.679 359.417C747.679 359.842 747.361 360.186 746.969 360.186Z" fill="white"/>
<path d="M199.834 345.627H123.089V285.924H199.834V345.627ZM124.508 344.089H198.414V287.463H124.508V344.089Z" fill="white"/>
<path d="M125.659 284.677H121.937V288.71H125.659V284.677Z" fill="#121936"/>
<path d="M126.368 289.479H121.228V283.908H126.368V289.479ZM122.647 287.941H124.948V285.446H122.647V287.941Z" fill="white"/>
<path d="M200.869 284.826H197.147V288.859H200.869V284.826Z" fill="#121936"/>
<path d="M201.579 289.628H196.437V284.057H201.579V289.628ZM197.857 288.09H200.159V285.595H197.857V288.09Z" fill="white"/>
<path d="M125.659 342.841H121.937V346.874H125.659V342.841Z" fill="#121936"/>
<path d="M126.368 347.643H121.228V342.074H126.368V347.643ZM122.647 346.105H124.948V343.612H122.647V346.105Z" fill="white"/>
<path d="M200.869 342.841H197.147V346.874H200.869V342.841Z" fill="#121936"/>
<path d="M201.579 347.643H196.437V342.074H201.579V347.643ZM197.857 346.105H200.159V343.612H197.857V346.105Z" fill="white"/>
<path d="M148.855 377.201H43.1949C42.1203 377.201 41.1394 376.544 40.6582 375.504L1.01651 289.917C0.0696852 287.872 1.44095 285.461 3.55321 285.461H109.869C110.949 285.461 111.935 286.126 112.414 287.176L151.4 372.763C152.331 374.807 150.958 377.201 148.855 377.201Z" fill="white"/>
<path d="M148.855 377.968H43.1935C41.8449 377.968 40.6284 377.156 40.0237 375.849L0.380573 290.262C-0.175881 289.062 -0.119096 287.662 0.531047 286.518C1.18261 285.374 2.31113 284.691 3.5518 284.691H109.867C111.227 284.691 112.446 285.512 113.048 286.835L152.036 372.422C152.582 373.622 152.52 375.018 151.868 376.153C151.217 377.29 150.09 377.968 148.855 377.968ZM3.55322 286.231C2.80938 286.231 2.13085 286.64 1.7419 287.326C1.35153 288.012 1.31747 288.851 1.65106 289.571L41.2927 375.158C41.6561 375.943 42.3858 376.43 43.1949 376.43H148.856C149.596 376.43 150.273 376.023 150.663 375.341C151.053 374.66 151.092 373.823 150.764 373.103L111.776 287.516C111.415 286.723 110.683 286.231 109.867 286.231H3.55322Z" fill="#121936"/>
<path d="M207.559 376.881C207.559 373.745 205.213 371.204 202.32 371.204H145.797L108.849 291.008C108.61 290.486 108.117 290.157 107.579 290.157H3.02656C1.97185 290.157 1.28622 291.359 1.75608 292.381L40.989 377.707C41.2303 378.231 41.7257 378.562 42.2651 378.559L146.668 378.064C146.694 378.064 146.717 378.054 146.742 378.053H207.559V376.881Z" fill="#121936"/>
<path d="M159.024 375.826H152.425C152.32 375.826 152.234 375.733 152.234 375.62V374.141C152.234 374.028 152.32 373.934 152.425 373.934H159.024C159.129 373.934 159.214 374.026 159.214 374.141V375.62C159.216 375.733 159.129 375.826 159.024 375.826Z" fill="white"/>
<path d="M171.057 375.826H164.458C164.353 375.826 164.266 375.733 164.266 375.62V374.141C164.266 374.028 164.351 373.934 164.458 373.934H171.057C171.162 373.934 171.249 374.026 171.249 374.141V375.62C171.249 375.733 171.164 375.826 171.057 375.826Z" fill="white"/>
<path d="M75.9831 341.448C72.9255 344.761 67.2232 343.955 63.2471 339.647C59.271 335.339 58.5258 329.16 61.5849 325.847C64.6425 322.534 70.3448 323.34 74.3209 327.648C78.2969 331.956 79.0408 338.135 75.9831 341.448Z" fill="white"/>
<path d="M71.1269 344.247C68.3063 344.247 65.2032 342.855 62.7446 340.19C58.4988 335.589 57.7521 328.911 61.0823 325.303C64.4125 321.694 70.5747 322.502 74.8234 327.104C79.0692 331.704 79.8158 338.384 76.4856 341.992C75.0831 343.51 73.1781 344.247 71.1269 344.247ZM66.4467 324.572C64.7632 324.572 63.2173 325.166 62.0859 326.392C59.3093 329.4 60.0546 335.102 63.7482 339.104C67.4418 343.104 72.7069 343.913 75.482 340.906C78.2586 337.898 77.5134 332.195 73.8198 328.193C71.6323 325.821 68.8926 324.572 66.4467 324.572Z" fill="#121936"/>
<path d="M72.0936 346.937C68.5434 346.937 64.6198 345.169 61.504 341.791C56.1566 335.997 55.1785 327.63 59.3235 323.138C63.4657 318.649 71.1908 319.71 76.5381 325.503C81.8869 331.298 82.865 339.664 78.72 344.155C76.9896 346.03 74.6374 346.937 72.0936 346.937ZM65.94 321.117C63.5097 321.117 61.3748 322.003 59.8247 323.683C55.9564 327.874 56.9345 335.754 62.005 341.248C64.4736 343.923 67.5298 345.636 70.6088 346.071C73.6508 346.505 76.355 345.63 78.216 343.612C80.077 341.596 80.8833 338.669 80.4859 335.369C80.0841 332.033 78.5042 328.723 76.0342 326.047C73.5657 323.372 70.5094 321.659 67.4305 321.224C66.9237 321.151 66.4255 321.117 65.94 321.117Z" fill="white"/>
<path d="M197.165 251.959H169.866C162.063 251.959 155.738 245.105 155.738 236.65C155.738 228.195 162.063 221.342 169.866 221.342H197.165C204.968 221.342 211.294 228.195 211.294 236.65C211.294 245.105 204.968 251.959 197.165 251.959Z" fill="#4268FF"/>
<path d="M171.57 229.447C172.148 229.46 172.745 229.492 173.36 229.543C173.974 229.595 174.588 229.69 175.202 229.832L175.097 231.061C174.589 231.035 174.027 231.013 173.412 230.995C172.798 230.975 172.207 230.965 171.641 230.965C171.202 230.965 170.829 230.982 170.515 231.013C170.201 231.045 169.946 231.122 169.744 231.244C169.543 231.365 169.399 231.564 169.31 231.839C169.22 232.114 169.176 232.494 169.176 232.982C169.176 233.712 169.297 234.22 169.54 234.509C169.783 234.797 170.174 235.012 170.718 235.152L173.199 235.824C174.145 236.067 174.791 236.493 175.14 237.101C175.488 237.71 175.662 238.525 175.662 239.549C175.662 240.318 175.581 240.938 175.422 241.412C175.263 241.886 175.018 242.247 174.687 242.498C174.356 242.747 173.93 242.919 173.411 243.016C172.891 243.113 172.277 243.161 171.568 243.161C171.167 243.161 170.644 243.141 170 243.102C169.357 243.064 168.614 242.961 167.777 242.795L167.883 241.546C168.579 241.572 169.141 241.594 169.567 241.614C169.993 241.632 170.359 241.643 170.666 241.643C170.972 241.643 171.29 241.643 171.622 241.643C172.248 241.643 172.741 241.592 173.101 241.489C173.462 241.387 173.718 241.181 173.864 240.875C174.011 240.568 174.085 240.114 174.085 239.513C174.085 239 174.033 238.603 173.926 238.322C173.82 238.041 173.652 237.825 173.422 237.679C173.191 237.533 172.898 237.415 172.545 237.324L170.011 236.633C169.125 236.39 168.502 235.967 168.142 235.366C167.781 234.764 167.601 233.958 167.601 232.946C167.601 232.177 167.682 231.561 167.841 231.093C168 230.625 168.241 230.273 168.567 230.036C168.893 229.799 169.303 229.643 169.798 229.566C170.294 229.489 170.884 229.447 171.57 229.447Z" fill="white"/>
<path d="M182.504 229.427C183.39 229.427 184.143 229.543 184.763 229.773C185.385 230.004 185.88 230.384 186.252 230.916C186.625 231.447 186.896 232.154 187.067 233.037C187.239 233.92 187.325 235.009 187.325 236.301C187.325 237.595 187.239 238.682 187.067 239.566C186.896 240.449 186.624 241.157 186.252 241.688C185.88 242.218 185.385 242.6 184.763 242.83C184.143 243.061 183.39 243.176 182.504 243.176C181.606 243.176 180.849 243.061 180.235 242.83C179.62 242.6 179.124 242.22 178.745 241.688C178.368 241.157 178.092 240.449 177.922 239.566C177.75 238.684 177.665 237.595 177.665 236.301C177.665 235.009 177.75 233.92 177.922 233.037C178.092 232.154 178.368 231.447 178.745 230.916C179.124 230.384 179.62 230.004 180.235 229.773C180.849 229.543 181.606 229.427 182.504 229.427ZM182.504 230.944C181.701 230.944 181.065 231.11 180.598 231.444C180.132 231.776 179.8 232.33 179.606 233.105C179.411 233.88 179.313 234.946 179.313 236.303C179.313 237.647 179.411 238.71 179.606 239.49C179.802 240.271 180.132 240.828 180.598 241.16C181.065 241.492 181.7 241.66 182.504 241.66C183.306 241.66 183.94 241.494 184.399 241.16C184.861 240.828 185.192 240.269 185.392 239.49C185.593 238.71 185.694 237.647 185.694 236.303C185.694 234.946 185.593 233.88 185.392 233.105C185.19 232.331 184.861 231.778 184.399 231.444C183.94 231.112 183.308 230.944 182.504 230.944ZM181.776 243.752C182.473 244.072 183.213 244.341 183.992 244.558C184.773 244.776 185.599 244.954 186.473 245.096L185.977 246.786C185.055 246.582 184.211 246.297 183.443 245.931C182.675 245.567 181.972 245.179 181.335 244.77L181.776 243.752Z" fill="white"/>
<path d="M191.472 229.677V240.239C191.472 240.674 191.568 240.994 191.764 241.198C191.958 241.403 192.257 241.506 192.658 241.506H197.07L197.143 242.812C196.375 242.876 195.591 242.913 194.795 242.927C193.995 242.939 193.202 242.947 192.41 242.947C191.513 242.947 190.874 242.71 190.496 242.237C190.117 241.763 189.93 241.168 189.93 240.451V229.678L191.472 229.677Z" fill="white"/>
<path d="M173.801 333.754H149.258C139.85 333.754 132.223 325.49 132.223 315.297C132.223 305.104 139.85 296.84 149.258 296.84H173.801C183.208 296.84 190.836 305.103 190.836 315.297C190.836 325.49 183.21 333.754 173.801 333.754Z" fill="#4268FF"/>
<path d="M152.684 309.162V311.166L143.656 315.291L152.684 319.329V321.331L141.645 316.294V314.29L152.684 309.162Z" fill="white"/>
<path d="M167.94 303.74L157.254 326.015H155.35L166.036 303.74H167.94Z" fill="white"/>
<path d="M170.605 309.162L181.644 314.288V316.292L170.605 321.33V319.327L179.631 315.29L170.605 311.164V309.162Z" fill="white"/>
<path d="M130.923 266.691H96.7281C89.9853 266.691 84.5187 260.767 84.5187 253.462C84.5187 246.156 89.9853 240.232 96.7281 240.232H130.923C137.666 240.232 143.132 246.156 143.132 253.462C143.131 260.769 137.666 266.691 130.923 266.691Z" fill="#FF9C9C"/>
<path d="M102.263 246.798C102.595 246.798 102.965 246.815 103.371 246.847C103.779 246.88 104.198 246.938 104.628 247.02C105.059 247.101 105.454 247.215 105.817 247.363L105.567 248.712C105.069 248.662 104.545 248.625 103.995 248.601C103.444 248.576 102.973 248.564 102.581 248.564C101.706 248.564 101.012 248.695 100.498 248.956C99.9845 249.218 99.6154 249.676 99.3897 250.33C99.164 250.983 99.0504 251.891 99.0504 253.052C99.0504 254.213 99.164 255.124 99.3897 255.785C99.6154 256.448 99.9859 256.91 100.498 257.171C101.011 257.432 101.706 257.563 102.581 257.563C102.807 257.563 103.1 257.556 103.464 257.539C103.826 257.523 104.213 257.499 104.628 257.465C105.044 257.432 105.438 257.383 105.817 257.317L106.022 258.715C105.462 258.927 104.856 259.083 104.199 259.181C103.543 259.28 102.89 259.329 102.242 259.329C100.974 259.329 99.9561 259.124 99.1867 258.717C98.4173 258.308 97.8623 257.646 97.523 256.73C97.1838 255.813 97.0148 254.587 97.0148 253.05C97.0148 251.514 97.188 250.288 97.5344 249.371C97.8807 248.455 98.44 247.798 99.2094 247.396C99.976 246.998 100.995 246.798 102.263 246.798Z" fill="white"/>
<path d="M112.289 246.799C112.773 246.799 113.285 246.815 113.829 246.848C114.371 246.88 114.911 246.922 115.447 246.971C115.983 247.02 116.478 247.085 116.929 247.166L116.772 248.686C116.078 248.654 115.381 248.624 114.678 248.6C113.975 248.575 113.278 248.563 112.584 248.563C111.904 248.547 111.369 248.563 110.976 248.612C110.584 248.661 110.3 248.792 110.127 249.004C109.954 249.216 109.866 249.576 109.866 250.084C109.866 250.705 110.002 251.113 110.273 251.31C110.544 251.507 110.945 251.67 111.474 251.8L114.688 252.585C115.562 252.814 116.207 253.165 116.623 253.64C117.037 254.115 117.245 254.858 117.245 255.872C117.245 256.853 117.074 257.588 116.736 258.079C116.397 258.57 115.879 258.896 115.185 259.06C114.491 259.223 113.609 259.305 112.537 259.305C112.146 259.305 111.561 259.288 110.784 259.256C110.006 259.223 109.15 259.125 108.215 258.962L108.351 257.442C108.713 257.458 109.096 257.479 109.505 257.504C109.913 257.528 110.339 257.541 110.784 257.541C111.229 257.541 111.686 257.541 112.153 257.541C112.983 257.541 113.632 257.501 114.099 257.418C114.567 257.336 114.898 257.176 115.095 256.939C115.291 256.702 115.389 256.347 115.389 255.873C115.389 255.284 115.232 254.892 114.914 254.695C114.597 254.5 114.174 254.337 113.646 254.204L110.478 253.42C109.874 253.257 109.392 253.04 109.028 252.771C108.666 252.502 108.404 252.15 108.236 251.716C108.07 251.284 107.986 250.739 107.986 250.085C107.986 249.153 108.137 248.45 108.439 247.975C108.74 247.501 109.209 247.183 109.842 247.019C110.479 246.855 111.294 246.783 112.289 246.799Z" fill="white"/>
<path d="M123.786 246.799C124.27 246.799 124.782 246.815 125.326 246.848C125.868 246.88 126.408 246.922 126.944 246.971C127.479 247.02 127.975 247.085 128.426 247.166L128.269 248.686C127.574 248.654 126.877 248.624 126.175 248.6C125.472 248.575 124.775 248.563 124.081 248.563C123.401 248.547 122.866 248.563 122.473 248.612C122.081 248.661 121.797 248.792 121.624 249.004C121.451 249.216 121.363 249.576 121.363 250.084C121.363 250.705 121.499 251.113 121.77 251.31C122.041 251.507 122.441 251.67 122.971 251.8L126.185 252.585C127.059 252.814 127.704 253.165 128.119 253.64C128.534 254.115 128.741 254.858 128.741 255.872C128.741 256.853 128.571 257.588 128.233 258.079C127.894 258.57 127.376 258.896 126.682 259.06C125.987 259.223 125.106 259.305 124.034 259.305C123.642 259.305 123.057 259.288 122.281 259.256C121.503 259.223 120.647 259.125 119.712 258.962L119.848 257.442C120.21 257.458 120.593 257.479 121.002 257.504C121.409 257.528 121.835 257.541 122.281 257.541C122.725 257.541 123.182 257.541 123.649 257.541C124.48 257.541 125.129 257.501 125.596 257.418C126.064 257.336 126.395 257.176 126.592 256.939C126.788 256.702 126.886 256.347 126.886 255.873C126.886 255.284 126.728 254.892 126.41 254.695C126.094 254.5 125.671 254.337 125.143 254.204L121.974 253.42C121.371 253.257 120.888 253.04 120.525 252.771C120.163 252.502 119.9 252.15 119.733 251.716C119.567 251.284 119.483 250.739 119.483 250.085C119.483 249.153 119.634 248.45 119.936 247.975C120.237 247.501 120.705 247.183 121.338 247.019C121.974 246.855 122.791 246.783 123.786 246.799Z" fill="white"/>
<path d="M190.085 183.283C190.085 185.267 188.601 186.875 186.77 186.875C184.94 186.875 183.455 185.267 183.455 183.283C183.455 181.301 184.939 179.692 186.77 179.692C188.601 179.692 190.085 181.301 190.085 183.283Z" fill="#F9CAD0"/>
<path d="M63.4913 246.603C63.4913 247.595 62.7489 248.398 61.8347 248.398C60.9191 248.398 60.1781 247.594 60.1781 246.603C60.1781 245.613 60.9205 244.808 61.8347 244.808C62.7489 244.807 63.4913 245.611 63.4913 246.603Z" fill="#F8F8F6"/>
<path d="M93.8351 196.671C93.8351 197.663 93.0927 198.466 92.1785 198.466C91.2643 198.466 90.5219 197.661 90.5219 196.671C90.5219 195.68 91.2643 194.876 92.1785 194.876C93.0927 194.876 93.8351 195.679 93.8351 196.671Z" fill="#F8F8F6"/>
<path d="M110.232 103.735C110.232 104.727 109.49 105.53 108.575 105.53C107.661 105.53 106.919 104.725 106.919 103.735C106.919 102.743 107.661 101.94 108.575 101.94C109.49 101.94 110.232 102.743 110.232 103.735Z" fill="#F8F8F6"/>
<path opacity="0.49" d="M49.5771 148.998C49.5771 149.99 48.8347 150.793 47.9205 150.793C47.0063 150.793 46.2639 149.988 46.2639 148.998C46.2639 148.006 47.0063 147.203 47.9205 147.203C48.8347 147.203 49.5771 148.007 49.5771 148.998Z" fill="#F8F8F6"/>
<path opacity="0.49" d="M146.446 159.758C146.446 160.75 145.703 161.553 144.789 161.553C143.873 161.553 143.132 160.749 143.132 159.758C143.132 158.768 143.875 157.963 144.789 157.963C145.703 157.963 146.446 158.766 146.446 159.758Z" fill="#F8F8F6"/>
<path d="M133.664 211.213C133.664 213.196 132.181 214.805 130.35 214.805C128.52 214.805 127.035 213.197 127.035 211.213C127.035 209.231 128.518 207.622 130.35 207.622C132.181 207.623 133.664 209.231 133.664 211.213Z" fill="#F8F8F6"/>
<path d="M34.9775 607.313C33.4955 607.313 32.1016 606.691 31.0469 605.559C29.9879 604.421 29.4002 602.903 29.3931 601.288L28.5258 395.853C28.5187 394.237 29.0922 392.715 30.144 391.567C31.1931 390.419 32.5941 389.782 34.0846 389.775L236.22 388.772C236.227 388.772 236.235 388.772 236.244 388.772C239.311 388.772 241.817 391.47 241.831 394.797L242.698 600.231C242.705 601.848 242.132 603.369 241.08 604.518C240.031 605.665 238.63 606.302 237.139 606.31L35.0045 607.313C34.996 607.313 34.986 607.313 34.9775 607.313ZM236.244 390.308C236.237 390.308 236.231 390.308 236.225 390.308L34.0903 391.311C32.9788 391.317 31.9341 391.793 31.1519 392.648C30.3683 393.505 29.9396 394.64 29.9453 395.846L30.8126 601.28C30.8183 602.485 31.2569 603.617 32.0462 604.464C32.8326 605.308 33.8717 605.773 34.9761 605.773C34.9832 605.773 34.9903 605.773 34.9974 605.773L237.131 604.77C238.242 604.764 239.287 604.289 240.069 603.434C240.853 602.577 241.282 601.442 241.276 600.236L240.409 394.801C240.399 392.32 238.532 390.308 236.244 390.308Z" fill="#121936"/>
<path d="M233.69 405.5L234.493 595.655C234.506 598.573 232.333 600.948 229.64 600.962L42.4937 601.891C39.8008 601.905 37.6091 599.55 37.5963 596.632L36.7929 406.477C36.7801 403.559 38.9534 401.184 41.6462 401.17L228.792 400.241C231.485 400.229 233.678 402.584 233.69 405.5Z" fill="white"/>
<path d="M241.778 382.736L241.832 395.452L28.4063 396.511L28.3509 383.536C28.3396 380.745 30.4192 378.47 32.9956 378.457L236.85 377.445C239.559 377.431 241.765 379.8 241.778 382.736Z" fill="#4268FF"/>
<path d="M38.9051 391.03C37.0455 391.03 35.5337 389.392 35.5337 387.377C35.5337 385.362 37.0455 383.724 38.9051 383.724C40.7633 383.724 42.2765 385.362 42.2765 387.377C42.2765 389.39 40.7633 391.03 38.9051 391.03ZM38.9051 384.877C37.6318 384.877 36.5984 385.999 36.5984 387.377C36.5984 388.755 37.6318 389.876 38.9051 389.876C40.177 389.876 41.2118 388.755 41.2118 387.377C41.2118 385.997 40.177 384.877 38.9051 384.877Z" fill="white"/>
<path d="M50.7581 391.03C48.9 391.03 47.3868 389.392 47.3868 387.377C47.3868 385.362 48.9 383.724 50.7581 383.724C52.6177 383.724 54.1295 385.362 54.1295 387.377C54.1295 389.39 52.6177 391.03 50.7581 391.03ZM50.7581 384.877C49.4862 384.877 48.4514 385.999 48.4514 387.377C48.4514 388.755 49.4862 389.876 50.7581 389.876C52.0315 389.876 53.0649 388.755 53.0649 387.377C53.0649 385.997 52.0315 384.877 50.7581 384.877Z" fill="white"/>
<path d="M62.2861 391.03C60.4265 391.03 58.9147 389.392 58.9147 387.377C58.9147 385.362 60.4265 383.724 62.2861 383.724C64.1443 383.724 65.6575 385.362 65.6575 387.377C65.6575 389.39 64.1443 391.03 62.2861 391.03ZM62.2861 384.877C61.0142 384.877 59.9794 385.999 59.9794 387.377C59.9794 388.755 61.0142 389.876 62.2861 389.876C63.558 389.876 64.5929 388.755 64.5929 387.377C64.5929 385.997 63.558 384.877 62.2861 384.877Z" fill="white"/>
<path d="M131.749 463.237H58.7316C58.3398 463.237 58.0219 462.892 58.0219 462.468C58.0219 462.043 58.3398 461.699 58.7316 461.699H131.749C132.141 461.699 132.459 462.043 132.459 462.468C132.459 462.892 132.142 463.237 131.749 463.237Z" fill="#599AF2"/>
<path d="M152.659 429.037H58.7315C58.3397 429.037 58.0217 428.693 58.0217 428.268C58.0217 427.844 58.3397 427.499 58.7315 427.499H152.659C153.05 427.499 153.368 427.844 153.368 428.268C153.368 428.693 153.05 429.037 152.659 429.037Z" fill="#708CF5"/>
<path opacity="0.69" d="M183.968 429.037H164.474C164.082 429.037 163.764 428.693 163.764 428.268C163.764 427.844 164.082 427.499 164.474 427.499H183.968C184.36 427.499 184.678 427.844 184.678 428.268C184.678 428.693 184.361 429.037 183.968 429.037Z" fill="#353148"/>
<path d="M152.659 500.695H58.7316C58.3398 500.695 58.0219 500.351 58.0219 499.926C58.0219 499.502 58.3398 499.157 58.7316 499.157H152.659C153.051 499.157 153.369 499.502 153.369 499.926C153.369 500.351 153.051 500.695 152.659 500.695Z" fill="#708CF5"/>
<path d="M183.968 500.695H164.474C164.082 500.695 163.764 500.351 163.764 499.926C163.764 499.502 164.082 499.157 164.474 499.157H183.968C184.36 499.157 184.678 499.502 184.678 499.926C184.678 500.351 184.361 500.695 183.968 500.695Z" fill="#599AF2"/>
<path d="M183.968 463.237H164.474C164.082 463.237 163.764 462.892 163.764 462.468C163.764 462.043 164.082 461.699 164.474 461.699H183.968C184.36 461.699 184.678 462.043 184.678 462.468C184.678 462.892 184.361 463.237 183.968 463.237Z" fill="#708CF5"/>
<path opacity="0.69" d="M216.065 463.237H196.572C196.18 463.237 195.862 462.892 195.862 462.468C195.862 462.043 196.18 461.699 196.572 461.699H216.065C216.457 461.699 216.775 462.043 216.775 462.468C216.775 462.892 216.457 463.237 216.065 463.237Z" fill="#353148"/>
<path opacity="0.69" d="M121.35 445.866H58.7316C58.3398 445.866 58.0219 445.521 58.0219 445.097C58.0219 444.672 58.3398 444.328 58.7316 444.328H121.35C121.742 444.328 122.06 444.672 122.06 445.097C122.06 445.521 121.742 445.866 121.35 445.866Z" fill="#353148"/>
<path d="M160.338 445.866H132.869C132.477 445.866 132.159 445.521 132.159 445.097C132.159 444.672 132.477 444.328 132.869 444.328H160.338C160.73 444.328 161.048 444.672 161.048 445.097C161.048 445.521 160.73 445.866 160.338 445.866Z" fill="#F7A9B4"/>
<path opacity="0.69" d="M160.338 481.905H97.7204C97.3286 481.905 97.0106 481.56 97.0106 481.136C97.0106 480.711 97.3286 480.366 97.7204 480.366H160.338C160.73 480.366 161.048 480.711 161.048 481.136C161.048 481.56 160.73 481.905 160.338 481.905Z" fill="#353148"/>
<path d="M86.1994 481.905H58.7302C58.3384 481.905 58.0204 481.56 58.0204 481.136C58.0204 480.711 58.3384 480.366 58.7302 480.366H86.1994C86.5912 480.366 86.9092 480.711 86.9092 481.136C86.9092 481.56 86.5927 481.905 86.1994 481.905Z" fill="#F7A9B4"/>
<path d="M152.659 524.853H58.7316C58.3398 524.853 58.0219 524.508 58.0219 524.084C58.0219 523.659 58.3398 523.315 58.7316 523.315H152.659C153.051 523.315 153.369 523.659 153.369 524.084C153.369 524.508 153.051 524.853 152.659 524.853Z" fill="#F7A9B4"/>
<path opacity="0.69" d="M183.968 524.853H164.474C164.082 524.853 163.764 524.508 163.764 524.084C163.764 523.659 164.082 523.315 164.474 523.315H183.968C184.36 523.315 184.678 523.659 184.678 524.084C184.678 524.508 184.361 524.853 183.968 524.853Z" fill="#353148"/>
<path d="M152.659 559.052H58.7316C58.3398 559.052 58.0219 558.707 58.0219 558.283C58.0219 557.858 58.3398 557.514 58.7316 557.514H152.659C153.051 557.514 153.369 557.858 153.369 558.283C153.369 558.707 153.051 559.052 152.659 559.052Z" fill="#599AF2"/>
<path d="M183.968 559.052H164.474C164.082 559.052 163.764 558.707 163.764 558.283C163.764 557.858 164.082 557.514 164.474 557.514H183.968C184.36 557.514 184.678 557.858 184.678 558.283C184.678 558.707 184.361 559.052 183.968 559.052Z" fill="#708CF5"/>
<path opacity="0.69" d="M216.065 559.052H196.572C196.18 559.052 195.862 558.707 195.862 558.283C195.862 557.858 196.18 557.514 196.572 557.514H216.065C216.457 557.514 216.775 557.858 216.775 558.283C216.775 558.707 216.457 559.052 216.065 559.052Z" fill="#353148"/>
<path opacity="0.69" d="M121.35 541.679H58.7316C58.3398 541.679 58.0219 541.335 58.0219 540.91C58.0219 540.486 58.3398 540.141 58.7316 540.141H121.35C121.742 540.141 122.06 540.486 122.06 540.91C122.06 541.335 121.742 541.679 121.35 541.679Z" fill="#353148"/>
<path d="M160.338 541.679H132.869C132.477 541.679 132.159 541.335 132.159 540.91C132.159 540.486 132.477 540.141 132.869 540.141H160.338C160.73 540.141 161.048 540.486 161.048 540.91C161.048 541.335 160.73 541.679 160.338 541.679Z" fill="#F7A9B4"/>
<path opacity="0.69" d="M160.338 577.718H97.7204C97.3286 577.718 97.0106 577.374 97.0106 576.949C97.0106 576.525 97.3286 576.18 97.7204 576.18H160.338C160.73 576.18 161.048 576.525 161.048 576.949C161.048 577.374 160.73 577.718 160.338 577.718Z" fill="#353148"/>
<path d="M86.1994 577.718H58.7302C58.3384 577.718 58.0204 577.374 58.0204 576.949C58.0204 576.525 58.3384 576.18 58.7302 576.18H86.1994C86.5912 576.18 86.9092 576.525 86.9092 576.949C86.9092 577.374 86.5927 577.718 86.1994 577.718Z" fill="#F7A9B4"/>
<path d="M156.934 608.008H286.864C290.491 608.008 293.43 604.822 293.43 600.893V546.152C293.43 542.222 290.491 539.037 286.864 539.037H156.934C153.308 539.037 150.368 542.222 150.368 546.152V600.893C150.368 604.822 153.308 608.008 156.934 608.008Z" fill="#4268FF"/>
<path d="M259.887 573.807H214.645C214.254 573.807 213.936 573.462 213.936 573.038C213.936 572.613 214.254 572.269 214.645 572.269H259.887C260.279 572.269 260.597 572.613 260.597 573.038C260.597 573.462 260.279 573.807 259.887 573.807Z" fill="white"/>
<path d="M228.964 558.341H183.722C183.331 558.341 183.013 557.997 183.013 557.572C183.013 557.148 183.331 556.803 183.722 556.803H228.964C229.356 556.803 229.674 557.148 229.674 557.572C229.674 557.997 229.356 558.341 228.964 558.341Z" fill="white"/>
<path d="M271.78 558.341H242.082C241.69 558.341 241.372 557.997 241.372 557.572C241.372 557.148 241.69 556.803 242.082 556.803H271.78C272.172 556.803 272.49 557.148 272.49 557.572C272.49 557.997 272.172 558.341 271.78 558.341Z" fill="#9DD3FF"/>
<path d="M228.964 588.633H183.722C183.331 588.633 183.013 588.288 183.013 587.863C183.013 587.439 183.331 587.094 183.722 587.094H228.964C229.356 587.094 229.674 587.439 229.674 587.863C229.674 588.288 229.356 588.633 228.964 588.633Z" fill="white"/>
<path d="M261.644 588.633H242.082C241.69 588.633 241.372 588.288 241.372 587.863C241.372 587.439 241.69 587.094 242.082 587.094H261.644C262.036 587.094 262.354 587.439 262.354 587.863C262.354 588.288 262.036 588.633 261.644 588.633Z" fill="#9DD3FF"/>
<path d="M200.735 573.807H182.477C182.086 573.807 181.768 573.462 181.768 573.038C181.768 572.613 182.086 572.269 182.477 572.269H200.735C201.127 572.269 201.445 572.613 201.445 573.038C201.445 573.462 201.127 573.807 200.735 573.807Z" fill="#9DD3FF"/>
<path d="M165.876 555.567C165.694 555.567 165.513 555.491 165.374 555.342L158.828 548.25C158.551 547.95 158.551 547.462 158.828 547.163C159.105 546.863 159.555 546.863 159.832 547.163L166.377 554.255C166.654 554.555 166.654 555.042 166.377 555.342C166.239 555.491 166.058 555.567 165.876 555.567Z" fill="white"/>
<path d="M159.331 555.567C159.149 555.567 158.967 555.491 158.828 555.342C158.551 555.042 158.551 554.555 158.828 554.255L165.374 547.163C165.65 546.863 166.1 546.863 166.377 547.163C166.654 547.462 166.654 547.95 166.377 548.25L159.832 555.342C159.694 555.491 159.512 555.567 159.331 555.567Z" fill="white"/>
<path d="M488.595 220.423H350.16C346.627 220.423 343.764 217.801 343.764 214.566V116.036V104.95C343.764 101.715 346.627 99.0929 350.16 99.0929H488.595C492.129 99.0929 494.992 101.715 494.992 104.95V214.566C494.99 217.801 492.127 220.423 488.595 220.423Z" fill="white"/>
<path d="M488.594 221.192H350.161C346.241 221.192 343.053 218.321 343.053 214.789V120.289L495.702 119.568V214.789C495.702 218.321 492.513 221.192 488.594 221.192ZM344.473 121.823V214.791C344.473 217.473 347.025 219.656 350.161 219.656H488.594C491.73 219.656 494.282 217.473 494.282 214.791V121.114L344.473 121.823Z" fill="#121936"/>
<path d="M342.945 121.783V104.848C342.945 101.669 345.835 99.0929 349.401 99.0929H489.129C492.695 99.0929 495.585 101.669 495.585 104.848V121.043" fill="#4268FF"/>
<path d="M354.677 114.129C352.975 114.129 351.59 112.574 351.59 110.664C351.59 108.752 352.975 107.199 354.677 107.199C356.379 107.199 357.765 108.754 357.765 110.664C357.765 112.576 356.379 114.129 354.677 114.129ZM354.677 108.737C353.757 108.737 353.009 109.603 353.009 110.664C353.009 111.725 353.757 112.591 354.677 112.591C355.596 112.591 356.345 111.727 356.345 110.664C356.345 109.601 355.597 108.737 354.677 108.737Z" fill="white"/>
<path d="M363.598 114.129C361.896 114.129 360.51 112.574 360.51 110.664C360.51 108.752 361.896 107.199 363.598 107.199C365.3 107.199 366.685 108.754 366.685 110.664C366.685 112.576 365.301 114.129 363.598 114.129ZM363.598 108.737C362.679 108.737 361.93 109.603 361.93 110.664C361.93 111.725 362.678 112.591 363.598 112.591C364.516 112.591 365.266 111.727 365.266 110.664C365.266 109.601 364.517 108.737 363.598 108.737Z" fill="white"/>
<path d="M372.349 114.129C370.647 114.129 369.262 112.574 369.262 110.664C369.262 108.752 370.647 107.199 372.349 107.199C374.051 107.199 375.436 108.754 375.436 110.664C375.436 112.576 374.052 114.129 372.349 114.129ZM372.349 108.737C371.431 108.737 370.681 109.603 370.681 110.664C370.681 111.725 371.429 112.591 372.349 112.591C373.269 112.591 374.017 111.727 374.017 110.664C374.017 109.601 373.269 108.737 372.349 108.737Z" fill="white"/>
<g opacity="0.31">
<path d="M483.873 212.908H354.882C352.125 212.908 349.882 210.478 349.882 207.491V129.955C349.882 126.968 352.125 124.537 354.882 124.537H483.873C486.629 124.537 488.872 126.968 488.872 129.955V207.491C488.872 210.478 486.629 212.908 483.873 212.908ZM354.882 126.076C352.907 126.076 351.302 127.815 351.302 129.955V207.491C351.302 209.631 352.909 211.37 354.882 211.37H483.873C485.847 211.37 487.453 209.631 487.453 207.491V129.955C487.453 127.815 485.846 126.076 483.873 126.076H354.882Z" fill="#103463"/>
<path opacity="0.69" d="M400.989 200.185H365.46V156.161H400.989V200.185ZM366.88 198.647H399.57V157.699H366.88V198.647Z" fill="#353148"/>
<path d="M400.281 152.492H366.17V137.499H366.953H400.281V152.492Z" fill="#708CF5"/>
<path d="M418.252 171.838V137.499H472.837V138.288V171.838H418.252Z" fill="#708CF5"/>
<path d="M400.116 152.492H366.005V137.499H366.789H400.116V152.492Z" fill="#F9CAD0"/>
<path d="M418.088 171.838V137.499H472.673V138.288V171.838H418.088Z" fill="#F9CAD0"/>
<path opacity="0.69" d="M473.547 202.134H417.542V181.25H473.547V202.134ZM418.962 200.596H472.128V182.788H418.962V200.596Z" fill="#353148"/>
</g>
<path d="M400.116 152.492H366.005V137.499H366.789H400.116V152.492Z" fill="#F9CAD0"/>
<path d="M418.088 171.838V137.499H472.673V138.288V171.838H418.088Z" fill="#F9CAD0"/>
<path d="M429.157 158.709C426.691 158.709 424.686 156.536 424.686 153.864C424.686 151.193 426.691 149.019 429.157 149.019C431.623 149.019 433.63 151.193 433.63 153.864C433.63 156.536 431.623 158.709 429.157 158.709ZM429.157 150.171C427.279 150.171 425.75 151.828 425.75 153.863C425.75 155.899 427.279 157.554 429.157 157.554C431.037 157.554 432.565 155.898 432.565 153.863C432.565 151.828 431.037 150.171 429.157 150.171Z" fill="white"/>
<path d="M445.608 158.709C443.142 158.709 441.136 156.536 441.136 153.864C441.136 151.193 443.142 149.019 445.608 149.019C448.074 149.019 450.079 151.193 450.079 153.864C450.079 156.536 448.074 158.709 445.608 158.709ZM445.608 150.171C443.73 150.171 442.201 151.828 442.201 153.863C442.201 155.899 443.73 157.554 445.608 157.554C447.486 157.554 449.015 155.898 449.015 153.863C449.015 151.828 447.486 150.171 445.608 150.171Z" fill="white"/>
<path d="M461.603 158.709C459.137 158.709 457.132 156.536 457.132 153.864C457.132 151.193 459.137 149.019 461.603 149.019C464.069 149.019 466.075 151.193 466.075 153.864C466.076 156.536 464.07 158.709 461.603 158.709ZM461.603 150.171C459.725 150.171 458.196 151.828 458.196 153.863C458.196 155.899 459.725 157.554 461.603 157.554C463.481 157.554 465.01 155.898 465.01 153.863C465.011 151.828 463.483 150.171 461.603 150.171Z" fill="white"/>
<path d="M278.29 495.741L273.673 501.326L247.531 533.937C245.801 536.096 242.525 534.781 242.509 531.922L242.117 460.15C242.107 458.233 243.551 456.68 245.32 456.706L276.338 456.139L278.29 495.741Z" fill="#FF6969"/>
<path d="M247.249 460.15C247.239 458.233 248.683 456.68 250.451 456.706L276.342 456.232L276.338 456.139L245.32 456.706C243.551 456.68 242.106 458.232 242.117 460.15L242.511 531.922C242.526 534.781 245.802 536.096 247.533 533.937L248.001 533.352C247.794 532.932 247.645 532.466 247.642 531.922L247.249 460.15Z" fill="#121936"/>
<path d="M247.822 524.287C247.435 524.287 247.117 523.947 247.113 523.527L246.436 456.743C246.431 456.318 246.746 455.969 247.137 455.965C247.14 455.965 247.143 455.965 247.145 455.965C247.533 455.965 247.851 456.305 247.855 456.725L248.532 523.508C248.537 523.933 248.221 524.282 247.831 524.287C247.828 524.287 247.825 524.287 247.822 524.287Z" fill="white"/>
<path d="M262.432 478.273C262.092 478.273 261.745 478.241 261.396 478.178C258.04 477.561 255.772 474.1 256.341 470.461C256.616 468.7 257.508 467.16 258.854 466.125C260.198 465.09 261.832 464.689 263.461 464.984C266.819 465.601 269.087 469.062 268.519 472.701C268.007 475.961 265.388 478.273 262.432 478.273ZM262.418 466.428C261.441 466.428 260.489 466.754 259.674 467.38C258.639 468.177 257.952 469.363 257.741 470.72C257.302 473.522 259.05 476.187 261.634 476.661C264.211 477.138 266.679 475.243 267.117 472.442C267.328 471.086 267.04 469.72 266.306 468.599C265.569 467.477 264.475 466.731 263.221 466.502C262.955 466.453 262.685 466.428 262.418 466.428Z" fill="white"/>
<path d="M273.673 502.095C273.507 502.095 273.34 502.032 273.205 501.903L267.044 496.026C266.749 495.744 266.721 495.26 266.98 494.941C267.24 494.623 267.689 494.589 267.981 494.872L274.142 500.749C274.437 501.031 274.466 501.515 274.206 501.834C274.065 502.006 273.869 502.095 273.673 502.095Z" fill="white"/>
<path d="M269.47 507.117C269.304 507.117 269.137 507.054 269.002 506.925L262.841 501.048C262.546 500.766 262.517 500.282 262.777 499.963C263.036 499.645 263.484 499.611 263.778 499.894L269.939 505.771C270.234 506.053 270.262 506.537 270.003 506.855C269.862 507.029 269.666 507.117 269.47 507.117Z" fill="white"/>
<path d="M265.335 511.848C265.169 511.848 265.002 511.785 264.867 511.656L258.705 505.779C258.409 505.497 258.381 505.013 258.641 504.694C258.899 504.376 259.348 504.344 259.641 504.625L265.804 510.502C266.099 510.784 266.126 511.268 265.868 511.587C265.727 511.759 265.531 511.848 265.335 511.848Z" fill="white"/>
<path d="M280.54 497.425C277.897 497.425 275.033 497.122 274.439 495.918C274.312 495.66 274.309 495.349 274.433 495.064C275.107 493.509 282.71 489.864 283.893 489.601C284.82 489.395 285.768 489.59 286.559 490.155C287.349 490.719 287.891 491.584 288.08 492.59C288.473 494.665 287.236 496.699 285.322 497.125C285.048 497.187 282.879 497.425 280.54 497.425ZM276.038 495.414C277.607 496.047 283.279 496.012 285.037 495.621C286.185 495.364 286.926 494.143 286.691 492.899C286.577 492.296 286.252 491.778 285.778 491.439C285.304 491.099 284.734 490.982 284.179 491.105C282.886 491.396 277.519 494.203 276.038 495.414Z" fill="white"/>
<path d="M279.915 508.046C279.64 508.046 279.36 508.012 279.086 507.94C278.165 507.701 277.384 507.088 276.889 506.214C276.491 505.514 273.286 496.063 274.715 495.075C274.923 494.929 275.282 494.783 275.803 494.915C277.943 495.447 282.202 500.908 282.93 502.19C283.427 503.064 283.579 504.096 283.36 505.094C283.14 506.094 282.574 506.938 281.768 507.477C281.2 507.852 280.562 508.046 279.915 508.046ZM275.705 496.467C275.847 498.271 277.387 504.155 278.098 505.408C278.396 505.933 278.863 506.3 279.416 506.443C279.976 506.589 280.54 506.485 281.024 506.165C282.022 505.499 282.335 504.078 281.721 502.995C280.795 501.363 277.092 497.065 275.705 496.467Z" fill="white"/>
<path d="M388.031 342.449L337.373 304.043C336.987 303.772 306.09 302.004 306.09 302.004C305.682 301.921 305.278 301.925 304.889 301.991L243.202 287.446L239.628 301.144C236.127 314.559 236.124 328.763 239.62 342.18L266.759 446.324L265.933 446.942C264.753 447.837 264.191 449.416 264.51 450.937L277.181 511.377C277.76 514.141 280.811 515.295 282.852 513.522L284.008 512.517L299.603 572.363C299.885 573.449 300.9 574.107 301.916 573.864L351.456 562.053C353.547 561.554 354.882 559.332 354.459 557.06L337.467 466.061L391.669 418.958C414.869 398.794 413.023 359.925 388.031 342.449ZM325.559 402.292L321.807 382.193L342.332 389.732L325.559 402.292Z" fill="#121936"/>
<path d="M338.798 473.973C338.466 473.973 338.168 473.717 338.103 473.35L315.037 343.729C314.963 343.311 315.215 342.909 315.601 342.828C315.981 342.751 316.357 343.018 316.432 343.437L339.498 473.058C339.572 473.474 339.321 473.877 338.936 473.959C338.888 473.968 338.844 473.973 338.798 473.973Z" fill="white"/>
<path d="M356.085 395.658C356.009 395.658 355.932 395.644 355.856 395.616L322.43 383.233C322.059 383.096 321.862 382.659 321.988 382.256C322.115 381.855 322.519 381.64 322.89 381.778L356.315 394.161C356.686 394.298 356.883 394.735 356.755 395.138C356.658 395.458 356.381 395.658 356.085 395.658Z" fill="white"/>
<path d="M342.258 564.358L348.111 568.356L382.154 590.834C384.408 592.321 383.759 596.041 381.159 596.535L315.916 608.948C314.173 609.28 312.519 607.996 312.246 606.102L306.547 573.061L342.258 564.358Z" fill="#FF6969"/>
<path d="M382.154 590.835L380.97 590.052C380.567 590.635 379.987 591.093 379.205 591.243L313.962 603.655C313.159 603.807 312.381 603.606 311.742 603.171L312.248 606.102C312.519 607.997 314.174 609.28 315.917 608.948L381.16 596.535C383.759 596.041 384.407 592.322 382.154 590.835Z" fill="#121936"/>
<path d="M311.965 604.918C311.63 604.918 311.331 604.658 311.268 604.286C311.199 603.869 311.456 603.467 311.84 603.392L372.497 591.507C372.873 591.441 373.25 591.707 373.321 592.127C373.391 592.544 373.134 592.945 372.749 593.021L312.094 604.906C312.05 604.913 312.009 604.918 311.965 604.918Z" fill="white"/>
<path d="M322.925 592.03C319.521 592.03 316.749 589.028 316.749 585.338C316.749 581.65 319.52 578.647 322.925 578.647C326.331 578.647 329.1 581.648 329.1 585.338C329.1 589.028 326.331 592.03 322.925 592.03ZM322.925 580.187C320.302 580.187 318.169 582.499 318.169 585.339C318.169 588.182 320.302 590.494 322.925 590.494C325.547 590.494 327.681 588.182 327.681 585.339C327.681 582.499 325.547 580.187 322.925 580.187Z" fill="white"/>
<path d="M343.791 576.691C343.663 576.691 343.534 576.654 343.418 576.575C343.084 576.352 342.98 575.879 343.188 575.517L347.507 567.953C347.713 567.59 348.15 567.481 348.484 567.704C348.818 567.927 348.921 568.4 348.714 568.762L344.394 576.326C344.261 576.562 344.028 576.691 343.791 576.691Z" fill="white"/>
<path d="M349.065 580.341C348.937 580.341 348.808 580.304 348.691 580.225C348.358 580.002 348.254 579.529 348.461 579.167L352.781 571.603C352.987 571.24 353.424 571.131 353.757 571.354C354.091 571.577 354.195 572.05 353.987 572.412L349.668 579.976C349.534 580.212 349.302 580.341 349.065 580.341Z" fill="white"/>
<path d="M354.06 583.969C353.932 583.969 353.803 583.932 353.687 583.854C353.353 583.631 353.249 583.157 353.457 582.796L357.776 575.231C357.981 574.87 358.418 574.757 358.753 574.982C359.086 575.205 359.19 575.679 358.983 576.04L354.663 583.605C354.53 583.84 354.297 583.969 354.06 583.969Z" fill="white"/>
<path d="M342.542 568.631C342.457 568.631 342.371 568.619 342.283 568.593C340.756 568.133 336.171 560.621 335.734 559.401C335.024 557.428 335.93 555.196 337.752 554.427C338.635 554.053 339.599 554.078 340.466 554.492C341.332 554.907 342 555.661 342.342 556.617C342.557 557.217 344.942 566.869 343.06 568.444C342.914 568.565 342.732 568.631 342.542 568.631ZM339.036 555.702C338.78 555.702 338.52 555.753 338.268 555.859C337.175 556.32 336.632 557.659 337.057 558.843C337.535 560.175 340.986 565.441 342.336 566.821C342.654 565.04 341.67 558.984 341.02 557.174C340.694 556.26 339.887 555.702 339.036 555.702Z" fill="white"/>
<path d="M342.925 568.522C342.617 568.522 342.383 568.45 342.247 568.288C342.082 568.09 341.89 567.733 341.921 567.155C342.046 564.781 346.305 559.318 347.351 558.326C348.82 556.933 351.066 557.089 352.355 558.684C353.643 560.278 353.495 562.71 352.023 564.105C351.519 564.583 345.202 568.52 342.925 568.522ZM349.686 558.912C349.188 558.912 348.69 559.1 348.287 559.481C346.957 560.742 343.665 565.417 343.352 566.998C344.971 566.546 350.067 563.917 351.087 562.948C351.515 562.542 351.77 561.981 351.808 561.367C351.845 560.752 351.661 560.159 351.287 559.696C350.867 559.178 350.278 558.912 349.686 558.912Z" fill="white"/>
<path d="M337.588 121.28C336.742 119.725 335.923 118.313 335.159 117.055C332.509 112.682 329.163 108.06 329.408 103.126C330.956 72.0102 300.701 62.6279 278.403 68.7818C278.114 67.9358 277.775 67.0929 277.366 66.2624C273.718 58.8596 266.627 55.2497 261.528 58.1997C258.918 59.7101 257.343 62.6494 256.91 66.147C251.651 66.2993 247.114 68.8971 245.246 73.4637C242.714 79.656 245.93 87.3619 252.513 91.8654C249.083 95.1261 245.123 97.8916 240.42 100.571L239.267 101.228C223.597 110.155 220.228 130.925 228.293 142.395L230.612 145.729C230.971 146.244 231.347 146.744 231.738 147.23C233.162 148.998 233.624 151.213 232.929 153.264C231.637 157.074 231.042 161.198 231.367 165.564C232.578 181.804 246.346 195.706 263.911 198.275C276.094 200.056 287.504 196.343 295.415 189.249C304.872 180.77 315.684 173.679 326.73 166.984C335.758 161.512 341.984 152.405 342.846 141.61C343.43 134.274 341.432 127.255 337.588 121.28Z" fill="#121936"/>
<path d="M328.777 133.306L326.467 109.058C322.521 102.507 312.258 100.8 308.438 96.0475C305.387 92.2499 304.172 91.5055 304.003 88.254C302.535 104.427 291.748 116.516 279.878 115.343L279.895 115.523L276.017 115.669C270.79 115.866 266.662 120.66 266.844 126.323L266.851 126.559C267.033 132.222 271.458 136.695 276.684 136.498L279.618 136.387L275.094 167.868C274.084 177.374 310.54 179.532 311.551 170.026L312.82 158.08C322.913 155.293 329.878 144.868 328.777 133.306Z" fill="#FF9C9C"/>
<path d="M275.36 129.69C275.129 129.69 274.901 129.567 274.765 129.341C274.552 128.986 274.644 128.509 274.972 128.277L277.381 126.575L274.619 123.245C274.356 122.929 274.38 122.443 274.673 122.158C274.964 121.875 275.412 121.9 275.675 122.216L278.992 126.216C279.132 126.383 279.195 126.608 279.169 126.829C279.14 127.052 279.025 127.251 278.852 127.374L275.747 129.565C275.628 129.649 275.493 129.69 275.36 129.69Z" fill="#FF6969"/>
<path d="M328.054 119.822C328.267 120.9 327.631 121.96 326.637 122.19C325.642 122.42 324.664 121.732 324.451 120.654C324.24 119.576 324.874 118.516 325.868 118.285C326.863 118.056 327.841 118.744 328.054 119.822Z" fill="#121936"/>
<path d="M313.045 120.969C312.996 122.173 312.055 123.107 310.943 123.055C309.832 123.001 308.969 121.981 309.018 120.777C309.068 119.573 310.009 118.639 311.121 118.691C312.234 118.743 313.095 119.763 313.045 120.969Z" fill="#121936"/>
<path d="M309.856 129.272C309.856 129.272 309.331 136.361 318.096 136.342Z" fill="#FF9C9C"/>
<path d="M318.063 137.111C314.845 137.111 312.431 136.192 310.884 134.38C308.956 132.12 309.139 129.329 309.147 129.21C309.177 128.786 309.532 128.472 309.911 128.504C310.3 128.538 310.591 128.907 310.563 129.33C310.56 129.362 310.434 131.602 311.94 133.351C313.209 134.826 315.268 135.573 318.063 135.573C318.073 135.573 318.085 135.573 318.095 135.573H318.096C318.487 135.573 318.804 135.916 318.806 136.341C318.809 136.778 318.457 137.125 318.063 137.111Z" fill="#FF6969"/>
<path d="M314.245 148.032C314.163 148.058 314.073 148.055 313.988 148.018C313.901 147.979 311.846 147.083 310.391 148.859C310.25 149.03 310.009 149.045 309.85 148.895C309.691 148.742 309.677 148.479 309.817 148.309C311.644 146.081 314.259 147.241 314.286 147.254C314.481 147.343 314.571 147.586 314.489 147.796C314.444 147.913 314.351 147.998 314.245 148.032Z" fill="#FF6969"/>
<path d="M303.705 113.219C304.432 113.396 305.286 113.125 306.124 112.917C306.964 112.688 307.815 112.479 308.558 112.327C309.304 112.173 310.165 112.03 311.025 111.91C311.877 111.771 312.767 111.682 313.373 111.231C313.961 110.807 314.075 109.913 313.136 109.037C312.249 108.178 310.198 107.468 307.729 107.968C305.266 108.48 303.628 109.949 303.12 111.095C302.576 112.277 303.005 113.059 303.705 113.219Z" fill="#121936"/>
<path d="M329.783 111.604C329.285 111.781 328.689 111.614 328.105 111.496C327.52 111.361 326.93 111.242 326.412 111.164C325.894 111.084 325.296 111.016 324.7 110.968C324.109 110.905 323.492 110.882 323.064 110.562C322.65 110.261 322.555 109.567 323.185 108.829C323.781 108.108 325.185 107.442 326.9 107.703C328.612 107.974 329.772 109.038 330.145 109.91C330.545 110.807 330.263 111.442 329.783 111.604Z" fill="#121936"/>
<path d="M309.02 123.23C309.02 123.23 310.779 121.769 312.571 123.381Z" fill="#FF9C9C"/>
<path d="M312.571 124.15C312.412 124.15 312.251 124.091 312.119 123.973C310.773 122.766 309.502 123.798 309.451 123.842C309.139 124.098 308.696 124.038 308.456 123.699C308.218 123.362 308.276 122.879 308.587 122.621C309.35 121.987 311.263 121.204 313.026 122.79C313.327 123.061 313.369 123.545 313.118 123.873C312.977 124.056 312.776 124.15 312.571 124.15Z" fill="#FF6969"/>
<path d="M325.268 121.927C325.268 121.927 326.356 121.081 327.366 122.184Z" fill="#FF9C9C"/>
<path d="M327.366 122.953C327.183 122.953 326.999 122.878 326.862 122.726C326.336 122.149 325.818 122.453 325.672 122.558C325.353 122.795 324.911 122.709 324.69 122.363C324.468 122.018 324.539 121.547 324.854 121.303C325.4 120.878 326.731 120.4 327.871 121.643C328.146 121.944 328.144 122.432 327.865 122.73C327.728 122.879 327.546 122.953 327.366 122.953Z" fill="#FF6969"/>
<path d="M312.817 158.111C312.817 158.111 295.472 159.551 292.034 152.401C292.034 152.401 291.655 164.352 311.687 168.739L312.817 158.111Z" fill="#FF6969"/>
<path d="M319.547 114.198L319.36 118.834C319.289 120.603 320.553 122.1 322.186 122.177C323.002 122.215 323.635 122.964 323.598 123.848C323.483 126.708 321.249 128.926 318.61 128.8L316.877 128.718" fill="#FF9C9C"/>
<path d="M318.826 129.573C318.743 129.573 318.663 129.572 318.58 129.567L316.846 129.486C316.454 129.467 316.15 129.107 316.167 128.684C316.184 128.261 316.525 127.895 316.907 127.95L318.641 128.032C319.712 128.089 320.769 127.674 321.571 126.877C322.373 126.08 322.842 124.993 322.888 123.815C322.898 123.592 322.826 123.379 322.687 123.215C322.548 123.05 322.36 122.955 322.155 122.946C321.175 122.899 320.271 122.443 319.609 121.66C318.946 120.877 318.606 119.862 318.65 118.8L318.836 114.165C318.854 113.742 319.185 113.386 319.575 113.429C319.967 113.448 320.271 113.808 320.255 114.231L320.068 118.867C320.039 119.517 320.25 120.139 320.656 120.618C321.062 121.098 321.615 121.378 322.216 121.407C322.799 121.435 323.338 121.707 323.733 122.175C324.128 122.643 324.332 123.249 324.305 123.881C324.241 125.47 323.611 126.935 322.529 128.009C321.51 129.024 320.203 129.573 318.826 129.573Z" fill="#FF6969"/>
<path d="M275.012 140.863C274.926 140.863 274.836 140.86 274.745 140.853C273.605 140.778 272.561 140.226 271.804 139.298C271.047 138.371 270.668 137.181 270.738 135.944C270.883 133.394 272.954 131.45 275.269 131.603C276.41 131.679 277.457 132.231 278.213 133.158C278.97 134.086 279.349 135.276 279.279 136.513C279.14 138.966 277.252 140.863 275.012 140.863ZM272.155 136.039C272.108 136.865 272.362 137.66 272.867 138.28C273.373 138.9 274.071 139.269 274.833 139.32C276.379 139.418 277.765 138.125 277.864 136.421C277.911 135.595 277.657 134.8 277.151 134.181C276.646 133.561 275.946 133.192 275.184 133.142C273.571 133.034 272.251 134.335 272.155 136.039Z" fill="white"/>
<path d="M417.088 181.336L408.039 173.792L413.904 156.619C414.613 154.544 413.87 152.215 412.131 151.056L411.938 150.926C411.163 150.411 410.148 150.663 409.658 151.492L395.492 179.773L395.212 179.461L392.069 171.592C391.432 169.997 389.931 169.014 388.331 169.145L387.703 169.196C386.597 169.287 385.842 170.448 386.135 171.606L388.946 182.673L390.093 190.746C390.252 191.863 390.678 192.829 391.276 193.615L391.199 193.735L366.193 232.74L345.791 204.195L321.625 250.913L342.323 282.056C355.989 302.617 385.417 297.668 392.685 273.584L409.734 217.098L419.991 195.282C422.248 190.483 421.029 184.621 417.088 181.336Z" fill="#FF9C9C"/>
<path d="M358.733 245.57C358.595 245.57 358.459 245.528 358.337 245.439C358.013 245.202 357.925 244.724 358.144 244.371L366.285 231.249C366.505 230.895 366.949 230.804 367.27 231.039C367.594 231.276 367.682 231.755 367.463 232.107L359.322 245.23C359.184 245.45 358.96 245.57 358.733 245.57Z" fill="#FF6969"/>
<path d="M406.415 195.585C406.032 195.585 405.718 195.257 405.705 194.84C405.367 183.243 395.737 180.628 395.326 180.522C394.945 180.424 394.709 180.01 394.799 179.596C394.89 179.184 395.269 178.93 395.652 179.024C395.763 179.053 406.75 181.997 407.125 194.791C407.137 195.216 406.829 195.571 406.438 195.583C406.43 195.585 406.422 195.585 406.415 195.585Z" fill="#FF6969"/>
<path d="M409.228 172.207L409.156 172.524L404.595 190.509C404.158 192.233 404.926 194.047 406.415 194.814L407.41 195.326C407.996 195.628 408.693 195.31 408.902 194.644L414.253 177.643C414.672 176.203 414.043 174.648 412.781 174.009L409.228 172.207Z" fill="#FF9C9C"/>
<path d="M407.877 196.211C407.611 196.211 407.35 196.148 407.106 196.023L406.111 195.511C404.307 194.582 403.383 192.393 403.911 190.306L408.746 171.112L413.084 173.315C414.661 174.115 415.456 176.076 414.932 177.877L409.576 194.894C409.411 195.419 409.045 195.843 408.575 196.059C408.351 196.16 408.114 196.211 407.877 196.211ZM409.697 173.295L405.281 190.714C404.934 192.081 405.54 193.513 406.721 194.122L407.717 194.634C407.847 194.7 407.964 194.667 408.023 194.642C408.08 194.616 408.184 194.548 408.23 194.399L413.583 177.398C413.89 176.348 413.419 175.185 412.483 174.71L409.697 173.295Z" fill="#FF6969"/>
<path d="M414.746 175.91L414.681 176.194L410.584 192.349C410.192 193.898 410.881 195.526 412.219 196.215L413.114 196.675C413.64 196.946 414.266 196.66 414.454 196.063L419.26 180.795C419.636 179.501 419.071 178.106 417.937 177.531L414.746 175.91Z" fill="#FF9C9C"/>
<path d="M413.531 197.547C413.284 197.547 413.035 197.487 412.808 197.371L411.914 196.911C410.263 196.06 409.416 194.056 409.9 192.146L414.265 174.816L418.238 176.834C419.689 177.569 420.418 179.372 419.936 181.027L415.125 196.312C414.969 196.805 414.625 197.203 414.184 197.404C413.977 197.5 413.754 197.547 413.531 197.547ZM415.214 176.996L411.271 192.552C410.969 193.742 411.497 194.991 412.526 195.52L413.42 195.98C413.512 196.029 413.596 196.003 413.635 195.985C413.676 195.966 413.75 195.919 413.784 195.812L418.589 180.544C418.854 179.639 418.445 178.634 417.638 178.224L415.214 176.996Z" fill="#FF6969"/>
<path d="M419.226 178.714L419.166 178.972L415.454 193.608C415.098 195.011 415.723 196.488 416.935 197.112L417.744 197.529C418.221 197.775 418.789 197.515 418.959 196.974L423.314 183.139C423.655 181.967 423.143 180.702 422.116 180.181L419.226 178.714Z" fill="#FF9C9C"/>
<path d="M418.125 198.392C417.89 198.392 417.656 198.336 417.44 198.224L416.631 197.807C415.105 197.021 414.322 195.17 414.769 193.404L418.745 177.62L422.417 179.484C423.761 180.166 424.439 181.836 423.991 183.369L419.632 197.221C419.486 197.687 419.161 198.063 418.742 198.253C418.545 198.346 418.335 198.392 418.125 198.392ZM419.692 179.799L416.14 193.813C415.873 194.857 416.339 195.954 417.242 196.418L418.051 196.835C418.224 196.825 418.268 196.792 418.288 196.726L422.643 182.891C422.871 182.107 422.518 181.234 421.815 180.878L419.692 179.799Z" fill="#FF6969"/>
<path d="M349.005 200.168L326.226 178.454C321.121 173.547 314.61 170.702 307.79 170.396L278.975 169.108L277.875 168.973C276.916 168.854 275.963 168.796 275.018 168.765L275.009 168.736L274.488 168.747C273.725 168.736 272.965 168.75 272.213 168.794L252.954 169.191C239.139 170.465 227.662 181.251 224.545 195.888L219.506 223.317C219.1 225.53 220.491 227.66 222.553 227.979L240.379 230.735L240.082 298.517L339.031 304.132C342.424 304.325 344.773 300.516 343.313 297.192L323.355 251.799L350.23 213.247C353.045 209.215 352.511 203.511 349.005 200.168Z" fill="#4268FF"/>
<path d="M226.727 376.018C227.014 375.283 227.249 374.52 227.427 373.729L269.341 235.769L228.842 228.954L200.662 366.542L191.233 365.401C185.045 364.652 179.631 369.899 179.631 376.646V377.318V391.63C179.631 392.662 180.403 393.498 181.356 393.498C184.346 393.498 186.77 390.871 186.77 387.632V391.628C186.77 392.66 187.542 393.497 188.495 393.497C191.484 393.497 193.909 390.87 193.909 387.631V391.626C193.909 392.659 194.681 393.495 195.634 393.495C198.571 393.495 200.948 390.957 201.032 387.797C201.945 388.555 203.072 389.024 204.311 389.024H208.964C211.622 389.024 213.913 387.432 215.142 385.097C220.318 384.641 224.717 381.081 226.698 376.079L226.704 376.081L226.727 376.018Z" fill="#FF9C9C"/>
<path d="M186.772 389.292C186.478 389.292 186.239 389.033 186.239 388.715V376.647C186.239 376.329 186.478 376.07 186.772 376.07C187.065 376.07 187.304 376.329 187.304 376.647V388.715C187.304 389.033 187.065 389.292 186.772 389.292Z" fill="#FF6969"/>
<path d="M193.909 389.292C193.615 389.292 193.377 389.033 193.377 388.715V376.647C193.377 376.329 193.615 376.07 193.909 376.07C194.203 376.07 194.441 376.329 194.441 376.647V388.715C194.441 389.033 194.203 389.292 193.909 389.292Z" fill="#FF6969"/>
<path d="M274.362 237.382C274.102 237.382 273.84 237.359 273.576 237.312L262.86 235.383C262.473 235.314 262.212 234.917 262.276 234.498C262.341 234.08 262.715 233.794 263.092 233.866L273.808 235.795C275.637 236.127 277.395 234.786 277.73 232.811L282.805 202.929C282.878 202.511 283.238 202.231 283.633 202.312C284.019 202.389 284.273 202.791 284.202 203.208L279.127 233.09C278.701 235.598 276.649 237.382 274.362 237.382Z" fill="white"/>
<path d="M323.357 252.573C323.262 252.573 323.164 252.551 323.072 252.508C322.712 252.337 322.551 251.883 322.707 251.494L327.229 240.331C330.486 232.294 330.696 223.35 327.824 215.146L322.414 199.688C322.275 199.292 322.46 198.847 322.826 198.696C323.198 198.544 323.602 198.747 323.743 199.142L329.153 214.6C332.157 223.184 331.937 232.542 328.531 240.949L324.008 252.113C323.891 252.4 323.629 252.573 323.357 252.573Z" fill="white"/>
<path d="M311.449 171.577C311.436 171.577 311.423 171.577 311.412 171.577L274.972 169.507C274.582 169.483 274.281 169.122 274.301 168.698C274.321 168.275 274.662 167.945 275.046 167.97L311.485 170.04C311.876 170.063 312.177 170.425 312.157 170.849C312.137 171.258 311.825 171.577 311.449 171.577Z" fill="white"/>
</svg>
