<svg width="3710" height="3710" viewBox="0 0 3710 3710" fill="none" xmlns="http://www.w3.org/2000/svg">
<path d="M3137.51 2342.62C2855.63 3001.48 2111.56 3284.48 1528.56 3236.23C1369.38 3223.05 1049.11 3196.55 799.031 2960.06C318.781 2505.9 392.744 1556.59 852.481 997.681C911.686 925.706 1321.49 443.478 1960.1 449.932C2427.65 454.658 2755.82 718.772 2795.72 751.676C2846.13 793.242 2957.32 892.016 3057.52 1048.71C3292.96 1416.9 3313.66 1930.9 3137.51 2342.62Z" fill="url(#paint0_linear_6_233)"/>
<path d="M2350.67 2398.39C2349.79 2398.39 2348.91 2398.12 2348.15 2397.55C2346.31 2396.16 2345.95 2393.54 2347.34 2391.69C2350.72 2387.23 2354.23 2382.77 2357.76 2378.44C2359.22 2376.65 2361.86 2376.4 2363.64 2377.85C2365.43 2379.31 2365.69 2381.94 2364.23 2383.73C2360.76 2387.97 2357.32 2392.35 2354.01 2396.74C2353.18 2397.82 2351.93 2398.39 2350.67 2398.39Z" fill="#91B3FA"/>
<path d="M3131.6 2577.25C3129.65 2577.25 3127.9 2575.87 3127.5 2573.88C3125.3 2562.81 3122.62 2551.67 3119.55 2540.81C3118.92 2538.58 3120.21 2536.28 3122.43 2535.65C3124.64 2534.99 3126.96 2536.31 3127.59 2538.53C3130.72 2549.61 3133.45 2560.96 3135.7 2572.25C3136.15 2574.52 3134.68 2576.72 3132.42 2577.16C3132.14 2577.22 3131.87 2577.25 3131.6 2577.25ZM3104.99 2491.24C3103.36 2491.24 3101.82 2490.29 3101.14 2488.71C3096.72 2478.35 3091.81 2468 3086.56 2457.96C3085.49 2455.92 3086.28 2453.39 3088.33 2452.32C3090.37 2451.25 3092.9 2452.05 3093.97 2454.09C3099.32 2464.32 3104.32 2474.87 3108.83 2485.43C3109.73 2487.55 3108.74 2490 3106.62 2490.91C3106.09 2491.14 3105.53 2491.24 3104.99 2491.24ZM3061.36 2412.48C3060.04 2412.48 3058.74 2411.86 3057.93 2410.69C3051.47 2401.39 3044.58 2392.25 3037.45 2383.52C3035.99 2381.73 3036.26 2379.1 3038.05 2377.64C3039.83 2376.18 3042.46 2376.44 3043.92 2378.23C3051.19 2387.13 3058.21 2396.44 3064.79 2405.92C3066.11 2407.81 3065.64 2410.41 3063.74 2411.73C3063.02 2412.24 3062.18 2412.48 3061.36 2412.48ZM2399 2344.43C2397.9 2344.43 2396.79 2343.99 2395.97 2343.12C2394.38 2341.44 2394.46 2338.8 2396.13 2337.22C2404.49 2329.32 2413.28 2321.64 2422.25 2314.4C2424.04 2312.95 2426.67 2313.23 2428.12 2315.03C2429.57 2316.83 2429.29 2319.46 2427.49 2320.91C2418.69 2328.01 2410.07 2335.54 2401.88 2343.29C2401.07 2344.05 2400.04 2344.43 2399 2344.43ZM3002.73 2344.18C3001.7 2344.18 3000.66 2343.8 2999.85 2343.04C2991.67 2335.28 2983.06 2327.75 2974.28 2320.65C2972.48 2319.2 2972.2 2316.57 2973.65 2314.78C2975.1 2312.98 2977.73 2312.7 2979.53 2314.15C2988.48 2321.38 2997.25 2329.06 3005.6 2336.98C3007.28 2338.56 3007.35 2341.21 3005.76 2342.88C3004.94 2343.75 3003.83 2344.18 3002.73 2344.18ZM2470.43 2289.6C2469.03 2289.6 2467.66 2288.9 2466.87 2287.61C2465.66 2285.65 2466.27 2283.08 2468.23 2281.87C2478.05 2275.8 2488.21 2270.06 2498.41 2264.8C2500.47 2263.74 2502.99 2264.54 2504.04 2266.6C2505.1 2268.65 2504.29 2271.17 2502.24 2272.22C2492.23 2277.38 2482.26 2283.02 2472.62 2288.97C2471.94 2289.4 2471.18 2289.6 2470.43 2289.6ZM2931.35 2289.38C2930.61 2289.38 2929.85 2289.18 2929.17 2288.76C2919.58 2282.86 2909.61 2277.25 2899.53 2272.08C2897.48 2271.03 2896.67 2268.51 2897.72 2266.46C2898.77 2264.41 2901.29 2263.59 2903.34 2264.65C2913.62 2269.91 2923.78 2275.62 2933.55 2281.64C2935.51 2282.85 2936.13 2285.42 2934.92 2287.39C2934.13 2288.67 2932.76 2289.38 2931.35 2289.38ZM2551.45 2250.33C2549.74 2250.33 2548.14 2249.28 2547.52 2247.58C2546.74 2245.41 2547.86 2243.02 2550.02 2242.22C2560.85 2238.3 2571.97 2234.74 2583.06 2231.68C2585.28 2231.07 2587.59 2232.37 2588.2 2234.59C2588.82 2236.82 2587.51 2239.12 2585.29 2239.74C2574.41 2242.74 2563.5 2246.22 2552.88 2250.08C2552.41 2250.25 2551.92 2250.33 2551.45 2250.33ZM2850.27 2250.32C2849.8 2250.32 2849.32 2250.24 2848.85 2250.07C2838.23 2246.25 2827.32 2242.78 2816.43 2239.78C2814.2 2239.17 2812.89 2236.87 2813.51 2234.65C2814.12 2232.42 2816.42 2231.12 2818.64 2231.73C2829.75 2234.78 2840.86 2238.31 2851.68 2242.22C2853.86 2243 2854.98 2245.39 2854.2 2247.56C2853.58 2249.27 2851.98 2250.32 2850.27 2250.32ZM2762.93 2228.57C2762.73 2228.57 2762.53 2228.55 2762.33 2228.53C2751.16 2226.92 2739.78 2225.75 2728.49 2225.02C2726.18 2224.87 2724.44 2222.89 2724.58 2220.58C2724.73 2218.28 2726.75 2216.59 2729.02 2216.68C2740.53 2217.42 2752.13 2218.62 2763.51 2220.25C2765.8 2220.58 2767.38 2222.69 2767.06 2224.98C2766.76 2227.07 2764.97 2228.57 2762.93 2228.57ZM2638.79 2228.5C2636.74 2228.5 2634.95 2226.99 2634.66 2224.91C2634.33 2222.63 2635.92 2220.51 2638.21 2220.18C2649.61 2218.56 2661.21 2217.37 2672.7 2216.65C2675.04 2216.6 2676.99 2218.25 2677.13 2220.55C2677.28 2222.85 2675.53 2224.84 2673.23 2224.99C2661.95 2225.7 2650.57 2226.86 2639.38 2228.46C2639.18 2228.49 2638.99 2228.5 2638.79 2228.5Z" fill="#91B3FA"/>
<path d="M3139.83 2649.41C3137.58 2649.41 3135.72 2647.62 3135.65 2645.36C3135.49 2639.88 3135.21 2634.32 3134.83 2628.84C3134.68 2626.54 3136.41 2624.54 3138.72 2624.38C3141.01 2624.33 3143.01 2625.96 3143.17 2628.27C3143.56 2633.85 3143.84 2639.52 3144.01 2645.11C3144.08 2647.41 3142.26 2649.34 3139.96 2649.41C3139.91 2649.41 3139.87 2649.41 3139.83 2649.41Z" fill="#91B3FA"/>
<path d="M3016.24 2968.82C3015.2 2968.82 3014.15 2968.43 3013.33 2967.64C3011.68 2966.04 3011.64 2963.39 3013.25 2961.74C3017.1 2957.77 3020.9 2953.7 3024.55 2949.64C3026.09 2947.94 3028.73 2947.79 3030.45 2949.33C3032.16 2950.87 3032.3 2953.51 3030.76 2955.23C3027.04 2959.37 3023.17 2963.51 3019.24 2967.55C3018.42 2968.4 3017.33 2968.82 3016.24 2968.82Z" fill="#91B3FA"/>
<path d="M2701.39 3102.24L2697.61 3102.22C2695.3 3102.2 2693.45 3100.31 2693.47 3098C2693.49 3095.71 2695.36 3093.87 2697.65 3093.87C2697.66 3093.87 2697.68 3093.87 2697.69 3093.87L2701.39 3093.88C2711.26 3093.88 2721.27 3093.54 2731.15 3092.86C2733.46 3092.81 2735.44 3094.45 2735.6 3096.75C2735.76 3099.05 2734.02 3101.04 2731.72 3101.2C2721.65 3101.89 2711.45 3102.24 2701.39 3102.24ZM2642.9 3098.33C2642.72 3098.33 2642.53 3098.32 2642.34 3098.3C2631.12 3096.79 2619.82 3094.83 2608.73 3092.47C2606.47 3091.99 2605.03 3089.77 2605.51 3087.51C2605.99 3085.25 2608.2 3083.84 2610.47 3084.3C2621.35 3086.61 2632.45 3088.54 2643.45 3090.01C2645.74 3090.32 2647.34 3092.42 2647.04 3094.71C2646.76 3096.81 2644.96 3098.33 2642.9 3098.33ZM2785.85 3094.02C2783.9 3094.02 2782.15 3092.64 2781.76 3090.65C2781.31 3088.38 2782.79 3086.19 2785.05 3085.74C2795.97 3083.6 2806.93 3080.99 2817.62 3078.01C2819.84 3077.38 2822.15 3078.69 2822.77 3080.91C2823.39 3083.14 2822.09 3085.44 2819.87 3086.06C2808.96 3089.1 2797.79 3091.75 2786.66 3093.94C2786.39 3094 2786.12 3094.02 2785.85 3094.02ZM2556.72 3077.83C2556.27 3077.83 2555.8 3077.75 2555.35 3077.59C2544.63 3073.87 2533.94 3069.69 2523.58 3065.18C2521.46 3064.25 2520.5 3061.79 2521.42 3059.68C2522.34 3057.56 2524.8 3056.59 2526.92 3057.51C2537.08 3061.94 2547.57 3066.05 2558.09 3069.7C2560.27 3070.46 2561.43 3072.84 2560.67 3075.02C2560.07 3076.74 2558.45 3077.83 2556.72 3077.83ZM2870.6 3068.17C2868.97 3068.17 2867.42 3067.2 2866.74 3065.6C2865.85 3063.48 2866.85 3061.03 2868.98 3060.14C2879.18 3055.85 2889.39 3051.09 2899.32 3045.99C2901.37 3044.93 2903.89 3045.75 2904.95 3047.8C2906 3049.85 2905.19 3052.37 2903.14 3053.42C2893.02 3058.62 2882.61 3063.47 2872.21 3067.84C2871.69 3068.07 2871.14 3068.17 2870.6 3068.17ZM2476.39 3040.5C2475.67 3040.5 2474.93 3040.31 2474.26 3039.91C2464.54 3034.13 2454.91 3027.89 2445.64 3021.37C2443.75 3020.04 2443.3 3017.44 2444.63 3015.55C2445.96 3013.66 2448.56 3013.21 2450.45 3014.54C2459.54 3020.94 2468.99 3027.06 2478.53 3032.73C2480.51 3033.91 2481.17 3036.47 2479.99 3038.45C2479.21 3039.77 2477.82 3040.5 2476.39 3040.5ZM2948.42 3025.81C2947.09 3025.81 2945.78 3025.18 2944.97 3023.99C2943.67 3022.08 2944.16 3019.48 2946.07 3018.18C2955.25 3011.92 2964.31 3005.22 2972.99 2998.29C2974.8 2996.85 2977.42 2997.14 2978.87 2998.94C2980.31 3000.74 2980.01 3003.38 2978.21 3004.82C2969.37 3011.88 2960.13 3018.71 2950.77 3025.09C2950.05 3025.58 2949.23 3025.81 2948.42 3025.81ZM2405.24 2987.77C2404.24 2987.77 2403.23 2987.41 2402.43 2986.68C2394.08 2979.07 2385.91 2971.01 2378.14 2962.73C2376.56 2961.05 2376.64 2958.41 2378.32 2956.83C2380 2955.25 2382.65 2955.32 2384.23 2957.01C2391.86 2965.14 2399.88 2973.04 2408.06 2980.51C2409.77 2982.07 2409.89 2984.71 2408.33 2986.41C2407.51 2987.32 2406.38 2987.77 2405.24 2987.77ZM2346.2 2921.76C2344.91 2921.76 2343.63 2921.16 2342.81 2920.03C2337.58 2912.83 2332.47 2905.36 2327.65 2897.81C2326.35 2895.78 2325.06 2893.74 2323.8 2891.7C2322.59 2889.73 2323.2 2887.16 2325.17 2885.95C2327.13 2884.73 2329.7 2885.35 2330.92 2887.31C2332.15 2889.32 2333.41 2891.32 2334.68 2893.31C2339.42 2900.71 2344.43 2908.05 2349.57 2915.12C2350.93 2916.99 2350.52 2919.6 2348.65 2920.96C2347.91 2921.5 2347.05 2921.76 2346.2 2921.76ZM2301.47 2845.28C2299.88 2845.28 2298.37 2844.37 2297.67 2842.84C2292.95 2832.53 2288.59 2821.92 2284.68 2811.28C2283.89 2809.11 2285 2806.71 2287.17 2805.92C2289.33 2805.12 2291.73 2806.24 2292.53 2808.4C2296.36 2818.84 2300.65 2829.26 2305.27 2839.36C2306.23 2841.46 2305.3 2843.94 2303.21 2844.9C2302.64 2845.16 2302.05 2845.28 2301.47 2845.28ZM2272.98 2761.39C2271.08 2761.39 2269.35 2760.08 2268.91 2758.15C2266.38 2747.11 2264.25 2735.83 2262.57 2724.61C2262.24 2722.33 2263.81 2720.21 2266.09 2719.86C2268.34 2719.53 2270.5 2721.1 2270.84 2723.38C2272.48 2734.39 2274.57 2745.46 2277.06 2756.28C2277.57 2758.53 2276.17 2760.77 2273.92 2761.28C2273.6 2761.36 2273.29 2761.39 2272.98 2761.39Z" fill="#91B3FA"/>
<path d="M2262.03 2673.31C2259.77 2673.31 2257.91 2671.5 2257.86 2669.23C2257.73 2663.66 2257.71 2657.99 2257.8 2652.36C2257.84 2650.05 2259.75 2648.3 2262.05 2648.25C2264.35 2648.29 2266.2 2650.19 2266.16 2652.49C2266.07 2658.01 2266.09 2663.58 2266.21 2669.04C2266.26 2671.35 2264.43 2673.26 2262.13 2673.31C2262.09 2673.31 2262.06 2673.31 2262.03 2673.31Z" fill="#91B3FA"/>
<path d="M2367.09 2611.49C2366.54 2613.67 2367.43 2615.96 2369.31 2617.19L2422.94 2652.35C2422.4 2682.29 2426.63 2712.54 2435.95 2741.91L2394.58 2790.87C2393.13 2792.58 2392.93 2795.03 2394.08 2796.97L2433.44 2863.05C2434.59 2864.98 2436.84 2865.97 2439.04 2865.52L2501.79 2852.46C2523.18 2874.65 2547.76 2892.77 2574.35 2906.55L2579.72 2970.46C2579.91 2972.7 2581.5 2974.57 2583.68 2975.12L2658.24 2994.02C2660.42 2994.57 2662.71 2993.68 2663.94 2991.8L2699.1 2938.17C2729.04 2938.71 2759.29 2934.49 2788.67 2925.17L2837.62 2966.53C2839.34 2967.98 2841.79 2968.19 2843.72 2967.04L2909.81 2927.67C2911.74 2926.52 2912.73 2924.27 2912.27 2922.07L2899.21 2859.33C2921.4 2837.93 2939.52 2813.35 2953.31 2786.76L3017.21 2781.39C3019.45 2781.21 3021.32 2779.62 3021.88 2777.44L3040.77 2702.87C3041.33 2700.69 3040.43 2698.41 3038.55 2697.17L2984.92 2662.01C2985.47 2632.07 2981.24 2601.83 2971.92 2572.45L3013.29 2523.49C3014.74 2521.78 3014.94 2519.33 3013.79 2517.4L2974.43 2451.31C2973.28 2449.38 2971.03 2448.39 2968.83 2448.85L2906.08 2461.9C2884.69 2439.72 2860.11 2421.59 2833.52 2407.81L2828.15 2343.91C2827.96 2341.67 2826.37 2339.79 2824.19 2339.24L2749.63 2320.34C2747.45 2319.79 2745.16 2320.68 2743.93 2322.56L2708.77 2376.19C2678.82 2375.65 2648.58 2379.88 2619.2 2389.19L2570.25 2347.83C2568.53 2346.38 2566.08 2346.18 2564.15 2347.33L2498.06 2386.69C2496.13 2387.84 2495.14 2390.09 2495.6 2392.29L2508.66 2455.03C2486.47 2476.43 2468.35 2501.01 2454.56 2527.6L2390.66 2532.97C2388.42 2533.15 2386.55 2534.74 2385.99 2536.92L2367.09 2611.49Z" fill="#91B3FA"/>
<path d="M2703.93 2731.75C2703.91 2731.75 2703.89 2731.75 2703.89 2731.75C2683.94 2731.73 2665.23 2723.96 2651.16 2709.86C2637.08 2695.76 2629.34 2677.03 2629.36 2657.11C2629.38 2637.19 2637.16 2618.47 2651.26 2604.4C2680.36 2575.35 2727.67 2575.4 2756.71 2604.5C2770.78 2618.6 2778.52 2637.33 2778.5 2657.25C2778.49 2677.17 2770.71 2695.89 2756.61 2709.96C2742.53 2724.01 2723.83 2731.75 2703.93 2731.75ZM2703.93 2595.14C2687.38 2595.14 2671.82 2601.58 2660.11 2613.27C2648.38 2624.98 2641.91 2640.55 2641.9 2657.12C2641.88 2673.69 2648.32 2689.28 2660.03 2701.01C2671.73 2712.73 2687.3 2719.2 2703.88 2719.22C2703.89 2719.22 2703.92 2719.22 2703.93 2719.22C2720.48 2719.22 2736.04 2712.78 2747.76 2701.09C2759.49 2689.38 2765.95 2673.81 2765.97 2657.24C2765.98 2640.67 2759.55 2625.08 2747.84 2613.36C2736.14 2601.63 2720.56 2595.16 2703.99 2595.15L2703.93 2595.14Z" fill="#BDD0FB"/>
<path d="M2705.86 2849.28C2640.41 2849.29 2576.55 2815.84 2540.69 2755.64C2533.69 2743.88 2527.94 2731.39 2523.61 2718.53L2535.49 2714.53C2539.54 2726.55 2544.91 2738.23 2551.46 2749.22C2591.22 2815.97 2667.82 2847.55 2740.02 2833.46C2740.16 2833.43 2740.29 2833.4 2740.43 2833.38C2740.57 2833.35 2740.7 2833.33 2740.84 2833.3C2760.27 2829.42 2779.35 2822.23 2797.32 2811.53C2838.47 2787.02 2867.62 2747.94 2879.39 2701.51C2883.12 2686.79 2884.96 2671.9 2884.96 2657.1C2884.96 2625.21 2876.37 2593.79 2859.63 2565.68C2809.02 2480.72 2698.73 2452.76 2613.77 2503.37C2585.84 2520.01 2562.97 2543.85 2547.66 2572.32L2536.62 2566.38C2553.01 2535.91 2577.47 2510.4 2607.36 2492.59C2698.25 2438.46 2816.26 2468.36 2870.4 2559.26C2888.31 2589.34 2897.49 2622.96 2897.5 2657.08C2897.5 2672.91 2895.53 2688.85 2891.54 2704.59C2878.95 2754.27 2847.77 2796.08 2803.73 2822.3C2773.04 2840.59 2739.24 2849.28 2705.86 2849.28Z" fill="#BDD0FB"/>
<path d="M665.205 668.331C664.169 668.331 663.127 668.008 662.236 667.334C660.064 665.692 659.633 662.6 661.275 660.423C665.265 655.149 669.405 649.885 673.58 644.78C675.3 642.666 678.411 642.367 680.518 644.082C682.627 645.806 682.938 648.913 681.214 651.022C677.12 656.031 673.058 661.199 669.144 666.376C668.174 667.657 666.698 668.331 665.205 668.331Z" fill="#91B3FA"/>
<path d="M1586.97 879.435C1584.67 879.435 1582.61 877.812 1582.14 875.466C1579.53 862.39 1576.37 849.251 1572.75 836.426C1572 833.801 1573.53 831.08 1576.15 830.338C1578.76 829.563 1581.5 831.118 1582.24 833.738C1585.94 846.819 1589.16 860.208 1591.82 873.54C1592.35 876.212 1590.61 878.809 1587.94 879.338C1587.62 879.406 1587.29 879.435 1586.97 879.435ZM1555.56 777.924C1553.64 777.924 1551.82 776.802 1551.02 774.928C1545.8 762.7 1540.01 750.491 1533.81 738.643C1532.55 736.225 1533.49 733.249 1535.9 731.987C1538.31 730.716 1541.29 731.66 1542.56 734.068C1548.87 746.147 1554.77 758.592 1560.09 771.057C1561.16 773.561 1560 776.461 1557.49 777.53C1556.86 777.799 1556.2 777.924 1555.56 777.924ZM1504.07 684.957C1502.51 684.957 1500.97 684.22 1500.01 682.838C1492.39 671.862 1484.26 661.074 1475.85 650.772C1474.12 648.663 1474.44 645.556 1476.55 643.832C1478.65 642.113 1481.76 642.416 1483.48 644.53C1492.06 655.034 1500.35 666.03 1508.11 677.213C1509.67 679.448 1509.11 682.52 1506.88 684.076C1506.02 684.673 1505.04 684.957 1504.07 684.957ZM722.258 604.632C720.951 604.632 719.643 604.112 718.673 603.086C716.804 601.106 716.891 597.986 718.87 596.117C728.734 586.798 739.103 577.738 749.691 569.189C751.806 567.475 754.914 567.807 756.627 569.931C758.337 572.05 758.005 575.157 755.885 576.867C745.497 585.252 735.322 594.143 725.647 603.284C724.692 604.184 723.474 604.632 722.258 604.632ZM1434.86 604.343C1433.64 604.343 1432.42 603.895 1431.47 602.99C1421.8 593.829 1411.64 584.939 1401.28 576.568C1399.16 574.854 1398.83 571.752 1400.54 569.633C1402.25 567.514 1405.36 567.186 1407.47 568.891C1418.04 577.43 1428.4 586.494 1438.25 595.833C1440.23 597.707 1440.31 600.827 1438.44 602.802C1437.47 603.828 1436.17 604.343 1434.86 604.343ZM806.563 539.912C804.908 539.912 803.295 539.083 802.361 537.571C800.931 535.255 801.651 532.216 803.967 530.785C815.562 523.624 827.55 516.847 839.595 510.639C842.016 509.387 844.992 510.34 846.237 512.763C847.487 515.186 846.536 518.157 844.113 519.405C832.294 525.498 820.53 532.149 809.149 539.176C808.343 539.676 807.447 539.912 806.563 539.912ZM1350.61 539.652C1349.73 539.652 1348.84 539.416 1348.03 538.92C1336.72 531.956 1324.95 525.334 1313.05 519.236C1310.63 517.999 1309.67 515.027 1310.91 512.599C1312.15 510.177 1315.12 509.218 1317.55 510.461C1329.68 516.669 1341.68 523.422 1353.21 530.521C1355.52 531.952 1356.25 534.986 1354.82 537.307C1353.89 538.818 1352.27 539.652 1350.61 539.652ZM902.196 493.566C900.18 493.566 898.287 492.323 897.561 490.32C896.631 487.757 897.953 484.931 900.513 483.996C913.295 479.358 926.414 475.168 939.51 471.551C942.133 470.828 944.849 472.36 945.576 474.99C946.301 477.615 944.762 480.331 942.135 481.058C929.293 484.607 916.422 488.716 903.88 493.267C903.323 493.469 902.755 493.566 902.196 493.566ZM1254.9 493.556C1254.35 493.556 1253.78 493.464 1253.23 493.262C1240.69 488.744 1227.82 484.655 1214.96 481.115C1212.33 480.393 1210.79 477.681 1211.51 475.051C1212.23 472.426 1214.95 470.885 1217.58 471.608C1230.68 475.211 1243.8 479.377 1256.58 483.986C1259.14 484.911 1260.47 487.733 1259.54 490.295C1258.82 492.309 1256.92 493.556 1254.9 493.556ZM1151.81 467.876C1151.58 467.876 1151.34 467.861 1151.1 467.828C1137.93 465.935 1124.49 464.548 1111.16 463.691C1108.44 463.518 1106.38 461.172 1106.55 458.451C1106.73 455.735 1109.11 453.746 1111.79 453.847C1125.37 454.719 1139.07 456.14 1152.5 458.061C1155.2 458.451 1157.07 460.946 1156.69 463.643C1156.33 466.103 1154.22 467.876 1151.81 467.876ZM1005.29 467.794C1002.87 467.794 1000.76 466.017 1000.41 463.556C1000.03 460.864 1001.9 458.364 1004.6 457.979C1018.05 456.062 1031.75 454.656 1045.31 453.804C1048.07 453.756 1050.38 455.701 1050.55 458.418C1050.72 461.134 1048.65 463.475 1045.93 463.648C1032.63 464.486 1019.19 465.864 1005.99 467.747C1005.75 467.779 1005.52 467.794 1005.29 467.794Z" fill="#91B3FA"/>
<path d="M1596.68 964.615C1594.03 964.615 1591.84 962.505 1591.76 959.832C1591.56 953.364 1591.23 946.804 1590.79 940.331C1590.6 937.615 1592.65 935.26 1595.37 935.072C1598.08 935.014 1600.45 936.941 1600.63 939.657C1601.08 946.25 1601.42 952.94 1601.62 959.534C1601.7 962.255 1599.56 964.528 1596.84 964.615C1596.78 964.615 1596.73 964.615 1596.68 964.615Z" fill="#91B3FA"/>
<path d="M1450.81 1341.63C1449.57 1341.63 1448.33 1341.17 1447.38 1340.24C1445.42 1338.34 1445.38 1335.22 1447.27 1333.27C1451.82 1328.58 1456.31 1323.78 1460.61 1318.99C1462.43 1316.98 1465.55 1316.81 1467.57 1318.62C1469.6 1320.44 1469.77 1323.56 1467.95 1325.59C1463.56 1330.47 1458.98 1335.36 1454.35 1340.13C1453.38 1341.13 1452.1 1341.63 1450.81 1341.63Z" fill="#91B3FA"/>
<path d="M1079.18 1499.11L1074.71 1499.09C1071.99 1499.06 1069.8 1496.83 1069.83 1494.11C1069.86 1491.4 1072.06 1489.23 1074.76 1489.23H1074.81L1079.18 1489.24C1090.83 1489.24 1102.64 1488.84 1114.3 1488.04C1117.03 1487.98 1119.37 1489.91 1119.56 1492.63C1119.74 1495.34 1117.69 1497.7 1114.98 1497.88C1103.09 1498.69 1091.05 1499.11 1079.18 1499.11ZM1010.14 1494.5C1009.92 1494.5 1009.7 1494.48 1009.48 1494.46C996.239 1492.68 982.89 1490.37 969.802 1487.58C967.139 1487.01 965.438 1484.39 966.007 1481.73C966.575 1479.06 969.183 1477.39 971.859 1477.93C984.699 1480.67 997.799 1482.94 1010.79 1484.68C1013.49 1485.04 1015.38 1487.52 1015.02 1490.22C1014.69 1492.7 1012.57 1494.5 1010.14 1494.5ZM1178.87 1489.41C1176.56 1489.41 1174.5 1487.78 1174.04 1485.43C1173.51 1482.76 1175.25 1480.16 1177.93 1479.64C1190.81 1477.1 1203.75 1474.03 1216.37 1470.51C1218.99 1469.77 1221.71 1471.31 1222.45 1473.94C1223.18 1476.56 1221.64 1479.28 1219.02 1480.01C1206.15 1483.6 1192.97 1486.73 1179.83 1489.32C1179.51 1489.38 1179.19 1489.41 1178.87 1489.41ZM908.416 1470.29C907.879 1470.29 907.333 1470.21 906.798 1470.02C894.141 1465.62 881.525 1460.69 869.297 1455.36C866.802 1454.27 865.661 1451.36 866.749 1448.87C867.833 1446.37 870.737 1445.22 873.239 1446.32C885.236 1451.55 897.616 1456.39 910.035 1460.7C912.607 1461.59 913.97 1464.41 913.077 1466.98C912.368 1469.02 910.458 1470.29 908.416 1470.29ZM1278.9 1458.89C1276.98 1458.89 1275.14 1457.76 1274.35 1455.87C1273.3 1453.36 1274.48 1450.47 1276.99 1449.41C1289.03 1444.36 1301.08 1438.74 1312.8 1432.72C1315.22 1431.47 1318.2 1432.43 1319.44 1434.85C1320.69 1437.27 1319.73 1440.24 1317.31 1441.49C1305.37 1447.63 1293.09 1453.35 1280.81 1458.51C1280.18 1458.77 1279.54 1458.89 1278.9 1458.89ZM813.602 1426.23C812.745 1426.23 811.878 1426.01 811.088 1425.54C799.608 1418.72 788.242 1411.36 777.302 1403.66C775.074 1402.09 774.54 1399.01 776.107 1396.79C777.677 1394.55 780.75 1394.02 782.979 1395.59C793.712 1403.15 804.864 1410.37 816.124 1417.06C818.467 1418.46 819.236 1421.48 817.846 1423.82C816.925 1425.37 815.285 1426.23 813.602 1426.23ZM1370.76 1408.9C1369.18 1408.9 1367.63 1408.15 1366.68 1406.75C1365.15 1404.5 1365.73 1401.42 1367.98 1399.89C1378.82 1392.5 1389.52 1384.6 1399.76 1376.41C1401.89 1374.71 1404.99 1375.06 1406.69 1377.18C1408.39 1379.31 1408.05 1382.41 1405.92 1384.11C1395.48 1392.46 1384.58 1400.51 1373.54 1408.04C1372.68 1408.62 1371.72 1408.9 1370.76 1408.9ZM729.622 1364C728.437 1364 727.245 1363.57 726.301 1362.71C716.449 1353.73 706.803 1344.21 697.627 1334.44C695.763 1332.46 695.862 1329.34 697.846 1327.47C699.828 1325.61 702.951 1325.69 704.818 1327.69C713.82 1337.28 723.286 1346.61 732.947 1355.42C734.96 1357.26 735.102 1360.38 733.268 1362.39C732.295 1363.46 730.961 1364 729.622 1364ZM659.927 1286.08C658.403 1286.08 656.9 1285.37 655.934 1284.04C649.75 1275.54 643.725 1266.72 638.03 1257.82C636.496 1255.42 634.984 1253.01 633.496 1250.6C632.066 1248.28 632.786 1245.24 635.105 1243.81C637.419 1242.38 640.458 1243.11 641.891 1245.42C643.35 1247.79 644.834 1250.15 646.339 1252.5C651.931 1261.24 657.842 1269.9 663.911 1278.25C665.515 1280.45 665.026 1283.53 662.825 1285.13C661.947 1285.77 660.931 1286.08 659.927 1286.08ZM607.131 1195.81C605.26 1195.81 603.473 1194.74 602.642 1192.93C597.082 1180.77 591.926 1168.23 587.319 1155.68C586.382 1153.12 587.695 1150.28 590.252 1149.35C592.802 1148.4 595.639 1149.73 596.58 1152.28C601.098 1164.6 606.157 1176.89 611.614 1188.82C612.746 1191.3 611.655 1194.23 609.179 1195.36C608.516 1195.66 607.818 1195.81 607.131 1195.81ZM573.504 1096.79C571.258 1096.79 569.225 1095.24 568.702 1092.96C565.713 1079.94 563.197 1066.62 561.223 1053.38C560.823 1050.69 562.68 1048.18 565.375 1047.78C568.034 1047.38 570.579 1049.23 570.981 1051.93C572.917 1064.92 575.386 1077.98 578.316 1090.76C578.926 1093.41 577.266 1096.06 574.612 1096.66C574.241 1096.75 573.871 1096.79 573.504 1096.79Z" fill="#91B3FA"/>
<path d="M560.58 992.828C557.907 992.828 555.711 990.69 555.653 988.007C555.506 981.438 555.484 974.744 555.588 968.102C555.631 965.376 557.89 963.31 560.597 963.247C563.321 963.29 565.495 965.535 565.452 968.256C565.348 974.772 565.37 981.342 565.512 987.786C565.575 990.512 563.417 992.766 560.694 992.829C560.655 992.828 560.618 992.828 560.58 992.828Z" fill="#91B3FA"/>
<path d="M684.593 919.854C683.941 922.426 684.993 925.129 687.211 926.583L750.516 968.082C749.874 1003.43 754.864 1039.13 765.861 1073.8L717.039 1131.58C715.326 1133.61 715.089 1136.5 716.446 1138.78L762.907 1216.79C764.266 1219.07 766.921 1220.23 769.517 1219.69L843.577 1204.29C868.831 1230.47 897.843 1251.86 929.227 1268.13L935.566 1343.56C935.789 1346.2 937.663 1348.42 940.235 1349.07L1028.25 1371.37C1030.82 1372.03 1033.52 1370.97 1034.98 1368.76L1076.48 1305.45C1111.82 1306.09 1147.52 1301.1 1182.2 1290.1L1239.98 1338.93C1242 1340.64 1244.89 1340.88 1247.17 1339.52L1325.18 1293.06C1327.46 1291.7 1328.63 1289.05 1328.09 1286.45L1312.68 1212.39C1338.86 1187.14 1360.26 1158.12 1376.52 1126.74L1451.95 1120.4C1454.6 1120.18 1456.81 1118.3 1457.46 1115.73L1479.77 1027.72C1480.42 1025.15 1479.37 1022.44 1477.15 1020.99L1413.84 979.491C1414.49 944.148 1409.5 908.447 1398.5 873.77L1447.32 815.988C1449.03 813.962 1449.27 811.073 1447.91 808.793L1401.45 730.785C1400.1 728.506 1397.44 727.338 1394.84 727.879L1320.78 743.288C1295.53 717.102 1266.52 695.71 1235.13 679.441L1228.79 604.014C1228.57 601.369 1226.69 599.157 1224.12 598.506L1136.11 576.2C1133.54 575.549 1130.84 576.599 1129.38 578.818L1087.88 642.121C1052.54 641.479 1016.84 646.47 982.165 657.467L924.382 608.644C922.358 606.932 919.467 606.694 917.187 608.053L839.181 654.514C836.902 655.871 835.735 658.526 836.274 661.124L851.682 735.184C825.497 760.437 804.106 789.451 787.836 820.833L712.408 827.173C709.764 827.395 707.553 829.27 706.9 831.842L684.593 919.854Z" fill="#91B3FA"/>
<path d="M1082.18 1061.81C1082.18 1061.81 1082.12 1061.81 1082.1 1061.81C1058.59 1061.78 1036.49 1052.61 1019.88 1035.97C1003.27 1019.33 994.138 997.216 994.162 973.708C994.184 950.195 1003.36 928.099 1020 911.492C1054.35 877.2 1110.19 877.258 1144.48 911.607C1161.08 928.247 1170.22 950.358 1170.2 973.866C1170.17 997.379 1161 1019.48 1144.36 1036.08C1127.74 1052.67 1105.66 1061.81 1082.18 1061.81ZM1082.18 900.564C1062.64 900.564 1044.28 908.164 1030.45 921.963C1016.61 935.781 1008.97 954.159 1008.96 973.718C1008.94 993.277 1016.54 1011.67 1030.35 1025.52C1044.17 1039.36 1062.55 1046.99 1082.11 1047.01C1082.13 1047.01 1082.16 1047.01 1082.16 1047.01C1101.72 1047.01 1120.08 1039.41 1133.91 1025.61C1147.75 1011.8 1155.38 993.416 1155.4 973.857C1155.42 954.298 1147.82 935.9 1134.01 922.058C1120.19 908.217 1101.81 900.583 1082.25 900.563C1082.23 900.564 1082.2 900.564 1082.18 900.564Z" fill="#BDD0FB"/>
<path d="M1084.46 1200.54C1007.2 1200.54 931.825 1161.06 889.501 1090C881.234 1076.12 874.448 1061.38 869.338 1046.2L883.358 1041.48C888.138 1055.67 894.481 1069.45 902.211 1082.43C949.138 1161.21 1039.56 1198.48 1124.78 1181.85C1124.94 1181.82 1125.1 1181.79 1125.25 1181.76C1125.42 1181.73 1125.58 1181.7 1125.74 1181.67C1148.67 1177.09 1171.2 1168.6 1192.41 1155.97C1240.99 1127.04 1275.39 1080.92 1289.28 1026.11C1293.69 1008.74 1295.86 991.156 1295.86 973.692C1295.85 936.049 1285.72 898.963 1265.96 865.78C1206.22 765.497 1076.04 732.501 975.761 792.232C942.787 811.872 915.802 840.019 897.727 873.626L884.699 866.614C904.041 830.651 932.914 800.535 968.19 779.517C1075.48 715.625 1214.76 750.914 1278.67 858.209C1299.81 893.714 1310.65 933.39 1310.66 973.663C1310.66 992.35 1308.33 1011.16 1303.62 1029.74C1288.76 1088.39 1251.95 1137.73 1199.98 1168.69C1163.74 1190.27 1123.85 1200.54 1084.46 1200.54Z" fill="#BDD0FB"/>
<path d="M1654.07 2518.75L1604.83 2960.33H2176.07L2101.66 2518.75H1654.07Z" fill="url(#paint1_linear_6_233)"/>
<path d="M455.822 1211.96V2426.71C455.822 2526.64 535.454 2608.36 635.35 2610.94C1079.04 2622.38 2630.84 2650.12 3053.2 2643.89C3125.79 2642.82 3184.6 2584.73 3186.69 2512.16C3194.84 2229.96 3208.06 1551.36 3159.11 1236.31C3148.8 1169.96 3092.8 1120.35 3025.7 1118.2C2653.94 1106.31 1008.93 1068.54 586.769 1078.03C513.96 1079.66 455.822 1139.14 455.822 1211.96Z" fill="url(#paint2_linear_6_233)"/>
<path d="M532.044 1206.05V2360.15C532.044 2418.49 578.879 2466.03 637.217 2466.9L2992.44 2496C3050.27 2496.87 3097.68 2450.33 3097.9 2392.49L3101.84 1248.7C3101.99 1207.34 3069.04 1173.46 3027.69 1172.45L616.386 1123.73C570.141 1122.61 532.044 1159.79 532.044 1206.05Z" fill="url(#paint3_linear_6_233)"/>
<path d="M3115.63 2543.41H3115.57L531.989 2499.39C530.124 2499.35 528.637 2497.82 528.67 2495.96C528.703 2494.09 530.315 2492.71 532.101 2492.64L3115.68 2536.66C3117.55 2536.69 3119.04 2538.23 3119 2540.09C3118.97 2541.94 3117.47 2543.41 3115.63 2543.41Z" fill="#91B3FA"/>
<path d="M1849.32 2597.17C1832.64 2597.17 1819.06 2583.6 1819.06 2566.92C1819.06 2550.23 1832.64 2536.66 1849.32 2536.66C1866 2536.66 1879.58 2550.23 1879.58 2566.92C1879.58 2583.6 1866 2597.17 1849.32 2597.17ZM1849.32 2543.41C1836.36 2543.41 1825.81 2553.96 1825.81 2566.92C1825.81 2579.88 1836.36 2590.42 1849.32 2590.42C1862.28 2590.42 1872.83 2579.88 1872.83 2566.92C1872.83 2553.96 1862.28 2543.41 1849.32 2543.41Z" fill="#91B3FA"/>
<path d="M2299.11 3050.68H1463.07C1440.36 3050.68 1423.3 3034.51 1427.69 3017.14L1438.42 2974.71C1441.65 2961.95 1455.68 2952.59 1472.36 2952.07L2278.33 2926.92C2295.75 2926.37 2311.17 2935.62 2314.96 2948.88L2334.3 3016.46C2339.33 3034.01 2322.19 3050.68 2299.11 3050.68Z" fill="url(#paint4_linear_6_233)"/>
<path d="M1913.13 2964.21C1911.28 2964.21 1909.78 2962.73 1909.75 2960.89C1909.72 2959.02 1911.21 2957.49 1913.08 2957.46L1947.61 2956.96H1947.66C1949.5 2956.96 1951.01 2958.43 1951.04 2960.28C1951.06 2962.14 1949.57 2963.68 1947.71 2963.7L1913.17 2964.21H1913.13Z" fill="#91B3FA"/>
<path d="M1458.65 3027.94C1458.47 3027.94 1458.29 3027.92 1458.11 3027.89C1456.27 3027.6 1455.02 3025.87 1455.31 3024.03L1460.24 2993.17C1462.94 2976.28 1477.31 2963.83 1494.42 2963.58L1860.73 2958.23C1862.65 2958.14 1864.13 2959.69 1864.16 2961.55C1864.18 2963.41 1862.69 2964.95 1860.83 2964.97L1494.51 2970.33C1480.7 2970.53 1469.08 2980.59 1466.9 2994.24L1461.97 3025.09C1461.71 3026.75 1460.28 3027.94 1458.65 3027.94Z" fill="#91B3FA"/>
<path opacity="0.03" d="M2927.89 1225.69L677.12 1197.98C641.653 1197.55 612.807 1226.57 612.301 1262.85L597.836 2311.04C597.337 2346.86 625.003 2376.51 659.998 2377.75L2923.53 2457.84C2955.02 2458.96 2984.53 2446.94 3007.19 2424.54C3029.85 2402.14 3041.58 2371.29 3041.58 2339.05V1344.55C3041.58 1279.46 2991.5 1226.48 2927.89 1225.69Z" fill="white"/>
<path d="M659.71 1168.69H1810.34C1841.71 1168.69 1866.99 1200.43 1866.42 1239.13L1850.23 2340.25C1849.47 2392.07 1814.91 2433.41 1772.9 2432.76L658.471 2415.51C627.759 2415.03 603.07 2384.17 603.088 2346.29L603.623 1237.83C603.643 1199.64 628.748 1168.69 659.71 1168.69Z" fill="#7D97F4"/>
<path d="M677.91 1201.16H1782.79C1812.91 1201.16 1837.18 1231.59 1836.63 1268.67L1821.09 2324.01C1820.36 2373.68 1787.18 2413.29 1746.83 2412.67L676.72 2396.14C647.23 2395.68 623.522 2366.11 623.54 2329.8L624.054 1267.43C624.072 1230.82 648.179 1201.16 677.91 1201.16Z" fill="#91B3FA"/>
<path d="M1438.58 1328.35C1438.47 1328.35 1438.36 1328.35 1438.25 1328.34L708.591 1320.21C688.716 1319.99 672.544 1304.27 672.541 1285.18L672.538 1256.57C672.535 1249.05 675.59 1241.99 681.139 1236.69C686.626 1231.45 693.903 1228.57 701.627 1228.57H1443.53C1451.39 1228.57 1458.89 1231.81 1464.12 1237.46C1469.13 1242.87 1471.59 1249.84 1471.03 1257.08L1467.52 1302.49C1466.4 1317.05 1453.72 1328.35 1438.58 1328.35ZM701.627 1238.69C696.516 1238.69 691.724 1240.58 688.132 1244.01C684.602 1247.38 682.661 1251.84 682.661 1256.56L682.664 1285.18C682.667 1298.75 694.347 1309.92 708.702 1310.08L1438.36 1318.22C1438.43 1318.22 1438.51 1318.22 1438.58 1318.22C1448.46 1318.22 1456.71 1311.01 1457.43 1301.71L1460.93 1256.31C1461.27 1251.91 1459.76 1247.66 1456.69 1244.33C1453.37 1240.75 1448.57 1238.7 1443.53 1238.7H701.627V1238.69Z" fill="white"/>
<path opacity="0.4" d="M1429.68 1313L721.855 1307.04C705.169 1306.9 691.744 1297.12 691.741 1285.09L691.736 1264.14C691.734 1254.86 702.17 1247.34 715.045 1247.34H1434.75C1447.45 1247.34 1457.46 1255.11 1456.53 1264.23L1453.13 1297.49C1452.23 1306.31 1441.96 1313.11 1429.68 1313Z" fill="white"/>
<path opacity="0.59" d="M1672.04 1435.82H677.874C671.278 1435.82 665.931 1429.93 665.931 1422.66V1387.44C665.931 1380.13 671.342 1374.22 677.979 1374.28L1672.15 1383.97C1678.7 1384.03 1683.98 1389.91 1683.98 1397.14V1422.66C1683.98 1429.93 1678.64 1435.82 1672.04 1435.82Z" fill="white"/>
<path opacity="0.4" d="M1750.73 1675.62L703.759 1661.66C685.144 1661.41 670.183 1646.25 670.183 1627.63V1483.88C670.183 1464.73 685.813 1449.27 704.958 1449.47L1748.88 1460.64C1769.47 1460.86 1786.05 1477.61 1786.05 1498.2V1640.77C1786.05 1660.2 1770.16 1675.88 1750.73 1675.62Z" fill="white"/>
<path opacity="0.59" d="M1581.68 1782.65H676.389C670.383 1782.65 665.514 1776.76 665.514 1769.49V1734.27C665.514 1726.95 670.442 1721.04 676.485 1721.11L1581.78 1730.8C1587.74 1730.86 1592.56 1736.74 1592.56 1743.96V1769.49C1592.56 1776.76 1587.69 1782.65 1581.68 1782.65Z" fill="white"/>
<path opacity="0.4" d="M1750.31 2043.93L703.342 2028.64C684.727 2028.37 669.766 2011.77 669.766 1991.38V1833.97C669.766 1813.01 685.396 1796.08 704.541 1796.3L1748.46 1808.53C1769.05 1808.77 1785.63 1827.11 1785.63 1849.66V2005.77C1785.63 2027.05 1769.74 2044.22 1750.31 2043.93Z" fill="white"/>
<path opacity="0.59" d="M1777.13 2156.87H680.81C673.537 2156.87 667.64 2150.98 667.64 2143.71V2108.49C667.64 2101.18 673.608 2095.26 680.926 2095.33L1777.24 2105.02C1784.47 2105.08 1790.3 2110.96 1790.3 2118.18V2143.71C1790.3 2150.98 1784.4 2156.87 1777.13 2156.87Z" fill="white"/>
<path opacity="0.4" d="M1752.43 2385.71L705.468 2372.42C686.853 2372.18 671.892 2357.76 671.892 2340.04V2203.26C671.892 2185.04 687.522 2170.33 706.667 2170.52L1750.59 2181.14C1771.18 2181.35 1787.75 2197.3 1787.75 2216.89V2352.55C1787.75 2371.03 1771.86 2385.95 1752.43 2385.71Z" fill="white"/>
<path d="M2053.34 870.86H3181C3211.75 870.86 3236.52 902.242 3235.96 940.493L3220.09 2029.04C3219.35 2080.27 3185.48 2121.13 3116.18 2120.49L2066.38 2104.1C2029.9 2103.53 1999.35 2074.95 1997.92 2038.5C1997.87 2037.34 1997.85 2036.18 1997.85 2035.01L1998.37 939.213C1998.39 901.456 2023 870.86 2053.34 870.86Z" fill="#7D97F4"/>
<path d="M2078.21 900.338H3161.03C3190.55 900.338 3214.34 930.155 3213.8 966.5L3198.57 2000.77C3197.85 2049.45 3165.33 2088.28 3125.79 2087.67L2077.04 2071.46C2048.14 2071.01 2024.91 2042.03 2024.92 2006.44L2025.43 965.283C2025.45 929.409 2049.07 900.338 2078.21 900.338Z" fill="#BDD0FB"/>
<path d="M3107.85 1109.49H2116.41C2104.28 1109.49 2094.44 1099.65 2094.44 1087.51V1034.03C2094.44 1021.3 2104.76 1010.97 2117.5 1010.97H3103.95C3116.38 1010.97 3126.45 1021.05 3126.45 1033.47V1090.89C3126.45 1101.16 3118.12 1109.49 3107.85 1109.49Z" fill="#7D97F4"/>
<path opacity="0.27" d="M3042.9 1079.52H2664.66C2658.42 1081.86 2653.37 1076.26 2653.37 1069.36V1050.83C2653.37 1043.92 2658.42 1038.32 2664.66 1038.32H3042.9C3049.13 1038.32 3054.19 1043.92 3054.19 1050.83V1069.36C3054.19 1076.26 3049.13 1081.86 3042.9 1079.52Z" fill="white"/>
<path d="M2836.18 1599.11C2836.18 1625.05 2815.18 1646.09 2789.24 1646.15L2130.52 1647.5C2113.31 1647.5 2099.35 1633.23 2099.35 1615.62V1265.67C2099.35 1247.87 2113.6 1233.51 2131.01 1233.79L2805.49 1244.52C2822.51 1244.79 2836.18 1258.98 2836.18 1276.4L2836.18 1599.11Z" fill="#7D97F4"/>
<path d="M2751.85 2029.9L2470.01 2027.55C2460.49 2027.47 2452.83 2019.69 2452.91 2010.17L2455.25 1727.88C2455.33 1718.53 2462.85 1710.95 2472.2 1710.79L2750.51 1716.06C2762.3 1716.29 2771.71 1725.96 2771.61 1737.75L2769.24 2012.79C2769.16 2022.32 2761.38 2029.98 2751.85 2029.9Z" fill="#91B3FA"/>
<path d="M2393.38 2029.9L2111.54 2027.55C2102.01 2027.47 2094.36 2019.69 2094.44 2010.17L2096.78 1727.88C2096.86 1718.53 2104.38 1710.95 2113.73 1710.79L2392.04 1716.06C2403.83 1716.29 2413.24 1725.96 2413.14 1737.75L2410.77 2012.79C2410.69 2022.32 2402.9 2029.98 2393.38 2029.9Z" fill="#91B3FA"/>
<path d="M3106.69 2036.57L2824.85 2034.23C2815.33 2034.15 2807.67 2026.37 2807.75 2016.84L2810.09 1734.56C2810.17 1725.21 2817.69 1717.63 2827.04 1717.46L3105.35 1722.74C3117.14 1722.97 3126.55 1732.64 3126.45 1744.43L3124.08 2019.47C3124 2029 3116.22 2036.65 3106.69 2036.57Z" fill="#91B3FA"/>
<path d="M3102.76 1663.24H2898.98C2885.89 1663.24 2875.28 1652.56 2875.28 1639.39V1267.06C2875.28 1255.99 2883.89 1247 2894.54 1246.94L3103.79 1245.77C3116.46 1246.32 3126.45 1256.83 3126.45 1269.59V1639.39C3126.45 1652.56 3115.84 1663.24 3102.76 1663.24Z" fill="#91B3FA"/>
<path d="M2331.11 989.726C2312.83 989.726 2297.97 974.86 2297.97 956.588C2297.97 938.316 2312.83 923.451 2331.11 923.451C2349.38 923.451 2364.24 938.316 2364.24 956.588C2364.24 974.859 2349.38 989.726 2331.11 989.726ZM2331.11 930.2C2316.56 930.2 2304.72 942.038 2304.72 956.587C2304.72 971.138 2316.56 982.976 2331.11 982.976C2345.65 982.976 2357.49 971.138 2357.49 956.587C2357.49 942.038 2345.66 930.2 2331.11 930.2Z" fill="white"/>
<path d="M2228.09 992.138C2209.82 992.138 2194.96 977.273 2194.96 959.001C2194.96 940.729 2209.82 925.864 2228.09 925.864C2246.36 925.864 2261.23 940.729 2261.23 959.001C2261.23 977.273 2246.36 992.138 2228.09 992.138ZM2228.09 932.614C2213.54 932.614 2201.71 944.451 2201.71 959.001C2201.71 973.551 2213.54 985.388 2228.09 985.388C2242.64 985.388 2254.48 973.55 2254.48 959.001C2254.48 944.452 2242.64 932.614 2228.09 932.614Z" fill="white"/>
<path d="M2129.11 992.138C2110.84 992.138 2095.97 977.273 2095.97 959.001C2095.97 940.729 2110.84 925.864 2129.11 925.864C2147.38 925.864 2162.25 940.729 2162.25 959.001C2162.25 977.273 2147.38 992.138 2129.11 992.138ZM2129.11 932.614C2114.56 932.614 2102.72 944.451 2102.72 959.001C2102.72 973.551 2114.56 985.388 2129.11 985.388C2143.66 985.388 2155.5 973.55 2155.5 959.001C2155.5 944.452 2143.66 932.614 2129.11 932.614Z" fill="white"/>
<path d="M2483.08 1509.93C2439.24 1509.93 2403.64 1474.33 2403.64 1430.57C2403.64 1386.73 2439.24 1351.13 2483 1351.13C2526.84 1351.13 2562.45 1386.73 2562.45 1430.49V1430.57C2562.45 1474.33 2526.84 1509.93 2483.08 1509.93ZM2483.08 1355.81C2441.83 1355.81 2408.33 1389.31 2408.33 1430.49C2408.33 1471.75 2441.83 1505.24 2483 1505.24C2524.26 1505.24 2557.76 1471.75 2557.76 1430.57V1430.49C2557.76 1389.31 2524.26 1355.81 2483.08 1355.81Z" fill="white"/>
<path d="M2461.15 1470.41C2458.93 1470.41 2457.1 1468.64 2457.04 1466.41L2455.17 1396.31C2455.1 1394 2456.22 1391.86 2458.15 1390.6C2460.09 1389.33 2462.49 1389.16 2464.59 1390.14L2533.83 1422.52C2536.12 1423.59 2537.58 1425.82 2537.65 1428.35C2537.71 1430.87 2536.37 1433.17 2534.14 1434.36L2473.02 1466.95C2471.01 1468.02 2468.53 1467.26 2467.46 1465.25C2466.39 1463.25 2467.15 1460.76 2469.15 1459.69L2527.45 1428.61L2463.45 1398.68L2465.26 1466.19C2465.32 1468.46 2463.53 1470.35 2461.26 1470.41C2461.22 1470.41 2461.19 1470.41 2461.15 1470.41Z" fill="white"/>
<path d="M1582.37 915.554C1689.66 751.76 1909.63 692.083 2045.76 716.919L2073.07 780.626C1934.23 802.879 1836.61 827.954 1763.77 948.518C1759.82 955.055 1752.29 958.538 1744.76 957.248L1588.94 930.527C1582.01 929.339 1578.52 921.43 1582.37 915.554Z" fill="url(#paint5_linear_6_233)"/>
<path d="M2012.92 625.2L2200.16 708.312C2213.01 714.015 2213.75 731.973 2201.41 738.711L2037.34 828.33C2032.11 830.663 2026.1 827.303 2025.35 821.622L2000.29 632.134C1999.37 625.146 2007.51 620.671 2012.92 625.2Z" fill="url(#paint6_linear_6_233)"/>
<path d="M1105.88 3167.4H1139.1V2808.22H1105.88V3167.4Z" fill="#91B3FA"/>
<path d="M977.042 3174.33H1267.94V3154.6C1267.94 3153.56 1267.09 3152.71 1266.04 3152.71H979.088C977.958 3152.71 977.043 3153.62 977.043 3154.75V3174.33H977.042Z" fill="#91B3FA"/>
<path d="M922.032 2794.97C922.032 2815.85 939.114 2832.93 959.991 2832.93H1272.77C1293.65 2832.93 1310.73 2815.85 1310.73 2794.97V2760.65C1310.73 2739.77 1293.65 2722.69 1272.77 2722.69H959.991C939.113 2722.69 922.032 2739.77 922.032 2760.65V2794.97Z" fill="#91B3FA"/>
<path d="M1307.48 3103.77C1307.48 3103.77 1402.32 3172.13 1385.86 3218.06C1385.86 3218.06 1282.09 3173.29 1269.55 3138.02C1257.01 3102.75 1271.67 3087.18 1271.67 3087.18L1307.48 3103.77Z" fill="url(#paint7_linear_6_233)"/>
<path d="M1293.23 3046.48L1277.72 3091.31C1275.38 3098.08 1277.72 3105.78 1283.77 3109.6C1286.81 3111.52 1290.95 3113.29 1296.61 3114.57C1304.6 3116.38 1312.84 3112.69 1316.69 3105.46L1335.24 3070.53L1293.23 3046.48Z" fill="url(#paint8_linear_6_233)"/>
<path d="M1142.31 2642.95C1142.31 2642.95 1337.11 2676.71 1420.68 2753.91C1504.24 2831.1 1343.98 3077.33 1343.98 3077.33C1343.98 3077.33 1317.72 3077.17 1285.9 3049.9C1285.9 3049.9 1380.92 2864.71 1299.03 2810.7C1206.96 2749.98 1100.86 2736.31 1100.86 2736.31L1140.43 2648.9L1142.31 2642.95Z" fill="url(#paint9_linear_6_233)"/>
<path d="M1369.38 3192.66C1348.52 3183 1289.46 3141.67 1279.51 3139.84C1269.55 3138.02 1252.28 3149.72 1252.28 3149.72C1252.28 3149.72 1248.08 3157.27 1252.58 3170.45C1266.44 3187.22 1297.21 3219.19 1338.59 3231.11C1369.03 3239.87 1390.31 3231.7 1403.57 3222.14C1396.28 3211.03 1383.27 3199.09 1369.38 3192.66Z" fill="url(#paint10_linear_6_233)"/>
<path d="M1338.59 3231.11C1297.21 3219.19 1266.44 3187.22 1252.58 3170.45C1255.61 3179.35 1262.61 3190.82 1277.57 3204.26C1314.67 3237.6 1385.52 3249.62 1400.6 3247.31C1412.69 3245.45 1411.55 3234.29 1403.57 3222.14C1390.31 3231.7 1369.03 3239.87 1338.59 3231.11Z" fill="url(#paint11_linear_6_233)"/>
<path d="M1234.59 3120.54C1234.83 3126.29 1246.57 3146 1253.44 3157.05C1256.7 3162.31 1262.42 3165.52 1268.6 3165.54C1272.53 3165.55 1277.04 3165.21 1281.13 3164.03C1287.28 3162.27 1290.73 3155.72 1288.93 3149.58L1275.52 3103.77L1234.59 3120.54Z" fill="url(#paint12_linear_6_233)"/>
<path d="M954.799 2584.48C954.799 2584.48 911.537 2700.16 954.799 2735.33C998.061 2770.51 1101.27 2810.12 1124.32 2880.19C1147.37 2950.26 1186.5 3086.43 1238.86 3134.65C1238.86 3134.65 1275.64 3131.09 1289.41 3116.43C1289.41 3116.43 1259.59 2913.15 1239.92 2860.99C1222.89 2815.82 1197.8 2750.62 1149.71 2714.17C1135.94 2703.74 1138.34 2687.22 1144.72 2671.17L1156.35 2641.94L954.799 2584.48Z" fill="url(#paint13_linear_6_233)"/>
<path d="M1406 2493.81C1333.46 2498.18 1356.06 2382.3 1357.37 2377.69L1247.27 2455.45C1247.27 2455.45 1253.1 2517.42 1344.64 2549.93C1367.79 2558.16 1388.96 2558.52 1407.67 2554.5C1399.69 2531.23 1401.32 2510.35 1406 2493.81Z" fill="url(#paint14_linear_6_233)"/>
<path d="M1546.26 2458.93C1519.22 2440.13 1488.6 2458.93 1488.6 2458.93C1452.46 2482.57 1425.72 2492.62 1406 2493.81C1401.32 2510.35 1399.69 2531.23 1407.67 2554.5C1448.16 2545.8 1477.13 2516.49 1489.72 2501.46C1494.25 2496.05 1502.27 2495.11 1507.81 2499.48C1513.44 2503.92 1518.91 2510.01 1517.92 2516.41C1515.96 2529.05 1530.62 2533.06 1531.73 2528.48C1532.83 2523.9 1526.71 2496.74 1526.71 2496.74C1526.71 2496.74 1556.03 2526.22 1567.47 2537.55C1578.92 2548.88 1593.31 2537.55 1593.31 2537.55C1593.31 2537.55 1573.29 2477.73 1546.26 2458.93Z" fill="url(#paint15_linear_6_233)"/>
<path d="M1067.76 2198.72C1067.76 2198.72 1173.29 2156.47 1369.69 2318.61C1369.69 2318.61 1386.09 2352.57 1368.2 2382.79C1350.3 2413.01 1179.78 2560.28 1156.35 2641.94C1156.35 2641.94 1054.76 2674.95 949.702 2596.68C949.702 2596.68 958.974 2369.39 1067.76 2198.72Z" fill="url(#paint16_linear_6_233)"/>
<path d="M1276.38 2161.01L1224.43 2223.99C1219.28 2230.24 1218.14 2238.94 1221.71 2246.22C1228.92 2260.93 1246.03 2282.34 1283.97 2279.38C1295.26 2278.5 1305.26 2271.69 1310.19 2261.5L1346.51 2186.41L1276.38 2161.01Z" fill="url(#paint17_linear_6_233)"/>
<path d="M986.06 2468.45C973.809 2418.55 1097.9 2307.32 1097.9 2307.32L1067.76 2198.72C1067.76 2198.72 799.813 2377.1 868.097 2520.54C877.886 2541.11 890.887 2555.51 905.961 2565.15C927.537 2507.07 961.921 2480.43 986.06 2468.45Z" fill="url(#paint18_linear_6_233)"/>
<path d="M985.972 2461.18C984.655 2461.18 983.457 2460.29 983.128 2458.95C970.6 2407.94 1090.74 2299.54 1095.86 2294.94C1097.06 2293.87 1098.91 2293.96 1100 2295.17C1101.08 2296.37 1100.98 2298.23 1099.77 2299.31C1098.55 2300.41 977.127 2409.93 988.823 2457.55C989.208 2459.12 988.247 2460.71 986.674 2461.1C986.442 2461.15 986.205 2461.18 985.972 2461.18Z" fill="url(#paint19_linear_6_233)"/>
<path d="M1174.01 2464.15C1174.01 2464.15 1026.89 2521.27 990.975 2478.31C988.54 2475.39 986.952 2472.08 986.061 2468.45C961.922 2480.43 927.537 2507.07 905.961 2565.15C983.34 2614.59 1115.6 2537.64 1151.36 2514.95C1157.25 2511.22 1164.3 2509.91 1171.13 2511.33C1184.92 2514.19 1208.75 2518.39 1221.6 2516.41C1240.4 2513.52 1267.4 2579.83 1297.88 2559.38C1297.88 2559.38 1271.78 2444.1 1174.01 2464.15Z" fill="url(#paint20_linear_6_233)"/>
<path d="M1401.84 2104.74C1401.84 2104.74 1394.21 2172.72 1379.38 2202.16C1364.54 2231.61 1360.04 2253.66 1323.74 2240.41C1287.44 2227.17 1269.11 2194.74 1270.42 2157.65C1270.42 2157.65 1272.04 2100.28 1287.66 2085.39C1303.27 2070.51 1401.84 2104.74 1401.84 2104.74Z" fill="url(#paint21_linear_6_233)"/>
<path d="M1293.45 2143.71L1297.62 2146.11C1297.62 2146.11 1300.73 2100.97 1319.39 2103.47C1338.05 2105.97 1404.88 2128.2 1430 2114.41C1454.22 2101.11 1458.34 2068.3 1446 2051.35C1445.22 2050.28 1443.69 2050.06 1442.57 2050.77L1439.7 2052.58C1437.73 2053.82 1435.25 2052.03 1435.81 2049.77C1436.33 2047.63 1434.09 2045.81 1432.14 2046.85C1424.54 2050.92 1407.91 2055.08 1376.17 2043.86C1331.15 2027.94 1294.75 2028.93 1277.9 2056.68C1276.83 2058.43 1274.36 2058.32 1273.37 2056.51C1271.42 2052.95 1267.11 2049.33 1257.57 2051.03C1240.98 2053.99 1231.52 2081 1244.48 2115.16C1245.1 2116.79 1244.04 2118.6 1242.31 2118.69C1236.2 2119.03 1225.62 2122.1 1237.5 2141.14C1249.65 2160.63 1260.62 2165.58 1265.12 2166.84C1266.33 2167.17 1267.59 2166.62 1268.15 2165.5L1280.96 2139.68C1281.62 2138.34 1283.27 2137.85 1284.56 2138.59L1293.45 2143.71Z" fill="url(#paint22_linear_6_233)"/>
<path d="M1291.48 2149.51C1291.48 2149.51 1302.44 2109.59 1281.27 2110.37C1260.09 2111.14 1266.95 2153.92 1278.71 2162.43L1291.48 2149.51Z" fill="url(#paint23_linear_6_233)"/>
<path d="M1249.38 2576.79C1249.62 2576.8 1249.85 2576.81 1250.09 2576.81L1558.78 2576.47C1566.41 2576.46 1572.59 2570.27 1572.58 2562.64C1572.57 2555.01 1566.36 2548.7 1558.75 2548.84L1250.06 2549.18C1242.43 2549.18 1236.25 2555.38 1236.26 2563.01C1236.27 2570.4 1242.08 2576.43 1249.38 2576.79Z" fill="url(#paint24_linear_6_233)"/>
<path d="M1836.27 2296.52H1579.2C1560.23 2296.52 1542.97 2307.47 1534.88 2324.62L1416.04 2576.63H1735.51C1747.73 2576.63 1758.72 2569.16 1763.21 2557.79L1855.37 2324.6C1860.69 2311.13 1850.76 2296.52 1836.27 2296.52Z" fill="url(#paint25_linear_6_233)"/>
<path d="M1655.16 2425.74C1649.59 2443.04 1653.71 2459.85 1664.35 2463.28C1675 2466.71 1688.15 2455.45 1693.72 2438.15C1699.29 2420.84 1695.17 2404.03 1684.53 2400.6C1673.88 2397.17 1660.73 2408.43 1655.16 2425.74Z" fill="url(#paint26_linear_6_233)"/>
<path d="M1794.6 3238.87C1796.31 3238.87 1798.05 3238.53 1799.72 3237.84C1806.3 3235.1 1809.34 3227.71 1806.51 3221.34L1534.46 2609.07C1531.63 2602.7 1524 2599.76 1517.42 2602.49C1510.83 2605.23 1507.79 2612.62 1510.62 2618.99L1782.68 3231.27C1784.79 3236.02 1789.57 3238.87 1794.6 3238.87Z" fill="#7D97F4"/>
<path d="M1488.12 3238.86C1493.15 3238.86 1497.93 3236.02 1500.04 3231.27L1772.09 2618.99C1774.92 2612.62 1771.88 2605.23 1765.3 2602.49C1758.73 2599.75 1751.09 2602.69 1748.26 2609.07L1476.21 3221.34C1473.38 3227.71 1476.42 3235.1 1483 3237.84C1484.67 3238.53 1486.41 3238.86 1488.12 3238.86Z" fill="#7D97F4"/>
<path d="M952.484 3238.87C954.194 3238.87 955.932 3238.53 957.604 3237.84C964.185 3235.1 967.225 3227.71 964.394 3221.34L692.344 2609.07C689.513 2602.7 681.891 2599.76 675.302 2602.49C668.721 2605.23 665.681 2612.62 668.512 2618.99L940.562 3231.27C942.673 3236.02 947.457 3238.87 952.484 3238.87Z" fill="#7D97F4"/>
<path d="M646.01 3238.86C651.037 3238.86 655.821 3236.02 657.932 3231.27L929.982 2618.99C932.813 2612.62 929.773 2605.23 923.192 2602.49C916.616 2599.75 908.983 2602.69 906.15 2609.07L634.1 3221.34C631.269 3227.71 634.309 3235.1 640.89 3237.84C642.56 3238.53 644.3 3238.86 646.01 3238.86Z" fill="#7D97F4"/>
<path d="M614.1 2590.16C613.406 2586.15 614.351 2582 616.676 2578.84C619.001 2575.69 622.463 2573.86 626.117 2573.86H1863.75C1868.55 2573.86 1873.03 2576.6 1875.61 2581.13C1878.2 2585.66 1878.55 2591.36 1876.54 2596.24L1863.12 2628.74C1860.05 2636.18 1853.4 2640.95 1846.08 2640.95H634.609C627.798 2640.95 621.943 2635.54 620.649 2628.05L614.1 2590.16Z" fill="#7D97F4"/>
<defs>
<linearGradient id="paint0_linear_6_233" x1="3423.39" y1="3604.43" x2="1371.97" y2="1390.19" gradientUnits="userSpaceOnUse">
<stop stop-color="#DAE3FE"/>
<stop offset="1" stop-color="#E9EFFD"/>
</linearGradient>
<linearGradient id="paint1_linear_6_233" x1="1901.8" y1="3185.11" x2="1872.16" y2="2598.15" gradientUnits="userSpaceOnUse">
<stop stop-color="#09005D"/>
<stop offset="1" stop-color="#1A0F91"/>
</linearGradient>
<linearGradient id="paint2_linear_6_233" x1="455.822" y1="1860.65" x2="3194.67" y2="1860.65" gradientUnits="userSpaceOnUse">
<stop stop-color="#09005D"/>
<stop offset="1" stop-color="#1A0F91"/>
</linearGradient>
<linearGradient id="paint3_linear_6_233" x1="3380.88" y1="1022.79" x2="-2560.28" y2="3993.38" gradientUnits="userSpaceOnUse">
<stop stop-color="#4F52FF"/>
<stop offset="1" stop-color="#4042E2"/>
</linearGradient>
<linearGradient id="paint4_linear_6_233" x1="1903.65" y1="2963.63" x2="1630.92" y2="3562.45" gradientUnits="userSpaceOnUse">
<stop stop-color="#09005D"/>
<stop offset="1" stop-color="#1A0F91"/>
</linearGradient>
<linearGradient id="paint5_linear_6_233" x1="599.593" y1="1706.7" x2="974.623" y2="1439.39" gradientUnits="userSpaceOnUse">
<stop stop-color="#FF928E"/>
<stop offset="1" stop-color="#FE7062"/>
</linearGradient>
<linearGradient id="paint6_linear_6_233" x1="621.495" y1="1737.43" x2="996.524" y2="1470.12" gradientUnits="userSpaceOnUse">
<stop stop-color="#FF928E"/>
<stop offset="1" stop-color="#FE7062"/>
</linearGradient>
<linearGradient id="paint7_linear_6_233" x1="1388.32" y1="3034.87" x2="1329.69" y2="3150.17" gradientUnits="userSpaceOnUse">
<stop stop-color="#09005D"/>
<stop offset="1" stop-color="#1A0F91"/>
</linearGradient>
<linearGradient id="paint8_linear_6_233" x1="1276.83" y1="3080.75" x2="1335.24" y2="3080.75" gradientUnits="userSpaceOnUse">
<stop stop-color="#FEBBBA"/>
<stop offset="1" stop-color="#FF928E"/>
</linearGradient>
<linearGradient id="paint9_linear_6_233" x1="1196" y1="2926.21" x2="1444.21" y2="2578.34" gradientUnits="userSpaceOnUse">
<stop stop-color="#09005D"/>
<stop offset="1" stop-color="#1A0F91"/>
</linearGradient>
<linearGradient id="paint10_linear_6_233" x1="1354.29" y1="3151.45" x2="1151.04" y2="3417.24" gradientUnits="userSpaceOnUse">
<stop stop-color="#09005D"/>
<stop offset="1" stop-color="#1A0F91"/>
</linearGradient>
<linearGradient id="paint11_linear_6_233" x1="1252.58" y1="3209.01" x2="1409.63" y2="3209.01" gradientUnits="userSpaceOnUse">
<stop stop-color="#4F52FF"/>
<stop offset="1" stop-color="#4042E2"/>
</linearGradient>
<linearGradient id="paint12_linear_6_233" x1="1234.59" y1="3134.65" x2="1289.41" y2="3134.65" gradientUnits="userSpaceOnUse">
<stop stop-color="#FEBBBA"/>
<stop offset="1" stop-color="#FF928E"/>
</linearGradient>
<linearGradient id="paint13_linear_6_233" x1="1106.54" y1="3099.56" x2="1120.22" y2="2634.43" gradientUnits="userSpaceOnUse">
<stop stop-color="#09005D"/>
<stop offset="1" stop-color="#1A0F91"/>
</linearGradient>
<linearGradient id="paint14_linear_6_233" x1="1422.02" y1="1602.54" x2="1347.77" y2="2311.21" gradientUnits="userSpaceOnUse">
<stop stop-color="#FF928E"/>
<stop offset="1" stop-color="#FE7062"/>
</linearGradient>
<linearGradient id="paint15_linear_6_233" x1="1551.82" y1="2172.81" x2="1497.67" y2="2525.94" gradientUnits="userSpaceOnUse">
<stop stop-color="#FEBBBA"/>
<stop offset="1" stop-color="#FF928E"/>
</linearGradient>
<linearGradient id="paint16_linear_6_233" x1="1256" y1="1585.15" x2="1181.76" y2="2293.82" gradientUnits="userSpaceOnUse">
<stop stop-color="#FF928E"/>
<stop offset="1" stop-color="#FE7062"/>
</linearGradient>
<linearGradient id="paint17_linear_6_233" x1="1219.64" y1="2220.34" x2="1346.51" y2="2220.34" gradientUnits="userSpaceOnUse">
<stop stop-color="#FEBBBA"/>
<stop offset="1" stop-color="#FF928E"/>
</linearGradient>
<linearGradient id="paint18_linear_6_233" x1="1063.42" y1="1564.97" x2="989.175" y2="2273.65" gradientUnits="userSpaceOnUse">
<stop stop-color="#FF928E"/>
<stop offset="1" stop-color="#FE7062"/>
</linearGradient>
<linearGradient id="paint19_linear_6_233" x1="1001.59" y1="2181.97" x2="1025.21" y2="2296.7" gradientUnits="userSpaceOnUse">
<stop stop-color="#E1473D"/>
<stop offset="1" stop-color="#E9605A"/>
</linearGradient>
<linearGradient id="paint20_linear_6_233" x1="1133.12" y1="2504.84" x2="647.397" y2="3348.89" gradientUnits="userSpaceOnUse">
<stop stop-color="#FEBBBA"/>
<stop offset="1" stop-color="#FF928E"/>
</linearGradient>
<linearGradient id="paint21_linear_6_233" x1="784.562" y1="3028.39" x2="675.091" y2="3204.41" gradientUnits="userSpaceOnUse">
<stop stop-color="#FEBBBA"/>
<stop offset="1" stop-color="#FF928E"/>
</linearGradient>
<linearGradient id="paint22_linear_6_233" x1="1331.26" y1="2019.03" x2="1362.97" y2="2247.24" gradientUnits="userSpaceOnUse">
<stop stop-color="#09005D"/>
<stop offset="1" stop-color="#1A0F91"/>
</linearGradient>
<linearGradient id="paint23_linear_6_233" x1="741.122" y1="3001.39" x2="631.649" y2="3177.41" gradientUnits="userSpaceOnUse">
<stop stop-color="#FEBBBA"/>
<stop offset="1" stop-color="#FF928E"/>
</linearGradient>
<linearGradient id="paint24_linear_6_233" x1="1197.01" y1="2494.77" x2="1442.06" y2="2575.14" gradientUnits="userSpaceOnUse">
<stop stop-color="#09005D"/>
<stop offset="1" stop-color="#1A0F91"/>
</linearGradient>
<linearGradient id="paint25_linear_6_233" x1="1533.63" y1="2334.11" x2="1710.1" y2="2520.62" gradientUnits="userSpaceOnUse">
<stop stop-color="#09005D"/>
<stop offset="1" stop-color="#1A0F91"/>
</linearGradient>
<linearGradient id="paint26_linear_6_233" x1="1640.31" y1="2380.55" x2="1720.38" y2="2501.13" gradientUnits="userSpaceOnUse">
<stop stop-color="#53D8FF"/>
<stop offset="1" stop-color="#3840F7"/>
</linearGradient>
</defs>
</svg>
