<?xml version="1.0" encoding="utf-8"?>
<!-- Generator: Adobe Illustrator 27.5.0, SVG Export Plug-In . SVG Version: 6.00 Build 0)  -->
<svg version="1.1" id="_x2018_ëîé_x5F_1" xmlns="http://www.w3.org/2000/svg" xmlns:xlink="http://www.w3.org/1999/xlink"
	 x="0px" y="0px" viewBox="0 0 3000 2000" style="enable-background:new 0 0 3000 2000;" xml:space="preserve">
<rect style="fill:#FFFFFF;" width="3000" height="2000"/>
<g>
	<g>
		<path style="fill:#C2DEF9;" d="M2752.677,422.596v1148.985c0,106.333-48.57,192.685-123.521,251.542
			c-0.021,0.01-0.041,0.02-0.062,0.041c-42.312,33.202-93.02,57.63-148.134,71.945c-16.412,4.274-33.212,7.628-50.288,10.062
			c-13.988,1.994-28.017,3.794-42.128,5.409c-5.563,0.634-11.135,1.247-16.739,1.82c-29.909,3.098-60.37,5.389-92.018,6.943
			c-49.368,2.423-101.619,3.047-159.136,2.117c-6.268-0.092-12.608-0.215-19.019-0.358c-6.514-0.143-13.088-0.297-19.745-0.47
			c-65.145-1.718-137.131-5.195-219.067-10.092c-24.469-1.472-49.838-3.057-76.168-4.765c-34.786-2.26-71.26-4.724-109.625-7.383
			c-30.962-2.137-63.151-4.397-96.66-6.769c-60.145-4.254-135.322-5.716-218.116-5.46c-33.171,0.092-67.569,0.47-102.703,1.053
			c-57.098,0.931-116.17,2.413-175.159,4.141c-73.96,2.137-147.786,4.673-217.42,6.984c-31.923,1.053-62.957,2.066-92.723,2.976
			c-13.978,0.43-27.67,0.828-41.034,1.207c-47.466,1.329-90.893,2.301-128.511,2.648c-30.43,0.286-59.869-3.906-87.764-11.974
			c-135.189-39.02-234.241-168.911-234.241-321.616V422.596c0-157.05,104.983-296.626,245.939-327.669
			c24.397-5.389,49.869-7.526,76.066-5.92c21.084,1.278,43.447,3.057,66.924,5.123c70.227,6.176,150.567,14.939,237.217,21.054
			c67.957,4.796,139.821,7.945,213.739,6.923c46.75-0.644,94.339-2.955,142.295-7.587c76.076-7.342,169.443-14.408,271.246-20.399
			c56.311-3.323,115.219-6.309,175.211-8.855c66.751-2.812,134.831-5.062,202.195-6.565c40.011-0.89,79.778-1.524,118.828-1.851
			c151.508-1.248,292.689,2.055,398.316,12.158C2607.754,105.95,2752.677,238.367,2752.677,422.596z"/>
	</g>
	<g style="opacity:0.7;">
		<g>
			<path style="fill:#FFFFFF;" d="M2752.677,473.526v359.193c-473.537,29.371-1369.633,79.203-1356.697,34.818
				c17.57-60.295,234.003-52.4,234.003-52.4c15.014-39.656,99.736-10.511,99.736-10.511
				c52.974-77.878,188.471-32.346,188.471-32.346c10.858-108.193,119.695-77.961,119.695-77.961
				c163.567-189.618,462.047-48.638,462.047-48.638c58.05-56.163,137.516-14.477,137.516-14.477
				C2659.689,550.173,2705.078,502.049,2752.677,473.526z"/>
		</g>
	</g>
	<g style="opacity:0.7;">
		<g>
			<path style="fill:#FFFFFF;" d="M280.811,446.213v198.468c261.648,16.229,756.775,43.763,749.628,19.238
				c-9.708-33.316-129.296-28.953-129.296-28.953c-8.296-21.911-55.108-5.808-55.108-5.808
				c-29.27-43.03-104.138-17.872-104.138-17.872c-5.999-59.781-66.136-43.077-66.136-43.077
				c-90.377-104.771-255.299-26.874-255.299-26.874c-32.075-31.032-75.983-7.999-75.983-7.999
				C332.19,488.564,307.111,461.974,280.811,446.213z"/>
		</g>
	</g>
	<g style="opacity:0.5;">
		<g>
			<path style="fill:#FFFFFF;" d="M2480.961,1895.11c-16.412,4.274-33.212,7.628-50.288,10.062
				c-13.988,1.994-28.017,3.794-42.128,5.409c-5.563,0.634-11.135,1.247-16.739,1.82c-29.909,3.098-60.37,5.389-92.018,6.943
				c-49.368,2.423-101.619,3.047-159.136,2.117c-6.268-0.092-12.608-0.215-19.019-0.358c-70.289-1.493-148.512-5.164-238.812-10.563
				c-24.469-1.472-49.838-3.057-76.168-4.765c-34.786-2.26-71.26-4.724-109.625-7.383c-30.962-2.137-63.151-4.397-96.66-6.769
				c-60.145-4.254-135.322-5.716-218.116-5.46c-33.171,0.092-67.569,0.47-102.703,1.053c-57.098,0.931-116.17,2.413-175.159,4.141
				c-73.96,2.137-147.786,4.673-217.42,6.984c-31.923,1.053-62.957,2.066-92.723,2.976c-13.978,0.43-27.67,0.828-41.034,1.207
				c-47.466,1.329-90.893,2.301-128.511,2.648c-30.43,0.286-59.869-3.906-87.764-11.974
				c-135.189-39.02-234.241-168.911-234.241-321.616v-363.734c57.66,7.229,138.88,30.4,209.935,98.418
				c54.153,51.812,102.396,129.688,129.779,246.399c0,0,78.673-56.3,155.465-22.823c17.281,7.526,34.459,19.602,50.636,37.895
				c0,0,15.277-9.918,41.74-23.917c43.447-22.976,117.039-56.934,202.768-76.015c48.785-10.869,101.506-16.923,154.821-13.385
				c6.309,0.409,12.628,0.961,18.948,1.656c56.576,6.217,113.388,23.804,166.468,58.438c0.48,0.317,0.951,0.624,1.431,0.941h0.01
				c2.055,1.36,4.1,2.74,6.146,4.151c1.37,0.941,2.74,1.892,4.111,2.863c0.153,0.102,0.297,0.215,0.45,0.317
				c2.526,1.8,5.051,3.64,7.557,5.522c31.146,23.293,60.779,52.926,88.06,90.116c0,0,212.847,69.575,213.552,77.234
				c0,0,103.872,23.73,130.141,26.389c45.574,4.612,90.565,24.428,119.779,75.156c0,0,67.528-32.956,112.908-22.26
				c10.052,2.372,19.019,6.882,25.911,14.377c4.55,4.918,8.19,11.115,10.675,18.835c0,0,68.878-7.107,145.802-3.886
				c29.265,1.217,59.685,3.937,87.927,9.101c7.526,1.37,14.898,2.924,22.046,4.673c48.417,11.8,86.802,32.414,95.514,67.467
				C2486.104,1888.873,2484.632,1892.073,2480.961,1895.11z"/>
		</g>
	</g>
	<g>
		<path style="fill:#B3D4F4;" d="M2388.545,1910.581l1.217-92.539l6.575-502.379l0.041-1.677l-49,8.426l-215.437,37.036
			l-5.174,257.8l-2.751,137.162l-0.705,34.909l-2.659,132.141c57.517,0.931,109.769,0.307,159.136-2.117
			c31.647-1.554,62.108-3.845,92.018-6.943L2388.545,1910.581z"/>
	</g>
	<g>
		<g>
			<path style="fill:#A9CDF1;" d="M783.378,1154.794l-5.501,449.566l-1.432,117.339l-0.501,41.091l-1.697,139.295
				c-13.978,0.344-27.67,0.664-41.034,0.967c-47.466,1.065-90.893,1.844-128.511,2.122c-30.43,0.229-59.869-3.13-87.764-9.597
				l-2.843-55.039l-21.463-415.368l-12.843-248.561l63.315-4.557h0.01l161.918-11.637L783.378,1154.794z"/>
		</g>
		<g>
			<polygon style="fill:#A9CDF1;" points="705.033,1193.416 545.536,1193.416 537.141,1119.514 705.033,1119.514 			"/>
		</g>
		<g>
			<polygon style="fill:#A9CDF1;" points="660.09,1156.465 590.478,1156.465 590.478,981.927 665.159,975.49 			"/>
		</g>
		<g>
			<rect x="618.988" y="876.113" style="fill:#A9CDF1;" width="12.592" height="174.538"/>
		</g>
	</g>
	<g>
		<path style="fill:#B3D4F4;" d="M2101.633,1921.103c-70.289-1.493-148.512-5.164-238.812-10.563l0.675-66.955l1.217-121.538
			l0.307-31.095l1.002-99.932l2.648-265.541l1.074-107.621l36.484,22.138l22.619,13.722l156.202,94.788l7.679,265.326l4.673,161.11
			l1.984,68.642L2101.633,1921.103z"/>
	</g>
	<g>
		<g>
			<path style="fill:#A9CDF1;" d="M2637.449,1027.003l-6.923,663.785l-1.37,132.336c-0.021,0.01-0.041,0.02-0.062,0.041
				c-42.312,33.202-93.02,57.63-148.134,71.945c-16.412,4.274-33.212,7.628-50.288,10.062c-13.988,1.994-28.017,3.794-42.128,5.409
				c-5.563,0.634-11.135,1.247-16.739,1.82l-3.63-82.467l-0.46-10.471l-20.338-460.721l-13.518-306.186l63.315-5.338h0.01
				l161.917-13.63L2637.449,1027.003z"/>
		</g>
		<g>
			<polygon style="fill:#A9CDF1;" points="2559.106,1072.23 2399.609,1072.23 2391.215,985.7 2559.106,985.7 			"/>
		</g>
		<g>
			<polygon style="fill:#A9CDF1;" points="2514.164,1028.964 2444.552,1028.964 2444.552,824.6 2519.232,817.064 			"/>
		</g>
		<g>
			<rect x="2473.062" y="700.705" style="fill:#A9CDF1;" width="12.592" height="204.364"/>
		</g>
	</g>
	<g>
		<path style="fill:#91BCE8;" d="M1084.39,1892.276c-73.96,1.856-147.786,4.058-217.42,6.065l0.521-48.745l1.063-99.613
			l1.697-159.538l2.955-276.459l196.765,111.832l3.047,98.609l6.973,225.556l3.078,99.613L1084.39,1892.276z"/>
	</g>
	<g>
		<path style="fill:#A7C9F2;" d="M1259.55,1727.517v159.699c-57.098,0.931-116.17,2.413-175.159,4.141
			c-73.96,2.137-147.786,4.673-217.42,6.984c-31.923,1.053-62.957,2.066-92.723,2.976c-13.978,0.43-27.67,0.828-41.034,1.207
			l0.961-175.006H1259.55z"/>
	</g>
	<g>
		<path style="fill:#A1C6ED;" d="M2279.788,1632.647v286.697c-49.368,2.423-101.619,3.047-159.136,2.117
			c-6.268-0.092-12.608-0.215-19.019-0.358c-70.289-1.493-148.512-5.164-238.812-10.563c-24.469-1.472-49.838-3.057-76.168-4.765
			l1.585-179.556l0.123-14.019l1.135-128.879l76.526,7.699l92.835,9.336l133.87,13.477l34.04,3.415L2279.788,1632.647z"/>
	</g>
	<g>
		<path style="fill:#91BCE8;" d="M1677.028,1664.908v233.484c-30.962-2.137-63.151-4.397-96.66-6.769
			c-60.145-4.254-135.322-5.716-218.116-5.46v-221.255H1677.028z"/>
	</g>
	<g style="opacity:0.6;">
		<g>
			<path style="fill:#FFFFFF;" d="M988.706,1015.732c0,0-19.524-37.265-68.927-32.595c-49.403,4.669-43.522,42.023-67.047,38.521
				s-56.46,0-63.518,23.346c-7.057,23.346-38.817,10.506-39.993,30.35c-1.176,19.844,36.464,33.852,79.985,16.342
				c43.521-17.51,64.694,13.603,125.859,7.969s68.743-12.638,104.947-9.136c36.204,3.502,35.344-21.098,18.876-37.441
				C1062.422,1036.744,995.764,1038.301,988.706,1015.732z"/>
		</g>
	</g>
	<g style="opacity:0.6;">
		<g>
			<path style="fill:#FFFFFF;" d="M2301.14,439.722c0,0-20.793-39.687-73.407-34.714c-52.614,4.973-46.351,44.755-71.405,41.025
				c-25.054-3.729-60.131,0-67.647,24.864c-7.516,24.864-41.34,11.189-42.592,32.323c-1.253,21.134,38.834,36.052,85.185,17.404
				c46.35-18.648,68.899,14.487,134.041,8.487c65.141-6,73.212-13.459,111.769-9.73c38.557,3.73,37.642-22.469,20.103-39.875
				S2308.657,463.758,2301.14,439.722z"/>
		</g>
	</g>
	<g style="opacity:0.6;">
		<g>
			<path style="fill:#FFFFFF;" d="M820.233,873.644c0,0-10.397-19.843-36.704-17.357c-26.307,2.486-23.175,22.377-35.702,20.513
				c-12.527-1.865-30.065,0-33.823,12.432c-3.758,12.432-20.67,5.594-21.296,16.161c-0.626,10.567,19.417,18.026,42.592,8.702
				c23.175-9.324,34.45,7.244,67.02,4.243c32.571-3,36.606-6.73,55.884-4.865c19.279,1.865,18.821-11.235,10.052-19.938
				C859.486,884.834,823.991,885.662,820.233,873.644z"/>
		</g>
	</g>
	<g style="opacity:0.6;">
		<g>
			<path style="fill:#FFFFFF;" d="M2181.354,1183.297c0,0-15.837-30.227-55.91-26.44c-40.073,3.787-35.302,34.087-54.385,31.247
				c-19.083-2.841-45.798,0-51.523,18.937c-5.725,18.937-31.486,8.522-32.44,24.618s29.578,27.459,64.88,13.256
				c35.303-14.203,52.477,11.034,102.091,6.464c49.614-4.57,55.761-10.251,85.128-7.411s28.67-17.114,15.311-30.37
				S2187.079,1201.604,2181.354,1183.297z"/>
		</g>
	</g>
	<g>
		<g>
			<path style="fill:#2F1A31;" d="M1704.495,669.927c-5.354,109.493-1.433,219.329-3.119,328.905
				c-0.532,34.575-1.471,69.145-3.083,103.688c-0.378,8.103,12.218,8.084,12.596,0c5.455-116.846,2.733-233.792,4.006-350.707
				c0.297-27.304,0.862-54.611,2.196-81.886C1717.487,661.824,1704.891,661.845,1704.495,669.927L1704.495,669.927z"/>
		</g>
	</g>
	<g>
		<g>
			<path style="fill:#E28569;" d="M1913.536,78.702c-67.374,1.503-135.454,3.753-202.195,6.565
				c-60.002,2.546-118.91,5.522-175.221,8.855c-62.037,3.65-120.935,7.7-174.699,11.974l5.842,44.429
				c-34.459,2.73-71.465,11.872-101.179,14.735c-47.957,4.622-96.744-43.795-143.505-43.151
				c-73.919,1.022-145.782-2.127-213.729-6.933c-86.659-6.104-167-14.868-237.227-21.044c-23.477-2.065-45.84-3.845-66.924-5.123
				c-26.197-1.605-51.669,0.521-76.066,5.92c70.626,266.665,286.502,562.739,540.11,710.648c0.102,0.061,0.204,0.112,0.307,0.184
				c3.926,2.29,7.874,4.54,11.81,6.759c4.427,1.186,9.959,2.066,16.534,2.669h0.01c21.473,1.953,53.969,0.849,94.451-3.057h0.051
				c2.209-0.225,4.448-0.44,6.698-0.685c10.246-1.043,20.952-2.25,32.097-3.64c1.595-0.194,3.201-0.399,4.816-0.603
				c1.534-0.184,3.068-0.388,4.622-0.593c1.544-0.194,3.098-0.399,4.652-0.603c10.021-1.319,20.349-2.771,30.962-4.336
				c5.307-0.777,10.685-1.595,16.125-2.444c6.81-1.053,13.733-2.158,20.727-3.313c1.534-0.235,3.057-0.491,4.591-0.736l0.01-0.01
				c2.331-0.399,4.673-0.787,7.025-1.176c3.967-0.665,7.965-1.35,11.994-2.055c7.188-1.248,14.489-2.546,21.851-3.875
				c2.198-0.409,4.387-0.797,6.595-1.206c13.753-2.536,27.782-5.215,42.057-8.058c1.82-0.348,3.64-0.716,5.46-1.074
				c3.916-0.787,7.874-1.595,11.831-2.403c3.497-0.716,7.025-1.442,10.553-2.178c3.763-0.777,7.546-1.575,11.319-2.372
				c1.892-0.399,3.794-0.798,5.695-1.217c1.902-0.399,3.804-0.808,5.716-1.217c3.19-0.685,6.37-1.37,9.53-2.066
				c2.362-0.521,4.734-1.033,7.096-1.564c4.008-0.879,7.986-1.759,11.953-2.669c3.057-0.685,6.104-1.37,9.121-2.055
				c4.397-1.002,8.773-2.004,13.119-3.016c1.278-0.307,2.567-0.593,3.834-0.9c0.491-0.112,0.982-0.225,1.472-0.337
				c1.565-0.368,3.129-0.736,4.693-1.115c2.045-0.47,4.08-0.951,6.105-1.442c2.454-0.583,4.898-1.176,7.331-1.749
				c7.168-1.728,14.254-3.456,21.258-5.205c2.444-0.603,4.878-1.207,7.281-1.83c3.906-0.982,7.792-1.963,11.636-2.945
				c3.855-0.982,7.679-1.963,11.463-2.965c1.278-0.327,2.536-0.654,3.793-0.992c1.769-0.45,3.507-0.91,5.246-1.37
				c2.25-0.593,4.489-1.186,6.718-1.789c9.642-2.567,19.06-5.154,28.252-7.73c0.9-0.256,1.8-0.511,2.7-0.757
				c2.618-0.736,5.225-1.473,7.812-2.219c1.667-0.48,3.333-0.961,5-1.442c1.749-0.501,3.497-1.002,5.235-1.503
				c2.434-0.726,4.847-1.432,7.229-2.137c1.329-0.368,2.648-0.767,3.967-1.166c1.237-0.368,2.454-0.736,3.681-1.094
				c4.192-1.247,8.323-2.505,12.393-3.753c1.84-0.573,3.681-1.135,5.491-1.708c3.957-1.227,7.863-2.454,11.688-3.671
				c2.935-0.93,5.828-1.881,8.681-2.812c5.491-1.789,10.829-3.569,16.023-5.327c38.58-13.129,68.704-25.502,87.498-36.146h0.01
				c6.984-3.957,12.383-7.659,16.084-11.084c0.02,0,0.02-0.021,0.031-0.021c1.851-2.526,3.691-5.061,5.512-7.618
				c42.578-59.48,79.236-126.425,109.574-197.645c49.623-116.446,82.365-244.323,96.547-369.644
				C1993.304,77.178,1953.538,77.812,1913.536,78.702z"/>
		</g>
		<g>
			<path style="fill:#D3755F;" d="M1935.817,446.495c-30.339,71.219-66.996,138.164-109.574,197.645
				c-1.82,2.556-3.661,5.092-5.512,7.618c-0.01,0-0.01,0.021-0.031,0.021c-3.702,3.425-9.1,7.127-16.084,11.084h-0.01
				c-18.794,10.645-48.918,23.017-87.498,36.146c-5.194,1.759-10.532,3.538-16.023,5.327c-2.853,0.931-5.747,1.881-8.681,2.812
				c-3.824,1.217-7.73,2.444-11.688,3.671c-1.81,0.573-3.651,1.135-5.491,1.708c-4.07,1.247-8.201,2.505-12.393,3.753
				c-1.227,0.358-2.444,0.726-3.681,1.094c-1.319,0.399-2.638,0.798-3.967,1.166c-2.383,0.706-4.796,1.411-7.229,2.137
				c-1.738,0.501-3.487,1.002-5.235,1.503c-1.667,0.481-3.333,0.961-5,1.442c-2.587,0.747-5.194,1.483-7.812,2.219
				c-0.9,0.245-1.8,0.501-2.7,0.757c-9.193,2.577-18.61,5.164-28.252,7.73c-2.229,0.603-4.469,1.196-6.718,1.789
				c-1.738,0.46-3.476,0.92-5.246,1.37c-1.258,0.337-2.515,0.665-3.793,0.992c-3.783,1.002-7.608,1.984-11.463,2.965
				c-3.845,0.982-7.73,1.963-11.636,2.945c-2.403,0.624-4.837,1.227-7.281,1.83c-7.004,1.749-14.09,3.477-21.258,5.205
				c-2.434,0.573-4.877,1.166-7.331,1.749c-2.025,0.491-4.059,0.971-6.105,1.442c-1.564,0.378-3.129,0.747-4.693,1.115
				c-0.491,0.112-0.982,0.225-1.472,0.337c-1.268,0.307-2.556,0.593-3.834,0.9c-4.346,1.012-8.722,2.014-13.119,3.016
				c-3.016,0.685-6.064,1.37-9.121,2.055c-3.967,0.91-7.945,1.789-11.953,2.669c-2.362,0.532-4.734,1.043-7.096,1.564
				c-3.16,0.695-6.34,1.38-9.53,2.066c-1.912,0.409-3.814,0.818-5.716,1.217c-1.902,0.419-3.804,0.818-5.695,1.217
				c-3.773,0.797-7.557,1.595-11.319,2.372c-3.528,0.736-7.055,1.462-10.553,2.178c-3.957,0.808-7.914,1.616-11.831,2.403
				c-1.82,0.358-3.64,0.726-5.46,1.074c-14.275,2.843-28.304,5.522-42.057,8.058c-2.209,0.409-4.397,0.798-6.595,1.206
				c-7.362,1.329-14.663,2.628-21.851,3.875c-4.029,0.705-8.027,1.391-11.994,2.055c-2.352,0.389-4.693,0.777-7.025,1.176
				l-0.01,0.01c-1.534,0.245-3.057,0.501-4.591,0.736c-6.994,1.155-13.917,2.26-20.727,3.313c-5.44,0.849-10.818,1.667-16.125,2.444
				c-10.614,1.565-20.941,3.016-30.962,4.336c-1.554,0.204-3.108,0.409-4.652,0.603c-1.554,0.205-3.088,0.409-4.622,0.593
				c-1.615,0.205-3.221,0.409-4.816,0.603c-11.145,1.391-21.851,2.597-32.097,3.64c-2.25,0.245-4.489,0.46-6.698,0.685h-0.051
				c-40.482,3.906-72.978,5.01-94.451,3.057h-0.01c-6.575-0.603-12.107-1.483-16.534-2.669c-3.937-2.219-7.884-4.468-11.81-6.759
				c-0.102-0.072-0.204-0.123-0.307-0.184C815.135,657.668,599.259,361.595,528.633,94.929c24.397-5.399,49.869-7.526,76.066-5.92
				c21.084,1.278,43.447,3.057,66.924,5.123c70.227,6.176,150.567,14.939,237.227,21.044c67.947,4.806,139.81,7.955,213.729,6.933
				c46.76-0.644,94.339-2.965,142.295-7.587c29.715-2.863,62.078-5.695,96.537-8.426h0.01c0,0,3.538,5.869,10.501,16.085
				C1418.469,190.433,1618.025,452.385,1935.817,446.495z"/>
		</g>
		<g style="opacity:0.7;">
			<path style="fill:#FFFFFF;" d="M1272.557,730.926l-139.786,45.949c0,0-3.602-3.514-10.202-10.228
				c-55.811-56.73-326.074-342.197-450.947-672.516c70.233,6.172,150.568,14.938,237.225,21.047
				c72.425,171.338,186.012,371.318,355.284,604.185C1266.927,723.217,1269.736,727.059,1272.557,730.926z"/>
		</g>
		<g>
			<path style="fill:#FFFFFF;" d="M1913.534,78.701c-28.189,269.659-112.063,504.113-129.331,550.301
				c-2.028,5.416-3.136,8.237-3.136,8.237l-146.297,15.669c0.856-4.081,1.713-8.162,2.557-12.218
				c44.462-214.226,67.449-397.92,74.012-555.427C1778.081,82.455,1846.16,80.2,1913.534,78.701z"/>
		</g>
		<g style="opacity:0.9;">
			<path style="fill:#FFFFFF;" d="M1554.749,674.384l-156.11,33.63c-1.033-1.373-5.252-8.25-12.067-19.977
				c-39.298-67.601-164.964-296.601-263.991-565.932c46.755-0.642,94.341-2.96,142.292-7.582
				c76.077-7.343,169.448-14.409,271.246-20.405c8.88,191.176,13.969,386.294,18.138,559.672
				C1554.421,660.693,1554.585,667.557,1554.749,674.384z"/>
		</g>
		<g>
			<path style="fill:#523456;" d="M1826.241,644.139c0.357-1.149,0.417-2.246,0.195-3.281
				c-5.455-25.324-179.559-9.315-388.878,35.769c-209.319,45.084-374.576,102.17-369.122,127.494l7.122,33.064l116.439-25.08
				c69.822-6.752,163.388-21.811,265.315-43.764c101.921-21.953,193.383-46.747,259.791-69.336l116.454-25.083L1826.241,644.139z"/>
		</g>
		<g>
			<path style="fill:#2F1A31;" d="M1833.557,673.921c0.223,1.036,0.163,2.132-0.194,3.281c-0.694,2.34-2.553,4.885-5.511,7.621
				c-0.011,0.002-0.019,0.016-0.03,0.018c-30.898,28.511-180.288,77.125-363.389,116.563
				c-179.198,38.597-332.595,55.895-376.447,44.179c-6.232-1.658-10.241-3.908-11.815-6.764c-0.286-0.532-0.493-1.069-0.615-1.636
				c-5.455-25.324,159.803-82.409,369.122-127.494C1653.998,664.606,1828.103,648.597,1833.557,673.921z"/>
		</g>
	</g>
	<g>
		<g>
			<path style="fill:#2F1A31;" d="M1404.188,752.147c1.274,13.598,2.549,27.195,3.823,40.793c3.06,32.648,6.12,65.296,9.179,97.945
				c3.685,39.317,7.37,78.634,11.054,117.951c3.2,34.146,6.4,68.292,9.6,102.438c1.555,16.592,2.894,33.22,4.666,49.791
				c0.025,0.232,0.044,0.465,0.065,0.698c0.664,7.084,11.822,7.153,11.151,0c-1.274-13.598-2.549-27.195-3.823-40.793
				c-3.06-32.648-6.12-65.296-9.179-97.944c-3.685-39.317-7.37-78.634-11.054-117.951c-3.2-34.146-6.4-68.292-9.6-102.438
				c-1.555-16.592-2.894-33.22-4.666-49.791c-0.025-0.232-0.044-0.465-0.065-0.698
				C1414.676,745.063,1403.518,744.993,1404.188,752.147L1404.188,752.147z"/>
		</g>
	</g>
	<g>
		<g>
			<path style="fill:#2F1A31;" d="M1523.215,722.405c51.407,98.907,106.025,196.14,163.796,291.471
				c16.312,26.917,32.878,53.678,49.681,80.291c3.822,6.053,13.475,0.464,9.629-5.628
				c-59.511-94.254-115.959-190.435-169.174-288.383c-15.025-27.655-29.788-55.452-44.303-83.379
				C1529.533,710.407,1519.907,716.039,1523.215,722.405L1523.215,722.405z"/>
		</g>
	</g>
	<g>
		<g>
			<path style="fill:#2F1A31;" d="M1230.528,780.034c38.961,43.884,74.576,90.815,109.846,137.673
				c31.936,42.428,63.286,85.298,94.223,128.459c6.165,8.601,12.322,17.208,18.427,25.852c4.108,5.816,13.781,0.251,9.629-5.628
				c-17.59-24.907-35.46-49.62-53.419-74.263c-36.29-49.795-73.08-99.255-111.17-147.693c-19.306-24.552-38.91-48.923-59.651-72.285
				C1233.639,766.772,1225.776,774.682,1230.528,780.034L1230.528,780.034z"/>
		</g>
	</g>
	<g>
		<g>
			<g>
				<path style="fill:#E28569;" d="M1050.153,1145.86c35.383-45.268,122.677-47.792,207.813-118.118
					c12.857-10.62,32.449,95.62,34.084,121.681c1.635,26.062-51.072,40.792-108.096,55.66
					c-55.168,14.384-92.054,1.408-107.311-0.223C1076.642,1204.859,1033.031,1167.766,1050.153,1145.86z"/>
			</g>
			<g>
				<polygon style="fill:#F7B686;" points="1569.978,1097.946 1655.167,1127.017 1676.487,1081.395 1640.168,1054.195 				"/>
			</g>
			<g>
				<g>
					<path style="fill:#F7B686;" d="M1713.925,1087.658c-22.218-6.063-37.438-6.263-37.438-6.263s-23.841,41.39-21.32,45.622
						c5.813,9.762,21.538,26.534,27.535,36.186c2.6,4.185,12.291,17.681,16.705,15.761c3.836-1.669,1.104-15.921-1.005-22.57
						c29.511,13.272,78.115,19.534,18.157-12.736c0.017-0.032,0.033-0.066,0.05-0.098c6.347,2.709,41.662,17.777,41.695,7.954
						c0.029-8.67-24.839-20.499-35.236-25.066c0.029-0.1,0.057-0.201,0.086-0.301c10.943,3.733,37.571,12.062,34.94,3.738
						c-3.302-10.448-30.269-24.062-30.269-24.062s34.813,16.64,32.466,4.159c-1.601-8.513-31.812-17.661-42.176-21.341
						C1716.608,1088.106,1715.222,1087.799,1713.925,1087.658z"/>
				</g>
			</g>
			<g>
				<g>
					<path style="fill:#E28569;" d="M1398.206,980.59c0,0-62.618-13.028-154.17,65.238c-63.192,54.022-71.64,73.746-15.669,139.569
						c68.931,81.064,101.956,192.226,134.582,234.904c0,0,29.612-63.023,215.801-153.84c0,0-70.262-121.359-122.983-188.913
						c-5.605-7.183,46.278,12.554,40.903,5.139C1464.715,1038.601,1429.403,997.918,1398.206,980.59z"/>
				</g>
			</g>
			<g>
				<g>
					<path style="fill:#F7B686;" d="M1307.084,1002.444c-4.785,17.005-25.635,39.602-42.558,39.091
						c-13.589-0.399-6.329-12.782-5.542-15.328c1.943-6.278,2.689-12.015,0.664-17.465l-2.382-6.442l-0.593-1.595l-3.886-10.481
						l-5.532-14.909l-15.696-42.292l30.093,36.545l5.113,6.217l4.714,5.726h0.01c0,0,0,0,0,0.01l12.863,15.614
						C1290.028,1004.029,1302.105,1004.234,1307.084,1002.444z"/>
				</g>
			</g>
			<g>
				<g>
					<path style="fill:#2F1A31;" d="M1674.863,1072.283c0,0-16.998,38.085-31.678,54.255c0,0,8.208,8.228,14.856,7.02
						c0,0,28.275-40.836,30.823-52.791C1688.863,1080.767,1685.956,1069.025,1674.863,1072.283z"/>
				</g>
			</g>
			<g>
				<g>
					<path style="fill:#56335B;" d="M1682.671,1109.84l1.582-2.71c3.777-6.469,1.481-15.025-5.103-19.015l-4.534-2.748
						c-6.583-3.99-15.06-1.961-18.837,4.508l-1.582,2.71c-3.777,6.469-1.481,15.025,5.103,19.015l4.534,2.748
						C1670.417,1118.337,1678.894,1116.308,1682.671,1109.84z"/>
				</g>
			</g>
			<g>
				<g>
					<path style="fill:#E28569;" d="M1338.398,988.868c0,0,59.313-33.833,199.404,13.589
						c135.182,45.762,125.351,66.047,125.351,66.047s-22.44,40.225-34.511,50.22s-136.835-42.017-195.059-42.782
						C1375.358,1075.177,1290.393,1048.039,1338.398,988.868z"/>
				</g>
			</g>
			<g>
				<path style="fill:#2F1A31;" d="M1271.49,981.513c0,0,0,0,0,0.01c-0.092,0.491-3.252,17.24-14.223,20.778l-0.593-1.595
					l-3.886-10.481l18.692-8.712H1271.49z"/>
			</g>
			<g>
				<path style="fill:#E28569;" d="M1086.317,968.105c0,0-82.452,164.222-45.521,215.6c19.493,27.119,75.258,28.364,98.549,27.448
					c21.792-0.857-9.784-53.541-7.209-76.217c5.454-48.025,11.683-145.436,11.683-145.436L1086.317,968.105z"/>
			</g>
			<g>
				<g>
					<path style="fill:#56335B;" d="M1192.474,930.901c0,0,1.644,11.198,9.516,22.813c7.873,11.616,7.459-24.835,7.459-24.835
						L1192.474,930.901z"/>
				</g>
			</g>
			<g>
				<g>
					
						<ellipse transform="matrix(0.9612 -0.276 0.276 0.9612 -213.4474 379.0828)" style="fill:#F7B686;" cx="1240.004" cy="947.834" rx="39.32" ry="48.536"/>
				</g>
			</g>
			<g>
				<g>
					<g>
						<path style="fill:#060633;" d="M1236.888,948.172c-0.222,0.095-0.484,0.085-0.71-0.051c-0.382-0.229-0.516-0.727-0.3-1.116
							c0.128-0.229,2.599-5.826,9.493-4.599c0.435,0.077,0.741,0.486,0.68,0.932c-0.06,0.446-0.459,0.653-0.898,0.683
							c-4.392,0.299-7.782,3.623-7.889,3.813C1237.175,947.992,1237.041,948.107,1236.888,948.172z"/>
					</g>
				</g>
			</g>
			<g>
				<g>
					<path style="fill:#060633;" d="M1244.532,955.086c0.262,1.927-0.638,3.626-2.01,3.795c-1.372,0.169-2.696-1.256-2.957-3.183
						c-0.262-1.927,0.638-3.626,2.01-3.795C1242.946,951.734,1244.27,953.159,1244.532,955.086z"/>
				</g>
			</g>
			<g>
				<g>
					<g>
						<path style="fill:#060633;" d="M1208.678,955.034c-0.188-0.003-0.374-0.117-0.496-0.331c-0.207-0.361-0.156-0.868,0.115-1.135
							c0.16-0.156,3.599-4.251,8.197-0.367c0.29,0.245,0.389,0.739,0.213,1.12c-0.175,0.381-0.524,0.41-0.849,0.26
							c-3.25-1.492-6.676,0.167-6.809,0.297C1208.938,954.985,1208.808,955.036,1208.678,955.034z"/>
					</g>
				</g>
			</g>
			<g>
				<g>
					<path style="fill:#060633;" d="M1219.101,960.787c0.962,1.693,0.772,3.624-0.424,4.313c-1.196,0.689-2.945-0.125-3.907-1.818
						c-0.962-1.693-0.772-3.624,0.424-4.313S1218.139,959.094,1219.101,960.787z"/>
				</g>
			</g>
			<g>
				<g>
					<path style="fill:#2F1A31;" d="M1297.298,915.949c0,0-0.941,31.865-17.317,41.005c0,0,5.382-26.23-29.118-26.456
						C1250.863,930.498,1275.961,914.937,1297.298,915.949z"/>
				</g>
			</g>
			<g>
				<g>
					<path style="fill:#F7B686;" d="M1279.227,940.856c-2.678,3.931-7.682,5.096-11.177,2.601c-3.495-2.495-4.158-7.704-1.48-11.635
						c2.678-3.931,7.682-5.096,11.177-2.601C1281.242,931.715,1281.905,936.924,1279.227,940.856z"/>
				</g>
			</g>
			<g>
				<g>
					<path style="fill:#2F1A31;" d="M1250.863,930.498c0,0-4.139-16.742-16.644-12.842c-12.505,3.9-27.101,7.553-30.49,12.719
						c-3.389,5.165-3.799,20.062-3.799,20.062s-16.443-20.832-8.55-35.97c7.893-15.138,40.929-44.507,72.881-37.208
						c31.952,7.298,33.037,38.69,33.037,38.69S1277.421,917.793,1250.863,930.498z"/>
				</g>
			</g>
			<g>
				<path style="fill:#2F1A31;" d="M1234.668,985.212l-0.396-1.115c0.086-0.031,8.598-3.161,9.898-11.548l1.169,0.182
					C1243.93,981.826,1235.046,985.078,1234.668,985.212z"/>
			</g>
			<g>
				<g>
					<polygon style="fill:#56335B;" points="1181.16,932.068 1231.09,935.046 1243.862,965.664 1209.544,1000.113 					"/>
				</g>
				<g>
					<polygon style="fill:#56335B;" points="1119.543,959.515 1165.565,961.681 1178.337,992.299 1146.409,1024.852 					"/>
				</g>
				<g>
					<path style="fill:#56335B;" d="M1109.034,968.575c0,0,32.016-44.865,75.964-36.277c43.948,8.588-20.547,46.683-20.547,46.683
						l-43.996,12.185L1109.034,968.575z"/>
				</g>
				<g>
					<path style="fill:#56335B;" d="M1243.637,965.758l-89.199,37.208c-7.889,3.291-16.952-0.437-20.243-8.326l-0.855-2.05
						c-3.291-7.889,0.437-16.952,8.326-20.243l89.199-37.208c7.889-3.291,16.952,0.437,20.243,8.326l0.855,2.05
						C1255.253,953.405,1251.526,962.468,1243.637,965.758z"/>
				</g>
				<g>
					
						<ellipse transform="matrix(0.9229 -0.385 0.385 0.9229 -296.4894 509.8779)" style="fill:#2F1A31;" cx="1125.118" cy="995.388" rx="29.584" ry="36.864"/>
				</g>
				<g>
					
						<ellipse transform="matrix(0.9229 -0.385 0.385 0.9229 -296.4926 509.887)" style="fill:#81B3CC;" cx="1125.118" cy="995.388" rx="19.434" ry="24.216"/>
				</g>
				<g>
					<path style="fill:#DEEBE9;" d="M1116.106,977.815c0,0-9.918,16.327-3.584,23.844c6.334,7.516,6.094-10.161,10.069-15.375
						C1126.566,981.07,1122.864,970.424,1116.106,977.815z"/>
				</g>
				<g>
					
						<ellipse transform="matrix(0.9229 -0.385 0.385 0.9229 -280.6532 533.3944)" style="fill:#2F1A31;" cx="1191.755" cy="967.591" rx="29.584" ry="36.864"/>
				</g>
				<g>
					
						<ellipse transform="matrix(0.9229 -0.385 0.385 0.9229 -280.6552 533.4013)" style="fill:#81B3CC;" cx="1191.755" cy="967.591" rx="19.434" ry="24.216"/>
				</g>
				<g>
					<path style="fill:#DEEBE9;" d="M1182.743,950.018c0,0-9.918,16.327-3.584,23.844s6.094-10.161,10.069-15.375
						S1189.5,942.628,1182.743,950.018z"/>
				</g>
			</g>
			<g>
				<path style="fill:#2F1A31;" d="M1259.552,876.445c0,0-5.225-9.847-19.018-4.528c-13.793,5.319-23.74,15.114-38.574,18.696
					s-23.422,37.615-9.486,40.288c13.936,2.673,27.547-30.971,27.547-30.971L1259.552,876.445z"/>
			</g>
			<g>
				<path style="fill:#F7B686;" d="M1089.796,970.18c0,0,15.21-24.795,38.19-35.249c22.98-10.454,44.301-4.697,38.211-0.147
					c-6.089,4.55-24.196,6.519-24.196,6.519s16.763-0.166,8.635,4.557c-8.128,4.724-24.384,9.112-24.384,9.112
					s14.925-4.412,12.375,2.441c-2.549,6.853-23.003,0.74-27.7,3.952c-4.697,3.212-13.077,12.646-13.077,12.646L1089.796,970.18z"/>
			</g>
		</g>
		<g>
			<g>
				<path style="fill:#79A39B;" d="M1986.909,881.147c0,0-1.244,146.455-16.791,147.016c-15.547,0.561-82.714-65.229-114.738-65.915
					l24.867,125.479c0,0,57.844,57.743,131.536,47.721c73.692-10.022,46.641-235.231,46.641-235.231L1986.909,881.147z"/>
			</g>
			<g>
				<g>
					<path style="fill:#2F1A31;" d="M1873.042,813.265c0,0,5.472-36.433-28.364-40.496c-33.836-4.063-26.913,20.583-33.255,26.68
						s8.684,24.889,24.931,27.722C1852.601,830.005,1873.042,813.265,1873.042,813.265z"/>
				</g>
			</g>
			<g>
				<g>
					<path style="fill:#79A39B;" d="M1904.993,1061.768c20.433-3.651,40.127-11.361,40.127-11.361s-23.476-76.991-107.774-92.487
						c-11.674-2.146-65.913-5.601-77.548-6.33c-149.325-9.361-155.519,295.494-156.509,301.879
						c159.815-27.543,280.274,29.694,280.274,29.694C1911.114,1173.008,1905.969,1067.84,1904.993,1061.768z"/>
				</g>
			</g>
			<g>
				<g>
					<path style="fill:#F7B686;" d="M1774.619,952.424c9.322,17.115,22.49,25.056,41.075,29.515
						c28.143,6.752,21.651-24.018,21.651-24.018c-6.876-1.815-9.85-6.059-8.852-12.764l1.248-8.236l0.622-4.082l1.954-13.051
						l1.765-11.718l7.237-48.06l-24.478,44.832l-4.161,7.615l-14.346,26.279c-4.582,8.376-13.6,13.556-23.564,13.688
						C1774.726,952.419,1774.665,952.428,1774.619,952.424z"/>
				</g>
			</g>
			<g>
				<g>
					<path style="fill:#2F1A31;" d="M1812.681,912.457c0,0,4.966,15.901,17.683,20.383l1.954-13.051
						C1824.551,916.297,1812.681,912.457,1812.681,912.457z"/>
				</g>
			</g>
			<g>
				<g>
					<path style="fill:#2F1A31;" d="M1773.632,863.12c0,0,3.683,7.362,2.598,24.27c-1.587,24.74,28.559,28.559,34.205,20.402
						c0.698-1.009-9.443-40.377-9.443-40.377l-10.077-3.168L1773.632,863.12z"/>
				</g>
			</g>
			<g>
				<g>
					
						<ellipse transform="matrix(0.9665 -0.2567 0.2567 0.9665 -160.8477 500.2892)" style="fill:#F7B686;" cx="1835.524" cy="866.14" rx="47.695" ry="56.264"/>
				</g>
			</g>
			<g>
				<g>
					<path style="fill:#2F1A31;" d="M1844.481,820.124c-0.915,1.959,12.822,28.629-40.543,46.963
						c-53.365,18.334-34.751-52.066,5.425-62.055c58.01-14.423,75.003,21.232,72.436,35.898
						C1879.231,855.597,1844.481,820.124,1844.481,820.124z"/>
				</g>
			</g>
			<g>
				<g>
					<path style="fill:#2F1A31;" d="M1807.954,856.823c0,0-17.331,27.265-4.338,48.648c0,0-16.076-10.792-17.508-15.786
						c-1.432-4.994-2.107-23.977-2.107-23.977L1807.954,856.823z"/>
				</g>
			</g>
			<g>
				<g>
					<path style="fill:#F7B686;" d="M1796.957,882.956c6.377,3.693,13.882,2.624,16.764-2.387
						c2.882-5.011,0.049-12.067-6.328-15.759c-6.377-3.693-13.882-2.624-16.764,2.387
						C1787.747,872.208,1790.58,879.264,1796.957,882.956z"/>
				</g>
			</g>
			<g>
				<g>
					<g>
						<path style="fill:#060633;" d="M1840.159,865.716c0.293-0.146,0.513-0.417,0.572-0.75c0.1-0.564-0.295-1.096-0.886-1.19
							c-0.348-0.055-8.287-2.046-13.086,5.823c-0.302,0.496-0.151,1.127,0.362,1.423c0.512,0.295,1.077,0.062,1.494-0.353
							c4.17-4.152,10.575-4.891,10.865-4.847C1839.721,865.858,1839.957,865.816,1840.159,865.716z"/>
					</g>
				</g>
			</g>
			<g>
				<g>
					<g>
						<path style="fill:#060633;" d="M1879.255,862.982c0.328-0.029,0.64-0.199,0.828-0.488c0.318-0.486,0.165-1.123-0.342-1.424
							c-0.299-0.177-6.827-4.908-14.396,0.643c-0.477,0.35-0.59,0.99-0.235,1.45c0.354,0.46,0.968,0.449,1.519,0.215
							c5.505-2.333,11.708-0.691,11.957-0.545C1878.793,862.955,1879.028,863.002,1879.255,862.982z"/>
					</g>
				</g>
			</g>
			<g>
				<g>
					<path style="fill:#060633;" d="M1868.678,872.791c-0.541,2.421,0.512,4.679,2.352,5.043c1.84,0.364,3.769-1.303,4.31-3.724
						c0.541-2.421-0.512-4.679-2.352-5.043C1871.149,868.702,1869.219,870.37,1868.678,872.791z"/>
				</g>
			</g>
			<g>
				<g>
					<path style="fill:#2F1A31;" d="M1798.733,817.735c0,0-12.472-34.728-44.637-23.671c-32.166,11.057-21.379,27.426-16.997,38.109
						c3.265,7.959,19.618,18.34,35.483,13.814C1788.447,841.462,1798.733,817.735,1798.733,817.735z"/>
				</g>
			</g>
			<g>
				<g>
					<path style="fill:#DEEBE9;" d="M1837.346,957.921c0,0,5.228,29.774-21.651,24.018c0,0,10.821,16.777,21.936,13.753
						c11.115-3.024,2.856-10.063,7.897-12.648c5.041-2.584,10.261-4.072,7.085-9.26c-3.177-5.188,2.768-11.537,2.768-11.537
						S1844.384,956.892,1837.346,957.921z"/>
				</g>
			</g>
			<g>
				<g>
					<path style="fill:#DEEBE9;" d="M1830.612,1027.155c0.531-2.212,2.841-3.554,5.161-2.997c2.32,0.557,3.77,2.801,3.24,5.013
						c-0.531,2.212-2.841,3.553-5.161,2.997C1831.532,1031.611,1830.082,1029.367,1830.612,1027.155z"/>
				</g>
			</g>
			<g>
				<g>
					<path style="fill:#DEEBE9;" d="M1817.389,1159.999c0.531-2.212,2.841-3.554,5.161-2.997c2.32,0.557,3.77,2.801,3.24,5.013
						c-0.531,2.212-2.841,3.553-5.161,2.997C1818.309,1164.454,1816.858,1162.21,1817.389,1159.999z"/>
				</g>
			</g>
			<g>
				<g>
					<path style="fill:#DEEBE9;" d="M1831.369,1101.723c0.531-2.212,2.841-3.554,5.161-2.997c2.32,0.557,3.77,2.801,3.24,5.012
						c-0.531,2.212-2.841,3.554-5.161,2.997C1832.289,1106.179,1830.839,1103.935,1831.369,1101.723z"/>
				</g>
			</g>
			<g>
				<path style="fill:#FFFFFF;" d="M1864.669,895.724c0,0-3.307,11.097-15.173,10.133c-12.821-1.041-14.683-11.341-14.683-11.341
					S1851.635,899.224,1864.669,895.724z"/>
			</g>
			<g>
				<g>
					<path style="fill:#2F1A31;" d="M1874.284,893.305l132.881-5.987c6.77-0.305,12.018-6.217,11.722-13.206l-0.626-14.812
						c-0.296-6.988-6.023-12.406-12.792-12.101l-132.881,5.987c-6.77,0.305-12.018,6.217-11.722,13.206l0.626,14.812
						C1861.787,888.192,1867.515,893.61,1874.284,893.305z"/>
				</g>
				<g>
					<path style="fill:#6F4975;" d="M1957.355,903.63l128.237-5.778c8.857-0.399,15.723-8.134,15.337-17.277l-1.399-33.087
						c-0.386-9.143-7.88-16.231-16.737-15.832l-128.237,5.778c-8.857,0.399-15.723,8.134-15.337,17.277l1.399,33.087
						C1941.005,896.941,1948.498,904.029,1957.355,903.63z"/>
				</g>
				<g>
					<path style="fill:#E28569;" d="M2062.224,908.153l203.377-9.164c7.26-0.327,12.887-6.667,12.571-14.161l-2.432-57.519
						c-0.317-7.494-6.458-13.304-13.718-12.977l-203.377,9.164c-7.259,0.327-12.887,6.667-12.571,14.161l2.432,57.519
						C2048.823,902.67,2054.964,908.48,2062.224,908.153z"/>
				</g>
				<g>
					<path style="fill:#2F1A31;" d="M2277.187,904.969l10.098-0.455c5.565-0.251,9.879-5.111,9.636-10.856l-3.307-78.22
						c-0.243-5.745-4.951-10.199-10.516-9.948L2273,805.945c-5.565,0.251-9.88,5.111-9.637,10.856l3.307,78.22
						C2266.913,900.766,2271.622,905.219,2277.187,904.969z"/>
				</g>
			</g>
			<g>
				<g>
					<path style="fill:#F7B686;" d="M2009.129,817.359c0,0,16.865-4.964,21.147,10.959c5.455,20.288-6.593,50.963-10.22,38.157
						c-3.216-11.354-3.717-23.83-3.717-23.83s1.183,39.126-7.755,36.332c-8.938-2.794-10.174-34.677-10.174-34.677
						s-2.002,36.999-9.618,31.537c-7.616-5.462-8.855-27.827-8.855-27.827s0.112,30.121-8.591,23.563
						c-8.703-6.558-4.332-28.28-4.517-37.919c-0.175-9.109,5.456-12.175,13.98-11.719c0,0,8.741-4.639,14.237-2.89
						c2.107,0.671,4.147-1.426,5.686-1.647C2003.675,816.972,2009.129,817.359,2009.129,817.359z"/>
				</g>
			</g>
			<g>
				<g>
					<path style="fill:#2F1A31;" d="M1832.658,878.94c4.063-1.953,8.436-2.343,12.794-1.204c1.453,0.38,2.073-1.869,0.62-2.249
						c-4.989-1.304-9.947-0.793-14.591,1.44C1830.129,877.577,1831.311,879.588,1832.658,878.94L1832.658,878.94z"/>
				</g>
			</g>
			<g>
				<g>
					<path style="fill:#5C8980;" d="M1967.911,1089.767c-3.334-15.054-3.377-30.644,0.225-45.661
						c3.48-14.512,9.943-28.471,15.26-42.383c0.536-1.403-1.717-2.01-2.249-0.62c-5.741,15.021-12.86,30.138-16.049,45.959
						c-2.891,14.343-2.596,29.058,0.564,43.325C1965.987,1091.851,1968.236,1091.231,1967.911,1089.767L1967.911,1089.767z"/>
				</g>
			</g>
			<g>
				<g>
					<path style="fill:#5C8980;" d="M1904.72,1077.307c-1.729,9.681-0.483,19.268,0.979,28.895c0.225,1.479,2.472,0.851,2.249-0.62
						c-1.399-9.211-2.634-18.393-0.979-27.655C1907.231,1076.46,1904.984,1075.83,1904.72,1077.307L1904.72,1077.307z"/>
				</g>
			</g>
		</g>
		<g>
			<g>
				<path style="fill:#CE6B55;" d="M1201.806,1159.67c14.764,10.92,26.942,24.705,36.024,40.662c0.814,1.43,3.023,0.143,2.207-1.29
					c-9.303-16.346-21.821-30.396-36.941-41.579C1201.773,1156.484,1200.496,1158.701,1201.806,1159.67L1201.806,1159.67z"/>
			</g>
		</g>
		<g>
			<g>
				<path style="fill:#CE6B55;" d="M1416.323,1081.267c14.642-2.875,29.532,0.166,44.283-1.271c1.623-0.158,1.639-2.716,0-2.556
					c-14.989,1.46-30.077-1.561-44.963,1.363C1414.03,1079.119,1414.713,1081.584,1416.323,1081.267L1416.323,1081.267z"/>
			</g>
		</g>
		<g>
			<g>
				<path style="fill:#CE6B55;" d="M1136.479,1086.521c-1.459,23.994-5.773,48.505-20.28,68.314
					c-0.973,1.329,1.244,2.605,2.207,1.29c14.76-20.155,19.144-45.192,20.629-69.604
					C1139.136,1084.878,1136.579,1084.884,1136.479,1086.521L1136.479,1086.521z"/>
			</g>
		</g>
	</g>
	<g>
		<g>
			<path style="fill:#D39776;" d="M1947.252,1620.387c-27.424,41.535-70.493,72.773-122.99,84.083l-308.017,66.342
				c-106.445,22.925-211.316-44.777-234.241-151.222l-73.315-340.4l117.622-25.338l575.847-124.033l73.315,340.41
				C1987.089,1524.177,1975.432,1577.717,1947.252,1620.387z"/>
		</g>
		<g>
			<path style="fill:#E2AC88;" d="M1947.252,1620.387c-5.563,1.728-11.248,3.221-17.056,4.468l-308.016,66.342
				c-106.435,22.925-211.306-44.777-234.231-151.212l-61.638-286.135l575.847-124.033l73.315,340.41
				C1987.089,1524.177,1975.432,1577.717,1947.252,1620.387z"/>
		</g>
		<g>
			<path style="fill:#FFE1C5;" d="M1568.561,1404.401c-19.745,0-38.463-5.968-55.846-17.833
				c-17.758-12.123-34.105-30.395-48.586-54.311c-24.446-40.371-35.038-82.375-35.477-84.144c-0.573-2.309,0.834-4.644,3.142-5.217
				c2.311-0.574,4.645,0.833,5.219,3.141c0.105,0.422,10.769,42.656,34.579,81.912c13.836,22.812,29.33,40.157,46.053,51.553
				c20.578,14.023,43.179,19.021,67.187,14.849c28.043-4.873,50.475-18.282,66.674-39.856
				c13.095-17.441,22.247-40.269,27.202-67.848c8.512-47.388,1.554-92.642,1.483-93.093c-0.371-2.351,1.233-4.556,3.583-4.927
				c2.355-0.374,4.556,1.234,4.927,3.583c0.301,1.903,7.254,47.155-1.514,95.961c-5.194,28.915-14.881,52.971-28.791,71.497
				c-17.56,23.385-41.814,37.91-72.09,43.171C1580.309,1403.881,1574.388,1404.401,1568.561,1404.401z"/>
		</g>
		<g>
			<path style="fill:#FFE1C5;" d="M1337.819,1454.311c-18.333,0-35.832-6.437-52.182-19.225
				c-15.953-12.478-30.815-31.019-44.171-55.11c-22.552-40.676-33.264-83.948-33.37-84.381c-0.528-2.165,0.798-4.349,2.963-4.877
				c2.169-0.531,4.349,0.798,4.878,2.962c0.104,0.423,10.601,42.776,32.659,82.511c12.826,23.104,26.979,40.794,42.068,52.579
				c18.461,14.421,38.436,19.95,59.372,16.432c24.44-4.106,43.776-16.792,57.47-37.706c11.14-17.012,18.665-39.496,22.365-66.825
				c6.368-47.029-0.945-92.487-1.02-92.94c-0.361-2.2,1.127-4.276,3.326-4.637c2.2-0.364,4.275,1.126,4.637,3.325
				c0.312,1.894,7.573,46.959,1.076,95.171c-3.849,28.568-11.786,52.206-23.588,70.259c-14.98,22.914-36.153,36.813-62.93,41.312
				C1346.81,1453.928,1342.288,1454.311,1337.819,1454.311z"/>
		</g>
		<g>
			<path style="fill:#FFE1C5;" d="M1810.248,1352.556c-18.334,0-35.831-6.437-52.182-19.225
				c-15.953-12.478-30.815-31.02-44.171-55.111c-22.552-40.675-33.263-83.948-33.369-84.38c-0.528-2.165,0.798-4.349,2.963-4.877
				c2.166-0.532,4.348,0.797,4.878,2.962c0.103,0.423,10.601,42.776,32.659,82.511c12.826,23.104,26.979,40.794,42.068,52.58
				c18.461,14.42,38.438,19.949,59.372,16.431c24.441-4.106,43.777-16.792,57.47-37.705c11.14-17.014,18.665-39.496,22.365-66.825
				c6.368-47.029-0.945-92.487-1.02-92.941c-0.361-2.199,1.128-4.275,3.327-4.636c2.201-0.362,4.275,1.126,4.636,3.325
				c0.313,1.894,7.574,46.959,1.077,95.171c-3.849,28.567-11.786,52.206-23.588,70.259c-14.979,22.913-36.152,36.813-62.929,41.311
				C1819.239,1352.173,1814.717,1352.556,1810.248,1352.556z"/>
		</g>
		<g>
			<g>
				<path style="fill:#FFE1C5;" d="M1432.371,1505.592c-0.527,0-1.063-0.104-1.579-0.323c-2.05-0.873-3.005-3.243-2.132-5.293
					c41.398-97.234-3.148-268.137-3.602-269.852c-0.572-2.154,0.712-4.364,2.866-4.935c2.156-0.57,4.364,0.712,4.935,2.866
					c0.115,0.435,11.607,44.14,17.725,99.461c8.247,74.568,3.369,133.656-14.499,175.621
					C1435.433,1504.671,1433.94,1505.592,1432.371,1505.592z"/>
			</g>
			<g>
				<g>
					<g>
						<path style="fill:#FFE1C5;" d="M1398.173,1523.861c9.786-0.98,18.289-6.38,23.008-15.072c1.713-3.154-3.1-5.972-4.814-2.814
							c-3.723,6.856-10.376,11.528-18.194,12.311C1394.636,1518.639,1394.6,1524.219,1398.173,1523.861L1398.173,1523.861z"/>
					</g>
				</g>
				<g>
					<g>
						<path style="fill:#FFE1C5;" d="M1404.753,1535.163c11.04-2.651,19.695-11.807,21.503-23.053
							c0.564-3.51-4.808-5.021-5.377-1.482c-1.518,9.44-8.275,16.918-17.609,19.159
							C1399.783,1530.624,1401.26,1536.001,1404.753,1535.163L1404.753,1535.163z"/>
					</g>
				</g>
				<g>
					<g>
						<path style="fill:#FFE1C5;" d="M1414.457,1543.231c9.342-3.299,16.187-16.75,12.953-26.234
							c-1.151-3.377-6.539-1.927-5.376,1.482c2.159,6.333-2.569,17.084-9.058,19.376
							C1409.614,1539.041,1411.061,1544.43,1414.457,1543.231L1414.457,1543.231z"/>
					</g>
				</g>
				<g>
					<g>
						<path style="fill:#FFE1C5;" d="M1427.404,1547.198c9.893-5.716,9.203-17.453,6.775-27.131
							c-0.873-3.478-6.252-2.005-5.377,1.482c1.78,7.094,3.308,16.49-4.212,20.834
							C1421.484,1544.178,1424.288,1548.998,1427.404,1547.198L1427.404,1547.198z"/>
					</g>
				</g>
				<g>
					<circle style="fill:#FFE1C5;" cx="1426.984" cy="1508.489" r="14.125"/>
				</g>
			</g>
		</g>
		<g>
			<g>
				<path style="fill:#FFE1C5;" d="M1206.693,1554.704c-0.605,0-1.22-0.132-1.803-0.41c-2.087-0.997-2.969-3.497-1.972-5.583
					c24.266-50.767,23.372-120.89,18.351-170.776c-5.472-54.358-16.911-97.145-17.026-97.571c-0.602-2.233,0.719-4.531,2.952-5.134
					c2.229-0.605,4.531,0.718,5.133,2.951c0.117,0.431,11.71,43.769,17.259,98.78c7.483,74.172,1.052,133.172-19.113,175.361
					C1209.755,1553.825,1208.255,1554.704,1206.693,1554.704z"/>
			</g>
			<g>
				<g>
					<g>
						<path style="fill:#FFE1C5;" d="M1169.326,1573.506c10.351-1.138,19.613-6.455,25.046-15.465
							c1.927-3.197-3.073-6.108-4.996-2.92c-4.3,7.132-11.797,11.693-20.05,12.6
							C1165.665,1568.123,1165.624,1573.913,1169.326,1573.506L1169.326,1573.506z"/>
					</g>
				</g>
				<g>
					<g>
						<path style="fill:#FFE1C5;" d="M1176.189,1584.643c11.462-2.727,21.299-11.623,23.582-23.416
							c0.704-3.638-4.871-5.195-5.579-1.538c-1.921,9.925-9.886,17.078-19.541,19.375
							C1171.03,1579.926,1172.563,1585.506,1176.189,1584.643L1176.189,1584.643z"/>
					</g>
				</g>
				<g>
					<g>
						<path style="fill:#FFE1C5;" d="M1186.528,1592.489c9.476-3.188,17.862-16.585,14.366-26.48
							c-1.232-3.487-6.823-1.985-5.579,1.538c2.376,6.727-3.745,17.149-10.325,19.363
							C1181.48,1588.091,1182.986,1593.681,1186.528,1592.489L1186.528,1592.489z"/>
					</g>
				</g>
				<g>
					<g>
						<path style="fill:#FFE1C5;" d="M1200.42,1596.189c10.326-5.619,10.302-17.165,7.736-27.254
							c-0.917-3.606-6.498-2.078-5.579,1.538c1.914,7.525,2.854,16.404-5.077,20.721
							C1194.229,1592.974,1197.146,1597.971,1200.42,1596.189L1200.42,1596.189z"/>
					</g>
				</g>
				<g>
					<path style="fill:#FFE1C5;" d="M1185.739,1560.754c-1.629-7.562,3.763-15.138,12.044-16.922
						c8.28-1.783,16.313,2.901,17.942,10.463c1.629,7.562-3.764,15.138-12.044,16.922S1187.368,1568.316,1185.739,1560.754z"/>
				</g>
			</g>
		</g>
		<g>
			<path style="fill:#FFE1C5;" d="M1682.24,1451.773c-0.527,0-1.064-0.104-1.579-0.323c-2.051-0.873-3.006-3.243-2.132-5.293
				c21.558-50.635,19.466-121.187,13.915-171.455c-6.046-54.747-17.404-97.967-17.518-98.397c-0.571-2.155,0.712-4.364,2.866-4.935
				c2.152-0.571,4.364,0.712,4.935,2.866c0.116,0.435,11.607,44.14,17.726,99.462c8.248,74.568,3.37,133.655-14.498,175.62
				C1685.302,1450.853,1683.809,1451.773,1682.24,1451.773z"/>
		</g>
		<g>
			<g>
				<g>
					<path style="fill:#FFE1C5;" d="M1648.042,1470.042c9.786-0.98,18.289-6.38,23.008-15.072c1.713-3.154-3.1-5.972-4.814-2.814
						c-3.723,6.856-10.376,11.528-18.194,12.311C1644.505,1464.821,1644.469,1470.4,1648.042,1470.042L1648.042,1470.042z"/>
				</g>
			</g>
			<g>
				<g>
					<path style="fill:#FFE1C5;" d="M1654.622,1481.344c11.04-2.651,19.695-11.808,21.503-23.053
						c0.564-3.51-4.807-5.021-5.377-1.482c-1.518,9.44-8.275,16.918-17.609,19.159
						C1649.652,1476.805,1651.129,1482.183,1654.622,1481.344L1654.622,1481.344z"/>
				</g>
			</g>
			<g>
				<g>
					<path style="fill:#FFE1C5;" d="M1664.326,1489.412c9.342-3.299,16.187-16.75,12.953-26.234
						c-1.151-3.377-6.539-1.927-5.376,1.482c2.159,6.333-2.569,17.084-9.058,19.376
						C1659.483,1485.223,1660.93,1490.611,1664.326,1489.412L1664.326,1489.412z"/>
				</g>
			</g>
			<g>
				<g>
					<path style="fill:#FFE1C5;" d="M1677.273,1493.38c9.893-5.716,9.203-17.453,6.775-27.131c-0.873-3.478-6.251-2.005-5.377,1.482
						c1.78,7.094,3.308,16.49-4.212,20.834C1671.353,1490.359,1674.157,1495.18,1677.273,1493.38L1677.273,1493.38z"/>
				</g>
			</g>
			<g>
				
					<ellipse transform="matrix(0.5424 -0.8401 0.8401 0.5424 -454.7448 2074.5034)" style="fill:#FFE1C5;" cx="1676.853" cy="1454.671" rx="14.125" ry="14.125"/>
			</g>
		</g>
		<g>
			<path style="fill:#F2D0A7;" d="M1901.283,1146.178l-693.13,149.291c-9.893,2.131-19.731-4.22-21.862-14.113l0,0
				c-2.131-9.893,4.22-19.731,14.113-21.862l693.131-149.291c9.893-2.131,19.731,4.22,21.862,14.113v0
				C1917.527,1134.209,1911.177,1144.047,1901.283,1146.178z"/>
		</g>
		<g>
			<g>
				<path style="fill:#D39776;" d="M1889.046,1433.958c7.777,49.9-0.919,101.673-24.438,146.346c-1.531,2.909,2.88,5.496,4.415,2.58
					c24.211-45.987,32.955-98.95,24.954-150.286C1893.471,1429.357,1888.544,1430.733,1889.046,1433.958L1889.046,1433.958z"/>
			</g>
		</g>
		<g>
			<g>
				<path style="fill:#D39776;" d="M1918.451,1430.278c2.762,49.285,5.11,103.502-26.349,145.007
					c-1.987,2.622,2.45,5.172,4.415,2.58c31.978-42.19,29.855-97.476,27.047-147.588
					C1923.38,1427.006,1918.266,1426.985,1918.451,1430.278L1918.451,1430.278z"/>
			</g>
		</g>
		<g>
			<g>
				<path style="fill:#D39776;" d="M1875.598,1465.989c12.346,1.556,24.716,2.902,37.111,4.003
					c11.092,0.985,22.323,2.192,33.18-0.978c3.152-0.92,1.811-5.856-1.359-4.93c-10.991,3.21-22.566,1.638-33.777,0.62
					c-11.74-1.066-23.458-2.353-35.154-3.827C1872.342,1460.466,1872.372,1465.582,1875.598,1465.989L1875.598,1465.989z"/>
			</g>
		</g>
		<g>
			<g>
				<path style="fill:#D39776;" d="M1820.713,1484.053c37.96,14.913,79.135,16.296,119.398,17.413c3.291,0.091,3.289-5.021,0-5.113
					c-39.849-1.106-80.471-2.471-118.039-17.231C1819.009,1477.919,1817.68,1482.861,1820.713,1484.053L1820.713,1484.053z"/>
			</g>
		</g>
		<g>
			<g>
				<path style="fill:#D39776;" d="M1865.714,1530.23c19.843,5.592,40.4,7.779,60.974,6.449c3.267-0.211,3.291-5.325,0-5.113
					c-20.158,1.304-40.169-0.786-59.615-6.266C1863.901,1524.406,1862.547,1529.338,1865.714,1530.23L1865.714,1530.23z"/>
			</g>
		</g>
		<g>
			<g>
				<path style="fill:#D39776;" d="M1775.465,1525.719c4.563,36.697-5.165,73.979-27.098,103.755
					c-1.953,2.652,2.482,5.204,4.415,2.581c22.382-30.386,32.453-68.882,27.796-106.335
					C1780.177,1522.497,1775.059,1522.457,1775.465,1525.719L1775.465,1525.719z"/>
			</g>
		</g>
		<g>
			<g>
				<path style="fill:#D39776;" d="M1747.93,1548.026c-2.889,25.765-15.986,48.604-28.753,70.638
					c-1.653,2.852,2.764,5.429,4.415,2.58c13.277-22.914,26.45-46.455,29.451-73.219
					C1753.409,1544.761,1748.294,1544.787,1747.93,1548.026L1747.93,1548.026z"/>
			</g>
		</g>
		<g>
			<g>
				<path style="fill:#D39776;" d="M1708.358,1599.416c25.559,8.474,52.553,11.533,79.359,8.963c3.246-0.311,3.279-5.427,0-5.113
					c-26.397,2.531-52.828-0.434-78-8.78C1706.587,1593.448,1705.245,1598.384,1708.358,1599.416L1708.358,1599.416z"/>
			</g>
		</g>
		<g>
			<g>
				<path style="fill:#D39776;" d="M1733.893,1575.966c23.38,7.207,47.914,9.523,72.226,6.76c3.232-0.367,3.269-5.484,0-5.113
					c-23.899,2.716-47.878,0.51-70.867-6.577C1732.101,1570.065,1730.753,1574.998,1733.893,1575.966L1733.893,1575.966z"/>
			</g>
		</g>
		<g>
			<g>
				<path style="fill:#D39776;" d="M1526.228,1439.723c0.601,29.466,1.011,60.479-13.197,87.218
					c-1.543,2.904,2.869,5.49,4.415,2.581c14.662-27.593,14.516-59.367,13.895-89.799
					C1531.273,1436.438,1526.16,1436.427,1526.228,1439.723L1526.228,1439.723z"/>
			</g>
		</g>
		<g>
			<g>
				<path style="fill:#D39776;" d="M1552.233,1439.663c-0.546,37.285-1.452,76.688-21.168,109.614
					c-1.694,2.83,2.724,5.403,4.415,2.58c20.186-33.712,21.307-74.005,21.866-112.195
					C1557.394,1436.371,1552.281,1436.37,1552.233,1439.663L1552.233,1439.663z"/>
			</g>
		</g>
		<g>
			<g>
				<path style="fill:#D39776;" d="M1580.992,1489.864c0.39,29.982-9.213,59.164-27.214,83.131c-1.976,2.632,2.46,5.183,4.415,2.58
					c18.502-24.634,28.313-54.916,27.912-85.712C1586.062,1486.577,1580.949,1486.568,1580.992,1489.864L1580.992,1489.864z"/>
			</g>
		</g>
		<g>
			<g>
				<path style="fill:#D39776;" d="M1507.271,1480.781c27.88,20.093,59.824,33.975,93.532,40.663
					c3.213,0.638,4.589-4.289,1.359-4.93c-33.327-6.613-64.747-20.283-92.311-40.148
					C1507.178,1474.44,1504.623,1478.873,1507.271,1480.781L1507.271,1480.781z"/>
			</g>
		</g>
		<g>
			<g>
				<path style="fill:#D39776;" d="M1504.254,1499.289c28.193,25.803,65.236,40.537,103.458,41.087c3.291,0.047,3.292-5.065,0-5.113
					c-36.85-0.53-72.651-14.703-99.842-39.589C1505.446,1493.456,1501.82,1497.062,1504.254,1499.289L1504.254,1499.289z"/>
			</g>
		</g>
		<g>
			<g>
				<path style="fill:#D39776;" d="M1513.396,1445.201c23.681,20.05,53.12,31.921,84.093,33.865c3.286,0.206,3.273-4.907,0-5.113
					c-29.535-1.854-57.889-13.243-80.478-32.368C1514.515,1439.472,1510.881,1443.071,1513.396,1445.201L1513.396,1445.201z"/>
			</g>
		</g>
		<g>
			<g>
				<path style="fill:#D39776;" d="M1588.475,1264.949c2.491,24.303-0.264,48.63-8.154,71.752c-1.065,3.121,3.872,4.461,4.93,1.359
					c8.021-23.506,10.87-48.403,8.337-73.111C1593.256,1261.708,1588.14,1261.674,1588.475,1264.949L1588.475,1264.949z"/>
			</g>
		</g>
		<g>
			<g>
				<path style="fill:#D39776;" d="M1616.358,1262.869c0.265,17.895,0.573,36.046-1.013,53.89
					c-1.633,18.369-8.887,33.704-17.852,49.539c-1.623,2.867,2.792,5.447,4.415,2.581c8.723-15.408,16.099-30.507,18.165-48.309
					c2.207-19.02,1.681-38.588,1.398-57.701C1621.422,1259.582,1616.31,1259.572,1616.358,1262.869L1616.358,1262.869z"/>
			</g>
		</g>
		<g>
			<g>
				<path style="fill:#D39776;" d="M1565.916,1288.335c23.222,9.676,48.39,13.578,73.453,11.417c3.253-0.281,3.283-5.396,0-5.113
					c-24.67,2.127-49.238-1.711-72.093-11.234C1564.241,1282.141,1562.918,1287.086,1565.916,1288.335L1565.916,1288.335z"/>
			</g>
		</g>
		<g>
			<g>
				<path style="fill:#D39776;" d="M1544.13,1305.786c19.274,8.355,39.547,13.48,60.482,15.239c3.279,0.275,3.26-4.839,0-5.113
					c-19.974-1.679-39.508-6.567-57.902-14.541C1543.723,1300.077,1541.116,1304.48,1544.13,1305.786L1544.13,1305.786z"/>
			</g>
		</g>
		<g>
			<g>
				<path style="fill:#D39776;" d="M1821.877,1200.496c-0.079,23.459-6.755,46.2-19.323,66.005
					c-1.768,2.786,2.655,5.354,4.415,2.581c13.028-20.533,19.938-44.272,20.021-68.586
					C1827.001,1197.206,1821.888,1197.201,1821.877,1200.496L1821.877,1200.496z"/>
			</g>
		</g>
		<g>
			<g>
				<path style="fill:#D39776;" d="M1841.947,1196.445c1.75,21.58-3.856,42.824-16.039,60.724c-1.856,2.727,2.572,5.288,4.415,2.58
					c12.633-18.56,18.551-40.926,16.737-63.305C1846.796,1193.188,1841.681,1193.16,1841.947,1196.445L1841.947,1196.445z"/>
			</g>
		</g>
		<g>
			<g>
				<path style="fill:#D39776;" d="M1793.768,1209.377c20.562,9.395,42.913,13.596,65.484,12.079c3.265-0.22,3.29-5.334,0-5.113
					c-21.635,1.454-43.167-2.363-62.904-11.381C1793.378,1203.605,1790.776,1208.01,1793.768,1209.377L1793.768,1209.377z"/>
			</g>
		</g>
		<g>
			<g>
				<path style="fill:#D39776;" d="M1798.294,1229.399c23.932,7.948,49.099,11.239,74.27,9.707c3.269-0.199,3.292-5.313,0-5.113
					c-24.757,1.507-49.371-1.707-72.91-9.524C1796.523,1223.43,1795.181,1228.366,1798.294,1229.399L1798.294,1229.399z"/>
			</g>
		</g>
		<g>
			<g>
				<path style="fill:#D39776;" d="M1757.466,1195.388c0.419,4.606,0.184,9.129-0.807,13.65c-0.703,3.207,4.224,4.577,4.93,1.359
					c1.088-4.96,1.45-9.948,0.99-15.009C1762.284,1192.138,1757.168,1192.107,1757.466,1195.388L1757.466,1195.388z"/>
			</g>
		</g>
		<g>
			<g>
				<path style="fill:#D39776;" d="M1531.547,1257.049c-1.671,4.443-3.342,8.887-5.013,13.33c-1.159,3.083,3.781,4.415,4.93,1.359
					c1.671-4.443,3.342-8.887,5.013-13.33C1537.637,1255.325,1532.697,1253.993,1531.547,1257.049L1531.547,1257.049z"/>
			</g>
		</g>
		<g>
			<g>
				<path style="fill:#D39776;" d="M1658.865,1538.784c-1.054,2.029-2.109,4.057-3.163,6.086c-1.515,2.916,2.895,5.504,4.415,2.581
					c1.054-2.029,2.109-4.057,3.163-6.086C1664.795,1538.449,1660.385,1535.86,1658.865,1538.784L1658.865,1538.784z"/>
			</g>
		</g>
		<g>
			<g>
				<path style="fill:#D39776;" d="M1605.37,1612.965c-2.679,6.846-6.661,12.944-11.764,18.227
					c-2.287,2.367,1.324,5.987,3.615,3.615c5.741-5.943,10.07-12.794,13.079-20.483
					C1611.499,1611.259,1606.557,1609.93,1605.37,1612.965L1605.37,1612.965z"/>
			</g>
		</g>
		<g>
			<g>
				<path style="fill:#D39776;" d="M1506.375,1582.688c-2.63,4.487-5.26,8.975-7.891,13.463c-1.667,2.845,2.75,5.421,4.415,2.58
					c2.63-4.488,5.26-8.975,7.891-13.463C1512.457,1582.423,1508.04,1579.848,1506.375,1582.688L1506.375,1582.688z"/>
			</g>
		</g>
		<g>
			<g>
				<path style="fill:#D39776;" d="M1793.517,1411.519c-1.784,5.502-4.138,10.699-7.069,15.684c-1.671,2.842,2.746,5.418,4.415,2.58
					c3.148-5.354,5.669-10.998,7.584-16.906C1799.464,1409.741,1794.529,1408.398,1793.517,1411.519L1793.517,1411.519z"/>
			</g>
		</g>
		<g>
			<g>
				<path style="fill:#D39776;" d="M1747.566,1382.924c-1.075,2.706-2.15,5.411-3.225,8.117c-0.51,1.283,0.558,2.807,1.785,3.145
					c1.454,0.399,2.633-0.497,3.145-1.786c1.075-2.706,2.15-5.412,3.226-8.118c0.51-1.283-0.558-2.807-1.785-3.144
					C1749.256,1380.739,1748.078,1381.636,1747.566,1382.924L1747.566,1382.924z"/>
			</g>
		</g>
		<g>
			<g>
				<path style="fill:#D39776;" d="M1631.066,1419.049c-1.363,2.386-2.727,4.772-4.09,7.158c-1.635,2.861,2.781,5.44,4.415,2.58
					c1.363-2.386,2.727-4.772,4.09-7.158C1637.116,1418.769,1632.7,1416.19,1631.066,1419.049L1631.066,1419.049z"/>
			</g>
		</g>
		<g>
			<g>
				<path style="fill:#D39776;" d="M1892.485,1375.348c0,1.363,0,2.727,0,4.09c0,1.337,1.176,2.618,2.556,2.556
					c1.385-0.062,2.556-1.123,2.556-2.556c0-1.363,0-2.727,0-4.09c0-1.337-1.176-2.618-2.556-2.556
					C1893.656,1372.854,1892.485,1373.915,1892.485,1375.348L1892.485,1375.348z"/>
			</g>
		</g>
		<g>
			<g>
				<path style="fill:#D39776;" d="M1834.292,1523.958c-0.341,1.704-0.682,3.408-1.023,5.113c-0.271,1.353,0.387,2.76,1.786,3.145
					c1.259,0.346,2.872-0.425,3.144-1.786c0.341-1.704,0.682-3.408,1.023-5.113c0.271-1.353-0.387-2.76-1.785-3.145
					C1836.177,1521.827,1834.564,1522.598,1834.292,1523.958L1834.292,1523.958z"/>
			</g>
		</g>
		<g>
			<g>
				<path style="fill:#D39776;" d="M1841.085,1605.655c-0.341,0.341-0.682,0.682-1.022,1.022c-0.947,0.947-1.017,2.681,0,3.615
					c1.021,0.937,2.605,1.01,3.615,0c0.341-0.341,0.682-0.682,1.023-1.022c0.947-0.947,1.017-2.681,0-3.615
					C1843.679,1604.718,1842.095,1604.644,1841.085,1605.655L1841.085,1605.655z"/>
			</g>
		</g>
		<g>
			<g>
				<path style="fill:#D39776;" d="M1940.27,1571.911c-0.341,0.341-0.682,0.682-1.022,1.023c-0.947,0.947-1.017,2.681,0,3.615
					c1.02,0.937,2.605,1.01,3.615,0c0.341-0.341,0.682-0.682,1.023-1.023c0.947-0.947,1.017-2.681,0-3.615
					C1942.865,1570.975,1941.28,1570.901,1940.27,1571.911L1940.27,1571.911z"/>
			</g>
		</g>
	</g>
	<g>
		<g>
			<path style="fill:#EDF4FC;" d="M2081.888,1920.632c-65.145-1.718-137.131-5.195-219.067-10.092
				c-24.469-1.472-49.838-3.057-76.168-4.765c-34.786-2.26-71.26-4.724-109.625-7.383c-30.962-2.137-63.151-4.397-96.66-6.769
				c-60.145-4.254-135.322-5.716-218.116-5.46c-33.171,0.092-67.569,0.47-102.703,1.053c-57.098,0.931-116.17,2.413-175.159,4.141
				c-73.96,2.137-147.786,4.673-217.42,6.984c-31.923,1.053-62.957,2.066-92.723,2.976c-13.978,0.43-27.67,0.828-41.034,1.207
				c-47.466,1.329-90.893,2.301-128.511,2.648c-30.43,0.286-59.869-3.906-87.764-11.974
				c-135.189-39.02-234.241-168.911-234.241-321.616v-198.647c47.159,5.92,113.583,24.868,171.693,80.494
				c44.286,42.374,83.735,106.057,106.128,201.51c0,0,64.338-46.045,127.141-18.671c14.131,6.156,28.181,16.033,41.412,30.993
				c0,0,12.495-8.109,34.132-19.561c35.533-18.784,95.719-46.556,165.834-62.159c39.889-8.896,83.009-13.845,126.609-10.951
				c5.164,0.337,10.328,0.787,15.491,1.36c46.27,5.082,92.733,19.459,136.14,47.783c0.399,0.266,0.777,0.511,1.176,0.777h0.01
				c1.677,1.104,3.354,2.239,5.021,3.395c1.125,0.767,2.239,1.544,3.364,2.342c0.123,0.082,0.245,0.174,0.368,0.256
				c2.066,1.472,4.131,2.975,6.176,4.52c25.471,19.05,49.705,43.284,72.017,73.694c0,0,122.775-49.705,145.588,92.416v0.01
				c0.92,5.644,1.657,11.575,2.239,17.843c0,0,30.584-14.632,70.708-22.117c19.418-3.63,41.065-5.583,62.548-3.405
				c37.271,3.773,74.062,19.97,97.958,61.464c0,0,55.217-26.954,92.334-18.211c8.221,1.943,15.553,5.634,21.187,11.759
				c3.722,4.019,6.698,9.09,8.733,15.41c0,0,56.331-5.818,119.237-3.18c23.938,0.992,48.816,3.221,71.904,7.444
				c6.156,1.115,12.189,2.382,18.037,3.814C2042.388,1880.856,2071.908,1895.887,2081.888,1920.632z"/>
		</g>
	</g>
	<g>
		<g>
			<path style="fill:#F7B686;" d="M1500.919,1195.95c-0.828,9.357-6.693,27.85-7.704,37.207c-0.438,4.057-3.196,9.384-7.336,9.882
				c-3.598,0.433-6.513-2.495-7.384-8.091c-21.829,27.203-31.303,16.873-18.851-1.372c-0.025-0.015-0.051-0.032-0.075-0.048
				c-3.896,4.59-16.876,20.082-22.557,12.508c-4.161-5.548,4.784-14.291,11.116-21.901c-0.06-0.059-0.12-0.118-0.18-0.177
				c-7.069,7.25-27.915,26.471-32.17,21.382c-5.599-6.697,22.007-31.787,22.007-31.787s-24.913,22.686-27.792,12.863
				c-1.623-5.538,14.837-17.871,23.266-26.522l0,0c0.001-0.001,0.002-0.002,0.003-0.003c1.767-1.813,3.323-3.394,4.474-4.602
				c0.956-1.003,1.905-1.798,2.847-2.442c14.938-13.666,26.658-20.214,26.658-20.214s12.563-9.966,25.281-0.029
				C1500.627,1178.938,1501.278,1191.894,1500.919,1195.95z"/>
		</g>
	</g>
	<g>
		<g>
			<path style="fill:#79A39B;" d="M1755.541,951.267c0,0-91.994-22.07-288.129,205.803c-5.701,6.623-5.167,16.616,1.226,22.474
				l25.417,23.29c10.951,10.035,27.648,10.084,38.77,0.1c37.562-33.722,121.891-104.749,178.855-117.304
				C1786.888,1069.053,1755.541,951.267,1755.541,951.267z"/>
		</g>
	</g>
	<g>
		<g>
			<path style="fill:#DEEBE9;" d="M1775.408,952.291l-19.867-1.024c0,0-5.635,8.62,2.963,13.844
				c8.597,5.224,10.463,5.671,11.8,13.263c1.337,7.592,12.866,10.674,17.516,9.26c4.65-1.414,9.651,9.27,16.264,10.857
				c6.614,1.587,13.965-8.218,13.164-16.254C1817.248,982.238,1792.614,971.789,1775.408,952.291z"/>
		</g>
	</g>
	<g>
		<g>
			<path style="fill:#5C8980;" d="M1612.725,1136.81c5.569-4.698,12.335-8.031,18.671-11.566
				c6.228-3.475,12.513-6.847,18.851-10.117c12.678-6.54,25.576-12.639,38.648-18.351c1.372-0.599,0.186-2.609-1.177-2.014
				c-13.666,5.971-27.139,12.371-40.375,19.245c-12.099,6.284-25.798,12.324-36.266,21.154
				C1609.927,1136.13,1611.584,1137.772,1612.725,1136.81L1612.725,1136.81z"/>
		</g>
	</g>
</g>
</svg>
